<svg width="120" height="120" viewBox="0 0 120 120" fill="none" xmlns="http://www.w3.org/2000/svg">
<g clip-path="url(#clip0_416_344)">
<path d="M60 120C93.1371 120 120 93.1371 120 60C120 26.8629 93.1371 0 60 0C26.8629 0 0 26.8629 0 60C0 93.1371 26.8629 120 60 120Z" fill="#0046AE"/>
<path d="M45.8212 96.5352H73.0889V91.569H45.8212V96.5352Z" fill="#FCBD1F"/>
<path d="M93.1389 41.0942C94.291 41.0942 95.225 40.1602 95.225 39.008C95.225 37.8559 94.291 36.9219 93.1389 36.9219C91.9867 36.9219 91.0527 37.8559 91.0527 39.008C91.0527 40.1602 91.9867 41.0942 93.1389 41.0942Z" fill="#00B3DD"/>
<path d="M98.3996 65.3911C99.5518 65.3911 100.486 64.4571 100.486 63.3049C100.486 62.1528 99.5518 61.2188 98.3996 61.2188C97.2475 61.2188 96.3135 62.1528 96.3135 63.3049C96.3135 64.4571 97.2475 65.3911 98.3996 65.3911Z" fill="#00B3DD"/>
<path d="M59.3908 27.5981C60.543 27.5981 61.477 26.6641 61.477 25.5119C61.477 24.3598 60.543 23.4258 59.3908 23.4258C58.2387 23.4258 57.3047 24.3598 57.3047 25.5119C57.3047 26.6641 58.2387 27.5981 59.3908 27.5981Z" fill="#FCBD1F"/>
<path d="M26.8615 41.0942C28.0137 41.0942 28.9477 40.1602 28.9477 39.008C28.9477 37.8559 28.0137 36.9219 26.8615 36.9219C25.7094 36.9219 24.7754 37.8559 24.7754 39.008C24.7754 40.1602 25.7094 41.0942 26.8615 41.0942Z" fill="#FFAA3B"/>
<path d="M21.5998 65.3911C22.752 65.3911 23.686 64.4571 23.686 63.3049C23.686 62.1528 22.752 61.2188 21.5998 61.2188C20.4477 61.2188 19.5137 62.1528 19.5137 63.3049C19.5137 64.4571 20.4477 65.3911 21.5998 65.3911Z" fill="#FFAA3B"/>
<path d="M40.2826 71.6695L28.4488 42.168L73.0888 87.011H45.8026L24.2949 65.411L40.2826 71.6695Z" fill="url(#paint0_linear_416_344)"/>
<path d="M90.4613 42.168L78.7751 71.2818L95.1505 64.8572L73.1074 87.011H45.8213L90.4613 42.168Z" fill="url(#paint1_linear_416_344)"/>
<path d="M59.3911 61.3282C56.6584 55.0485 51.6437 50.0404 45.3604 47.3159C51.6417 44.5793 56.6545 39.5665 59.3911 33.2852C62.1156 39.5685 67.1237 44.5832 73.4034 47.3159C67.1207 50.0349 62.1101 55.0455 59.3911 61.3282Z" fill="#FCBD1F"/>
<path d="M119.809 116.602L83.4278 107.879L109.173 80.7335L119.809 116.602Z" fill="#0046AE"/>
</g>
<defs>
<linearGradient id="paint0_linear_416_344" x1="53.6303" y1="79.7741" x2="28.818" y2="56.9557" gradientUnits="userSpaceOnUse">
<stop stop-color="#FF621F"/>
<stop offset="1" stop-color="#FFD04A"/>
</linearGradient>
<linearGradient id="paint1_linear_416_344" x1="89.2613" y1="52.0264" x2="62.8059" y2="85.7187" gradientUnits="userSpaceOnUse">
<stop stop-color="#00CAE7"/>
<stop offset="1" stop-color="#0046AE"/>
</linearGradient>
<clipPath id="clip0_416_344">
<rect width="120" height="120" fill="white"/>
</clipPath>
</defs>
</svg>
