<svg id="banner_bottom_right" xmlns="http://www.w3.org/2000/svg" viewBox="0 0 807.32 249.87"><defs><style>.cls-1{fill:#fcbd1f;}</style></defs><title>形象輪播_右下</title><g id="圖層_2" data-name="圖層 2"><g id="圖層_1-2" data-name="圖層 1"><path class="cls-1" d="M805.31,32.54c-1-.35-2.88.33-3.9.57a64.64,64.64,0,0,1-12,2.22,5.48,5.48,0,0,1-4.34-1.47c-2.36.54-5,1.3-4.74-.25-1.4,1-2.13.75-4.34,1.08,1,1.43,2.6.34,4.53.86,5.23,1.42,2.78,5.28-.69,8.6A31.23,31.23,0,0,0,774.58,46c-1-.07-1.55-.55-1.61-1.39,4.74,1.09,7-3.28,4.49-4.79-1.17.1-1,.7-2.39.72-.65,0-.81-.34-1.51-.28,1.13-1,.68-1.12,1.25-2.49a5,5,0,0,1-2,.08c4.87-2.62-1.76-2.86-2.85-4.27-.66.55-2.5.73-2.48-.11.63-1,1.93,0,3.39-.63,0-.51-.64-.48-.58-1-.67.56-2.46.7-3.86,1-.12-.85,1.46-1.08.8-2.12a4.18,4.18,0,0,0-2,.08c.53-1,.27-1.15-.64-1.58.33-.77,1.93-1.08,2.8-1.65-.26-2.32-1-2.59-.44-4.72-.65-.17-1.81.05-2.47-.11.07-.51.78-.79,1.89-.91.07-.76-1.9.12-1.56-.85-1.22.44-2.19.83-2.94.26,1.87.41,2.39-3.94-1.21-2.6.08,1.17,1.77,1.27.25,2.78-1.68-.76-2.93-.87-3.62-1.87,2.52-.87,2.92-3-.72-2.41.19-.91,1.36-1.47,1.76-2.31-.11-.31-.9-.07-1.48,0-.27-.55.65-.65,1.4-.82,0-.8-1.51-.38-1.58-1.12,1.24-1,1.27.5,3,0-2.27-.86-2.46-3.4-3.9-4.93-1.14.22-1.47-.21-2.93.26-.31-.83.49-1.24,1.33-1.65-1.73-.62-.35-2.25-2.71-2.61-1.33.53.25,1.15.16,1.66-1.51.42-2,0-2.5-.38-1.26,1.33,2.24,1.38,3.13,2-2.17.95-2.76,3.66-1.52,4.8-1.14.75-3.27,1.12-4.76,1.73,0-.27.57-.32.94-.45-.21-1-1.93-.84-2.14-1.87-.78.07-.8.42-1.43.55-1.33-.09-.13-1.45-.18-1.95-.36.48-2.06,2-1.93.36-4.08.24-6,2.76-8.69,1.89,1.11.87.33,2.08-1.8,1.75,1.11.7.78.69.15,1.66,1.93,0,3.28-1.46,3.9-.44-.2.83-3.95.34-2.81,1.66-2,.36-2.61-.3-4.43,0,.1-.94,1-1.59,1.76-2.3-.4-.42-3,1.51-4.35.81.36-1,.89-.31,2.4-.73.66-.63-.41-1,.81-1.84-1.22-.78-1.06,1.19-1.84,1.47-1.3.44.23-1.38-1.07-.94,1.07-1.26,1.58-1.07,2.75-2.2-1.4,0-2.13-1.61-3-.3-1.65.05-.29-.47-.61-1.3L726.87,9c-1.68-1.45-3,1.46-5.27,1.55-.31-.83.31-1.32,1.83-1.47-.95-.32.51-.92-.6-1.3-.83.24.52.78-.88,1.29-1.78.63-.86-.9-2.49-.39-.22.63-1.3,1.15-.36,1.48-3.15.35-2.35,2.17-5.68,2.45a14.34,14.34,0,0,1,2.65-3.31c.67,0,.47.63.58,1,.71-.28,1.19-.63,1.9-.91-.19-.55-2.16.32-2-.48,1.25,0,.51-1.59,2.27-2.11-1-.85-.93-1-.71-2.41-.57.68-2,1-2.8,1.64.11.71,1.92.06,2,.76-1.06.59-2,1-.39,1.2-.45.62-3.76.75-1.83,1.46a15.65,15.65,0,0,0-3.85,1,3.36,3.36,0,0,1-1.54,4.79c2-.28,3.95-.57,4,.68-.05.35-.86.4-1.43.55a1.17,1.17,0,0,0,.61,1.3c1.71-.77,2.35-.38,3.85-1,.28-.83-1-.39-1.07-.94,1.68-1.76,5.16-.54,6.86-.41-1.56.59-2.41,1.64-5.2,2.37-.05,1.16.66-.17,2-.08.28.92-1.37,1.1-1.81,1.74-1.65,0-.11-.61-1.07-.93a5.88,5.88,0,0,0-3.57,4c-1.58-.14-2.14.29-3.88.7,1.54.48,0,1.74.27,3.06-1.33.07-1.31-.94-3-.58.43-1.22-1.77-1.87.26-2.59a2.7,2.7,0,0,0-2-.21c.25,1-.4,1.64-.78,2.4a11.16,11.16,0,0,0-5.35.68c-.71-1,1.07-1,2.35-1.27-.85,0-1.47-.75-.61-1.2-1.66.47-4.47-.08-5.27,1.42-.49.22-.24-1.49.33-1.75a16.87,16.87,0,0,0-4.45-.33c-.05-.55,1.29-.59.87-1.29-1.85.72-2.53.32-3.85,1-2.34-.51,1.37-1.77,1.21-3a10.1,10.1,0,0,1,2.95,0c1.74-1-2.32-.41-.61-1.3a4.61,4.61,0,0,0-2.49-.39c.81-.41.7-1.17,2.34-1.27.21-1.05-.3-1.53-1.59-1.41,2.54-1.79,1.76.47,4,.42,0,.09,1.33-2.24-.67-1.89,2.08-.52,4.64-1.29,6.33-.83-.27-1.22.89-1.32,2.25-2.39-1.77.39-1.83.72-3.39.62,0,.27.05.57.08.83-2.74.48-2.35-.36-4.36.79.84-1.27,3.62-2,6.68-2.33.47-.1.34-.41.43-.65s0-.37,0-.55c-.79.06-.81.41-1.43.54-.15-.68,1-.87,1.35-1.37a2,2,0,0,0-1.53-.58c-1.46,1-2.68.56-4.28,1.62-.15.92,2.24-.19,2.5.39-1.12.87-3.53.25-5.35.69-.05-.47-.09-.94-.13-1.39.33-.3,2.73-1.56.39-1.2.52-1.23,1-.11,2.42-.44.59-.44.11-1.09-.61-1.3,1.49-1.67,4.84-.49,4.53,1.15,1.06-1,.61-.71,2.35-1.27.41-1-1.55-.15-2.47-.11.4-.57-.15-1.49,1.33-1.65C698.3,3.28,698,1.8,699,0c-.87.66-1.39,1.44-2.27,2.11-2.29.15-.84-.74-.63-1.58-1.67.27-2.23,1-3.31,1.45-.37,1.08,2.11-.1,2.49.39-.13.4-.81.59-.89,1-1.31,0-1.69-.83-2.57-1.23-1.32.69.78,1.13.2,2.22-1.47.48-1-.59-2.47-.12.8,1.24-2,2.85-4.09,3.85.24.5,1.89-.13,1.55.85-.12,1.21-2.08,1.73-3.21,2.55.22,1.15,1.77-.64,2.46.12-.09-.47.57-1.35,2.81-1.63a32.22,32.22,0,0,0-6,5c.38,1.29,2.73,1,5.45.42.53,0,.38.5,1,.38-.15.65-2.64.75-2.45.16-.54,1.23-2,1.69-3.27,2,.25.3.67.46,1.5.29a4.24,4.24,0,0,1-1.4.82c-1.38,0,.64-.87-.58-1-2.28,1.71-4.73,1.34-7.75,1.41,1.09.4.31,1.48-.82,1.84-2.7.66-5.34-1.25-5.81,1.05,1.38.9,8.73-1.39,7.43.63.88.29,3.51-1.14,4.43.05-.15.57-1.86.56-1.36,1.37-1.87.31-2.32-.53-4.43,0,1.69.37.88,1.82-1.78,2a3.88,3.88,0,0,0,1.5.29c-.83.68-1.2,1.52-2.28,2.11-2.18-.35-4.23-.8-5.12-2.18-.89.2-.21,1-.86,1.29-4,1-3.79-1.35-7-1,0-.34.86-.39,1.42-.54-1.85-.66-3.58-2-2.73-3.17-2.39.36-.26,2.41-2.72,2.75.19.35,1.23,0,2-.07.34.93-.28,1.5-1.31,1.93.18.35,1.23,0,2-.07-1.55,1.85-1.34.53-.29,2.31-1.26.6-2.93,1.05-2.26,2.38-2.43,1.21-4.17,1-7.21,1.88-.47-.71.61-.84.36-1.48-2.27.91-.42,1.77-2.21,2.94-.9.12-.38-.88-1.06-.94a1.37,1.37,0,0,0-.85,1.57c-1,.11-.24-1.19-1.09-1.21a18.6,18.6,0,0,0-2.88.8c-3.25-.43-4.81-2.84-5.8-4.6-1.12.28-2.21,1.1-2-.22-1.24.28-3.87.45-2.37,1-1.65,0-.11-.62-1.07-.94-.9.55-.81,1.48-2.3,1.82-1.19.18-.18-.9.41-.92a9.75,9.75,0,0,0-3.88.69c1.84-1-.5-.64-1,.17a2.64,2.64,0,0,0-2.47-.13c.81-1,1.87-.55,3.85-1-1.19-.43.54-.93,1.36-1.36.09-.68-1.42-.06-1.52-.58-.8,1.55-1.2-.05-2.35,1.26-.69-1.13-1.08-.05-2.08-1.32.07-.24.46-.36.43-.64,2.54.75,5,0,7.36-.18-.1-.21-.51-.19-.53-.47,3-.77,3.9,0,6.88-.09-.06-.92,1.28-1.3,2.81-1.63.52-1-1.59.07-1.07-.94-1.56.11-1.46.79-2.42.43.51-.85,2.53-.44,3.39-.6-.08-.38-.15-.78.41-.92-2.26.63-3.22-1.08-3.21-3.1-1.48,0-2.26-.41-1.59-1.41-1.91.12-2.54.16-3.86,1-.84-.92-5.69.56-4.1-2.1a6.76,6.76,0,0,0-2.93.24c.1.31.9.08,1.47,0,.14.59-.32.95-1.38,1.09.35.71,2.51,0,2.53,1-1.22.82-5,2.21-5.76,1.59-.46.89-1.23,1.24-2.86,1.07.06.47-.3.78-.9,1,.85.89.67-.77,1.91-.62.64.17-1,1.74-2.79,1.9a1,1,0,0,1,.58,1c-2.87.09-4.19,2.1-7.64,2.76-1.64.18,1.21-1.3-1-.66-1,.46.42,1.27-3.3,1.71.41,1-.95,1.25-.8,2.12-1.4.21-2.34.06-2.06-1-1.4-.1-2.88.47-2.81,1.63,1.25-.25.41-1.29,2.35-1.27.33.86-2.61,1.86-3.32,1.44,0-.58-.65.8,1.52.57-2.21,2.25-7.78,1.56-8.49,4.33-1.4-.82-1.42,0-2.95,0a1.45,1.45,0,0,1,.92-.73c-1.22-.13-3.6.77-6.32.84,0-.37-.07-.74-.1-1.11,1-.31,1,.23,1,.66,1.28-.08,1.52-1.91,2.87-1.07-.16,0-.76-2.13-.19-2.22,1.43-1.17,6.93-.36,8.76-1a28.43,28.43,0,0,0-10.3.13c-.65-.07.46-1,.39-1.2.06-.39-2.82.14-1-.66-.48-.74-1.55.44-2.42.43,1.07-1.22,4.16-1.82,3.69-2.91,2-.12,2.23-1,3.82-1.24,1.16,1.06-4.89,2.21-4.13,3.55,1.37-.19,1-1,2.36-1.26,1.1.18-.93,1.42-.82,2.12a6.5,6.5,0,0,0,3.65-3.47c1.18.15.9-.2,2.45-.16-.8-.27-.65-1.14.87-1.28-.85,0-.07-1.32-1.08-1.22,1.43,0,.5-2,1.73-2.85,2.46.6,3.88-.05,6.32-.83,1.23.44-.68.64-.37,1.47.87-.56,2.09-1,1.79-2-1.82-.34-4.53-.88-6.41-.28,0-.62,1.18-.81,2.38-1-1.27-.55-3.61.77-3.29,1.71-2.32-.36-3.24.41-5.38.39.35-.88.7-.44,1.92-.62-.19-.55-1.37-.32-1.55-.86-.63.5-.93,1.56-.35,1.75l-1,.18c-1.5.35,1.17-1-.55-.75-.35-.48,0,.66-.87,1.28-1.21-.27-3-1-4.36.77,1.4-.21,3.16-.71,3.9-.41-2.55.43-5.22,2.75-7.61,3,.48-.71,1.86-1.09,2.3-1.81-1.41-1.1-5.69.45-8.82.16a1.28,1.28,0,0,0,.39-1.21,18.45,18.45,0,0,0-4.36.77c.3-.78,2.26-.94,2.31-1.82-1.44.39-3.93,2.2-4.82,1.14.25-.89,1,.08,1.93-.34-1.63-.95-2-.76-4-.43,2.14.19.87.87.16,1.95-1.47.47-1-.6-2.46-.13-1,1.14-3.84,1.6-4.68,2.81a24.84,24.84,0,0,1,13.56-2.41c-1.15,0-4.1,1.21-6.81.93.21.71-1.86.55-1.35,1.37-4.71.59-7.52,1.78-10.21,1.24-.57.14-.37.58-.42.92-2.36-.41-4,1.11-5.88.18-.8-.94,2.16-.43,1.35-1.37-1.31-.53-1.43.6-2.88.79-1.44,0,.58-.81-.11-1.4a4.61,4.61,0,0,0-3.81,1.51c-5.75.37-7.61,0-5.11-2.49,1.62-.18,2.17.47,3,.89-.35.88-1.57.1-2.42.42.86.72,1.55.19,2.49.41.13-.43.44-.67,1.86-1.17-.17-.35-1.22,0-2,.06.05-.34-.16-.47-.53-.48.65-.89,3-1.25,3.41-.31.29-.85,3.44-1.39,3.41-.31.68-1.51,2.54-2.12,4.75-2-.15.57-1.86.55-1.36,1.37a13.73,13.73,0,0,0,6.74-1.74c-1.38-3.52,11.16-5.12,15.67-6.45-.77-.38-2.08-.33-2.54-1,2.18.54,3.52.44,6.38,0,0-.38-.05-.73-.09-1.11-1.61,1.31-4.33,1.17-4.9,0,1.8-.73,2.85-.4,1.33-1.64,2.1-.78,1.39.68,1.59,1.41,1.59-.81,2.49-1,3.89-.41,1.48-.52.33-2,1.25-2.76-.4-.87-1.37-1.29-3.5-.79,0-.57-.09-1.12-.14-1.67-1.38,0-1.22.61-2.39.7,1.85-1.42-.24-2.31-2.62-2.07-.3.82,1,.38,1.06.94-9.17.81-16.71,4.27-22.54,6.51a7.62,7.62,0,0,0-4.42-.07c0,.47-.3.78-.9,1,.1.31.9.08,1.47,0-2.32,2.32-3.79,2.14-9.08,3-.44-.88,1.94-.69,1.34-1.64-1.11.61-.86.74-2.4.7-.1.47.5.4.55.75-2.42-.44-2.85,1.87-5.3,1.2-1.87.58,1.68.74.08,1.11.26.59,2.39-.3,3.41-.3.09,1.6-3.26.86-4.29,1.58,2.58.24-1.34,1.14.13,1.67-3,.6-3.22-.38-4.82,1.13a1.94,1.94,0,0,1-2-.51c-.24-.44,1.58-1.08,2.21-.85-1.67-1.19-4.57,2.4-8.39,3.35,2.41,1.47,6.51-1.72,10.72-1,2-1.75,3,.28,5.32-.92-.33-.63-1.88-.3-3-.33,1.47-1.46,4.2-.76,6.73-1.73a44.56,44.56,0,0,1-5.58,3.79c-1.48.46-1-.61-2.48-.14,0,.28,0,.56.07.84-2,.55-1.74-.6-3.92.12,2,.25-.17.87.15,1.94-2.8.65-1-.58-2-1-3.68.39-6.12,1.67-9.16,2.15-.66,0-.46-.62-.58-1,1.41.21,3.85.22,4.85-.85-.53.41-5.8.25-3-.88a10.28,10.28,0,0,1-4-.72c0,.51.64.48.57,1-.78.21-.85-.12-1.47,0-.15-1.14,0-1.4.49-1.88a329.59,329.59,0,0,1-49.72,16.3,54.76,54.76,0,0,1,9.53-1A2.52,2.52,0,0,1,464,45.25c-1.42-1.59-5.59,1.94-5.83.72-4.66,2.64-10.58,1.79-15.32,5.15-.66,0,.48-1.3-1.08-1.23.46,1.55-3.93,1.78-5.79,1.27,2.7,1.41-4.64,2.12-6.65,3.11.15.28,1,0,1,.39a4,4,0,0,1-3.91.11c-1.06.13-.15,1-.39,1.47-4.56.51-7.51,3.22-12.52,3.27.42.79-.78,1-.36,1.75-1.29.22-2.86.33-2.87,1.05-.58.19-1.73-.52-.54-.75-.5-.68-.85.89-2.41.69-.8.72.4.48-.4,1.2-1.95-.59-5,1.23-5.88.16-.34,2-2.35,1.84-4.7,2.78.41.56,2.72-.36,3.9-.39.63.88-1,1.6-2.32,1.81,1.24,1.2,3.08-1.43,5.35-.63-.94.72-3.73.72-3.3,2-1.49.29-1.44-.64-3.43,0-1.45,0,1.1-.61.4-1.2a19.18,19.18,0,0,0-3.71,2.89c1.1-.26,1.82-.24,2,.22s-.43.56-.42.92c-2.14-.51-2,.6-4.39.46,1.38.35,1.31,1.5-1.36,1.64-1.36.7,2.5-.19,3.42-.29-2.55,1.47-4.74,1.55-7.7,2.14.15.89-1.05,1.53,1.07,1.23-2.67.89-5.06.83-5.95-.69-1.38.34-3.68,2-4.35,1-.82-.86,1.64-.45,1.4-1.08-1.71-.78-1.8,1.94-3.74,2.6-.58.18-1.73-.53-.55-.76-.84-.4-1.93,1.06-.41,1.2-.86,1-3.79-.28-2.83,1.6-1.33-.16-1.27-1.19-1.57-1.42-1.09.22-4.38,1.18-5.78,1.54.95.69,2.28-.72,3.88-.66.2.53,0,.89-.91,1,1.29.79,1.85-.22,1.92-.6,1.28-.31,1.3.37,1.54.86-8.32,1.57-20.71,6.66-29.94,7.28,1.51,1.73-7.46,3.5-8.66,2.58-.64.39-.56,1-1.38,1.36-1.23-1-1.69.65-3.42.29-1.75.75,2-.39,1,.67-1.22,1.66-2.28-.57-3.88.66.13.28,1,0,1,.39-1.37.93-5.32,1.89-5.39.34-1.15,1.86-.39,2.82-3.16,3.91-1.49.45-1-.61-2.47-.16-.51,1-3,1.6-4.32,1.56-.42,3-6.75,2.2-8.59,3.67-2.95-.48-11.41,1.84-12.58,2.93,1,.73,1.76,0,2.41-.68,1.2.09-.87,1.39,1.53.87-.65-.26-.7-.92-.09-1.39.56.81,2.76-.37,4.37-.72.44.05.89.1,1,.39-.46,1.65-5.85,2.38-6.74,2-.76.36-2.89,1.55-3.86.92-1.77,1,1.87.28,2.94.08,0,.37.05.75.08,1.12-1.3.21-1.11-.71-2.48-.44,2.2,1-1.09,1.22-3.35,1.4.14,1.17,3.75-.34,5.38-.32a4.39,4.39,0,0,1-1.36,1.63c.15-1.56-8.8.48-10.2,1.69-3.82-.41-9.93,2-12.68,1.53.64-.81,1.65-.77,2.9-.76.44-.92-1.11-.32-2-.24-.48-.82.69-1,1.39-1.35.5.94,2.05-.54,2,.51a1.39,1.39,0,0,0,.9-1.28l-2.43.41c.06-.79,2.74-.55,2.36-1.52-5.32,1.49-4.27,1.69-10.65,2.33.65.66,1.92.39,1.07,1.51,1.81.1,2.18-.51,3.45,0a8.33,8.33,0,0,0-.86,1.84c-.56,0-.29-.24,0-.28-1.14-.85-4.09,1.43-4.4.17-.71.75-1,.69-2.42.68,1,.78-2.31,1.41.08,1.11-2.17.45-6.36.76-9.72,1.6,6.38.52-10,3.37-13.07,3-2.69,1.59-10.19,2.11-13.57,2.77-.4.84-2.1,1.18-3.34,1.68-1.46-.14,2.35-1,.4-1.48-.49.63-.85,1.29-2.86,1.32a.93.93,0,0,1,.54.76c-1.66-.38-4.45.16-5.32,1.43-5.13,0-9.81,2.09-14.08,2.58.75.7-2.49,1.77-2.45.12-.82.73-1.65.76-.88,1.55-3.1.31-4.66,1.23-7.77,1.55.19-.76,3.23-1.79,4.35-1.27,1.44-1.13-3.6.23-4-.48l0,.84c-2-.07-3.17.73-6.36.47-3.9,2-6.51,3.63-11.11,2.94-.12-.68.71-1,.89-1.55,1.56.07,0,1.13,2.5.72-2.31-.8,3.25-3,2.86-1.31,1.54-1.87,5.87-2.25,8.72-2,.16-.61-.38-.68-.56-1,.35-.68,4,.23,3.34-1.4.93,0,1.27.41,2.47.17a3.87,3.87,0,0,0-1.5-.33c.87-1.05,2-.6,4.35-1.27-.81-.26-2-.26-2.51-.72a10.13,10.13,0,0,1-5.83,1c-1,.24-.9.9-1.89,1.15-1.59.33-1.46-.64-2.5-.72-1.33.79-2,.83-3.87.92-.37,1,1.63.11,1.53.87.12.68-.69,1-1.39,1.35a3.5,3.5,0,0,0-1.48,0c-.28-.36,1.85-1,.44-.92-1.83,1.15-2.13,1.84-4.78,2.19-.4,0-.5-.2-1-.12-.66-.8,1.56-.47.9-1.27-1.72.65-2.81,2.27-4.82,1.34.4-.82,1.54.15,2.91-.47.89-1.55-2.23,0-2.5-.72-.69,1.39-2.82,1-4.84,1.07.78.82,2.45-.14,2.5.73-1.16.41-4,.51-4.27,2.37.7-.23,3.12-1.86,3.4-.54.84-.4.83-1.12,1.38-1.64,1.46-.36,5.26.57,4.37-.71.86-.08,1.13.29,1,.95,0,.47-3.3,1-3.4.56-1,.62,1.54.77.12,2-1-.74-1,0-1.92.59-2.86.56.22-1.59-2.52-1,.51.29.54,1,1.05,1.24l-2.43.39c-.92-1.34-4,.41-6.33,1-.65-1.16,2.12-1,1.34-2.19,1.49-.45.66.87,2.47.17-.41-.79.78-1,.38-1.75-.47-.23-1.8.2-1.52-.6-3.75.86-6.23,2.23-9.12,3.44-2.1-.13-9,1-11,3.07,1.12-1,6.95-2.58,8.15-1.2,2.74-.83,4.51-2.3,6.76-1.94.16,1.13-2.14.87-.86,1.83-1.26.37-1.76.17-1.51-.6l-2.44.39a1,1,0,0,1,.56,1c-3.8-.84-10.3,1.34-15.55,2.79-1.62.1-.77-.94-.6-1.59-.87.17-1-.18-2,0,1.55.6-.2,1.15.6,1.87-1.72-.87-2.39-.07-5.36.58,1.5.68-1.68,1.15-1.34,2.19-3.19.34-3.22,0-6.34.74-1.85.08-.1-1-1.07-1.23-.54.5-2,.65-1.87,1.43-1.61-.35-.31-.58-.09-1.4-2.94.1-2.85,1.4-5.8,1.5.28.38.76.59,1.05,1-2.05.2-2.93.75-6.31,1.3-.21-.44.35-.58.94-.71a5.9,5.9,0,0,0-3-.09c-.06.34.14.48.52.48-3.52,1.79-12.29,4.34-17.44,3.94-1.16,2.07-8,1.13-7.71,2.65-4.42-.08-8.63,2.07-12.14,2.22,2,1.1,7.25-1.13,10.72-1.43.44.05.88.1,1,.4-1.86.64-4.7.36-7.3,1.17.52.28.54,1,1.06,1.24-1.91.29-2.73-.26-4-.49-.81.26.43,1.4,2,.8-2.66,1.14-7.13,1.14-9.76,1.28-.58-1,1.8-.73,1.38-1.63-1.46-.59-1.11.94-2.39,1.23-.57,0-.43-.45-.53-.76-2.11,1.95-9.43,3-9,5.1a26.88,26.88,0,0,0-6.77,1.66,5.53,5.53,0,0,1-1.53-.88c-2,.94-3.63.35-6.33,1,1,.41-.18.58-.42,1.19-1.94.25-.78-1.33-2,0-1.56-.07,0-1.13-2.5-.72,2,1.11-2.29.74-.87,1.83-1.71-.3-2.49.21-3.46-.29-1.42.18-2.63,1.37-.91,1.27-1.3,1.4-4.1,1.29-6.3,1.29.29-.33,1.09-.46.92-1-2.71.28-1.42,2.16-3.78,2.57-2.16.38-7.46-.73-7.29,1.45a2.16,2.16,0,0,1,2-.31c0,.41-2,1.21,0,.84-.39.48-1.55.65-2.41.94.33-.52-1.33-1.21-1.79.26,3.28.64,6.15-2.73,8.76-1.4.81-.49.91-1.27,1.86-1.71.83-.09.23.73.56,1l1.17-.33,2.76-.82c2.11-.63,4.52-1.37,5.72-1.8.66,0,.45.63.55,1,2.26-2.29,10.67-3.26,13-3.78,3-1.24,12.28-3.47,16-3.41,1.81-.47,1.89-1.78,3.84-1.46a1.36,1.36,0,0,0,.4-1.47l1.46-.23c.61,0,.53.47,0,.55,4.8-.64,11.12-2.61,18-2.88-2.61,1.86-9.09,1.25-9.56,4.35-1.56.5-.74-.8-1.53-.88-.68.45-.67,1.18-1.37,1.62-1.45-.38-1.28-.16-3.44,0-1.54.63,1.91-.14,2,.25-.77,1-3.43.23-3.87.9,0,1.18,1.82.65-.41,1.47-.42.82,2.62-1.17,3.84-1.46.52,1.65,4.3-2.64,8.24-1.89-1.31.48-2.18,1.4.54.77-1.21,1.78-8.5,1.14-7.63,3.75.56-.13.87-.07,1,.12,0-1.19,4.51-.56,4.32-1.82,1.7.33,3-.82,3.92-.06,1.37-1,4.14-1.43,5.76-2.33.72,0-.17.39,0,.84,2.49-.55,3.5-1.69,3.74-3.14.86-.06,1.14.31,1,1,.71-.26,1.2-.61,1.91-.87-.14-.29-1,0-1-.41.73-.62,2.71.26,3.95.21,1.81-.37.55-2,3.32-1.94-1.1,1.65-2.83,1.6-1.31,2.74a2.66,2.66,0,0,1-1.41,1.08c-1.35,0,.8-1.12-.57-1.32-3.79,1.86-8.68,4.67-13.53,3.86.29,1.53,4.56,0,5,1.45a27.31,27.31,0,0,0,3.37-1.1c.52,0,1.77.8,0,.83,2.06.27,2.29-1,4.32-1.82,1.31.94,2.05-.8,4.39-.43-2-1.64-5.9,1.17-9.75,1.29,6-2.73,11.46-2.7,17.4-4.77,1.49.34,0,1.8-.86,2.1-.77-.19-1.07-.74-2.48-.44-.15.5.41.46,1,.4-1.47,1-4.43-.49-5.35.86a5,5,0,0,0,3,.92c-1.43,1.21-5.32,1.77-7.76,1.82-1.89,2.37-5.37,1.62-7.8,1,.59,1.56,4,1.15,3.09,2.32a27.76,27.76,0,0,1,4.3-2.09c.2.91,2.28.4,3.47.56-.37.76-3.38.46-3.85,1.19.13.38,1.45-.14,1.49.32,0,.89-3.18.55-2.85,1.58,2-.56,4.44-2.1,6.78-1.65-.17.56-1.36.72-.89,1.55-.27.62-2.26.55-2.38,1.23-.47-.22-1.8.2-1.51-.61-1.57,0-1.48.69-2.4.95a14.66,14.66,0,0,0,7.8-1c.13,1.58-3.49,1.69-5.75,2.33,1.9,1.18-4.45,3.25-4.35,1.27l-2.43.38c.57,1.36-3.94,1-5.32,1.42,0,1.07,2.87,0,3,.92-.09.6-2.13.43-2.4,1a1.08,1.08,0,0,1-1-1c-4.31,1.14-6.71.53-10.71,1.72,2,.11,1.41.64-.42,1.19,1,.29,3.57.35,4.42-.14.93.36.73,1.58,1.59,2-.64,1.25-2.59.29-3.36,1.38,2,.23,8.28-.58,10.21-1.92,1.71-.12,1.08,1.52,3.48.85.59,1-1.79.74-1.37,1.63,1.27.62,5.07-2.46,5.38-.58,1.61-.52.38-.69-.07-1.12,2.23-1.47,8.15-1.85,11.12-2.91,1.16-.11.37,1.18-.41,1.19,1.3.47,3.73.08,4,1.32,1-.24,0-1.25,1.39-1.35a4.9,4.9,0,0,0,6,1.56c1.15,1.1-.33-1.09-2.46-.16,0-.29,0-.55-.06-.83,1.18-1,5.08-1.57,6.33-1,1.49-.57-.31-.76,1.4-1.07-.17-.62-1.33-.43-2,0-.08-1.41,1.4-.5,3.37-1.11.67,0,.44.63.56,1-.13.4-1.21.43-1.94.59,1.1,1.37,3.58-1.4,2.35-1.79,3.27.76,4.47-.53,7.83-.7.64-1.15-.73-.9-1.59-1.71-3.37.86-4.06,1.38-6.28,1.58a1.24,1.24,0,0,0,.41-1.19c-1.64.28,0,.65-1.39,1.35-1.21.17-1.53-.28-2.43.39a10.67,10.67,0,0,1-3.56-2c.83-.58,2.57-.79,1.84-2,8.33,1,11.08-7,19.83-5.17.09-1.24-3-.06-4-.49,0-.88,2.39-.86,3.85-1.18-1.65-1.1,1.11-1.14,2.36-1.79-.54-.17-.22-1-1.52-.6,1.33-.83,2.76-1.62,2.26-3.18-1.51,0-.53,1.06-2.4,1,1.88-.7,1.15-2.44,4.26-2.66-1-.11-4.65-.48-6.85.55-1,0-.22-1.39-2-.81,1.28-1.6,4.16-.3,6.34-.74,0-.27-.61-.11-1-.12,0-.27.58-.3,1-.43-.09-.52-1.63.07-1.52-.6.4-.74,2.74-.56,2.94-.19.85-.39.55-1.23,2.38-1.23-.37-.59-1.67-.48-2-1.08a1.38,1.38,0,0,0-.91,1.27c-3.53-.75-12.46,1.83-15.17,1.05.33.23,1.14.1,1,.68-1.56.5-1.06-.56-2-.52-1.62,1.32-4.43,1.63-6.79,1.38,2.27,1.63-4.31,1.84-4.21,3.5-1.65.38-2.77.36-2.5-.73,2.45-1.17,4.94-1.24,6.75-2.21-.71-1.27-3.77.86-4.9.23,4.9-2.54,13.91-2.58,18.83-5.3.3-.81-2.27.57-2-.24.88-.73,3.89-.63,4.34-1.54a9.79,9.79,0,0,0,4,1c-1.2,0-1.15,1.35-2.84,1.87.88.51,3.73-.5,5.38-.59,1.9-1.95,6.76-1.24,11.2-1.52a1.22,1.22,0,0,0-.41,1.19c2.53-.36,5.21.88,7.94,1.25.93-.26-1.14-.66-2-.52,1-1.58,3-.32,4.39-.43-.31-.53-1.5-.31-.56-1,2-.05,3.49.27,4,1.33a8.16,8.16,0,0,1,3.91-.35c-2.26,2.16-7.74,1.24-9.19,2.33-.82-.31-3.39-1.39-3.43.27a2.06,2.06,0,0,1-1.52-.6c-.95.07,1.44,1.67-1.37,1.63,0,.8,1.25.61,2.49.45-.32-.95.33-1.51,1.36-1.91a1,1,0,0,1,.12,1.95c-.33.68,3.78-.61,2,.24,1.73.21,5.15-1.32,5.91.17-3.84,2.46-8.57,2.85-12.57,3.44-1.4.46-.52.5-.41,1.19a13.17,13.17,0,0,0-3.86,1.18c1.07.06,1.15.88,2.5.72-.47.72-3.05.61-4.36,1,.77,1-3.64,2.11-3.71,3.69-3.17.32-8.5,1.73-11.71,1.34-1.57,1.29-4,2-5.83,1.23-.76.28,0,1.14-.67,1.47,4.39-1.71,11.59-1.76,16.79-3.24.67,0,.44.64.55,1,.83-1,2.86-.79,3.88-.9-1.07,1.48-5.6,2.09-7.72,2.37-.23,1-1.25,1.68-1.31,2.75.9-.46,2.21-.76,2.37-1.51,5.63,1,8.42-3.25,13.15-1.85.66-.19.36-.76.42-1.19a2,2,0,0,1,2,.52c.55,0-.12-1.3.94-.71.82-.55-.5-1.09,1.37-1.63.64,0,.8.37,1.49.32A2.58,2.58,0,0,1,144.8,175c1.27.12,5-1.1,4.77-2.46l-1.95.32c0-.63,1.19-.8,2.39-.95-.47-.58-.47-.68-.09-1.4,1.07-.22,1.57,0,1.52.6a1.37,1.37,0,0,0,.9-1.27c-3.22.43-7.61,1.7-10.24,1.37.3-.91-.57-.93-.59-1.59,1-1.32,4.87-1.52,6.73-2.5-.73,1.18.11.85,1,.12.57,0,1.75.95.57,1.32,1.21,0,1.66.69,2.52,1,4.2-.66,1.81-2.25,5.72-2.9.12-.47-.48-.41-.53-.75,2.41.29,2.4,0,4.36-1,1,.07-.22,1.52-.36,2-2.74-.54-6,2.42-9.13,3.46,2.5-.06,4.64.16,6,1l-.09-1.39c1.42-.3,1.53.39,3,.09-.27-.19-.53-.38-.54-.76,2.16,0,1.6-.26,3.39-.83a2,2,0,0,1,2,.52c-1.93.6-3.57,1.3-5.29,2,1,.27,4.48-.34,3,.92-.57,0-.44-.44-.54-.76-2.54,1.39-5.86,2.33-7.81,1-2.52.35,2.94,1.17-.87,1.83,2.51.87,5.5-.2,9.31-.66-1.51.82,1.41.33.05.83.41.14,2.93-1.26,3,.37a12.74,12.74,0,0,1,3.9-.64c-8.62,2-18.32,2.85-26.21,5.65-1.06-.65-2.61-.08-3.91.35-1.08.14-.28-1.15-.58-1.59-1.27.37-1.77.17-1.52-.61-1.12.28-2.28.55-1.88,1.43,6-1.09-.29,3-3.23,3.34,1,.23-1,1.51,1.53.88-3.26,1.83-5-.85-6.85.54.5.87.91,0,2.45-.11,0,.36,0,.69.06,1,2.57-.72,6.05-1.11,6.86-.48-.62.55-3.86.62-4.89.51.36.72-1.86,1.71-3.79,2.31.53.28.55.94,1.07,1.23.53-.6.63-1.38,1.85-1.71.66,1.45,1.29-.59,3,.09,1-.32,1-.6.44-.92,2.21-.5,2.78,0,4.38-.7,1.26-.14-.64.59.07,1.11,6.3-1.32,8.52-2.47,13.07-3.24.48-1.48,1-2.14,5.25-2.53.19.71-1.87.52-1.39,1.34-1.19.56-2.4-.24-2.43.4.24,1.15,4.32-.31,5.37-.59a.93.93,0,0,1-.54-.75c2.68-.19,4.76.13,5.8-1.51,4.39-1.51,2.83.93,5.06,2.28.36,1.37-1.72.29-1.38,1.35.47-.07.4.28.52.48.93-.28.83-.94,2.4-1,.53,0,.36.51,1,.4a3.68,3.68,0,0,1-2.41,1c-.4,1.09,2.22-.13,2,.79.86-.34.05-.51-.05-.83,2.57-.92,2.81.93,4.42-.16-1.8-.57-4.68-.32-4.57-2.35-.79.05-.83.4-1.45.52-.44-1.79-1.54-1.49-.72-3.54l3.9-.64c.1.49-.56.69-.41,1.2,1.48-.14.95-1.08,1.36-1.64-1.79.5-2.11-.13-3.91.36-.17-.42.43-.55.44-.91,2.44,0,6.38.9,8.8-.88-.88-.2-3.24.4-2.49-.43-3.44.23-5.89,1-10.71,1.75.24-1.9,7.48-1,7.68-2.95,2.72.83,4.91-.83,9.29-.95a1.71,1.71,0,0,1-1.43.79c-.24.79,2.33-1,3.9-.64.09.32-.08.52-.46.64.65.23,2.87-1.21,4.33-1.55,1.78.38-.21,1.46,3,.35-2.68,2.1-7.06,2.14-11.16,2.39.49.83-1.56.65-1.9,1.15,2.22.49,2.8-1.1,5.36-.87-1.19,1-4,1.33-3.25,3.07a9.92,9.92,0,0,1,5.2-3.39c.52,0,.36.51,1,.4-.69.77-1.16.62-2.42.68,1.11.22,1.2,1.24,3.49.55-.3-.45-.33-1.11-1.06-1.23,3.41-.56,5.45-1.82,7.75-1.83-.41.56-1.67.79-2.38,1.23,2.42,0,6.24-2.49,9.71-2.15.13.87-1.94.87-2.36,1.51,2.14-1.06,6.65-.31,8.3-1.07,1.37,0-.67.86.56,1,.67-.55,2.47-.66,3.88-.92.9-1.23-1.1-2.42-3.05-1.47.06-1.83,1.85-1.06,3.84-1.47,0,.38.05.73.07,1.11,1.49-1,3,.37,4.88-.79,0-.62-1.74.16-2.45.12.36-1.12,2.82-1.06,4.83-1.36.65-.19.35-.76.4-1.18,1.09-.57,1.88.41,1.95-.32,1.26-.14-.64.59.08,1.11a30.42,30.42,0,0,1,6.29-1.59c0-.71.87-1-.56-1,.39-.48,1.54-.66,2.4-.95-2.3,2.17,1.69.05,3.48.56a2.49,2.49,0,0,1,1.39-1.36c1.65.13-.06,1.17,1.53.88.73-.24-.21-.32-.06-.83,2.44-.9,1.22,1,3,.64-.69-1.62.54-.06.52.47s-2.14.43-2.4,1c.43.42,3-.61,3.87-.91-.43-.15-.33-.72-1-.68.1-.59,1.26-.76,1.9-1.15,1.78,0-.92,1.74.59,1.59,2.22-.15-.8-.65,1.42-.79-.24-.7-1.51-.61-1.57-1.44-1.54.12-1.88.71-2.89,1-.33-1.24,1.57-1.39,2.87-1.32-1.92-1.52,2.24-.87,2.89-1,2.57-.63,7.11-2.86,8.78-1.18.21.45-.34.59-.94.73,0,.51.64.48.57,1,1.58,0,.62-1,1.38-1.36,1,.16,2.42-.64,3,.36,2.09-1.64,4.67-1.07,6.77-1.69.25.64-.84.75-.39,1.48,1.83-.72.18,1.23,2,.51-.14-.88-1.19-1-1.13-2.06l1-.17c1.06-.22.29.95.58,1.32.86-1.27,3.5-.23,3.34-1.68,1.87.35,2.15-.15,3.88-.93a3.15,3.15,0,0,1-1.35,1.91c.73.7,1.69-.75,1.39-1.35,3.25-.54,7.28-2.39,9.77-1.06a12.69,12.69,0,0,0,3.31-1.95c1.51.09-.64,1.18.58,1.31a13.36,13.36,0,0,0,3.41-.56c.23-.94-1-.72-.09-1.4a6.19,6.19,0,0,1,3,.36c-2.55.56-.64,1.15-1.4,1.07-1.06.55.89,1.25,2.51.71-2.16-.12-.61-1.07-.15-2.22-.21,1.37,1.82.39,2.56,1.54,4.82-.3,6.71-2.5,11.69-1.93-.66.93-2.72-.23-2.38,1.24,1.91-.34,3.3-.88,3.82-1.76,1,.38.5.47,1.46-.25,1.49.27-1.33,1.09-.36,2,.44.06.89.11,1,.4,3.35-.84,7.32-1.64,9.3-.69-1,1-3.51-.11-3.37,1.11a1.92,1.92,0,0,1-2-.51c-1.42.47.68.6.1,1.4l-1,.16c-1-2.84-6.25,1.55-9.64,3,.07-1.06,2.52-1.19,2.3-2.36l-2.93.49c-.62-.64,2.3-1.11-.05-.84-.38-.69,1-.7,1.4-1.08-1.49-1.08-2.38,1.74-3.38.85-.13,3.45-8.12,3.47-14.44,4.92-.12-.77,1.14-1,2.38-1.24a5.83,5.83,0,0,0-5.24,2.56,6.86,6.86,0,0,1,2.94-.21c-.68,1-2.15.12-3.41.57-.6-.2-.39-.79-.11-1.67-1.32.38-.66,1.55-2.34,1.8a.9.9,0,0,1,.54.75c1.92-.05,3.18-.48,6.35-.77,1.46-2.17,9.16-3.07,14.53-3.53-.77.75-2.64.38-1.39,1.35-2,.68-2.16-.09-3.45,0,1.95,1-5.73,2.51-2.78,2.43a1.5,1.5,0,0,1-2.5-.43c-.7.27-1.2.62-1.91.88.18.55,1.83,0,2,.51-.77.78-2.6,1.16-3.83,1.76-1,.09.45-1.05,1.41-1.08-.15-.33-1-.12-1,.17-.78,0,.39-.57-.53-.48-2.24,2.44-5.63,3.29-8.09,4.15,1.51-1.91,4.94-1.66,5.59-3.56-.39.59-2.57.48-2.3,1.33-2.17.21-2.6,0-3.93.09.1-.6,1.26-.78,1.9-1.16,1.8-.6,1.43.46,2.95.07,0-.45-.06-.93-.1-1.39-1.43,1.24-1.28.19-2.94.21-.67,1.81-4.76,2.29-4.62,4.42-2.17.76-4.52-.17-4.35,1.29,2.46-.39,2.76-.82,4.87-.81-.33-.53,2.08-1.31.9-1.27.39-.49,1.54-.67,2.4-1,.77,1.12-1.6,1-1.35,1.92,1,0,1.43.46,2.95.07a4.76,4.76,0,0,1-1.42.8c-1.38,1,1.85-.89,2,0,.53-.54,1.85-1.2.87-1.56.6-.49,2.38-.51,2.38-1.24.76.3.82,1.13,2.51.72.25-1.34,3.54-1.25,4.23-2.95-.05,1,2-.23,3.39-.85.86-.23,1,1.42-.41,1.2,1.25.3,3.37.17,5.45.51.75-.35.67-1,1.88-1.17.93,1.07-1.14,1.64-3.29,2.24-.91-.78-2.28-.52-4.48-.67.4.13,1.19,1.37.12,1.67-.12.52,2.76,0,1.93-.6.4,0,.5.19,1,.12.15.76-2.05,1.14.54.75-.86.68-.87.36-.41,1.2-1.9-.93-2.69.64-3.52-1.12-1.76.47,1.41,1.19-.9,1.28,0,.26.61.11,1,.11-.18.48-1.52.5-.91,1.28a8.85,8.85,0,0,1-3.59-2.22c-1.62.53-.2.56-.4,1.48-1.28-.16-1.57-.33-1.06-1.23-1,.25-1.54.19-1.5-.32a14.29,14.29,0,0,0-3.4.84c.13.68,1.66-.19,2-.32.65,0,.44.63.55,1-2.15-.63-4.85,1.56-5.39.33-1.11,0-1.47,1.55-2.42.69-1.75.73,1.16.23.56,1,.44-.37,1.79-.39,1.41-1.08,2,.31,5.67-.64,6.44.63,1.76.14.23-1,1.41-1.08.56,0,.29.23,0,.28.37.78,1-.44,1.95-.32-2.12,2.14-5.48,1.55-7.78,1.56,1,.52-1.65,1.37-1.82,2.27-.72-.12-1.57-.16-1.53-.87-1.35.5.76.63-.41,1.2-1.28.3-1.63-.12-1.54-.87-.84.39-.74,1.16-1.87,1.43-.5-.4-1.84-.15-1.56-1.15-.8.87-2.45,1.39-2.79,2.43a8.54,8.54,0,0,0,2.38-1.23c1.06-.23,1.56,0,1.52.59,1.28-.33,1.57-1.32,2,0a2.36,2.36,0,0,0,1.89-1.16c1.37.23,1.39,1.67,3.49.55-1.54,1.55-5.17.65-7.25,2,.68.55,2.67.1,4,.19-1.43.26-2.48,1.08-5.31,1.44-.37-1,.61-1.56,1.32-2.19-.77-.53-2.52,1.07-1.51-.6-2.21.58-1,.94-.86,1.84-.47.8-2.8.61-2.94.2.12-.5,1.52,0,1.9-.88-.65-.76-1.1-.33-3-.35,0,.92-2,1-1.84,2-.87.18-1.05-.17-2,0,.6.78.28.7-.39,1.47-2.49.91-5.2-.73-3-1.47a2.71,2.71,0,0,0-2-.23,1,1,0,0,1,.57,1c-1.47.22-3.13-1.25-3.41.57,1.21-.23,1.46-.77,2.43-.4-.16.57-2.23.39-1.39,1.35-1.84.67-2.84.1-3.86,1.2-1.42.12-2.26-.22-2.53-1,.37-.9.78.52,2-.05.58-.18-1.44-.82-3-.36.76,1.44,1.71,1.58,1.68,3.11a12.57,12.57,0,0,1,5.81-1.53c-1.62,1.2-5.79,1.82-8.24,1.93.94,1,3.62.13,4.89-.52,1.61.29-2.59,1.42-.87,1.83-3.78.07-5.87,1.3-8.74,2-1.47.06.43-.67-.07-1.11-1.54.11-1.86.92-2.92.48-.17-.32,1.35-1.19,1.44-.52,1.07-.47-1.26-.76-2.49-.44-.24-.42,2.63-.89,2.44-.4.66,0-.53-1.46.94-.71,1.06-.4-1.09-.46-.71-1.4-.52.62-2.65.61-2.74,1.4-1.75,0-.11-.68-.59-1.59-.54.78-1.7,1.32-3.85,1.47.59.73,2.65.33,4,.48-2.41.63-3.94.29-6.29,1.6-.69,0-.07-.49.45-.65-1.78-.86-2,1.19-3.87,1.2-1.14.18.13-.79.94-.72.17-1-2.65.27-3-.36-1.49.7,1.05.72,1.07,1.23-.08.25-.47.36-.46.64-2,.51-2-.73-2.92.47,0-2.15-6.36.64-5-1.15-1.57,0-.95.89-1.89,1.16-.39,0-.5-.2-1-.12.06-.34.87-.38,1.45-.52-2.43-.58-4.26,1.39-6.78,1.67,0-.19,0-.36,0-.56.88-.82,2.56,0,3.88-.92-2.09-.64.69-.31,2.41-.67.32-1.72-2.41.69-2.51-.71-2.68,1.28-5.47,2.42-6.15,3.82-.66,0-.45-.63-.56-1-.69.36-1.51.67-1.39,1.35.7-.13,1.38-.27,1.48.05s-2.45.35-2.47-.16c-1,.24-.91.91-1.89,1.15a5,5,0,0,0-3.49-.55c-.82,1.4,1.79.19,2,.79-1.19.58-3.65,1.45-4.39.72-3.6,3.1-9.37.43-12.13,2.82-1.73-1-4-.17-5.95-.72-1.67.84,1.47.41,1.54.87-.28.87-5.75.59-3.84,1.48-2.29.2-5.71-.2-7.33.91,1.45.23,4.61-.53,4,.48.2.85-1.46-.48-1.45.52.18-.89-2.47-.27-2.4,1-.72,0-1.25-.21-2-.24,3-1,.85-.78-1.51-.6a1.37,1.37,0,0,1-.4,1.48c-4.69-.3-8.83,2.19-14.14,2.28,1,.39-.25.56.09,1.4l2-.32c-.14-.38-1.47.14-1.5-.32,1.86-1,3.11-.7,5.82-1.22,1.11-.06.11,1.47,1.08,1.51.06-.78.42-1.66,2.32-2.34,2.33.56.9.17,3.46.28,0-.29,0-.56-.06-.83,1.5,0,1.76-.58,2.91-.76,1.54-.2.73,1.39,2.53,1-.78-.8.06-.83.88-1.56,1.8.54,1.64-.12,3.9-.64.31-.82-1-.39-1-1,.07-.24.47-.36.44-.64,3.26-.18,1.09,2,5,1.16.31.62-3.74,1.63-3.41.55-1-.57-.1.82.07,1.12-1.26.37-1.76.17-1.51-.6-1.46,1.7-4.66,1.31-5.74,2.63-1.53-.13.83-1.39-.6-1.6a2,2,0,0,0-1.37,1.64c-2.23.33-4.54.73-5.41,0-1.48.52.28.9.56,1-.31,1-3.63.29-3.39.83-.61-.81-2.39-.59-5.4.31.14.28,1,0,1,.4-2.73,1-6.94,3-9.25,1.49-.59.58-1.6,1-1.36,1.91-1.82.19-3.33.5-3.36,1.39-.4,0-.5-.2-1-.12.06-1.33,3.44-1.36,3.27-2.78-5,1.94-8.85,3.59-15,4.11-.11.47.49.41.54.75-.7-.22-4.66-.5-4.87.79,1.67-1.13,2.29.32,3.89-.63-.25.62-.68,1.18-2.37,1.23.17,2.25,3.54-.28,3.85-1.18a43.7,43.7,0,0,0,4.4-.43c-.6,1.12-2.73,1.63-3.77,2.58-.51-1-4.51,1-7.36.35-1.16,1,3.8-.18,3.51,1.12,0,.78-1.37-.45-.94.71a13.32,13.32,0,0,0,3.9-.63c0-1.32-2,.46-2.47-.16,1.65-1.61,5.56-.5,6.76-1.94-.89.83,2.31.41,3,.92.77-.68-.07-.35-.07-1.11,1.49-.46.65.86,2.47.16-.19-.63-1.73-.24-1.55-1.16a3.16,3.16,0,0,0-1.91.88c-1,.08-1-.59-1.53-.89,1.64-1.62,5.52-.87,6.82-1.1-.13.41-1.2.43-1.93.59,2.65,1.38,5.44-.78,7.73-2.37,1.37-.17.68,1.23,2.5.73,0-.56-1.35-.14-1-1,4.4,0,10.67.2,15.21-1,0,.89-2.61.78-2.35,1.78,1.38-.53,3.26-.88,3.32-1.94,3.07-.2,7-3.33,10.7-2-.28-.54,1.52-.74,2.37-1.51,1.33.05,1,1.12,2,0,1.23,0-.86.89-.4,1.47,1.66-.25.65-1.55,2.34-1.79.76,0,.06.29-.47.36,1.85.61,8.61-3.19,10.25-1.39.57-.14.38-.58.43-.92,1.43.12,3.81-1,5.81-1.51,1.74-.25-1,1.09.54.76,2.07-.95,8.4-3.24,9.33-.4,1.73-.52,0-.7.38-1.75.11-.33,1-.34.94-.72,1-.22.29,1,.58,1.31,3.07-.39,5.52-.35,7,1.12a4.49,4.49,0,0,1-1.43.79c-.67,0-.44-.63-.56-1-.67,1-1.45.4-2.4,1-.57-.31-.57-.59.44-.91a3.51,3.51,0,0,0-3.47-.28c1.28.2,2.59.18,1.57,1.44a12.8,12.8,0,0,1,3.45,0c0,.72-1.6.82-2.89,1,2.14.31-.17.88-.39,1.75-1.16-.7-.18-.67-2,0,.08-1.06,2-1.38,2.82-2.15-.52-.38-2.09,0-3-.08.38.7-1,.7-1.41,1.08.33.23,1.14.1,1,.67-.8.77-3.72.71-5.35,1.16.2.34.89.3,1,.68-2.34-.22-3.73,1-4-.48-.91.55-1.33,1.29-2.85,1.59-.74,0,.16-.39-.05-.83a10,10,0,0,0-2.83,2.15c-1.44-.17-5.35-1.26-6.86.55-1.06.22-1.56,0-1.51-.6-1.35.87-2.76.91-5.81,1.52-.25,1.16,1.9.49,3.46.28-.54,1.16-2,.28-3.38,1.11-.58.18-1.73-.53-.54-.75-.89-.51-3.24.69-2.86,1.59-2.35.4-4.12,1.34-5.86.68-.19-.72,1.94.43,1.42-.8-2.09-.08-3.12,1.17-5.32,1.43-.73,0,.17-.39-.05-.83-7.42,2.87-14.87,2.83-21.8,5.21,1,0,2,.56,2.91-.2-1.15,1.4.94.2,1.06,1.24.86-.21,1.09-.67.91-1.27,1.77.56,2.21-1.14,4.35-1.27,1.16-.11-.49.84-.92,1,.67.5,1.92-.73,2.47.17,3.9-1.09,6.25-2.5,10.24-1.65,0-.36,0-.74-.07-1.12,1,.37,1.22-.16,2.43-.39,1,.07-1.11,1.17-1.37,1.63,1,.14,2,.21,1.57,1.44,1-.1,2.6-2.09,2.91-.76,1.39-.62-.23-1.35-.59-1.59,1.92-1.11,2.83-.45,4,.75.78-.1,1.85-.43,2,0,1.55-.57-.52-.71-1.5-.32-2.35-2.15,5-3.42,6.28-1.87,2-.4-1-1.24,1.88-1.43-.1-.32-.9-.1-1.48,0,1.24-1.31,2.79.49,3.9-.64.75.13-.11.45.56,1,2.46-1.24,3.3-.18,5.33-1.44,0,1.24,2-.11,3.5.84.92-.8-.15-.29-.55-.76.84-.8,3.66-.66,3.47.28,2.06-.52.31-.86,1.88-1.43,2.19-.14,1,1,2.95-.2,1.88.51-.9,1.44-.86,2.11a3.59,3.59,0,0,0,2.91-.75c.49.6,2.51,0,3,.63-.08.74-.87-.24-2,.32.83,1.35.69.43-.38,1.76,2.79-1,4.62-1,6.23-2.71a17.22,17.22,0,0,0,7.41.48c-1.34-1.37-6.1.67-5.49-1.08,1.53-.94,3.68-1.63,3.74-3.15-2.18.48-3.13,2.14-6.72,2.79.65-.93,3-1.19,3.81-2-2.3-.06-6.84,2.39-10.22,2,.53-.53,2.46-1.91.84-2.39,1.3-1.21,3.77-.86,6.8-1.39.09.48-.56.68-.42,1.19,1.28-.28,1.56-.84,1.49.32a6,6,0,0,1,2.87-1.31c.66-.11.52.17.14.41,3-.86,6.12-1.58,10.57-2.44.54,0,.37.5,1,.4a3.59,3.59,0,0,1-2.39.95c2.35,0,1,1.08-.89,1.55-.66-.4.25-1.4-1.57-1.43-.92.52.64,1.14-.36,2-1.6.06-.95-1.12-1.55-1.15-2.61,1.26.07,2.67-3.76,2.87-.4,1.08,2,.06,3,.08a1.25,1.25,0,0,0,.41-1.2c4.43-1.3,3.87,2.18-.85,2.11.32.2.63.4,0,.55.15.22,4.06-.37,3.87-1.19,1.35,0-.8,1.12.58,1.31-3.74.25-4.52,1.67-8.26,1.91.1-.59-2.49-.59-1.53-.87-2.54.49-5.36,1.43-8.25,1.91,1.77.16,2.35.36,1.08,1.51,1.53-.12,2.34-.74,1.41-1.08,1.27.16,3.08-.25,1.91-.88,1.55-.5.73.81,2,.52,0,.81-3.37.31-3.38,1.12-.4,1.09,2.12-.06,2.49.43.18.57-1.12.55-1.37,1,.13-.73-2.77-.55-4.46.28,1.84-1.29.61-.95-1.55-1.16,1.35,1.59-5.87,2.47-6.83,1.12-2,0-1.86.89-3.38,1.11-.1.66,1.44.08,1.52.59-.36.89-1.25-.15-2.44.4-.71.06-.22-.8-1-.67a14.2,14.2,0,0,1,2.87-1.32c-.2-.62-.83-.92-.61-1.87a3.16,3.16,0,0,1,1.92-.88c-1.88,1.82,3.07-.39,3.44.19-.28-1,2.42-1.33,3.86-1.66.44.72-.65.84-.41,1.47,1.95-.74.65-1.07,1.34-2.18l-3.9.64a1.39,1.39,0,0,1,.9-1.28c.16-.8-1.83,0-2-.52-1.33.58,1.58.33,1.07,1.23-.48.08-.4-.27-.52-.47-.11.58-3,1.59-2.46.12-1.29.12-1.21.78-1.38,1.35-1.94.39-3.49-.14-4.37,1-.74,0,.17-.38,0-.83-2.36,1.55-7.56,2.15-10.24,1.67-3.21,1-4.61,1-9.68,2.71-.09-.49.56-.69.42-1.2-.77,1.29-2.73.51-3.32,2a3.38,3.38,0,0,0-1.49-.05c-.39,0-1.53-.68-.54-.75-1.46-.47-1,1.32-1.38,1.63.81,0,3.67.07,3.87-1.19,1.24.32,3.74-.32,4.93,0,.85-.21,1.08-.66.9-1.28,3.59.25,7.3-1.25,9.35-.11-1.37.62-4.2.89-7.3,1.47.5,1,4.15-.44,5.42,0-.5.55-3.08.72-1.38,1.35-1.9.19-1.76,0-2.92.76,3.07-.86,6.11,1,2.11,2.19-1.8.09.16-.87-1.06-1.24-.85.21-1.08.67-.9,1.28-1.68-.79-2.68,1-3.45,0-1.87.59,0,1.09-.31,2.19.28-.74,1.64-2.31,2.81-1.48,0,0-2.25,1.51.54.76-.31.69-2.77.54-2.36,1.51,1.7-.05,2-.85,2.92-.48.2.45-.35.6-.94.72.06.24,2.68-.34,3,.36.88-.64-.63-.72.4-1.47,1,.41,2.95-.22,2.89-1,.86-.07,1.14.29,1,.95,1.93-1.09,3.77-.54,5.3-1.71,0-.62-1.74.16-2.45.13.29-2.41,3.76.11,4.86-1.08-.14-.38-1.47.14-1.5-.32.41-.56,1.68-.79,2.39-1.23.7-.05.22.8,1,.68-.1.37-.95.43-1,.16-2,1,1.58.12,1.52.6.07-.07.88-1.49-.56-1-.18-.8,1-1,.87-1.83,1.53-.39,1.75.22,3.43-.28-.29,1.08-1.48.11-2.41.95.18.36,1.24,0,2,0,1.16-.3-.19,1.32,1.51.6a1.07,1.07,0,0,0-1-.95c.26-1.17,3.09-1.33,5.31-1.72.48.48,1.21,1.09.15,2.23,1.14-.34,1.95-1.41.87-1.83.75-.92,2.65-.3,3.43-.28-1.38.5-.26,1-.91,1.28,1.23.33.1-1.15,2.37-1.51,2,.19-.31,2.11,2.58,1.83-.16.65-2.65.7-2.46.12-1,.32-1,.61-.42.91-.83.24-.94-.06-1-.4-1,.33-1,.61-.44.92-3.23,1.2-5.26,1.51-8.22,2.47-.36.85.73.61.58,1.31,2.31-1.59,4.35-.42,6.3-1.59-1.33,2.89-7.77,4.69-12,5.62-.59-.5-.23-.78-1.08-1.51-.55.18-1.21.69-.45.63-.51,1-1.27.2-1.9,1.16.17.36,1.24,0,2,0-2.27.54-5.34,3-6.31,1.59-.68.61.8.9.6,1.59a74.67,74.67,0,0,0-11.22,1.84c1.61.18,1.84,1.09-.43.91-.54,1.39,2.5,0,3,.64-.32.41-3.72.71-3.94.08-.68.55-1.58,1-1.86,1.71-.73-.32-2.56.19-2.51-.72-1.83.88-2.62.56-4.35,1.27.19.56,1.49,1.44-.89,1.55.24.5,1.42.28,1.06,1.24,1.3-.68,4.07-1.58,4.89-.51,3.73-2.68,5-2.77,11.15-2.95.23-.66-1-.24-1-.67.42,0,.45-.19.47-.36,1.07-.14,1.09.53,1.06,1.24,1-.25.4-1.12,1.4-1.36,1.43,0,.57.33.55,1,1.72-2,3.94-.43,4.78-2.47,2.4-.57,3.16.12,4.92,0,.47-.45.4-1.11,1.4-1.36.84.55-1,1.62.14,2.23,1-.16.56-.86,1.91-.87-1-.29-1.41-1.3.88-1.56-.8,1.06-1,1.74,1.11,1.79-1.23-1.52,2.36-1.56,3.36-1.39.81-.16-.63-1.1,1.39-1.36,1.45,1-1.85,2.74-4.28,2.39,1.61,1,3.69-.47,4.91-.24.27-.41.09-2.19,1.79-2.82,1.29,0,2.24.25,2.06,1.35-1.55.05-1-.75-2-.51-2.33,1.63,3,.83.11,1.66.56.55,3.07-.39,4.41-.43-.18-.5-3.38,0-1.59-1.72,1.71-.43,2.53-.17,3,.36.2-.78,3.75-1.29,3.45,0,2.44-.4,5.47-1.25,5.44.24.7-.18.11-.86.92-1-3.18-.32-1.06-1.94-.22-3.35,2,.17.88.88,1.61,2,1.19-.81,3.52-1.15,4.3-2.11,4.11.32,7.65-1.6,10.79-.92.19.71-1.88.53-1.39,1.35.38-.25,1.31-.65,1.46-.24.58-.14.38-.57.44-.91,2.21-.32,2.87.53,5,.32-.2-.34-.89-.3-1-.68,8.72-1.26,12.73-2.67,21.41-4.37a28.63,28.63,0,0,1-4.33,1.56c3.24,1.63,7.75-2.2,11.25-1.3-.88.71-1.74.73-.88,1.55,4.56-1.11,8.3-3.13,10.28-1.13-2.91.82-6.27.84-5.68,3.47l1.95-.32c.22,1.26-.9,2-2.3,2.63-1.51.34,1.19-1-.54-.75-1,2.88-8.6,5.14-11.67,2.5-1.58,1.41,2.11,1.29,3.54,1.38-.45,1.28-3,1.73-3.76,2.88-1-.63-2.29,0-2.51-.71-1.09.3.09,1.48-.86,1.83-1.16.1-1-.81-2.5-.43-.68,1.78-3.36,1-5.36.89-2.83,2-7.91,1.91-9.64,3.55-1.55,0-2.26-.63-4-.48-.1.68-1.66.79-1.38,1.63-4.24.68-5.31.61-9.77,1.32.1.7,1.67.28,3,.08-1.9.79-2.86,2-4.76,2.74a2,2,0,0,1-1-.68c-.81.5-1.88.89-1.86,1.72.79.73,2.74-1,2.48.16,2.7-1,7.28-1.43,7.42.47.64.71.59-.66.09-.82,1.9.27,1.92-1,4.72-1.09.95,0,.46,1,2,.51.09.49-.56.69-.42,1.19,2.09-.5,6.41-1.52,7.38-.35,2.58-1.14,6.41-.87,8.69-2.83,2,1.65,6.82-1.8,8.38-.26.78-.41.44-1.27.86-1.83.31.91,1.33.88,1.47-.24,4.4-.23,11-3.32,14.17-2.07,1.14-1.4,5.72-2.29,7.78-1.84a1.14,1.14,0,0,0-.44.92c6,.25,10.26-2.39,13.82,0-1.44,1.27-1.93-.65-3.94.08,4.51,2.38,14.64-2.64,20.15-1.36,3.3-2.72,6.84.64,8.26-1.93a2.67,2.67,0,0,1,2,.23c.87-.48,1.6-1,2.36-1.52.57,0,1.27.29.53.48a4,4,0,0,0,3.38-1.12c5.94-.85,10.09-.77,15.62-2.63,4,.83,10.7-1.66,15.12-2.82,10.21-.52,19.92-4.48,27.39-4.05-.25-.63.84-.75.39-1.47,1.51-.38,1.6.34,1.56,1.15,1.67-.63.85-1,1.38-1.64.83,1,1.27.41,2.94-.21.73,1.09-2.29.73-1.85,1.72,1.71-.85,5.89-2,5.23-2.85,1.61-.55,1.63.12,1.55.87,5.83-1.22,6.69-3.29,13.12-3.06-.61-.27-.22-.4-.06-.84,1.72-.44,2.53-.19,3,.34,1.54-.14,1.24-1,2.38-1.25,2.44-.42,2.26,1.19,5,.55-1.65-1.2,3.42-1.12,4.29-2.14,1.57-.14,1.8.76,3.5.53.1-.67-1.44-.07-1.53-.59,5.16-1.25,6.73-1,11.71-2.28,2.29-.6,5.48-.7,6.84-1.17,1.55-.53,1.91-1.55,3.31-2,2.45-.75,7.2-.47,7.78-1.9,4.78-.2,9.37-1.49,15.63-2.67.52,1.12,5.67-.94,6.82-1.45,1.44,0,.58.32.57,1,1.45-.53,2.11-1.36,4.34-1.59,1.54-.07.69.63.58,1.31,1.06-.05.91-.56.92-1,4.68-1.8,10-.1,14.14-2.73,1.88.64,6.75-2.16,8.39-.33.7-.46,2.16-.63,1.87-1.46,1.37-.28,1.28.57,2,.78-.15-1.94,5.45-1.2,7.8-1.64,2-.37,4-2.31,5.86-1,2-2.38,5.7-1.38,9.75-2,.57-.06.44.43.55.75,5.51-2,9.33-1.48,13.23-1.74a3.54,3.54,0,0,0,2.83-1.91c2.4-.69,2.66.29,4.46.07-.43-1.24,4.13-.59,3.82-1.79,1.92.68,4.79-.3,6.86-.91-1.37.4,2.24-1.21,3.35-1.43,1.47-.3,2.48.11,3.95-.13s3.18-1.54,4.79-2A65.07,65.07,0,0,1,603.3,186c.67-.78,1-.7.38-1.48,3.91,1.39,6-1.39,9.76-1.73-.24.8-2,1-1.82,2,1.36-2.48,8.74-2.13,12.61-3.37-.1,1.32-4.35,1.07-3.74,2.64-2.1-1.25-5,.82-7.87.84,7.7.32,18.64-1.8,24.58-2.4-2.1,2.85-12.09,1.53-14,4.75-3.25-.11-3.73.15-6-.08.58.67.42,1.25-.84,1.84-3.19-1.59-9.56,2.22-11.37.33-1,1.68-3.57.82-4.84,1.42.15.38,1.47-.16,1.51.3-.15,1.55-6.92,1.63-6.37.85-2.18,1.95-5.79,1.36-9.31,1.37-2,1.39-10.78,4-13.16,2.58-.86.21-1.08.67-.89,1.28-5.27.76-8.36.89-13.64,2.94,4.64-.09,8.29-2,11.32-.85-.29.34-1.1.49-.91,1-1.9.16-2,.12-3.4.88-1.76-.39-4.85-.42-6.38.82-1.55-1-4-.05-6-.66,1.23.58-1.44.91-2.86,1.36,8.2.37,16.75-1.89,23.12-2,1-.46,2.85-2.14,3.89-1,1.26-.51,1.56-1.39,2.82-1.91-.57.63.62.36,2,.77.92-.19.26-1,1.4-1.09,2-.57,1,1.18,3,.61-.22-.45.33-.6.93-.73,4.35,1.19,12.87-2.64,16.65-2.39,3.76-2.11,8.4-1,14.12-3.08,2.37.24,6.17,0,6.84-1.22a15,15,0,0,1,2.5.41c-.29.34-1.09.48-.9,1,.67-1.21,2.1-.6,3.4-.88,5.67-1.27,13.88-3,20.45-4.49-.15-1-.76-.57-2-.2.05-.34-.14-.48-.54-.47.09-.38,1-.46,1-.18,1.35-.51-.77-.62.4-1.2,3.36,2,8.35-1.47,12.7-2.26.09.16-.67.48-1,.46,5.14.43,12.24-.5,14.68-2.36,1.53-.41.3,1.35,2,.76-1.62-.64,1.83-.9,1.33-1.93,1.5.38,3.31-.16,3.83-1.54-.48.09-.35.41-.44.64-1.65-.28.8-1.29,1.35-1.66,1.37.77,3.07.5,5,.23-.2-.61-1.36-.4-2,.08-.44-.72-1-.89-.18-2.22,1.26,1,1.45-.76,3.44-.35-.11-.31.06-.51.44-.64-1.2-1-1.51-2.09-3.14-2a1.21,1.21,0,0,0,.38-1.19c.88-.2,1.07.15,2-.08-.22-.7.6-1,1.88-1.19-1.49-.37-1-1.37-.19-2.23a2.15,2.15,0,0,1-1.95.36c1.08-.94-.1-1.89-1.66-2,.34-.89,1.26.14,2.44-.45-.05-.65-.11-1.29-.16-1.94-1.93.79-2-.21-4.39.8a12.66,12.66,0,0,0-2.1-1.32c-.88.69-1.22.25-2.44.44,0,.89-3.19,1.43-3.85,1.27a2.37,2.37,0,0,1,1.88-1.19c-1.6-1.06,0-1.75,2.24-2.67a5.41,5.41,0,0,1,1.56.85c.61-2.23,4.93-1.72,6.16-3.38,1.34.36,3.7,1.75,1.19,2.33.29.91,3-.26,3.9-.71.36-1-1.62-.1-2-.48,0-.74,2.46-1.48.36-1.47a14.22,14.22,0,0,1,2.37-1.28c-.32-.19-.63-.39,0-.56-.67-.28-3.53-.35-2.56-.94-2.22-.22-4.1.93-6.85,1,.2-1,1.81-.74,2.9-.82-.58-1,1.39-1.1.81-2.12-.41-.18-4.28.87-3-.3a19.45,19.45,0,0,1-5.32,1.52c-1.31-2-5-.45-7.53-1.17,1.87-1.1,2.45.19,4.88-.88,0-1-1.91.53-2-.76-.27.84-1,.63-.56-.75-.82.41-1.82,1-.88,1.29-1.92.28-2.64.26-3.53-.77-2.2,1.29-3.91,0-5.92.22,1.13-1.16,5.42-3.84,6.66-3.18,1.4-.85-1.32-.91-1.14-1.77.84-.95.9-2.18,2.73-2.76.57-.05.3.23,0,.28.49.74,1.2-.59,2.43-.44,1-.27,0,.82-.41.92.58.29,3.55-.82,3.82-1.54,3,.61,10.73-1,11.89.11.66.48,1.86-1.09,2.34-1.56.4,0,.51.19,1,.1.93.59-2.1.93-.42.93a3.65,3.65,0,0,0,1.49,0c-.09-2.32,8.61-2.05,11.21-2,1.39-1.11,4.35-2.34,5.83-1.34,1.87-.29.15-.26.41-.91,1.46.34,1.3.14,3.47-.07-2.21,1.2-1.37,1.86-2.69,3.31-1.07-.42-1.38.39-2.93.53,2,.37,5,0,8.37-.67.28-.69,1.34-1.66.32-2,1.39-.29,2,1.07.61,1.3.46.84,4.23-1.55,1.9-.92.38-.84,1.56.12,2.92-.53.44-1.67,1.8-3.09,5.07-4.31-1.1-.91-7.19,2.06-8.23,2.06,1.41-.91,2.16-2.07,4.72-2.55-.4-.95-2.59-.5-4-.12.24-1.3,2.63-1,4.26-2.19-.93-.42-4.73.39-4.35,1.35-2.49.36-1.64-1.66-4.47-.31a13,13,0,0,1,3.75-2.38c-.33-.19-.63-.39,0-.55-.18-.55-2.16.32-2-.48.24-1.08,1.73-1.69,2.24-2.67,3.88-.31,7.51-1.77,12.16-2.48-1.08-.4.55-1.16,1.34-1.66-1.27,1.31.15.39.17,2,.3-1.27,2.07-1.4,3.31-1.74.57-.8-1.53-.89-.12-1.38-.15-.38-1.47.17-1.51-.29-.87-1,2.09-.48,1.87-1.2-.07-.87-2-.09-2.46.17-1.9.13,0-2.75-2.66-2.06,0,.37.07.76.1,1.11-2.6.37,0-1.56-2.11-1.58.35-.9.78.51,2-.08.12-1.39-3.44.14-3.56-1a7.4,7.4,0,0,1,2.82-1.64c-.39-1.15.24-5.12,5.06-4.31a5.58,5.58,0,0,1-2.35,1.28c1.06.46,3.6-.8,4.84-1.16-1.83-.32,0-2.29-1.24-2.88l-2.86,1.36c-1.48.28-2.5.2-3-.3a15.81,15.81,0,0,1,5.33-1.25c-1.73-1.21-3.61.47-6.35.87-.11-.3.06-.51.43-.64.35-.78-2.23,1.55-3.28,2-1.89-.29-.86-1.95-3.09-1.41a6.7,6.7,0,0,1,3.79-1.82c-.81-.7-2.12.62-3.41.62-.85-.31-1-1.17-2.1-1.31.08-.24.47-.37.44-.64,1.69.14,8.55.28,6.94.15-.18-.42.41-.56.41-.92,1.63-.2,2.23.42,4.43-.24.27-.91-.91-.66-.64-1.58,1-.34,1.21.32.54.47,1.23.07,4.66-1.58,5.84-1.08-.54.52-.31,1.32-1.85,1.47-1.25.17.63-.59-.1-1.11-2.32.36-.76,1.2-.33,1.76.68-.15,1.37-.3,1.48,0,.91-.2.26-1,1.39-1.11.67.37.83.76,1.14,1.77.65-.21.34-.77.39-1.2l2.43-.45c1.37,0,1.55,1.9,3.51.48-.15-.38-1.47.17-1.51-.28,1.24-.44,1.56-1.22,2.82-1.66-2,0-.66-.27-3.4-.2,0,.69-.75.67.09,1.06l-1,.18c-.29,0-.57.06-.5-.19.29-.07.57-.15.46-.37-.84.17-1.26,0-1.51-.29,1.15-.23,1.44-.75,2.32-.48-.49-1.14.8-1.63,2.83-1.84-.84,1.39.73.72,1-.18,2.23-.38,2.72.61,5.42-.16.18-.63-.74-.4-1.51-.28.14-.4.82-.6.9-1,3.45.49,7.9-1,10.36-.23.73-.54.87-1.29,2.85-1.37a1.88,1.88,0,0,0-2.51-.38q-.54-1,1.38-1.11c1.55-.61-1.33-.07-2,.09,1.57-2.49,8.79-1.85,6,.86l1.45-.27a4.81,4.81,0,0,1-1.41.82c.87,1.36,3.49.15,5.46.12-1.45-.6,1-1.41,2.3-1.84,1.25-.2.88.89,1.59,1.12a3.74,3.74,0,0,1,3.4-.63c.4-1.43.1-2.07,2.25-2.39-.47-.59-.41-1.59-1.89-1.38,3.53-.91,6.85-3.14,7.16-5.81a4.35,4.35,0,0,1,3.89-.72c-1.6-1.64-5.65.75-4.69-2.53,1.28-.32.49,1,2,.47-1.18-1.74,3,.11-.92.74,1.23,1.25,4.1-2.14,1.76-2.3.26-.94,1.26-.61,2.41-.73-.45-.58-2.47-.69-3.46.07.4-.3.22-.81.89-1-1.69-.49-2.15,1-4.8,1.45.45-.37.91-.74,1.38-1.1-1-.69-3.6,1.08-2.35,1.28-.67-.16-1.82.07-2.49-.1-.1-.49.55-.7.39-1.2-1.23.81-1,.92-2.35,1.28.56,1,.61,1.57-1.79,2-.21.67,1,.22,1,.65-.12.41-1.21.46-1.92.64-1.28.32.3-1.64-1.57-.85,1,.56-.12.88.65,1.58,1.82-.48,2.24-.81,3.43-.35-.9,1-3,0-3.36,1.19-1.36.21-3.47-.5-1.59-1.12-3.09.81-6.27.82-11.18,2.07-.75-.11.1-.44-.58-1-1.52.28-3.11,1.24-4.38.81,1.88-1.09-1.36-2,1.31-1.94.64-.79-1.72.14-3,0,.18-1,2.31-.86,3.39-.91-.22-.53,0-.89.89-1-1.35.19-2.78.21-3.52-.77.07-.24.46-.37.43-.64,1.51.09,2.88.28,4.48.3.39-1.48,5.76-3.91,6.26-1.73a10.31,10.31,0,0,0,3.2-2.85c1.52,1,3.8-.53,6-.53-1.8-.9,1-3.57-2.87-3.43.9-1.21-.48-1.6-.27-3.06A8.26,8.26,0,0,0,776,72c-.57.07-.46-.43-.56-.74C773,72,770.6,72.7,769.77,74a4.09,4.09,0,0,0-4-.39c-.7-.58,1.31-1.42-.14-1.39a12.22,12.22,0,0,1,4.27-1.92c-2.59-.16,0-1.08-.73-2.7,2.42.68,3.4-.28,6.82-1-1.8-.73-5,1.48-5.94,0-.76.62-2.82.75-4.34,1.09-5.88-2.07,5.21-4.58,6.75-7.19a4.22,4.22,0,0,0,2-.08c-.11-.31,0-.51.43-.64.52-1-1.59.07-1.07-.93,1.37-.33.91-.62,1.33-1.66,3.94-.1,7.4-.8,8.6-3a4.22,4.22,0,0,0,2-.08c-.24-1.16,1.84-1.47,2.25-2.39-.35-3-4.5-3-5.91-5.12,4.33-1.82,6.08-.36,11.21-1.51A7.88,7.88,0,0,1,791,47.74c.93.1,1.54-1.13,1.94-.36a6.33,6.33,0,0,1,1-1,5.15,5.15,0,0,1,1.1-1.42,5.85,5.85,0,0,1,1.22-.8,4.85,4.85,0,0,1,1.36-2.45,33.5,33.5,0,0,1,7.07-4.91,28.34,28.34,0,0,1,2.6-1.52C807.5,34.51,806.09,32.8,805.31,32.54Z"/></g></g></svg>