<svg xmlns="http://www.w3.org/2000/svg" viewBox="0 0 557.22 1054.13"><defs><style>.cls-1{fill:#fcbd1f;}</style></defs><title>0702龍右</title><g id="圖層_2" data-name="圖層 2"><g id="圖層_1-2" data-name="圖層 1"><path class="cls-1" d="M215.45,1039a22,22,0,0,0,6.32-4.83,14.49,14.49,0,0,0,3.3-6.4,11,11,0,0,0,3.87-3.14,11.25,11.25,0,0,0,.77-12.35,13.38,13.38,0,0,0,4.82-7.3,32.23,32.23,0,0,0,1.19-5.58c.05-.44,1.59-11,11.52-12.43.95-.12,1.89-.22,2.85-.29A62.31,62.31,0,0,1,287.82,1008c.73.89,1.46,1.8,2.2,2.73,4.05,5.1,8.23,10.37,14.85,12,5.34,1.33,10.55-.19,15.55-1.67l1.6-.48c4.12-1.22,10-2.45,14.2.2s6.84,7.57,8.47,15.2,8.5,13.4,15.39,16.23a25.7,25.7,0,0,0,2.95,1c6.84,1.91,13,.66,16.76-3.41l4.29-4.6-6.26,1.24a10,10,0,0,1-11.43-5.2h.05c-1.87-3.67-2-8.48-.42-14.57.44-1.75,1-3.55,1.54-5.27a60.4,60.4,0,0,0,2.6-10.69,32.33,32.33,0,0,0-8.85-25.92c-1.39-1.44-2.89-2.74-4.32-4a51.71,51.71,0,0,1-4.7-4.42c-1.34-1.5-4.36-5.4-3.56-9.43a5.76,5.76,0,0,1,3.1-3.84,4.06,4.06,0,0,1,3.24-.12c1.48.69,2.48,2.35,3.53,4.13.4.67.8,1.33,1.23,2,3.49,5.16,9.59,9,15.15,9.6A13,13,0,0,0,385.79,975l5.69-5.64-7.79,2.27a12.32,12.32,0,0,1-11.87-3.41c-3.26-3.61-4.66-8.58-5.61-13-.21-1-.41-2-.61-3A52.6,52.6,0,0,0,362.12,940a53.78,53.78,0,0,0-7.81-11.31,73.1,73.1,0,0,1-5.54-7.34,143.91,143.91,0,0,0,49.35-10.28c20.95-8.72,44.54-30.72,63.13-58.82,17.24-26.08,38.9-70.79,44.13-135.71.65-5.14,1.14-10.34,1.44-15.59,2-35.76-9.09-82.73-33.45-125.19,4.66-22.18,25.59-61.17,29.52-83.69,2.72-15.54,2.63-29.45-3-42.84C495.25,438,482,424.48,478.07,420.64l-2.25-2.21c-6.29-6.14-12.75-12.51-17.28-20.06-5.51-9.26-6.94-19.5-3.85-27.38l2.21-5.64-5.1,3.3c-10.73,7-12.17,22-9.07,32.94,2.46,8.47,7.13,16,11.69,23.21,1.51,2.43,3.1,4.94,4.55,7.43,7.13,12.23,9.57,22.46,7.45,31.25a14.76,14.76,0,0,1-6.68,9.24,6.18,6.18,0,0,1-5.06.56c-3-1.06-5-4.42-6.62-7.48-2.5-4.76-5-8.91-7.41-12.91-8.16-13.53-14.06-23.33-12.06-42.87,2.07-20.34-3.69-31.83-9.6-40.38-6.94-10.13-19.28-14.32-30.16-18.05L387,351c-10.39-3.58-22.86-9.12-27.05-20.14l-1.86-4.91-1.79,4.88c-2.25,6.13,3.71,14.72,8.61,18.82a93.15,93.15,0,0,0,13.42,9.57c14.62,8.45,22.13,22.95,20.6,39.78a71.17,71.17,0,0,1-2.13,10.43c-1.43,5.62-2.92,11.44-2.45,16.63a85.78,85.78,0,0,0,4.39,17.8c3.16,9.63,4.7,15.21.14,17.9s-8.57-1-10.52-3.5c-7.3-9.52-9.94-21.36-12.79-33.94-2.69-12.13-5.48-24.65-12.91-34.77-9.44-13-25.92-21.06-48.72-23.82-6.62-.82-13.4-1.14-19.9-1.58-11.15-.64-22.69-1.31-33.61-4.09a31.51,31.51,0,0,1-11.57-5,13.51,13.51,0,0,1-5.63-10L243,333.81l-3.63,10.65c-2.72,10.13,1.72,22.08,10.76,29,8.8,6.79,20.13,9.17,29,10.45,2.37.34,4.75.65,7.09.93,7.36.94,15,1.91,22,4.3,8.66,2.95,12.75,8.92,17,18.29a90,90,0,0,1,7.64,35.06c-.15,5.07-2.66,11.15-7.88,13.34a14.47,14.47,0,0,1-12.8-1.62,27.55,27.55,0,0,1-9.72-10.14c-8.12-15-20.56-23.18-37-24.42-12.76-1-24.64,1-39.74,6.65-12.85,4.79-26.14,9.75-39.86,9.41a54.77,54.77,0,0,1-43.54-24.46l-9.58-14.54,6.13,16.2c9.4,24.79,32.12,41.44,58,42.45a128.63,128.63,0,0,0,21.21-1.47c3.58-.46,7.29-.93,11-1.19,12.78-1,22.54.72,29.81,5.36,6.94,4.44,11.72,11.39,16.67,18.69,4.84,7.09,9.85,14.43,17.07,19.33,8.57,5.81,18.83,7.31,28.77,8.74,9.42,1.37,18.35,2.68,26,7.3,1.63,1,6.91,4.6,6.56,9.39a8.18,8.18,0,0,1-4.7,6.32,18.83,18.83,0,0,1-8.9,1.59c-11.54-.08-22.92-4.06-33.92-7.91-2.61-.91-5.22-1.83-7.86-2.7-12.76-4.22-29.32-8.3-44.25-2.37S227.4,544.25,228,560.55c0,0,11.46-21.24,26.16-25,10.65-2.74,21.86,2.43,30.28,6.38l2.5,1.19a254.72,254.72,0,0,0,27.66,11.71c20,6.65,33.39,3.15,45.44.95C379.26,552.26,391,562.35,392,567c2.07,9.72-6.81,14.86-9.06,15.9-4.76,2.22-12.24,2.25-19.45.37-3.33-.88-6.62-2.08-9.89-3.28-2.88-1.05-5.86-2.13-8.9-3-8.09-2.32-15-2.39-20.7-.22-4.4,1.68-7.92,4.64-11.34,7.51-1.54,1.31-3.15,2.64-4.79,3.85-4.55,3.27-11.09,5.63-15.95,2.71l-7.36-4.48,4.84,7.36a27.19,27.19,0,0,0,27.37,8,51.15,51.15,0,0,0,6.87-2.78,34.64,34.64,0,0,1,8.15-3.11c8.12-1.53,16.42,3.12,22.74,7.33.87.57,1.74,1.16,2.6,1.76,6.52,4.43,13.27,9,21.24,10.09s16-1.66,22-4.18c6.35-2.72,34.92-13.72,46.82-14.23a201.28,201.28,0,0,1,6.53,21.26c9.52,39,2.55,63.75-2.57,81.86-.48,1.69-.93,3.32-1.37,4.92l-.14.54A15.55,15.55,0,0,1,447,711.3c-1.19,1.39-3.41,2.35-5,1.55s-2.21-3.19-1.89-5.14a20.7,20.7,0,0,1,1.83-5.06l.93-2.23c4.66-11.17,3.39-20.83-3.61-27.82l-5.07-5,1.62,6.87a25.35,25.35,0,0,1-1.55,17.07c-1.26,2.49-2.82,4.94-4.33,7.31a75,75,0,0,0-5.36,9.26c-5.94,13.1-4.09,27.75-2.19,42l.54,4.21c1.71,13.67,2.38,30.8-7.58,42-1.73,2-5.15,4.33-7.46,2.91-1.59-1-1.91-3.38-1.41-5.29A19.92,19.92,0,0,1,408.8,789c.43-.71.85-1.43,1.23-2.16,4.47-8.42,5-17.35,1.37-25.17l-4.5-9.8.55,10.68c.3,5.85-2.95,12-9.65,18.25-1.6,1.51-3.34,3-5,4.4-4.23,3.6-8.59,7.31-11.78,12-4.82,7.2-6.37,15.86-7.44,23.42a73.43,73.43,0,0,1-6.43,22.09c-3.32,6.8-12.4,15.61-22.17,13.92-6.18-1.18-11.07-4.41-11.91-7.8a14,14,0,0,1,3.55-11.78c2.36-2.53,9.54-4.92,19.74-1.1l9.61,3.63-7.49-7a34.9,34.9,0,0,0-23.66-9.25,48.26,48.26,0,0,0-7.77.87,32.75,32.75,0,0,1-9,.66c-11.46-1.24-22.67-9.19-27.42-16-7.06-10.17-8.12-17.75-3.64-26.23,1.42-2.67,4.71-5.34,7.78-5.15,3.79.24,6.31,4.55,7.76,8.13,2.72,6.73,11.37,10.61,18.15,10.84l8.57.31-7.56-4.1c-5.68-3.07-9.86-9.72-11.15-17.78-1-6.34-.39-13,.22-19.38.1-1.13.22-2.28.31-3.4.68-7.91.93-16.29-2-24s-8.7-13.94-14.43-19.89a182.41,182.41,0,0,0-3.27-18c3.82,3,8.74,5,13.55,4.11l7.93-1.43-7.71-2.48c-5.86-1.88-8.73-8.39-9.68-11.09a66.63,66.63,0,0,1-2.17-8.33,76.34,76.34,0,0,0-2-8.11c-3.76-11.37-12.24-19.95-21.86-25.91-10.78-12.93-23.38-22.69-40.61-31.38a14.66,14.66,0,0,0,.57-1.85l1.53-6.38L226,601.79a21,21,0,0,1-2,1.61c-40.29-16.36-75.12-17.33-115.63-3.1l-.08,0a1.67,1.67,0,0,0-1.11.45l-1.86.69a162.88,162.88,0,0,0-87,75.45C9.55,693.39,3.93,711.09,0,729.29c.78,2.86,1.64,5.71,2.56,8.54,3.92-20.6,9.73-40.64,19.5-59.09v0A155.46,155.46,0,0,1,58.39,633.7c-21.27,23.71-34.11,54.53-39.54,80.67a339.7,339.7,0,0,0-6,49.07q1.8,3.76,3.7,7.45l0,.07.06-1.65a18.62,18.62,0,0,1,10.83,8.27,20.75,20.75,0,0,0-6.13,2.18c.56,1,1.12,2,1.69,3a17.15,17.15,0,0,1,6.11-1.93v0a17.51,17.51,0,0,1,15,6.18,19.18,19.18,0,0,0-13.27,8.63c.71,1.09,1.42,2.17,2.14,3.25a15.49,15.49,0,0,1,19.79-7.64,15.76,15.76,0,0,1,7.4,6,22.94,22.94,0,0,0-14.34,9.25,21.37,21.37,0,0,0-12.25-6.69q1.44,2.13,2.92,4.25a17.21,17.21,0,0,1,1.86.85,17,17,0,0,1,5.21,4.25,18.65,18.65,0,0,0-3.17.36c.76,1,1.5,2.06,2.27,3.08a15.65,15.65,0,0,1,12.47,4.36,17.48,17.48,0,0,0-3,.56A21.28,21.28,0,0,0,48,819.22c.74.92,1.48,1.85,2.23,2.76a17.43,17.43,0,0,1,19.35,2.56,1.8,1.8,0,0,0,.38.16q.5,3.22,1,6.49a17.74,17.74,0,0,0-11.38,1.59c.78.86,1.56,1.72,2.36,2.57a14.64,14.64,0,0,1,9.41-.66c.49,3.58.95,7.14,1.36,10.74l-.43.5c1.17,1.13,2.34,2.27,3.53,3.38l1.8,1.67c-1.9-18.25-5-36.46-8-54.44-.83-4.84-1.64-9.69-2.43-14.52q-.66-3.94-1.36-7.84c-2.28-13.41-4.64-27.28-5-41-.43-18.5,3.05-34.16,10.35-46.56,2-3.43,4.42-6.77,6.73-10s4.66-6.43,6.71-9.87c.57-.94,1.07-1.89,1.55-2.82-.8,2.58-1.74,5.1-2.65,7.74-1.11,3.12-2.17,6.29-3.14,9.52a67.08,67.08,0,0,0-2.26,9.91,40.35,40.35,0,0,0-.35,10.24,32,32,0,0,0,2.51,10,24,24,0,0,0,5.94,8.26,29.38,29.38,0,0,1-6-18.36,35.31,35.31,0,0,1,.26-4.82,44.93,44.93,0,0,1,.77-4.76,86.13,86.13,0,0,1,2.66-9.36c1-3.11,2.26-6.18,3.4-9.29.52-1.46,1.06-2.91,1.6-4.37a7.65,7.65,0,0,0,.57,6.13c2.08,3.41,6.79,3.81,10,2.24,2.79-1.38,4.58-3.79,6.24-6.37,2.51-3.83,5-7.78,7.34-11.54,3.48-5.57,7-11.21,10.83-16.67a1.64,1.64,0,0,0,.37-.53,126.87,126.87,0,0,1,11.45-14.21c13.58-14.28,30.19-21.8,45.56-20.57a86.78,86.78,0,0,1,12.78,2.34c3,.69,6.07,1.39,9.19,1.88h-.32c-3.65-.37-7.37-1-11.22-1.28a39.42,39.42,0,0,0-11.73.59A34.83,34.83,0,0,0,169,615a37.38,37.38,0,0,0-8.76,7.32,34.14,34.14,0,0,0-8.87,20.11A37.38,37.38,0,0,1,162.11,624a39.59,39.59,0,0,1,8.61-6.29,32.43,32.43,0,0,1,19.3-3.85c-4.11.56-8.29,3.87-7.9,8.18a8.3,8.3,0,0,0,5.66,6.7,20.9,20.9,0,0,0,7.66.84l5.44-.12c16-.41,32.51-.82,48,3.27,14.84,3.9,32.86,14.3,38.6,31.65a79,79,0,0,1,2,7.67,72.34,72.34,0,0,0,2.26,8.68l-.26-.45c-1.24-2.54-2.41-5.2-3.78-7.91A32,32,0,0,0,266,655.71a29.21,29.21,0,0,0-18.11,1A39,39,0,0,1,265,658.53a36,36,0,0,1,14.11,8.8,30.67,30.67,0,0,1,4.84,6.35,5.45,5.45,0,0,0-1.4-.5,7.12,7.12,0,0,0-7.68,4.05,12.15,12.15,0,0,0-.57,7.65c2,10.14,9.31,17.74,16.4,25.09,5.78,6,11.77,12.11,14.56,19.55,2.65,6.91,2.4,14.78,1.75,22.22-.09,1.13-.19,2.25-.3,3.38-.63,6.65-1.27,13.53-.18,20.36a34.81,34.81,0,0,0,2.5,8.57,26.17,26.17,0,0,1-1.72-3,39.25,39.25,0,0,1-2.51-7.9c-.65-2.75-1.23-5.61-1.94-8.49a37.42,37.42,0,0,0-3.28-8.53,31.08,31.08,0,0,0-5.61-7.35,29.91,29.91,0,0,0-16-8.33,39.7,39.7,0,0,1,13.62,10.42,33.27,33.27,0,0,1,4.5,7,41.57,41.57,0,0,1,2.74,7.78c1,3.63,1.74,7.53,3.08,11.34a10.35,10.35,0,0,0-6.91-3.42c-5-.3-9.62,3.44-11.66,7.28-5.18,9.82-4,18.88,3.93,30.32,5.4,7.79,17.6,16.4,30.43,17.8a36.57,36.57,0,0,0,10.18-.73,43.14,43.14,0,0,1,7.09-.82c1,0,2.06,0,3.08.15a27.75,27.75,0,0,0-8.11,1.86,28.11,28.11,0,0,0-8.29,5.51c-4.67,4.43-8.12,9.43-13.08,12.46a14.17,14.17,0,0,1-8.11,2.36,10.57,10.57,0,0,1-8-3.57,10.48,10.48,0,0,0,7.77,5.55,14.79,14.79,0,0,0,5.14,0,18.72,18.72,0,0,0,4.8-1.61,32,32,0,0,0,7.86-5.77c2.3-2.2,4.34-4.49,6.51-6.51a25,25,0,0,1,7.1-5,26.61,26.61,0,0,1,8.43-2.27l.61,0a14.21,14.21,0,0,0-7,3.74c-3.82,4.13-5.67,10.45-4.49,15.37s7.18,9.42,15.22,11c11.17,1.91,22.09-6.86,26.61-16.12a77.73,77.73,0,0,0,6.7-23.23c1-7.13,2.45-15.28,6.82-21.77,2.88-4.3,6.85-7.67,11-11.25,1.71-1.46,3.47-2.94,5.16-4.52a43.26,43.26,0,0,0,7.1-8.36,59.85,59.85,0,0,1-4.59,7.95c-3.45,5.07-7.44,10-10.5,15.72a38.25,38.25,0,0,0-3.45,9.18,23.83,23.83,0,0,0-.12,10,18.16,18.16,0,0,0,4.78,8.88,13.79,13.79,0,0,0,8.82,4.28,14.8,14.8,0,0,1-7.27-5.54,17.42,17.42,0,0,1-3.14-8.09,23.21,23.21,0,0,1,.75-8.62,36.59,36.59,0,0,1,3.32-8.22c2.77-5.34,6.58-10.39,9.65-15.95a44.52,44.52,0,0,0,2.79-6.13,29,29,0,0,1-2.41,6.08q-.54,1-1.14,2a23.81,23.81,0,0,0-2.76,5.89c-.84,3.22-.19,7.64,3.27,9.76,4.24,2.62,9.47.05,12.76-3.64,11-12.4,10.38-30.66,8.56-45.14-.17-1.39-.33-2.79-.55-4.22-1.79-13.65-3.61-27.74,1.88-39.82a70.3,70.3,0,0,1,5-8.79,85.13,85.13,0,0,0,4.52-7.64,23.8,23.8,0,0,0,1.83-4.82,36.15,36.15,0,0,1-2.24,6.6c-1.17,2.8-2.61,5.56-3.84,8.6a29.37,29.37,0,0,0-2.2,9.6,34.41,34.41,0,0,0,4.73,18.92,32.32,32.32,0,0,0,14.12,13.18,42.23,42.23,0,0,1-11.22-14.61,38.14,38.14,0,0,1-2.81-8.43,33.44,33.44,0,0,1-.71-8.75,20.68,20.68,0,0,1,.32-3.24,8,8,0,0,0,4.16,6.15c3.58,1.78,7.76.09,10-2.5a18.7,18.7,0,0,0,3.44-7.75l.22-.51q.64-2.36,1.36-4.88c2.86-10.16,6.34-22.39,7.22-38,2.59,24.68,1.06,47.24-4.61,67.4-8.12,28.86-17.87,50.59-35.95,80.2-18.72,30.53-44.74,51-73.37,57.47-9.53,2.17-23.55,3.57-36.08-2.09l-1.17-.56a50.15,50.15,0,0,0-4.87-2.69,55,55,0,0,1-21.64-25.87c-4.56-11.27-6.92-24.33-7.4-41.08-.24-8-.16-16.23-.11-24.19.17-19.57.33-39.81-3.78-59.15-6.65-31.21-22.82-55-45.52-67.09-27-14.46-63.49-11.39-91,7.27-23.77,16.14-41.57,43.14-50.13,76-8.11,31.13-7.47,63.76-5.77,91.58.27,4.47,1.12,9.87,5.24,11.94a6.7,6.7,0,0,0,9.23-1.52,6.57,6.57,0,0,0,.59-1,138.89,138.89,0,0,0-.82,14.57,68.65,68.65,0,0,1-2,17.2,24.24,24.24,0,0,1-.77,2.51c.76.59,1.52,1.18,2.29,1.76a34.24,34.24,0,0,0,1.53-3.24,51.51,51.51,0,0,0,3-18.08l.07-8.93c0-2.92.14-5.86.39-8.76a48,48,0,0,1,1.46-8.13,47.33,47.33,0,0,0,1,13.21h0c.59,2.89,1.35,5.77,2.07,8.56a83.46,83.46,0,0,1,3,15.23,48.72,48.72,0,0,1-2.24,17.4q1.92,1.26,3.88,2.47a52.63,52.63,0,0,0,2.75-20.14,86.5,86.5,0,0,0-3.12-16c-.72-2.72-1.46-5.56-2-8.33-1.93-9.45-1.16-17,2.28-22.34l2.84-4.45-5.18,1.41a10.87,10.87,0,0,0-2.28.88c-.46-18-.62-36.42,2.72-54.16,2.83-15,9.64-36,26-51.09a62.64,62.64,0,0,1,18.79-11.92c19-4.4,37.71,7.78,46.36,22.12,10.23,17,11.6,37.54,11.67,53.57.06,15.3.53,38,4.08,58.41a115,115,0,0,0,36.83,66,50.8,50.8,0,0,0,3.59,24.49c6,14.91,17.61,27,28.05,37.17a25.3,25.3,0,0,1,5,6,6.59,6.59,0,0,1,.26,6.16c-1.32,2.16-4.51,3-7.15,3.43-10.48,1.85-49.83-4.25-57.08-8.16-4-2.12-6.31-4.27-7.4-6.75a18.56,18.56,0,0,1-1-7.67v-1.1c0-4.22-.82-7.26-2.51-9.24a7.67,7.67,0,0,0,1.3-6.34A9.63,9.63,0,0,0,211,922.5a9.54,9.54,0,0,0-4.63-12.7,19.17,19.17,0,0,0-9.67-9.5,24.1,24.1,0,0,0-14.07-1.54A31.25,31.25,0,0,0,170,904.34L160.86,911l10.69-3a18.23,18.23,0,0,1,11.53.57,17.75,17.75,0,0,1,8.35,6.61,10.12,10.12,0,0,0-1,2.86,9.33,9.33,0,0,0,2.93,8.48,8,8,0,0,0-2.16,4.25,9,9,0,0,0,2.6,8.11,8.72,8.72,0,0,0-.68,1.64,7.74,7.74,0,0,0-1.83-2.79,7.08,7.08,0,0,0-1-.77,8.53,8.53,0,0,0-.72-7.07,7.6,7.6,0,0,0-5.93-3.72,9.05,9.05,0,0,0-3.74-4.26,11.06,11.06,0,0,0-5.76-1.43c-3-2.15-8.54-3.43-13.41-3-7.63.69-15.16,5.77-19.7,13.28l-5.7,9.46,8.82-6.8c3.48-2.7,6.28-4.27,10-4.45A25.59,25.59,0,0,1,164,930.9a5.79,5.79,0,0,0,.06.83,10.79,10.79,0,0,0,6.91,8.54,10,10,0,0,0,.79,7.3,9.28,9.28,0,0,0,1.46,2.06,9.1,9.1,0,0,0-1-.42,9.46,9.46,0,0,0-7,.19,11.43,11.43,0,0,0-11.05-.35c-4.47.58-10.42,4.33-13.26,7.56a22.39,22.39,0,0,0-4.3,19.89l2.5,9.47,1.52-9.56c1-5.95,7-10.6,11.51-11.84a11.25,11.25,0,0,0,11.16,2.76,8.44,8.44,0,0,0,4,4.45,9.06,9.06,0,0,0,6.24.73,13.32,13.32,0,0,0,6.69,6.82,28.14,28.14,0,0,0,11.2,2.51l1.47,0a36.6,36.6,0,0,1,8.52,1.11,10.24,10.24,0,0,1,6.69,5.25,13.64,13.64,0,0,1,.57,5.81l0,.6a21.61,21.61,0,0,0,.34,6.71,9.81,9.81,0,0,0,2.5,4.53,13.4,13.4,0,0,0-5,10.19,13.14,13.14,0,0,0,3.48,8.85,18.06,18.06,0,0,1-16.75,12l-12,.31,11.48,3.64A30,30,0,0,0,215.45,1039Zm-65.38-78.19a22.32,22.32,0,0,0-9.9,7l0,.05A17.32,17.32,0,0,1,144,959.2a23.14,23.14,0,0,1,5.91-4.47,13.29,13.29,0,0,0,0,5.22C149.91,960.24,150,960.52,150.07,960.81Zm18.27-38.52a10.5,10.5,0,0,0-3.66,4.55A28.61,28.61,0,0,0,153.74,925a19.92,19.92,0,0,0-2,.2,19.82,19.82,0,0,1,9.33-3.62A20.72,20.72,0,0,1,168.34,922.29ZM156.89,601.5a12.51,12.51,0,0,1,6.28,3.57,58.32,58.32,0,0,0-7.28,2.71l0,.07A20.46,20.46,0,0,0,156.89,601.5ZM135.15,622a20.06,20.06,0,0,0-10.41-2.53,29.43,29.43,0,0,0,2.94-9.82,15.57,15.57,0,0,0-.37-4.76,13.59,13.59,0,0,1,15.84,10.34v0a81.93,81.93,0,0,0-8,6.75Zm-11.22,1a17,17,0,0,1,8.78,1.61c0,.12-.18.19-.28.28-2,2.09-3.89,4.32-5.73,6.58l0-.05A19.56,19.56,0,0,0,123.93,623Zm-10,26.08-5.41,1.28a17.58,17.58,0,0,0-6.11-14.89,19.28,19.28,0,0,1,17.36,5.21c-1.92,2.76-3.81,5.55-5.56,8.38Zm-3.74,4.35,1.44-.35-.53.84h0ZM93.37,667.49l.32-.75a32.39,32.39,0,0,0,1.07-4.45A17.09,17.09,0,0,1,99,671.82l.09.39,0,0a6.75,6.75,0,0,1-1.7,1.19c-1.47.75-3.72.61-4.5-.66S92.7,669.43,93.37,667.49Zm1.71-11.74a16.66,16.66,0,0,1,14.34,1l0,.11c-2.37,3.8-4.82,7.73-7.33,11.54l-.05-.05-.1.25A20.64,20.64,0,0,0,95.16,658C95.18,657.21,95.13,656.49,95.08,655.75ZM88.92,642l-4.55-4.25c-.24-.31-.48-.61-.75-.9a14.09,14.09,0,0,1,19.19,3.69,13.34,13.34,0,0,1,2,11,20.07,20.07,0,0,0-10.29.71,19.74,19.74,0,0,0-5.65-10.21ZM74.05,664.38a17.24,17.24,0,0,0-6.11-10.65,16.38,16.38,0,0,1,16.94,1.58,35.22,35.22,0,0,1-3.43,8.22A14.68,14.68,0,0,0,74.05,664.38Zm-5.55-5.12A13,13,0,0,1,70.72,666a26.51,26.51,0,0,0-17.26,2.07A23,23,0,0,0,50,655.34,13.64,13.64,0,0,1,68.5,659.26Zm9.67,9.61a26,26,0,0,0-2.69-1.35,10.71,10.71,0,0,1,4.08-.72C79.11,667.49,78.64,668.18,78.17,668.87ZM64.89,683.05A21.3,21.3,0,0,0,55,671.25a22.85,22.85,0,0,1,21.25.42l-1.86,2.59c-1.63,2.24-3.31,4.59-4.89,7A11.77,11.77,0,0,0,64.89,683.05Zm-23.4,10.53a13.74,13.74,0,0,1,10.08,8.84,21.34,21.34,0,0,0-15.69,6.65,23.41,23.41,0,0,0-7.64-10.41,13.5,13.5,0,0,1,13.28-5.08Zm15.2,28.49A20.78,20.78,0,0,0,52,721a16.8,16.8,0,0,1,5.13-4.23C57,718.52,56.8,720.28,56.69,722.07ZM59.5,704a20.87,20.87,0,0,0-3.2-1,13.85,13.85,0,0,1,4.41-3.4l0,0C60.3,701.05,59.89,702.52,59.5,704Zm-3,21.64c-.06,2-.09,4.12,0,6.23a18.36,18.36,0,0,0-11.2,8.47,18.83,18.83,0,0,0-9.81-7.54A16.44,16.44,0,0,1,56.51,725.65ZM49,719.31A20.13,20.13,0,0,0,37.93,712a17.69,17.69,0,0,1,20.78-4.56c-.38,1.78-.73,3.6-1,5.41A20.38,20.38,0,0,0,49,719.32Zm-3.2-27.86A18.57,18.57,0,0,1,65,689l0,.05c-1,2.07-1.93,4.2-2.77,6.42l-.09,0A17.19,17.19,0,0,0,54.34,700,17.49,17.49,0,0,0,45.79,691.45Zm11.88,57.07a21.68,21.68,0,0,0-10.2-4.64,15.21,15.21,0,0,1,9.22-8.5C56.84,739.8,57.19,744.15,57.67,748.52Zm.85,7.67a17.08,17.08,0,0,0-15.06,6.31,19.7,19.7,0,0,0-11.32-7.81A14.08,14.08,0,0,1,44.45,747a17.06,17.06,0,0,1,13.81,7.37Zm2.68,16.18a19.67,19.67,0,0,0-15.09-7.46,13.73,13.73,0,0,1,13-5.23C59.79,763.94,60.5,768.17,61.2,772.37Zm4.17,24.48c-.33,0-.67,0-1,0l0,0a8.43,8.43,0,0,1,.75-1.81ZM60.28,817A12.27,12.27,0,0,1,68,813q.59,3.53,1.13,7.05A21.64,21.64,0,0,0,60.28,817Zm5.6-16.75c.55,3.14,1.09,6.29,1.6,9.46a15.6,15.6,0,0,0-9.71,4.93h0a19.44,19.44,0,0,0-9.68-5.07A19.75,19.75,0,0,1,65.88,800.23Zm-17-13.29a15.39,15.39,0,0,1,13-8.7l.32-.08.74,4.47,1.35,8a8.58,8.58,0,0,0-2.46,3A20.24,20.24,0,0,0,48.85,786.94ZM32,777.35a14.71,14.71,0,0,1,12.19-9.05A16.21,16.21,0,0,1,59,775.12a18.8,18.8,0,0,0-12.75,9A21.17,21.17,0,0,0,32,777.35ZM17.09,761.49a15.79,15.79,0,0,1,22,.85,15,15,0,0,1,2.3,3.09,18,18,0,0,0-11.82,9.06,22.93,22.93,0,0,0-12.76-8.63C16.83,764.44,16.92,762.93,17.09,761.49Zm1.28-16A16.77,16.77,0,0,1,28,754.06,19.66,19.66,0,0,0,17.39,757Q17.81,751.21,18.37,745.49Zm.29-3.39c2.93-4.51,7.87-7.2,12.59-6.75a15,15,0,0,1,11.88,8.39,17.68,17.68,0,0,0-12.88,7.4l0-.07A20.37,20.37,0,0,0,18.66,742.1Zm2.63-18.48a21.55,21.55,0,0,1,9,8.24,16.91,16.91,0,0,0-10.86,4.24Q20.23,729.84,21.29,723.62Zm.72-4.16a15.82,15.82,0,0,1,22-.67,16.94,16.94,0,0,1,2.12,2.36,17.8,17.8,0,0,0-3.37.89,19.74,19.74,0,0,0-9.69,7.8,25.44,25.44,0,0,0-11.2-9.69A3.83,3.83,0,0,0,22,719.46Zm4.35-18.05a20.06,20.06,0,0,1,6.71,9.9,19.65,19.65,0,0,0-10,2.94Q24.45,708,26.36,701.41ZM35.42,677a18,18,0,0,1,5.92,13.09,17.26,17.26,0,0,0-12.34,3C30.86,687.76,33,682.37,35.42,677ZM37,674a17.35,17.35,0,0,1,23.08,6.78,16.44,16.44,0,0,1,1.54,3.71,22.56,22.56,0,0,0-17,3.53A21.72,21.72,0,0,0,37,674Zm9.53-17.76a20,20,0,0,1,3.36,13,21.79,21.79,0,0,0-10.91.31c2.3-4.51,4.82-9,7.55-13.31Zm14.73-19.62A18.37,18.37,0,0,1,64,651.25a17.66,17.66,0,0,0-14.43.42A142.38,142.38,0,0,1,61.29,636.59Zm2.47-2.45a17.31,17.31,0,0,1,21.09,11.57,16.32,16.32,0,0,1,.65,5.85A19.78,19.78,0,0,0,67.76,650a22.28,22.28,0,0,0-4-15.86ZM80,619.49a18.86,18.86,0,0,1,.62,14.66v0a21.73,21.73,0,0,0-13.21-4A115.13,115.13,0,0,1,80,619.49Zm14.32-8.87a20.9,20.9,0,0,1,4.91,22.59v0a18.3,18.3,0,0,0-14.5-.64,22.36,22.36,0,0,0-1.91-15.06A101.35,101.35,0,0,1,94.27,610.62Zm12.07-5.17a15.59,15.59,0,0,1-5.15,8.73,23.84,23.84,0,0,0-3.74-5.13C100.38,607.75,103.35,606.54,106.34,605.45Zm12.44,16.3A16.19,16.19,0,0,1,123,636.2l-1.21,1.68a23.09,23.09,0,0,0-18.46-6,24,24,0,0,0-.65-14.3A17,17,0,0,1,118.78,621.75Zm5.49-12.34a28.86,28.86,0,0,1-3.23,10,20.38,20.38,0,0,0-14.72-5.71,19,19,0,0,0,3.61-9.5q5.71-2,11.27-3.6h0A10.75,10.75,0,0,1,124.27,609.41Zm5.8-11.17a16.2,16.2,0,0,1-4,3.19l0,0a14,14,0,0,0-1.2-2C126.56,599.05,128.35,598.64,130.07,598.24Zm20.52,12.28c-1.47.85-2.92,1.71-4.38,2.69l0,0a17.23,17.23,0,0,0-7-9.16,17.61,17.61,0,0,0-7.42-2.64,19.86,19.86,0,0,0,3.26-4.21,145.41,145.41,0,0,1,17.41-2.38C154.36,600.28,153.56,606.57,150.59,610.52Zm13.49-16a23.84,23.84,0,0,1-7.48,3,20.81,20.81,0,0,0-.66-2.89h0Q160,594.46,164.08,594.52Zm15.83,8.24-.08.2a48.47,48.47,0,0,0-13.11,1.22,15.93,15.93,0,0,0-5.28-4.54,26.44,26.44,0,0,0,8-4.83l.06-.14c3.25.17,6.51.46,9.79.85A6.4,6.4,0,0,1,179.91,602.76Zm18.83,15.76-.52.71c-1.8,2.5-3.52,4.86-6.42,6a10.09,10.09,0,0,1-2.61-.53,4.38,4.38,0,0,1-3-3.16c-.16-2,2.23-3.67,4.51-4v0a21,21,0,0,1,6.36.62Zm2.85,1.93a9.58,9.58,0,0,1,4.26,4.59l-5.15.12-2.93.07a33.18,33.18,0,0,0,3.28-4Zm-9.69-22.79a20.81,20.81,0,0,1-7.28.88,2.68,2.68,0,0,0-.49,0,9.8,9.8,0,0,0-.57-2.39Q187.78,596.79,191.9,597.66Zm-.83,7c-2.44-.54-4.92-1-7.44-1.31v0l0-.24a11.7,11.7,0,0,0,.35-1.15l.5,0A12.7,12.7,0,0,1,191.07,604.64Zm14.64,2.84-.39,0c-2.84-.37-5.7-1-8.52-1.61l0,0a1.77,1.77,0,0,0-.43-1.06,21.92,21.92,0,0,0-4.21-3.65,20.07,20.07,0,0,0,5.22-2.22q4.88,1.23,9.82,2.8A6.34,6.34,0,0,1,205.71,607.48Zm-.18,11.61a33.15,33.15,0,0,0,10.55-1.84,7.35,7.35,0,0,1-3,7.49l-.17.16-3.39.06h0A13.08,13.08,0,0,0,205.53,619.09Zm7.16-11.61a25.29,25.29,0,0,1-2.88.17,10.28,10.28,0,0,0,1-3A9.56,9.56,0,0,1,212.69,607.48Zm6.69-1.6a22.91,22.91,0,0,1-3.22,1,13.34,13.34,0,0,0-1.39-2.71C216.29,604.7,217.83,605.27,219.38,605.88Zm11,13a8.94,8.94,0,0,1-5.24,6,1.37,1.37,0,0,0-.37.26c-2.35-.11-4.72-.15-7.07-.17a10.81,10.81,0,0,0,1.55-9.07,20.45,20.45,0,0,0,7.85-6.66l1.9,1A13.32,13.32,0,0,1,230.39,618.84Zm0,6.62a13,13,0,0,0,2.39-3.15,8.72,8.72,0,0,1,5,3.91C235.31,625.89,232.84,625.65,230.36,625.46Zm11.82-7.53a18.9,18.9,0,0,1-8.31,1,16.89,16.89,0,0,0-.35-6.33C236.56,614.36,239.43,616.12,242.18,617.93Zm10.26,7.63a5.58,5.58,0,0,1-1.88,3.22,1.86,1.86,0,0,0-.67-.19c-2.7-.71-5.44-1.3-8.12-1.75h0a11.74,11.74,0,0,0-2.78-4.59,22.45,22.45,0,0,0,6.57-2C248,622,250.24,623.73,252.44,625.56Zm6.76,6.19c-1.68-.7-3.34-1.31-5-1.86a9.09,9.09,0,0,0,1.06-1.87h0C256.62,629.23,257.92,630.48,259.2,631.75Zm26.31,52a9.14,9.14,0,0,1-7.32-.91,7.29,7.29,0,0,1,.45-3.92,3,3,0,0,1,3.06-1.87c1.25.28,2,1.63,2.95,3.7l0,0C284.93,681.76,285.22,682.75,285.51,683.76Zm4.26,19.32c-4.68-5-8.76-10.11-10.68-16.11a12.49,12.49,0,0,0,7.29.08v0C287.75,692.21,288.89,697.63,289.77,703.08ZM200.78,909a12.2,12.2,0,0,0-2.86.7,12.9,12.9,0,0,0-3.83,2.27,22.44,22.44,0,0,0-9.55-7.12,21.62,21.62,0,0,0-4.47-1.23,23.43,23.43,0,0,1,3-.77,19.6,19.6,0,0,1,11.58,1.24A15.43,15.43,0,0,1,200.78,909Zm87.62,42.82a16.11,16.11,0,0,0,3.73.29,10.8,10.8,0,0,1-.74,4.57,12.06,12.06,0,0,0-.61-1.38,18.18,18.18,0,0,0-2.38-3.48Zm-6.12-6.28-2.12-2.11c4.32-1.31,7.22-5.15,8.66-9.65a19.65,19.65,0,0,0,13.9,7.16,12.35,12.35,0,0,1-10.64,7.85,16.87,16.87,0,0,1-9.86-3.22ZM325.92,900c0,.24,0,.48,0,.72h-.12a12,12,0,0,1-16.63-.48,11.61,11.61,0,0,1-2.33-3.41,14.73,14.73,0,0,0,6.59-5.05A16,16,0,0,0,325.92,900Zm-10.44-11.55a17.09,17.09,0,0,0,8-1.65,52.34,52.34,0,0,1,2.07,9.79l0,0A12.72,12.72,0,0,1,315.48,888.43ZM266.39,860l.05,0a17.76,17.76,0,0,0,2.95,1.33,35.91,35.91,0,0,0-3.89,2.15A12.87,12.87,0,0,0,266.39,860ZM217.27,671.31c.09-.44.13-.89.19-1.37a13.49,13.49,0,0,1-4.08,19,14,14,0,0,1-5.53,2,15.3,15.3,0,0,0-1.09-8.49A15.26,15.26,0,0,0,217.27,671.31Zm-7.46-12.22a11.56,11.56,0,0,1,1.57,16.51,11.72,11.72,0,0,1-5.8,3.67,18.63,18.63,0,0,0-1.17-10.55A15.12,15.12,0,0,0,209.81,659.09Zm-5.91,25.47h0a12,12,0,0,1,.48,6.44c-1.16-.81-2.27-1.54-3.43-2.25A17.44,17.44,0,0,0,203.9,684.56Zm9.76,14.24-.13.1c-1.55-1.61-3.19-3.11-4.81-4.52a17.7,17.7,0,0,0,12.71-9.14A14.52,14.52,0,0,1,213.66,698.8Zm6.48-.63,0,0a7.91,7.91,0,0,1-1.7,6.58c-.84-1.09-1.7-2.16-2.61-3.19A16.42,16.42,0,0,0,220.14,698.17Zm-.2-30.65a14.36,14.36,0,0,0,7.71-9A11.33,11.33,0,0,1,223,679.69,17.66,17.66,0,0,0,219.94,667.52Zm14.34,9.09a13,13,0,0,1-8.2,16.85,13.55,13.55,0,0,1-3.22.66,17.56,17.56,0,0,0,1.7-11.24h0A15.48,15.48,0,0,0,234.28,676.61Zm.77,14.52a15.43,15.43,0,0,1-14.14,16.78l-.4-.55a11.37,11.37,0,0,0,3-9.9A17.2,17.2,0,0,0,235.05,691.13Zm-2.62,15.11.06,0a11,11,0,0,1-6.81,9.36c-.83-1.58-1.77-3.13-2.72-4.64A19.86,19.86,0,0,0,232.43,706.24Zm3.51-.18a16.89,16.89,0,0,0,9.19-.58,12.4,12.4,0,0,1-11.61,13.43,13.24,13.24,0,0,1-5.26-.69A14.36,14.36,0,0,0,235.94,706.06Zm2,55q-.3-2.91-.66-5.82a10.15,10.15,0,0,0,6.91-4.74,19.2,19.2,0,0,0,10.07,6.92A13.19,13.19,0,0,1,238,761.08Zm4.87,4.72a12.15,12.15,0,0,1-4.1,4.7c-.13-1.89-.28-3.76-.43-5.63A16.75,16.75,0,0,0,242.85,765.8Zm-6-13.91c-.26-1.81-.54-3.62-.87-5.41l1.17.48,0,0a16.34,16.34,0,0,0,4.45,1.12A7,7,0,0,1,236.85,751.89Zm-1.22-9.63a13.31,13.31,0,0,0,8.07-6.86l0,0a16.7,16.7,0,0,0,9.45,3.52,11.76,11.76,0,0,1-15.92,4.35A11,11,0,0,1,235.63,742.26Zm-1.2-3c-.5-2.1-1.06-4.17-1.68-6.23a17.32,17.32,0,0,0,7.94.92A9.91,9.91,0,0,1,234.43,739.24Zm-1.32-9.76,0,0a14.21,14.21,0,0,0,7.49-7.2,19.9,19.9,0,0,0,10.08-.11,12.92,12.92,0,0,1-16.5,7.76C233.84,729.78,233.47,729.64,233.11,729.48Zm-2.43-2.66c-.62-1.71-1.29-3.34-2-5a17.59,17.59,0,0,0,8.44-.14A10.77,10.77,0,0,1,230.68,726.82Zm7.62-37.73a22.09,22.09,0,0,0,12.44-3.8,12.39,12.39,0,0,1-1.78,14,11.58,11.58,0,0,1-2.84,2.22,1.69,1.69,0,0,0-.75.36,13.28,13.28,0,0,1-9.66.66A19.12,19.12,0,0,0,238.3,689.09Zm22.78,14.76a15.26,15.26,0,0,1-15.17,15.7,16,16,0,0,1-3.65-.34l.23-.15a16.12,16.12,0,0,0,6.14-13.67A21.58,21.58,0,0,0,261.08,703.85Zm-7.27,19.91a18.17,18.17,0,0,0,11.6,2.3l0,.05a11.81,11.81,0,0,1-13.94,9.32,12.42,12.42,0,0,1-6-3A16.28,16.28,0,0,0,253.81,723.76Zm1.65,18a19.17,19.17,0,0,0,15.36,7.19,15,15,0,0,1-24.42-1.07A15.18,15.18,0,0,0,255.46,741.72Zm.91,18.46a18.42,18.42,0,0,0,13,6h0a14.59,14.59,0,0,1-20.28,1.46,14.74,14.74,0,0,1-2.07-2.11l.8-.17A16.43,16.43,0,0,0,256.37,760.18Zm1.45,14.24A10.86,10.86,0,0,1,243,777.8a11.06,11.06,0,0,1-3.71-3.71,15.44,15.44,0,0,0,5.88-5.49A18.93,18.93,0,0,0,257.82,774.42Zm-14.57,7.21.06,0a15.41,15.41,0,0,0,2.66.81,11.74,11.74,0,0,1-6.4,5.55l-.11-2.54-.34-6.37A15.46,15.46,0,0,0,243.25,781.63Zm5.08,3.54a16.22,16.22,0,0,0,10.86,7,11.41,11.41,0,0,1-19.38-.19.87.87,0,0,0,0-.42A15.05,15.05,0,0,0,248.33,785.17ZM244,799.74h0a15.36,15.36,0,0,0,3.31.92,18.07,18.07,0,0,1-6.5,6.35c-.3-3.22-.54-6.42-.72-9.62A15.7,15.7,0,0,0,244,799.74Zm5.72,3.55A17,17,0,0,0,260,810.4a13.38,13.38,0,0,1-17.65,6.52l-.38-.17h0c-.28-2-.52-4.08-.74-6.12A21.35,21.35,0,0,0,249.74,803.29Zm-1.48,18.17a17.27,17.27,0,0,1-4.41,6.28c-.51-2.36-1-4.77-1.34-7.11A17.8,17.8,0,0,0,248.26,821.46Zm2.83,2.1a17.4,17.4,0,0,0,12.17,4.89,10.87,10.87,0,0,1-11.6,10.32,11.47,11.47,0,0,1-5.39-1.67q-.86-2.82-1.56-5.66a19.65,19.65,0,0,0,6.38-7.88Zm4.09,18.25.06,0a9.25,9.25,0,0,1-4.5,7.2c-1.16-2.5-2.2-5.06-3.11-7.65A15.71,15.71,0,0,0,255.18,841.81Zm3.21,2.12A17.26,17.26,0,0,0,269.7,847a19.82,19.82,0,0,1-3.43,5.51,10.4,10.4,0,0,1-7.31,3.62,6.61,6.61,0,0,1-6.18-3.77h0a1.54,1.54,0,0,0-.23-.39A12.4,12.4,0,0,0,258.39,843.93Zm27.83,83.37a11.63,11.63,0,0,1-7.58-6.76,20.76,20.76,0,0,0,10.62-6.22h0a18.08,18.08,0,0,0,11.09,5.39A11.34,11.34,0,0,1,286.22,927.3Zm16.53-4.19a22.3,22.3,0,0,0,13.63,7.63,15.47,15.47,0,0,1-12.74,6.82v0A16,16,0,0,1,291.06,931,15.14,15.14,0,0,0,302.75,923.11ZM290.08,910l.35,0a17.11,17.11,0,0,0,14.82-9.3,15.9,15.9,0,0,0,9.56,6.14l.1,0a13.58,13.58,0,0,1-10.11,9.2l0,0a14.31,14.31,0,0,1-14.15-5.56A1.85,1.85,0,0,0,290.08,910Zm-4-3.91a13.46,13.46,0,0,1-8.26-7.41,18.05,18.05,0,0,0,12.8-5.55,15.3,15.3,0,0,0,12.08,4.66l.06,0A13.19,13.19,0,0,1,286.08,906.08Zm-10.15-10.77a1.81,1.81,0,0,0-.56-.12l-.16,0a8.17,8.17,0,0,1-.86-.17,14.75,14.75,0,0,1-10.65-10.71,17,17,0,0,0,8-3.85l0-.05a18.2,18.2,0,0,0,15.44,9.94c.48,0,.95,0,1.43,0A14.74,14.74,0,0,1,275.93,895.31Zm-19.11-14.54a30.85,30.85,0,0,1,4.12-7.48,18.54,18.54,0,0,0,6.29,4.26c.6.24,1.2.45,1.82.63A14.05,14.05,0,0,1,256.82,880.77Zm-.43-21.55a10.74,10.74,0,0,0,2.65.32h0a12,12,0,0,0,3.95-.75,10.07,10.07,0,0,1-2.41,6.28C259.1,863.15,257.7,861.21,256.39,859.22ZM276,863a15.38,15.38,0,0,0,8.38,8.33l.09,0a13.65,13.65,0,0,1-10,4.12,15.25,15.25,0,0,1-11.31-4.87A30.27,30.27,0,0,1,276,863Zm11.17,10.51a18.37,18.37,0,0,0,12.6,5.68l.06,0a13.79,13.79,0,0,1-18.32,6.28,13.94,13.94,0,0,1-6.69-6.65A16.82,16.82,0,0,0,287.16,873.53Zm15.35,8a17.27,17.27,0,0,0,9.16,6.23,11.12,11.12,0,0,1-8.84,6.55l0,0a11.66,11.66,0,0,1-10.59-4.8A17.73,17.73,0,0,0,302.51,881.51ZM325.85,905a55.75,55.75,0,0,1-.73,7.06c-.27,1.46-.57,2.89-.9,4.34a12.15,12.15,0,0,1-5.44-9.17A16,16,0,0,0,325.85,905Zm-2.46,14.68c-.7,2.61-1.43,5.12-2.27,7.76a18.36,18.36,0,0,1-16.75-7.92,9.61,9.61,0,0,0,1.2-.16,17.08,17.08,0,0,0,10.88-7.59A15,15,0,0,0,323.39,919.68Zm-3.6,12a166.91,166.91,0,0,0-4.44,16.18c-4.75-.58-7.19-4.3-8.37-7.23h0A18.89,18.89,0,0,0,319.79,931.69Zm-6,28a13.87,13.87,0,0,1-17.73-7.5c-.1-.24-.2-.48-.28-.73a16.12,16.12,0,0,0,9.21-7.2v0a13.4,13.4,0,0,0,9.73,6.9A74.26,74.26,0,0,0,313.77,959.74Zm-45.1-29.27a17.79,17.79,0,0,0,7.87-6.65h0a15.86,15.86,0,0,0,9.55,6.83c-.93,4.75-3.63,9.55-8.7,9.87C274.39,937.35,271.43,934,268.67,930.47Zm-10-16.23.06,0a21.81,21.81,0,0,0,7.66,5.36,20.23,20.23,0,0,0,5.41,1.39,23,23,0,0,0,2.35.11,14.41,14.41,0,0,1-7.6,6.58A75,75,0,0,1,258.63,914.24Zm.48-5.13a15.2,15.2,0,0,0,7.65-.85,17.49,17.49,0,0,0,8.54-7.06,17.94,17.94,0,0,0,13.35,8.86,1.62,1.62,0,0,0-.81.6,17.13,17.13,0,0,1-28.73-1.55Zm-4.75-13.41a17,17,0,0,0,7.29-7v0A18.31,18.31,0,0,0,273,898.07a13.94,13.94,0,0,1-7.59,7.06,11.59,11.59,0,0,1-10-.69A46.85,46.85,0,0,1,254.36,895.7Zm1.42-11.77h0a15.9,15.9,0,0,0,3.93.64,14.41,14.41,0,0,1-5.23,7A39.25,39.25,0,0,1,255.78,883.93Zm-37.89-60.64,0,.06a42.06,42.06,0,0,1,20-5,114.46,114.46,0,0,0,9.59,33.49,86.83,86.83,0,0,0,11.22,17.42,35.62,35.62,0,0,0-7.48,15.35A111,111,0,0,1,217.89,823.29Zm-1.17-7.52a33.84,33.84,0,0,1,20.4-4.23c.12,1.15.26,2.3.4,3.43a45.35,45.35,0,0,0-20.18,4.81v0C217.11,818.46,217,817.13,216.72,815.77Zm-8-90.26h.07a28.09,28.09,0,0,1,14.32-6,87.08,87.08,0,0,1,4.29,10.06c6.25,17.88,7.17,37.3,8,56.08l.15,4.8c.28,5.84.64,11.76,1.19,17.7a37.41,37.41,0,0,0-20.51,4A415.49,415.49,0,0,1,213.76,765C213.73,753.24,213,739.1,208.68,725.51Zm-2.67-7.4a25.24,25.24,0,0,1,12.88-5.79c.84,1.29,1.64,2.64,2.42,4l.07,0a30.73,30.73,0,0,0-13.78,5.73C207.11,720.75,206.59,719.43,206,718.11Zm-37.94-32.93a49.5,49.5,0,0,1,18.79,1.59c11.56,3.38,22,11.36,29.94,22.48a28.73,28.73,0,0,0-12.32,5.6c-.91-1.83-1.86-3.67-2.93-5.46l0,0C194.82,698.13,182.35,688.13,168.07,685.18Zm25.66-26a12,12,0,0,1,.51,20.31,13.34,13.34,0,0,0-4.45-8.42h0A15,15,0,0,0,193.73,659.22Zm-11.36-8.43c0-.22-.06-.41-.08-.6a11.44,11.44,0,0,1,7.65,14.27,11.14,11.14,0,0,1-2.89,4.63h0a14.66,14.66,0,0,0-7.89-8.07A15,15,0,0,0,182.37,650.79Zm-4.54,13.29a10.48,10.48,0,0,1,5.83,13.69,8.81,8.81,0,0,1-.47,1,13.39,13.39,0,0,0-7-7.59l0,0A12.33,12.33,0,0,0,177.83,664.08Zm2.59,17.3c-1.62-.22-3.25-.33-4.89-.39a12.46,12.46,0,0,0-.67-6.72A9.89,9.89,0,0,1,180.42,681.38Zm10.19,2.48a23.75,23.75,0,0,0-2.55-.84c-.86-.25-1.93-.52-2.9-.74a13.75,13.75,0,0,0,2.76-8.21l0,0A9.88,9.88,0,0,1,190.61,683.86Zm11.77-9.67A15.2,15.2,0,0,1,198,686.92l-.05.11c-1.34-.71-2.7-1.34-4.07-1.93l0,0a13.8,13.8,0,0,0,.38-1.4A15.74,15.74,0,0,0,202.38,674.19ZM168,670.68a10,10,0,0,1,4,10.19l0,.08c-1.51.06-3.14.16-4.71.31A15.59,15.59,0,0,0,168,670.68Zm-.22-4.07A15.37,15.37,0,0,0,168,656.5a8.83,8.83,0,0,1,6.14,10.87,8.41,8.41,0,0,1-1.55,3,13.2,13.2,0,0,0-4.77-3.73Zm-13.18,7.45a15.74,15.74,0,0,0-1.07-11.33,12.22,12.22,0,0,1,11.62,12.57,11.6,11.6,0,0,1-1.75,5.63A14.32,14.32,0,0,0,154.62,674.06Zm3.39,8.77a19,19,0,0,0-2.18-4.68v0a11.12,11.12,0,0,1,4.43,4.17C159.52,682.45,158.76,682.61,158,682.83Zm-7.09,2.29a21.29,21.29,0,0,0-6.23-12.19,17.81,17.81,0,0,1,10,10.84C153.45,684.18,152.18,684.64,150.92,685.12Zm-3.56-.44a17.45,17.45,0,0,0-14.45-3.19,20.88,20.88,0,0,0-6.21-11.27A18.28,18.28,0,0,1,147.36,684.68Zm-10.94-.16a13.94,13.94,0,0,1,9.2,3.07q-2.19,1.08-4.31,2.34l0,0A17.24,17.24,0,0,0,136.42,684.52Zm-4.21,11.74a19.4,19.4,0,0,0-9.8-10.67l-.66-.27a13.73,13.73,0,0,1,16.57,6.38,66.27,66.27,0,0,0-6.1,4.56Zm-18.39,7.11a18.59,18.59,0,0,1,12.64-1.6,76.27,76.27,0,0,0-6.5,7.87l0,0A21.84,21.84,0,0,0,113.82,703.37Zm-1.33,18.42a15.54,15.54,0,0,0-5-3.89,9,9,0,0,1,7.51-.73C114.1,718.7,113.26,720.25,112.49,721.79Zm-12.24,50.9c-.16,2.47-.27,5-.35,7.44h0a18.32,18.32,0,0,0-4.44-.1A13.69,13.69,0,0,1,100.25,772.69Zm8.07-41.32c-1.08,2.83-2,5.61-2.78,8.33a15.92,15.92,0,0,0-5.62-2.31,14.16,14.16,0,0,1,8.42-6.06Zm-8.54,62.32a13.62,13.62,0,0,0-5,4.2,18.43,18.43,0,0,0-9.72-8.5,15.8,15.8,0,0,1,14.82-5.85Q99.73,788.64,99.78,793.69Zm0,7.1a18.15,18.15,0,0,0-3,.1,10.4,10.4,0,0,1,2.89-3.34c0,1.07,0,2.14,0,3.19Zm-4.1,17.83a14,14,0,0,0-2.59-.18,10.39,10.39,0,0,1,3.63-2.73C96.35,816.67,96,817.66,95.72,818.62ZM86,825.14l0-.09a9.64,9.64,0,0,1,8.64-3.19c-1,3.28-2.06,6.48-3.59,7.21a3.78,3.78,0,0,1-2.87-.55A5.25,5.25,0,0,1,86,825.14Zm-1-9.39a20.42,20.42,0,0,1,2.88,3.86,13.46,13.46,0,0,0-2.55,1.48h0L85.24,820Zm.64-4.07a16,16,0,0,1,14.26-7.53l.15,5.6a17.72,17.72,0,0,0-1.42,2,12.45,12.45,0,0,0-8.54,4.9A24.12,24.12,0,0,0,85.64,811.68Zm-1.44-19v0a14.76,14.76,0,0,1,8.44,9.21,19.46,19.46,0,0,0-8.06,5.42Q84.28,800.12,84.2,792.69ZM84.71,771a13.91,13.91,0,0,1,7,9.76A19,19,0,0,0,84.22,785C84.28,780.39,84.43,775.71,84.71,771Zm.33-3.61.15-.14a14.34,14.34,0,0,1,8-5.29,13.08,13.08,0,0,1,7.84.61c-.23,2-.41,3.88-.57,5.82a17.07,17.07,0,0,0-7,7A17.53,17.53,0,0,0,85,767.37Zm11.08-9.11a10.51,10.51,0,0,1,6.43-5.59c-.39,2.15-.74,4.32-1,6.49A16.58,16.58,0,0,0,96.12,758.26Zm-9.75-5.82a9.15,9.15,0,0,1,5.52,6.34h0a18.37,18.37,0,0,0-6.6,3.33C85.64,758.9,86,755.68,86.37,752.44Zm1.12-7.16a1.83,1.83,0,0,0,.36-.32,11.75,11.75,0,0,1,16.27-2.22l.46.36c-.53,2-1,4-1.38,5.86A13.83,13.83,0,0,0,94,754.77a12.73,12.73,0,0,0-7.1-5.82l0,.09C87.09,747.79,87.28,746.53,87.49,745.28Zm3.12-14.91a10.68,10.68,0,0,1,4.88,6.79l0,0a15.39,15.39,0,0,0-7,2.48Q89.43,735,90.61,730.37ZM93,722.12a13.78,13.78,0,0,1,9.59-2.25,11.61,11.61,0,0,1,8.22,5.4l-1,2.43a17.31,17.31,0,0,0-11.64,6.37,14.12,14.12,0,0,0-6.52-7l-.1,0C92,725.4,92.5,723.75,93,722.12ZM97.5,709.7a13.24,13.24,0,0,1,4.68,6.75,18.92,18.92,0,0,0-7.66,1c.92-2.65,1.92-5.22,3-7.77ZM99.58,705a13.26,13.26,0,0,1,10.13-.07,16.58,16.58,0,0,1,8,7.83c-.32.49-.66,1-1,1.47l0,0a12.46,12.46,0,0,0-11.3.94,16.63,16.63,0,0,0-6.56-8.63A12.4,12.4,0,0,1,99.58,705Zm6.36-12.47a23.22,23.22,0,0,1,3.27,8.61,16.92,16.92,0,0,0-7.75-.27C102.86,698.05,104.36,695.28,105.94,692.56Zm2.92-4.56a15.93,15.93,0,0,1,20.1,9.22,15.28,15.28,0,0,1,.51,1.58l-.31.3,0,0-.32-.13a22.26,22.26,0,0,0-16.28,1.31,25.07,25.07,0,0,0-4.65-10.76Zm5.6-8.15,2.34,4.08a19.34,19.34,0,0,0-5.21,0l0,0C112.49,682.5,113.47,681.16,114.46,679.85Zm7.55-9a17.38,17.38,0,0,1,7.36,10.62,17.42,17.42,0,0,0-9.54.91l-3.11-5.45C118.43,674.83,120.2,672.81,122,670.86Zm16.18-2.28a22.44,22.44,0,0,0-12.39-1.67,104.6,104.6,0,0,1,9.66-8.3A16.49,16.49,0,0,1,138.19,668.58Zm.62-11.17a12.43,12.43,0,0,1,13,11.56,11.73,11.73,0,0,1-.49,4.08,21.5,21.5,0,0,0-9.54-4.51A20,20,0,0,0,138.81,657.41Zm12.61,2.21a16.59,16.59,0,0,0-9.68-5.33,89.21,89.21,0,0,1,9.65-5.28A11.41,11.41,0,0,1,151.42,659.62Zm14.45-7.19a16.4,16.4,0,0,0-8.56-6,92,92,0,0,1,9.17-3A9.48,9.48,0,0,1,165.87,652.43Zm-.7,10.78a13.19,13.19,0,0,1-.39,1.53l0,0a16.78,16.78,0,0,0-9.44-5.26,14.64,14.64,0,0,0,.06-10.15A12,12,0,0,1,165.17,663.21Zm11.51-5q-.26.38-.54.72a13.08,13.08,0,0,0-6.94-5.62,12.77,12.77,0,0,0,.59-10.87c1.24-.27,2.47-.54,3.71-.77l0,0A11.74,11.74,0,0,1,176.68,658.26Zm8.37-18a12.9,12.9,0,0,1-4,5.38,16,16,0,0,0-3.16-4.67C180.25,640.68,182.6,640.42,185.05,640.31Zm7.79,13.46a7.85,7.85,0,0,1-.78.49,16,16,0,0,0-7.62-6.87,15.94,15.94,0,0,0,4.39-7.19c2.09,0,4.18,0,6.25.12l0,.08A9.42,9.42,0,0,1,192.84,653.77Zm2.54,2.46a12.76,12.76,0,0,0,4.61-6.64,12.4,12.4,0,0,0,.45-2.55,11.53,11.53,0,0,1,4.65,15.78,11.23,11.23,0,0,1-2.53,3A16.7,16.7,0,0,0,195.38,656.23Zm8.42-15a14.76,14.76,0,0,1-3.87,1.54,13.79,13.79,0,0,0-.78-2.18C200.71,640.79,202.27,641,203.8,641.27Zm13,3.35a14.11,14.11,0,0,1-7.19,10.07,15.64,15.64,0,0,0-6-9.56,20.32,20.32,0,0,0,4.88-2.94,72.43,72.43,0,0,1,8.27,2.42Zm5.51,17.07a10.86,10.86,0,0,1-5.18,3.35,15.62,15.62,0,0,0-4.56-7.94A17.36,17.36,0,0,0,220.17,646l.05-.07.18.07a1.56,1.56,0,0,0,.38.46A10.66,10.66,0,0,1,222.29,661.69Zm10.52-8.8L228,654.27a14.58,14.58,0,0,0-1.25-5.1A70,70,0,0,1,232.81,652.89ZM246,664.57h0a11.83,11.83,0,0,1-9.53,6.83l.12-.28a15.22,15.22,0,0,0-5.43-14.22l5.11-1.49A75.67,75.67,0,0,1,246,664.57Zm8.49,11.27a18.18,18.18,0,0,1-16.73,9.78,16.82,16.82,0,0,0-.59-10.91,15.53,15.53,0,0,0,11.23-7.32A90,90,0,0,1,254.53,675.84Zm3.93,6.79a7,7,0,0,1-4.94.31,21.3,21.3,0,0,0,3-3.72C257.2,680.34,257.86,681.46,258.46,682.63Zm6.18,14c-2.7,4.1-8.72,6-13.93,5.54a9.35,9.35,0,0,0,.8-.74A15.78,15.78,0,0,0,255,686.57a10.53,10.53,0,0,0,5.08-.92A105,105,0,0,1,264.64,696.61Zm1.57,4.61-.79-.33.52-.47Zm4.44,19.17a14.52,14.52,0,0,1-15.67-.08,17.44,17.44,0,0,0,2.66-1.75,18.68,18.68,0,0,0,6.93-14.44l2.82,1c.68,2.46,1.32,4.91,1.86,7.5S270.25,717.8,270.65,720.39Zm1.13,9.11a9.47,9.47,0,0,1-2.91-4.31v0a16.21,16.21,0,0,0,2.3-1C271.4,725.92,271.61,727.71,271.78,729.5Zm1,15.64a15.17,15.17,0,0,1-15.28-6.71h0l.51-.11a15.54,15.54,0,0,0,9.68-8.24,14.72,14.72,0,0,0,4.45,3.7C272.42,737.56,272.62,741.35,272.75,745.14Zm.22,17.17a14.78,14.78,0,0,1-13.85-4.38h0a18.47,18.47,0,0,0,13.78-6.28C273,755.21,273,758.76,273,762.31Zm-.09,16.43a15.39,15.39,0,0,1-10.61-4.88A18.11,18.11,0,0,0,273,767c0,1.34,0,2.67,0,4C272.88,773.55,272.86,776.12,272.88,778.74Zm-.63,3.53A12.22,12.22,0,0,1,261.07,789a12.7,12.7,0,0,1-10.31-6.37,14.51,14.51,0,0,0,9.54-5.71A19.15,19.15,0,0,0,272.25,782.27Zm.88,14.58a11.53,11.53,0,0,1-9.47-4.77v0a15.62,15.62,0,0,0,9.28-4.8c0,2.72.06,5.42.15,8.12C273.09,795.88,273.12,796.35,273.13,796.85Zm.17,5.89A12.8,12.8,0,0,1,252,800.68a15,15,0,0,0,9.33-5.63,15,15,0,0,0,11.79,5.32l.14,2.37Zm1.37,11.85a15.58,15.58,0,0,1-9.5-4,16.48,16.48,0,0,0,8.6-3.54C274,809.65,274.31,812.17,274.67,814.59Zm-.23,3.56a12.91,12.91,0,0,1-17.24,5.67,13.05,13.05,0,0,1-4.09-3.08,17,17,0,0,0,9.5-7.74h0A19.26,19.26,0,0,0,274.44,818.15Zm4,13.23a13.68,13.68,0,0,1-10.95-3.69A16.67,16.67,0,0,0,276,822,94.49,94.49,0,0,0,278.45,831.38ZM280,836a12.83,12.83,0,0,1-16.73,6.85,13.24,13.24,0,0,1-3.88-2.39,14.43,14.43,0,0,0,7-9,17.13,17.13,0,0,0,13.19,3.41Zm6.09,12a13.32,13.32,0,0,1-11-2.53,16.59,16.59,0,0,0,6.61-5.55A58.53,58.53,0,0,0,286.08,848Zm.8,3.41a13.41,13.41,0,0,1-7.13,6.61,39.06,39.06,0,0,0-3.86.85,14.22,14.22,0,0,1-8.77-2.44,17.64,17.64,0,0,0,1.73-1.62,23.29,23.29,0,0,0,4.09-6.54A16.74,16.74,0,0,0,286.88,851.38Zm7.66,6.85a40.49,40.49,0,0,0-4.09-.66q-1.86-.2-3.69-.21a16,16,0,0,0,3.09-4.22A62.69,62.69,0,0,0,294.54,858.23Zm4.83,5.74a11.52,11.52,0,0,1-10.62,5.12l0-.06a11.81,11.81,0,0,1-9.46-6.79,35.76,35.76,0,0,1,10.68-.49A39.84,39.84,0,0,1,299.37,864Zm12.3,6.4a13.33,13.33,0,0,1-11.3,5.55,15.62,15.62,0,0,1-9.59-3.49,14.93,14.93,0,0,0,11.79-7.21l1.66.69a54.71,54.71,0,0,0,4.87,2.68l0,.07C310,869.2,310.85,869.79,311.67,870.37Zm9.52,10.44c.41.88.76,1.77,1.13,2.72a13.91,13.91,0,0,1-9.7,1.11l.06,0a14,14,0,0,1-8.05-5.84,16.74,16.74,0,0,0,9.7-6.41A25.62,25.62,0,0,1,321.19,880.81Zm14.35,3.1a31.43,31.43,0,0,0-9.09-10.51,66.89,66.89,0,0,0,9.28.21l.2.08c1,.26,2.44,3.33,2.15,5A8.63,8.63,0,0,1,335.54,883.91Zm11.23-11.71v0a11.28,11.28,0,0,1-5.3,5.09,10.75,10.75,0,0,0-1.43-4.09C342.41,873,344.67,872.61,346.77,872.2Zm-5.86,9.35h0a12.78,12.78,0,0,1,1.87,18.22,13,13,0,0,1-1.27,1.3c-.73-3-1.5-6.05-2.48-9a45.06,45.06,0,0,0-1.95-5A10.23,10.23,0,0,0,340.91,881.55Zm12,5.35a10.75,10.75,0,0,1-3.67,3,16.73,16.73,0,0,0-5-10,14.57,14.57,0,0,0,6.6-8.12A10.67,10.67,0,0,1,353,886.9Zm5.47-4.8,0-.3a12.21,12.21,0,0,1,5.78,16.39,11.82,11.82,0,0,1-2,2.81c-1.63.33-3.32.58-5,.85h0a12.15,12.15,0,0,0-5.43-9.5A14.34,14.34,0,0,0,358.42,882.1Zm-4.65,20.17c-3,.34-6.09.55-9.12.61A16.26,16.26,0,0,0,349,894.6,8.68,8.68,0,0,1,353.77,902.27Zm4.13-25.6a15.27,15.27,0,0,0-3.61-6.28,67.82,67.82,0,0,0,6.61-2.12A10,10,0,0,1,357.9,876.67Zm6.57-8.35a12.29,12.29,0,0,1,7.13,8.74l0,.05A11.69,11.69,0,0,1,368,887.5a16.65,16.65,0,0,0-7.38-8.44A13.2,13.2,0,0,0,364.47,868.32Zm4.33,23.29h0a11.61,11.61,0,0,1,11,4.79A126.37,126.37,0,0,1,367.09,900,15.68,15.68,0,0,0,368.8,891.61Zm7.62-30.43a17.57,17.57,0,0,1-2.75,11.68,16.29,16.29,0,0,0-6.64-7.09q4.79-2.09,9.42-4.64Zm-1.4,16a11.89,11.89,0,0,1,12.81,10.53,11.25,11.25,0,0,1-1.16,6.15l-3.59,1.44v-.06a14.9,14.9,0,0,0-11.16-7A15.1,15.1,0,0,0,375,877.2Zm15.9,14.86a15.2,15.2,0,0,0-1.17-9.7,17.32,17.32,0,0,1,12.94,3.86c-3.88,2.15-7.78,4.08-11.79,5.89Zm1.6-25.81-.3-.82a11.62,11.62,0,0,1,13.24,9.33,10.87,10.87,0,0,1-1.65,7.93h0a20.62,20.62,0,0,0-12.56-3.86A15.57,15.57,0,0,0,392.52,866.25ZM407,869.39a14.23,14.23,0,0,1,12.66,5.52,141.91,141.91,0,0,1-12.07,8.39h0v-.23A14.94,14.94,0,0,0,407,869.39Zm52.43-43.26a15.68,15.68,0,0,0-4-11.3,13.83,13.83,0,0,1,14,1.46c-1.75,3-3.62,5.94-5.52,8.9A16,16,0,0,0,459.47,826.13Zm1.94,2.84c-.47.7-.94,1.39-1.42,2.08-.29-.34-.59-.64-.91-.95A8.67,8.67,0,0,1,461.41,829Zm22.41-42.56v0c-.53,1.51-1.15,3-1.76,4.54a18.07,18.07,0,0,0-7.24-9.84A14.48,14.48,0,0,1,487,777.51Q485.38,782.21,483.82,786.41Zm-2.57-122c5.37.21,10.34,4.66,10.85,9.53a15.58,15.58,0,0,0-1.91.45,19.63,19.63,0,0,0-9.16,5.48,16.14,16.14,0,0,0-12.21-8.13A14.3,14.3,0,0,1,481.25,664.41Zm-1.53-5.29a20.92,20.92,0,0,0-12.63-7.42,11.71,11.71,0,0,1,14.89-7,11.92,11.92,0,0,1,7.31,7A20.1,20.1,0,0,0,479.72,659.12Zm1.81,26.26a12.25,12.25,0,0,1,9,11,18.33,18.33,0,0,0-8.77,4.52,20,20,0,0,0-12.34-11.38,12.33,12.33,0,0,1,12.08-4.08Zm-15.84,26.77A16.57,16.57,0,0,1,475,723.06l.05,0a18.1,18.1,0,0,0-11.82,2.1C464.25,720.94,465.08,716.61,465.69,712.15Zm1.58,31.21a17.78,17.78,0,0,0-9.58,1.07c1.17-3.6,2.29-7.26,3.38-11.06A22.17,22.17,0,0,1,467.27,743.36Zm.31-50.93a16.45,16.45,0,0,1,11.28,10.27,17.21,17.21,0,0,0-12.45,4.74C467,702.53,467.39,697.54,467.58,692.43Zm24.07,24.85a21.49,21.49,0,0,0-2.41.07A19.85,19.85,0,0,0,478.32,722a20.14,20.14,0,0,0-9.59-12.09,13.87,13.87,0,0,1,13.38-3.36h0A13.86,13.86,0,0,1,491.65,717.28Zm-6,19.76a10.8,10.8,0,0,0-1.27-.19,18.1,18.1,0,0,0-14,4.84,25.73,25.73,0,0,0-7.94-11.58,14.21,14.21,0,0,1,13.87-3.24h.05l.63.27A14.17,14.17,0,0,1,485.67,737Zm-8,18.79a19.34,19.34,0,0,0-12.18,4.07,18.8,18.8,0,0,0-7.87-11.61,14.21,14.21,0,0,1,11.5-1h0A14.2,14.2,0,0,1,477.71,755.83ZM433,841.49a14.7,14.7,0,0,0-3.9-11.29,13.8,13.8,0,0,1,13.76,1.91,11.9,11.9,0,0,1,3.42,13A15.87,15.87,0,0,0,433,841.51Zm.67,10.17a12.92,12.92,0,0,1,.75,6.12,19,19,0,0,0-5.33-3.26,15.31,15.31,0,0,0-9.45-1.18,14.72,14.72,0,0,0-3.29-9.67A13.75,13.75,0,0,1,433.64,851.66Zm9.4-25.85a15.32,15.32,0,0,0-5-11.13,12.13,12.13,0,0,1,16.32,4.13,11.49,11.49,0,0,1,1.35,8.94A17.59,17.59,0,0,0,443,825.81Zm-5.7-14.55a12,12,0,0,0-3.94-9.54,12.46,12.46,0,0,1,11.57-.39,12.17,12.17,0,0,1,6.44,10.24A16.3,16.3,0,0,0,437.34,811.26ZM443,784.2a13.82,13.82,0,0,1,12.11.85,13.44,13.44,0,0,1,6.48,10.42,18,18,0,0,0-13,1.12A20.09,20.09,0,0,0,443,784.2Zm14.77-1.43a14.77,14.77,0,0,1,13.26,0,14.59,14.59,0,0,1,8.27,11.78,18.8,18.8,0,0,0-14.34,0A17.06,17.06,0,0,0,457.73,782.77Zm-7.47-14.62a12.73,12.73,0,0,1,17.69.74,12.2,12.2,0,0,1,3.27,10.33,18.42,18.42,0,0,0-14.44.2A16.48,16.48,0,0,0,450.26,768.15ZM478,759.23a17.79,17.79,0,0,1,13,5.54c-1,3.31-2,6.47-3,9.55a18.09,18.09,0,0,0-13.27,2.51,16.54,16.54,0,0,0-8.17-13.18A15.54,15.54,0,0,1,478,759.23Zm1.1,38.81c-1.68,3.68-3.5,7.29-5.47,11l-.05,0a17.45,17.45,0,0,0-7.23-11.39A15,15,0,0,1,479.07,798Zm-8.87,14.57a17.4,17.4,0,0,0-15.38-1.28l0,.08a15.77,15.77,0,0,0-5.65-11.22,13.84,13.84,0,0,1,18.81,3.89A13.2,13.2,0,0,1,470.2,812.61ZM458,833.93c-2.47,3.46-5,6.86-7.68,10.17a15.33,15.33,0,0,0-5.11-14.61c-.27-.21-.55-.39-.82-.58A13.67,13.67,0,0,1,458,833.93Zm-12.2,15.56c-2.58,3-5.23,5.94-7.92,8.75a16.71,16.71,0,0,0-4.47-13.36A12.26,12.26,0,0,1,445.76,849.49Zm-12,12.93c-2.79,2.74-5.6,5.35-8.43,7.8A15.87,15.87,0,0,0,421,856.59a11.78,11.78,0,0,1,6.69,1C430.72,858.94,432.53,860.1,433.79,862.42Zm-12.36,9.24A18.11,18.11,0,0,0,407.32,866l-.11,0a14.62,14.62,0,0,0-1.9-10.85c4.23-1.18,9.52.5,12.69,3.26A12.2,12.2,0,0,1,421.43,871.66ZM380.25,859.1a13.07,13.07,0,0,1,7.91,5.76,2.12,2.12,0,0,0,.27.49,11.72,11.72,0,0,1-1.18,13.31,16.09,16.09,0,0,0-9.95-4.84,20.86,20.86,0,0,0,2.4-14.45c.18-.1.35-.19.51-.3Zm9.07,1.73a16.85,16.85,0,0,0-5.6-4.14c1.89-1.26,3.75-2.56,5.58-3.93h0A12.8,12.8,0,0,1,389.32,860.83Zm3.29-9.27a11.85,11.85,0,0,1,9.58,4.87h0a11.19,11.19,0,0,1,1.64,9.11A16.16,16.16,0,0,0,392.75,862,15.93,15.93,0,0,0,392.61,851.56Zm7.38-7.67a14,14,0,0,1,1.36,7.09,15.69,15.69,0,0,0-6.39-2.63Q397.51,846.19,400,843.89Zm2.77-2.2a10.73,10.73,0,0,1,9.66,2.62h0a12,12,0,0,1,3.75,8.94,17.4,17.4,0,0,0-11.34-1.51A17.44,17.44,0,0,0,402.76,841.69Zm9.93-1.4a14.3,14.3,0,0,0-6.85-2.24q3.26-3.43,6.32-7.17A16.09,16.09,0,0,1,412.69,840.29Zm2.54-11.3a11.67,11.67,0,0,1,10.49,2.52v0a11.32,11.32,0,0,1,3.83,10.3,17.32,17.32,0,0,0-13.16-1.75A19.74,19.74,0,0,0,415.23,829Zm10.21-1.77a15.68,15.68,0,0,0-8.9-1.94c2-2.71,4-5.5,5.92-8.42A10.44,10.44,0,0,1,425.44,827.22Zm-.63-12.83a12.58,12.58,0,0,1,10.56,2.39h0a12,12,0,0,1,4.26,9.85,17.08,17.08,0,0,0-10.44-.09A13.8,13.8,0,0,0,424.81,814.39Zm8.95-2.46a16,16,0,0,0-7.4-1.25q2.1-3.49,4.05-6.81h0l.17-.11A9,9,0,0,1,433.76,811.93Zm6.52-25.62a16.6,16.6,0,0,1,4.86,11.43,16.12,16.12,0,0,0-11-.06C436.3,793.8,438.35,790,440.28,786.31Zm7.58-15.76a13,13,0,0,1,5.52,10.09,17.74,17.74,0,0,0-10.18-.11Q445.66,775.5,447.86,770.55ZM455.61,751c3.45,2.48,6.52,6.36,6.73,11.09a17,17,0,0,0-11.57,1.65C452.52,759.51,454.09,755.27,455.61,751Zm11.81-76a12.48,12.48,0,0,1,10.75,6.82,15.81,15.81,0,0,0-10.47,4.61C467.76,682.67,467.61,678.82,467.42,675Zm-1.85-20a17.26,17.26,0,0,1,11.54,6.48A18,18,0,0,0,467,668.13Q466.46,661.64,465.57,654.93Zm-3.21-18.6a13.88,13.88,0,0,1,10.27,5.33v0a15.4,15.4,0,0,0-8,6.9C464,644.55,463.22,640.46,462.36,636.33Zm-4.5-19.06a1.56,1.56,0,0,0,.59-.49,17.52,17.52,0,0,1,13.13,2.81,19,19,0,0,0-10.5,10.64C460.1,626,459,621.64,457.86,617.27ZM452,597.72a15.69,15.69,0,0,1,13.76,5.41,20.73,20.73,0,0,0-9.15,9.32Q454.55,605,452,597.72Zm-6.17-15.48A16.86,16.86,0,0,1,456,585h0A18.69,18.69,0,0,0,450,592.3C448.66,588.86,447.25,585.55,445.78,582.24Zm15.59-18.36c1.34,2,2.65,4.08,3.92,6.13a13.83,13.83,0,0,0-6.21,4.88h0a13.46,13.46,0,0,0-2.38,6.57,20.46,20.46,0,0,0-12-2.51,14.68,14.68,0,0,1,4.22-13.21A11.77,11.77,0,0,1,461.37,563.88Zm-12-2.62h0a9.84,9.84,0,0,1,2.16-11.13c2.38,3.11,4.65,6.28,6.88,9.45A15.59,15.59,0,0,0,449.39,561.26ZM470.57,571a233.44,233.44,0,0,0-50.24-59.27l-.36-.29c-10.45-8.66-21.26-17.65-34.16-22.76a16,16,0,0,0-8.13-1.45c-3.08.46-6.38,2.89-6.41,6.51s3.28,6.1,5.05,7.42c31,23,55.49,55.69,69.57,92-7,.6-30.62,6.05-47.1,14.11-5.37,2.61-12.75,5-19.91,3.91s-13.45-5.29-19.57-9.49l-2.64-1.78c-6.95-4.63-16.14-9.71-25.68-7.94a38.27,38.27,0,0,0-9.11,3.33,45.84,45.84,0,0,1-6.33,2.57,18.3,18.3,0,0,1-3,.62,25.05,25.05,0,0,0,3.51-2.13,62.59,62.59,0,0,1,5.91-4A30.24,30.24,0,0,1,335,588.24a28,28,0,0,1,6.9.38,53.56,53.56,0,0,1,7,1.91c4.67,1.6,9.32,3.62,14.19,5.45a47.41,47.41,0,0,0,15,3.43,36.9,36.9,0,0,0,15.07-2.75,34.56,34.56,0,0,0,12.26-8.52,34.9,34.9,0,0,1-27.24,9.31,44.86,44.86,0,0,1-14.09-4.24c-4.56-2.05-9.06-4.38-13.82-6.36a60,60,0,0,0-7.49-2.54,32.67,32.67,0,0,0-8.17-1,36.94,36.94,0,0,0-8.06,1,35.67,35.67,0,0,0-7.65,2.83,66.92,66.92,0,0,0-6.76,3.94,16,16,0,0,1-5.74,2.3l-.33,0a27.35,27.35,0,0,0,4-2.39c1.74-1.24,3.41-2.64,5-4,3.32-2.8,6.45-5.42,10.25-6.88,4.84-1.85,11-1.74,18.2.33,2.9.83,5.81,1.9,8.63,2.92,3.32,1.21,6.73,2.46,10.25,3.38,8.11,2.11,17.45,2.17,23.08-.44,3.71-1.73,12.49-7.29,11-18.87-.52-4-8.32-20.58-37.4-15.52-12.12,2.12-24.4,5.47-43.31-.84a247.61,247.61,0,0,1-27.22-11.54l-2.5-1.17c-8.89-4.18-20.62-8.72-32.57-6.69a32.42,32.42,0,0,0-5.23,1.36,31.21,31.21,0,0,1,11.1-5.06,44,44,0,0,1,19.36.61A122.34,122.34,0,0,1,298,535.35a172.79,172.79,0,0,0,19.75,7.24,58,58,0,0,0,21.05,2.08,57.27,57.27,0,0,0,36.7-17.4,56.5,56.5,0,0,1-36.85,15.41,55.53,55.53,0,0,1-20-2.94,168.49,168.49,0,0,1-19-8A126.71,126.71,0,0,0,279.91,524a49.48,49.48,0,0,0-21.79-1.6,37.53,37.53,0,0,0-14,5.69,34.13,34.13,0,0,1,11.82-8c13.76-5.45,29.43-1.54,41.53,2.51,2.63.88,5.24,1.79,7.86,2.7,11.31,4,23,8,35.21,8.15a23.29,23.29,0,0,0,10.69-2,11.79,11.79,0,0,0,6.75-9.36c.52-6.76-5.75-11.33-8.42-13-8.36-5.07-18-6.46-27.45-7.84-9.89-1.41-19.3-2.79-27.1-8.09-6.61-4.48-11.19-11.19-16-18.29-5-7.34-10.24-14.94-17.81-19.79-8-5.13-18.59-7.08-32.28-6-3.72.31-7.48.79-11.12,1.26a126.84,126.84,0,0,1-20.71,1.4,59.39,59.39,0,0,1-25.72-7,68.39,68.39,0,0,0,20.26,4.79,64.38,64.38,0,0,0,13.24-.29,109,109,0,0,0,12.67-2.46c8.32-2,16.21-4.4,24.35-5.15a47,47,0,0,1,12.14.3,35,35,0,0,1,11.4,4c7.23,3.91,13.33,9.75,19.41,15.54S297.22,473,305,476.67A35.56,35.56,0,0,0,317.35,480a24,24,0,0,0,12.34-2.2,24,24,0,0,1-12.32,1.65,34.62,34.62,0,0,1-11.93-3.71c-7.38-3.82-13.42-9.88-19.28-15.83s-11.79-12.22-19.33-16.67a38.86,38.86,0,0,0-12.29-4.8,50.24,50.24,0,0,0-13.12-.83c-8.6.48-17,2.63-25.15,4.26a103.83,103.83,0,0,1-12.16,1.89,59.3,59.3,0,0,1-12.06-.21A62,62,0,0,1,171,437.07a55.23,55.23,0,0,0,14.86,2.47c14.55.39,28.8-4.93,41.44-9.6,14.73-5.49,25.76-7.35,38.08-6.42,15.17,1.14,26.22,8.46,33.76,22.36a31.58,31.58,0,0,0,11.13,11.57,18.49,18.49,0,0,0,16.36,1.89c6-2.48,9.95-9,10.2-16.67a92.86,92.86,0,0,0-8-36.73c-4.56-10.06-9.4-16.95-19.36-20.37-7.45-2.54-15.27-3.54-22.83-4.49-2.35-.3-4.71-.6-7.09-1-8.39-1.24-19.05-3.46-27.12-9.68l-.73-.64a9.46,9.46,0,0,1,.82.53c7,4.1,14.64,6,22.12,7.09,3.74.56,7.47.9,11.15,1.2s7.46.43,11.1.62,7.24.39,10.75.91a50.25,50.25,0,0,1,5.17,1c1.69.41,3.38,1.05,5.08,1.58a58.53,58.53,0,0,1,9.59,4.57,46.14,46.14,0,0,1,8.28,6.56,54.47,54.47,0,0,1,11.38,17.88,81.45,81.45,0,0,1,3.46,10.15c.89,3.46,1.57,7,2.15,10.54,1.19,7.08,2.22,14.28,4.67,21.1-2.13-6.92-2.82-14.09-3.68-21.23-.44-3.57-.92-7.16-1.68-10.72a81.2,81.2,0,0,0-3.1-10.52,56.7,56.7,0,0,0-11-19.18,49.15,49.15,0,0,0-8.58-7.44,62.26,62.26,0,0,0-10.07-5.36c-1.79-.65-3.49-1.43-5.37-1.94a56.44,56.44,0,0,0-5.6-1.37c-3.74-.71-7.48-1.11-11.16-1.44s-7.33-.62-10.89-1.08-7.2-1-10.71-1.65c-6.91-1.38-13.8-3.43-19.39-7.09a33,33,0,0,1-4.6-3.58,46.83,46.83,0,0,0,7.88,2.66c11.29,2.87,23,3.62,34.35,4.21,6.46.37,13.16.76,19.64,1.55,21.71,2.65,37.25,10.16,46.21,22.35,6.95,9.46,9.64,21.61,12.26,33.34,2.75,12.39,5.61,25.22,13.42,35.41,4.56,5.91,10.38,7.59,15.62,4.51,7.37-4.35,4.65-12.64,1.52-22.27a82.54,82.54,0,0,1-4.21-17c-.46-4.56.93-10.05,2.3-15.37a75.74,75.74,0,0,0,2.21-10.86c1.36-14.83-3.69-27.94-14-37.32,1,.53,1.94,1.06,2.89,1.61A54.49,54.49,0,0,1,407,376.09a29.43,29.43,0,0,1,6.4,17.72c.36,6.53-.76,13.23-1.42,20a82.93,82.93,0,0,0-.53,10.33,36.51,36.51,0,0,0,1.48,10.37,80,80,0,0,0,3.78,9.67c1.37,3.14,2.77,6.26,4,9.45a41.85,41.85,0,0,1,3.16,19.92c1.19-6.78-.06-13.71-2.21-20.22-1-3.33-2.29-6.49-3.52-9.68a82.22,82.22,0,0,1-3.24-9.61,35.63,35.63,0,0,1-.91-9.86,77.41,77.41,0,0,1,1-10c1-6.66,2.46-13.38,2.43-20.47a33.72,33.72,0,0,0-6.4-20.55,59.86,59.86,0,0,0-16.19-14.46c-1.33-.87-2.68-1.69-4-2.49,9.74,3.41,19.4,7.33,25,15.44,5.79,8.39,10.88,18.79,8.95,37.86-2.12,20.79,4.37,31.58,12.58,45.22,2.4,3.89,4.84,8,7.3,12.7,2.11,4,4.64,7.9,8.82,9.35a10.05,10.05,0,0,0,8.17-.73,18.36,18.36,0,0,0,8.57-11.67c2.35-9.77-.26-20.91-7.85-34-1.48-2.55-3.08-5.08-4.62-7.55-4.41-7-9-14.31-11.24-22.23-.21-.7-.37-1.41-.52-2.12.28.71.57,1.41.9,2.1a52.84,52.84,0,0,0,5.2,8.61,95.93,95.93,0,0,0,6.19,7.54l6.31,7.15c2,2.29,4.14,4.75,6.12,7.17,1,1.2,1.86,2.4,2.8,3.63a21.87,21.87,0,0,1,2.37,3.89,42.13,42.13,0,0,1,5.38,17.16,61.25,61.25,0,0,1-1.31,18.17c-1.26,6-3.13,12-5,17.89-.93,3-1.84,6-2.58,9a37.11,37.11,0,0,0-1.26,9.26,37.8,37.8,0,0,1,1.74-9.12c.89-3,2-5.88,3-8.8,2.18-5.83,4.39-11.68,6-17.75a64,64,0,0,0,2.39-18.83,45.12,45.12,0,0,0-4.81-18.76c-.69-1.5-1.58-2.89-2.39-4.32a41.13,41.13,0,0,0-2.8-4.06c-1.91-2.59-3.86-5.1-5.82-7.59l-5.88-7.42c-2-2.49-3.84-4.91-5.49-7.44a44.34,44.34,0,0,1-4.23-7.81,31.9,31.9,0,0,1-2.1-8.17l0-.07a44.32,44.32,0,0,0,4.48,10.32c4.75,8,11.45,14.52,17.91,20.84l2.26,2.2c3.81,3.75,16.59,16.8,21,27.37,5.22,12.6,4.82,26,2.75,40.68C496.4,510.15,476.38,546.63,470.57,571Zm-39.7-34.8a25.7,25.7,0,0,0,.65,2.89A22.31,22.31,0,0,0,418.69,537c-1.11-1.43-2.24-2.85-3.38-4.29h-.06l0-.09A10.54,10.54,0,0,1,423.66,520l.21,0c2.78,2.5,5.46,5.07,8.08,7.69l-.2.28A14.14,14.14,0,0,0,430.87,536.17Zm-19.37-18a33.42,33.42,0,0,0-11.92-2.51c-1.3-1.26-2.61-2.53-3.94-3.76l.05,0a9.78,9.78,0,0,1,1.89-6.23,8.42,8.42,0,0,1,4.43-3.43c3.47,2.46,6.7,5,9.94,7.66A13.88,13.88,0,0,0,411.5,518.14ZM392.42,509c-4.36-3.9-8.93-7.64-13.62-11.14-1.65-1.22-3.39-2.65-3.4-4.14a3.25,3.25,0,0,1,3-2.58,11.82,11.82,0,0,1,6,1.19A77.84,77.84,0,0,1,398.69,500,13.8,13.8,0,0,0,392.42,509Zm21.24,14h0a14,14,0,0,0-2,5.52q-4-4.69-8.39-9.15A29,29,0,0,1,413.66,523Zm1.16-10.71,2.5,2.08.36.29c1,.86,2,1.75,3.05,2.63a14.91,14.91,0,0,0-4.73,2.85A10.74,10.74,0,0,1,414.82,512.27Zm17.74,31.41h0a14.75,14.75,0,0,0-4.19,6.86q-3.51-5.28-7.31-10.35A19.18,19.18,0,0,1,432.56,543.68Zm1.94-13.36q4.41,4.56,8.54,9.33a15.64,15.64,0,0,0-7.21,1.72h0a32.12,32.12,0,0,1-1.61-5.67A11.56,11.56,0,0,1,434.5,530.32ZM442.61,543a12.71,12.71,0,0,1,3.58.42c1.1,1.32,2.19,2.66,3.24,4a13.33,13.33,0,0,0-4,6.91,13,13,0,0,0-.15,4.81,20.08,20.08,0,0,0-12.42-1.58L431.26,555A11.57,11.57,0,0,1,442.61,543Zm3.58,20.58,0,0a16.91,16.91,0,0,0-4.88,9.26q-3.18-6.14-6.66-12.15A16.9,16.9,0,0,1,446.19,563.57Zm26.16,18.49a19.63,19.63,0,0,0-12.24.63,10.16,10.16,0,0,1,7-9.7Q469.87,577.51,472.35,582.06Zm4.11,7.69-.07-.07a15.57,15.57,0,0,0-9.65,9.46,19.31,19.31,0,0,0-13.77-5,15.51,15.51,0,0,1,20.2-8.35,14.92,14.92,0,0,1,1.62.75C475.35,587.62,475.88,588.68,476.46,589.75Zm5.65,12.13a22,22,0,0,0-12.52-.32,12.11,12.11,0,0,1,8.29-8.81Q480.09,597.31,482.11,601.88Zm1.59,4.23a13,13,0,0,0-10.79,10.27A21.34,21.34,0,0,0,460,613.14a17.41,17.41,0,0,1,8.64-7.72h0A18.33,18.33,0,0,1,483.7,606.11ZM490,621.89a20,20,0,0,0-13.87-3.51,9.7,9.7,0,0,1,9.13-9C487,613.52,488.56,617.7,490,621.89Zm2.66,7.79h0a18.21,18.21,0,0,0-11.12,2.08,16.15,16.15,0,0,0-6.93,6.88,17.6,17.6,0,0,0-10.77-5.51,15.39,15.39,0,0,1,18.8-11,15.93,15.93,0,0,1,9.15,6.19,1.94,1.94,0,0,0,.58.49ZM496,641.3a19.12,19.12,0,0,0-5.17,6.08,16,16,0,0,0-13.23-6.67l-.1,0a12.71,12.71,0,0,1,5.68-6,14.76,14.76,0,0,1,10.48-1.38q1.2,4,2.23,8Zm2.29,9.3-.05,0a20.33,20.33,0,0,0-5.17.21A15.72,15.72,0,0,1,497,645C497.45,646.88,497.88,648.75,498.29,650.6Zm2.5,13.42-.05,0a14,14,0,0,0-6.51,5.23,15.63,15.63,0,0,0-11.6-8.08A17.12,17.12,0,0,1,499,654.06C499.63,657.41,500.2,660.73,500.79,664Zm1.3,10.72a19.76,19.76,0,0,0-6.19-1.09,10.38,10.38,0,0,1,5.34-6.12C501.58,670,501.85,672.36,502.09,674.74Zm.82,11a14.69,14.69,0,0,0-9.85,5.68,15.87,15.87,0,0,0-9.72-9,15.85,15.85,0,0,1,7.88-4.9,15.69,15.69,0,0,1,11.2,1c.2,2.44.33,4.85.44,7.22Zm0,11.76h0a19.2,19.2,0,0,0-8.38-1.65,11.19,11.19,0,0,1,8.46-6.71C503.07,692,503,694.77,503,697.51Zm-.87,11.54a23.32,23.32,0,0,0-7.59,5.25A17.34,17.34,0,0,0,484,703.64a15,15,0,0,1,8-4.12,16,16,0,0,1,10.77,1.63C502.54,703.8,502.32,706.43,502.08,709.05Zm-1.15,10.56a20.32,20.32,0,0,0-4.87-1.83,19.48,19.48,0,0,1,5.71-4.85Q501.4,716.29,500.93,719.61Zm-2.09,12.74a12.48,12.48,0,0,0-10.24,2.39,17.91,17.91,0,0,0-8.29-9.8,16.34,16.34,0,0,1,9.43-4.2,17.24,17.24,0,0,1,10.63,2.58C499.9,726.35,499.35,729.36,498.84,732.35Zm-2.34,11a18.82,18.82,0,0,0-6.74-5.06,8.85,8.85,0,0,1,8.36-2.63Q497.34,739.63,496.5,743.4Zm-2,8.39a17.47,17.47,0,0,0-13.81,2.39,17.76,17.76,0,0,0-8.57-9.34,14.3,14.3,0,0,1,23.37,3l0,.06C495.17,749.27,494.87,750.52,494.54,751.79Zm-2.49,9.29a21.92,21.92,0,0,0-8.69-4.54A14,14,0,0,1,493.72,755c-.55,2.07-1.11,4.1-1.66,6.08Zm-35,89.93-4.3-3.38a226.32,226.32,0,0,0,32.41-53.31A252.73,252.73,0,0,1,457.84,850l-.07-.07Zm-2.95,4.42L449,852.17c.56-.66,1.12-1.35,1.66-2l4.66,3.58C454.88,854.31,454.5,854.88,454.1,855.43ZM385,911.3a24.86,24.86,0,0,1-4.38-11,140.76,140.76,0,0,0,44.27-24.38,188.63,188.63,0,0,0,21.68-21.18l5.43,3.45c-19.88,27.24-41.32,43.12-55.55,49.06v0A100.67,100.67,0,0,1,385,911.3ZM375.2,914a19.22,19.22,0,0,1-2.38-11.16l0-.05c1.54-.42,3.07-.87,4.62-1.34a28.3,28.3,0,0,0,4.21,11Q378.49,913.24,375.2,914Zm-28.57,3.42A61.18,61.18,0,0,1,343.07,907a121.79,121.79,0,0,0,26.1-3.33,22.67,22.67,0,0,0,2.46,11A152.84,152.84,0,0,1,346.63,917.4Zm-75.67,72,3.62.91a147.85,147.85,0,0,0,14.84,3.18c5.75.91,12.95,1.93,19.17-1,7.29-3.44,10.55-11.79,9.43-24.1-1.25-13.6,2.47-25.37,6.06-36.79a151.4,151.4,0,0,0,5.05-18.85,58,58,0,0,0-2.4-29.18,1.21,1.21,0,0,0-.15-.44c-.48-1.35-1-2.66-1.62-4a21,21,0,0,0-1.73-3c5.77,3.71,9.82,10.66,11.92,17.07,1.06,3.2,1.88,6.59,2.7,9.83,1.62,6.65,3.33,13.55,7,19.65a73.3,73.3,0,0,0,6.3,8.4,36.86,36.86,0,0,1,10.4,21.73c.2,1,.4,2.06.62,3a43,43,0,0,0,3,9.36l-.31-.34c-.81-1-1.6-2.11-2.37-3.21-1.54-2.21-3-4.51-4.62-6.88a59.6,59.6,0,0,0-5.19-6.8,27.2,27.2,0,0,0-6.9-5.58,21.07,21.07,0,0,0-8.5-2.65,15.55,15.55,0,0,0-4.41.36,12.07,12.07,0,0,0-3.87,1.78,14.28,14.28,0,0,1,8-.18,21.94,21.94,0,0,1,7.08,3.35c4.3,3,7.29,7.36,10.36,11.92l1.29,1.88a8,8,0,0,0-5.8.53,9.73,9.73,0,0,0-5.27,6.56c-.81,4,.83,8.79,4.5,12.91a56.18,56.18,0,0,0,5.09,4.78c1.43,1.26,2.81,2.43,4.07,3.73A28.29,28.29,0,0,1,366,1010a55.94,55.94,0,0,1-2.45,10c-.55,1.78-1.12,3.61-1.59,5.47-1.8,7-1.58,12.71.7,17.32a14.23,14.23,0,0,0,1.59,2.68,18.45,18.45,0,0,1-8.93-15.07c-.16-3.57-.26-7.38-.75-11.12a37.79,37.79,0,0,0-3-11.1,30.81,30.81,0,0,0-28-17.33A31.42,31.42,0,0,1,343,1000.4a29.36,29.36,0,0,1,5.79,8.87,36.81,36.81,0,0,1,2.25,10.29c.35,3.58.35,7.13.4,10.9a22.21,22.21,0,0,0,3.55,11.42,22.76,22.76,0,0,0,6.45,6.52c-6.39-2.62-11.5-7.85-12.65-13.18l0,0c-1.86-8.77-5.23-14.59-10.29-17.82-5.6-3.56-12.76-2.11-17.67-.71l-1.69.46c-4.47,1.32-9.1,2.69-13.33,1.62-5.2-1.3-8.94-6-12.56-10.55-.75-1-1.5-1.9-2.25-2.8A65.73,65.73,0,0,0,271,989.42Zm-54.74,35.1a9.28,9.28,0,0,1-5.52-8.31,9.69,9.69,0,0,1,5.55-8.41l4.56-2.19-4.88-1.55a4.88,4.88,0,0,1-2.84-3.58,18.26,18.26,0,0,1-.22-5.52l0-.61a17.24,17.24,0,0,0-.88-7.53,14.09,14.09,0,0,0-9.35-7.68,39.94,39.94,0,0,0-9.54-1.3l-1.47-.08a23.45,23.45,0,0,1-9.51-2c-1.17-.61-5-2.83-5-6.07v-3.84L174,967.94a4.83,4.83,0,0,1-4.73.24,4.44,4.44,0,0,1-2.38-3.88l-.1-3.84-3.17,2.21A6.81,6.81,0,0,1,155,961.6a4.82,4.82,0,0,1-1-2.33c-.6-3.26.15-5.61,2.18-6.77a7.21,7.21,0,0,1,7.64.75l1.18.93,1.25-.81a4.84,4.84,0,0,1,6.62,1.19,4.62,4.62,0,0,1,.77,1.74l.51,1.85,1.92-.36a4.22,4.22,0,0,1,3,.93,24.24,24.24,0,0,1,3.44,2.87c5.1,5.14,10.57,6.31,14.64,3.1l4.84-3.83-6.25.21c-3.85.13-5.59-1.22-8.23-3.24a15,15,0,0,1-5.17-7.42l-.44-1.4-1.47-.06a6,6,0,0,1-5.68-6.21,5.57,5.57,0,0,1,.84-2.72l2.11-2.93-3.68-.27a6.31,6.31,0,0,1-5.87-6.64,6.06,6.06,0,0,1,4.47-5.43,7,7,0,0,1,5.15.66,4.82,4.82,0,0,1,2.31,3.25l.41,1.84,1.9-.25a3.61,3.61,0,0,1,3.58,1.58,4.3,4.3,0,0,1-.34,5l-3.4,3.75,5.16-.38a1.41,1.41,0,0,1,1.11.46,6.12,6.12,0,0,1,1.31,4.61,10.22,10.22,0,0,0,5,8.5,8.37,8.37,0,0,0,8.17.87l5.6-2.66-6.21-1.09c-.69-.14-4.2-1-5.39-5.85a5.59,5.59,0,0,1,.83-4.58l5.06-1.82-5.06-2-.08,0c-3-1.22-2.51-4.75-2.44-5.15A5.61,5.61,0,0,1,198,928l3.41-2.31-4-1.27a5,5,0,0,1-2.94-5.58,7.72,7.72,0,0,1,5-5.38,5.86,5.86,0,0,1,4.34-.17,6.3,6.3,0,0,1,3.27,3.35,6.14,6.14,0,0,1-.77,5.19l-1.22,1.63,1.69,1.21a6.45,6.45,0,0,1,2.72,3.53,3.84,3.84,0,0,1-1.53,4l-2.46,1.9,2.71,1.51c1.56.86,2.38,3.39,2.38,7.29V944a22.1,22.1,0,0,0,1.32,9.27c1.95,4.43,6.22,7.12,9.27,8.74,7.83,4.17,48.52,10.6,59.83,8.56,3.48-.62,7.75-1.77,9.9-5.3a8.47,8.47,0,0,0,1.21-3.72,10.34,10.34,0,0,0,2.82-4.5,17.36,17.36,0,0,0,18.71,6.23c0,1.78.09,3.59.26,5.44.67,7.33,0,16.78-7.15,20.17-4.7,2.21-10.35,1.57-16.75.67-4.85-.81-9.66-1.87-14.41-3.15-8.26-2.09-16.76-4.24-25.36-3.81l-.67-.12-.06.15c-1,.07-1.95.15-2.91.26l-.06,0c-10.36,1.43-14.29,10.64-15,15.85a29,29,0,0,1-1,4.9c-1.07,3.33-2.54,5.22-4.64,5.91l-3,1,2.24,2.28a7.39,7.39,0,0,1,.48,9.25A8.4,8.4,0,0,1,216.22,1024.52Zm-37.48-71.69a16.32,16.32,0,0,0,.7,1.61,8.82,8.82,0,0,0-2.47-.64,9.56,9.56,0,0,0-1.41-2.16A10.36,10.36,0,0,0,178.74,952.83Zm25.2,85.29a21.15,21.15,0,0,0,2.61-1.69,21.84,21.84,0,0,0,6.85-8.82c.41.22.82.42,1.25.6l.09,0a12.48,12.48,0,0,0,5.57.84,11.27,11.27,0,0,1-1.64,2.41,17.38,17.38,0,0,1-5.14,3.89h-.05A25.09,25.09,0,0,1,203.94,1038.12Z"/><path class="cls-1" d="M199.79,541.08a15.39,15.39,0,0,0-11-4.54h-67a12.63,12.63,0,1,1,0-25.26h30.4a1.43,1.43,0,0,0,0-2.86H105.9a15.49,15.49,0,1,0,0,31h67a12.64,12.64,0,0,1,0,25.27h-39a1.43,1.43,0,0,0-1.43,1.43,1.38,1.38,0,0,0,.42,1,1.42,1.42,0,0,0,1,.42h54.9a15.5,15.5,0,0,0,11-26.45Zm-13.72,2.83a15.56,15.56,0,0,0-4.27-4.51h7a12.64,12.64,0,0,1,0,25.27h-7A15.44,15.44,0,0,0,186.07,543.91ZM108.64,532a15.59,15.59,0,0,0,4.28,4.51h-7a12.63,12.63,0,1,1,0-25.26h7A15.44,15.44,0,0,0,108.64,532Z"/><path class="cls-1" d="M319.47,55.44H310.3l0,.25,0-.25H188.11a12.45,12.45,0,0,1,0-24.89h67a15.28,15.28,0,0,0,15-15.52,15.22,15.22,0,0,0-15-15H112.6a1.42,1.42,0,1,0,0,2.83H223.91a12.45,12.45,0,0,1,.22,24.89H172.41a15.28,15.28,0,0,0,0,30.55H288.06a12.45,12.45,0,1,1,0,24.89H243.65a15.31,15.31,0,0,0-15.27,15.27,1.37,1.37,0,0,0,.41,1,1.41,1.41,0,0,0,2.42-1A12.48,12.48,0,0,1,243.65,86h75.82a15.28,15.28,0,0,0,0-30.55ZM296.9,58.27h6.87a12.45,12.45,0,0,1,0,24.89H296.9a15.24,15.24,0,0,0,0-24.89Zm22.57,24.89h-6.86a15.26,15.26,0,0,0,0-24.89h6.86a12.45,12.45,0,0,1,0,24.89ZM179.28,55.44h-6.87a12.45,12.45,0,0,1,0-24.89h6.87a15.24,15.24,0,0,0,0,24.89ZM254.41,15A15.25,15.25,0,0,0,248,2.83h7.1a12.45,12.45,0,0,1,0,24.89H248A15.17,15.17,0,0,0,254.41,15ZM232.76,2.83h6.61a12.45,12.45,0,0,1,0,24.89h-6.6a15.26,15.26,0,0,0,0-24.89Z"/><path class="cls-1" d="M460.68,164.6h96.54v-2.85H422.33a18.35,18.35,0,0,0,0,36.7H504.1a15.5,15.5,0,1,1,0,31H343.72a18.35,18.35,0,1,0,0,36.69h92.57a15.51,15.51,0,0,1,15.49,15.5,1.43,1.43,0,0,0,1.43,1.42h0a1.41,1.41,0,0,0,1.41-1.42,18.36,18.36,0,0,0-18.34-18.34H382.06a15.5,15.5,0,0,1,0-31H523.27a18.35,18.35,0,1,0,0-36.69H460.13a15.5,15.5,0,1,1,.55-31Zm-117,98.69a15.5,15.5,0,1,1,0-31h9.38a18.31,18.31,0,0,0,0,31Zm20-15.5a18.34,18.34,0,0,0,8.55,15.5h-9.38a15.5,15.5,0,1,1,0-31h9.38A18.33,18.33,0,0,0,363.72,247.79Zm159.55-49.34a15.5,15.5,0,1,1,0,31h-9.38a18.3,18.3,0,0,0,0-31ZM422.33,195.6a15.5,15.5,0,0,1,0-31H432a18.32,18.32,0,0,0,0,31ZM442,180.4a18.33,18.33,0,0,0,8.54,15.2h-9.06a15.5,15.5,0,0,1,0-31h9.08A18.31,18.31,0,0,0,442,180.4Z"/></g></g></svg>