<svg xmlns="http://www.w3.org/2000/svg" xmlns:xlink="http://www.w3.org/1999/xlink" viewBox="0 0 65 65"><defs><style>.cls-1{fill:#0046ae;}.cls-2{fill:#fcbd1f;}.cls-3{fill:#00b3dd;}.cls-4{fill:#ffaa3b;}.cls-5{fill:url(#未命名漸層_24);}.cls-6{fill:url(#未命名漸層_35);}</style><linearGradient id="未命名漸層_24" x1="29.05" y1="43.21" x2="15.61" y2="30.85" gradientUnits="userSpaceOnUse"><stop offset="0" stop-color="#ff621f"/><stop offset="1" stop-color="#ffd04a"/></linearGradient><linearGradient id="未命名漸層_35" x1="48.35" y1="28.18" x2="34.02" y2="46.43" gradientUnits="userSpaceOnUse"><stop offset="0" stop-color="#00cae7"/><stop offset="1" stop-color="#0046ae"/></linearGradient></defs><title>LOGO_65x65</title><g id="圖層_2" data-name="圖層 2"><g id="圖層_1-2" data-name="圖層 1"><circle class="cls-1" cx="32.5" cy="32.5" r="32.5"/><rect class="cls-2" x="24.82" y="49.6" width="14.77" height="2.69" transform="translate(64.41 101.89) rotate(-180)"/><circle class="cls-3" cx="50.45" cy="21.13" r="1.13"/><circle class="cls-3" cx="53.3" cy="34.29" r="1.13"/><circle class="cls-2" cx="32.17" cy="13.82" r="1.13"/><circle class="cls-4" cx="14.55" cy="21.13" r="1.13"/><circle class="cls-4" cx="11.7" cy="34.29" r="1.13"/><polygon class="cls-5" points="21.82 38.82 15.41 22.84 39.59 47.13 24.81 47.13 13.16 35.43 21.82 38.82"/><polygon class="cls-6" points="49 22.84 42.67 38.61 51.54 35.13 39.6 47.13 24.82 47.13 49 22.84"/><path class="cls-2" d="M32.17,33.22a14.64,14.64,0,0,0-7.6-7.59,14.69,14.69,0,0,0,7.6-7.6,14.64,14.64,0,0,0,7.59,7.6A14.58,14.58,0,0,0,32.17,33.22Z"/></g></g></svg>