<svg xmlns="http://www.w3.org/2000/svg" viewBox="0 0 485 230"><defs><style>.cls-1{fill:#ff621f;}</style></defs><title>斜毛筆_數字or按鈕</title><g id="圖層_2" data-name="圖層 2"><g id="圖層_1-2" data-name="圖層 1"><path class="cls-1" d="M480.83,25.8c.25-.14-.27-3.13-.32-1.86.63,2.49-.75.73-.92,2.31-.63.13-1-.83-1.27-1.91.26-1.8,1.79-2,2.22-3.56-.3-1.54-1-1.92-1.5-1-3.2-1.95-7.22,3.18-10.35,3.34-.36.12-.4-.93-.84-.49-1.51.95-3.74,3.89-5.74,1.69-1,1-2,.88-3.2,1.15.11,1-.2,1.49-.87,1.5.17-.85-.1-.47-.26-1.49.44-.31,1-.54,1.12-1.19-.31-.44-.94.32-1-1.23,1.19-.41,1.32-2.19,2.34-2.81-.36,0-.5-.95-1-.42-.4,2.39-2.3,2.86-2.2,5.91a3,3,0,0,1-.79-2.47c-1.69-1.46-3.44,1.12-5,.25-.24-1.37.43-1.59.51-2.55-1.32.25,0-1.06-.14-1.92-.74,1.57-2.45,1.91-3.65,2.89a16.9,16.9,0,0,0-2.35-.12,6.37,6.37,0,0,0,0-2.13,30.93,30.93,0,0,1-4,2.26,1,1,0,0,1,.2.32,32.92,32.92,0,0,0-4.31,1.26,2.8,2.8,0,0,1,.36-1.39c-.89-.37-1.45-.89-1.63,1.57l-.3-1.78a2.44,2.44,0,0,1-1,1.19c0-2.18,0-4.3,0-6.18-.58-.46-1.15-.89-1.69-1.31a.86.86,0,0,1,.33-.11c-.16-2.65-.91.42-1.17-1.29.74-.71,2.29-2.84,3.41,0,3.13-1.9,5.38-4.09,8-2-.41-3.12.58,1.18.89.79.32-1-.65-2.8-.33-3.06.18-.09.13-.59.25-.78.58-.9.86,1.09,1.34,1.18-.07-1.76.87-1.7,1.52-2.17.89,4.39,1.66.84,2.38.61,2.93-1,7-1.07,9.21-2.64-2.05-.69-2.39,1.09-4.3-.8-1.66,3.55-4.85,1.52-7,3.33A17.36,17.36,0,0,0,446.84,6c.06-1,.5-1.29.56-2.27-.88-.89-2.1,3.81-3.83.88.24,2-.5,1.22-.93,1.18.12,4.35-2.52,5.6-3.64,5.32-.15-1.14,1.55-1,.83-1.78-.52.28-1,.65-1.34-1.19.25-.51,1.14.15.94-1.18-.7-.56-1.64,1.18-2-2.76-.8,0,.61,2.12-.12,2.66-.12-.44-.26-.6-.45-.39-.68-2.6-.17-3-.18-4.44-1-1.14-.67,1.32-.56,2.26-.81-1.28.07-2.5-.61-3.55a1.83,1.83,0,0,0-2.09-.1c.21,0,.38.5.54,1-.37-.17-.42,2.15-.86.5.19-.21.51-.18.42-.89C432.3.12,431,2.45,429.93,0c-.29,1,.61,1.61.22,2.46C429.3,3.86,428.91.9,428.2,1c.05.91.72,2.94.33,3.06-.66.06-1.5,1.91-1.86-.89.11-.54,1.23-1.28.67-1.68-.78,1.7-1.68.77-1.68,3.55-.81-.33-.41-3.27-1.12-3.26-.17.49.36,2.29.06,2.56-.41-.94-2.66-2.41-1.41-.49-.82-.13-.95,0-2,.49a7.46,7.46,0,0,1,.23,2.46c-1.87-.31-3.33.91-4.78,2-1.27.4-2.55.81-3.83,1.26s-2.71,1-4.08,1.51c.23-1.84,1.22-.87.81-4.47-.75.67-.88,3.14-1.32,4.67l-2.11.82-1.42.57c.15-.13.54-.26.42-.38a9.4,9.4,0,0,1-.84.55c-1.64.68-3.29,1.39-4.94,2.11-2.36,1-4.74,2.1-7.11,3.18l-.76.4c1.34-1,2.8-1.36,4.57-2.57-.09-.06.17-.45-.18-.27-.5.9-2.56,1.51-3.91,2.41-.08-.07-.52.2-.35-.11a24.22,24.22,0,0,1-5.74,2.93c-.47.54-1.61.75-2.46,1.36.35-.28.24-.53.8-.82.2.08-.49.55.18.19.19-.61,2.33-1.33,2.77-1.73-.42.19.22-.23,0-.28-.69.54-1.34.66-1.95,1.19-.38,0-1.76.45-1,.49-.58-.12-1.88.85-2.49.81,1.79-.83,2.43-1.47,3.77-2.15a8.3,8.3,0,0,0-2,.84c0-.09.07-.19.15-.29a28.14,28.14,0,0,1-5.76,2.41c0,.09,0,.18-.16.29a18.45,18.45,0,0,0-3.43,1.46,1.09,1.09,0,0,0-.49-.38l-.53.12a5.1,5.1,0,0,0,1.44-.9c0,.09.29-.07.34,0-.43.16-.59.3-.49.43a14.45,14.45,0,0,1,2-.79c-.26-.26-1.53.39-2,.31a14.11,14.11,0,0,1,1.8-.92,8.24,8.24,0,0,0-2.14.8.68.68,0,0,1-.32.36c-.23.09-.43,0-.67.1-1.09.44-2.68,1.51-3.29,1.34a1.76,1.76,0,0,0,1-.64c-.85.43-1.6.78-2.33,1.09l-.41.1a8.48,8.48,0,0,1,.14-2.14,5.18,5.18,0,0,1-1,2.35c-5,1.32-10,2.77-15,4.28a8.7,8.7,0,0,0,.88-.39c-.15-.12-.73.25-1,.34-.13-.43-.58.11-1,0,.39-.67,1.77-.42,2.47-.79-.2.05-.39.09-.34-.05a2.56,2.56,0,0,0,.33-.16c1-.25,2.87-.55,3-1,.81-.22,1.46,0,2.16-.36a3.27,3.27,0,0,1-2,0c0-.1,1.18-.43.65-.35a13,13,0,0,1-2.8,1.08c.13.07.81-.26.67,0-.5.13-1.28.45-1.33.25.48-.25-.26-.3-.33-.12.45-.06-.13.3-.32.37,0-.09-.41.05-.67.11a.19.19,0,0,0-.17-.23,7.16,7.16,0,0,0-1.16.43c-2.12.14-5.05,1.46-7.08,1.53-.42.25-1.25.18-1.19.36-.2,0-1.11-.06-1.17.06.1.11.79-.09.84.05s-.18.13-.33.18c-.44-.14-.51,0-1,.1l-.51-.17a21.61,21.61,0,0,1-2.49.29c0-.09.07-.15.16-.21a2,2,0,0,1-1.17,0,3.88,3.88,0,0,0,1.15-.38c-.73.14-1.91.08-2.16.39.3,0,.69-.21.84,0a7.76,7.76,0,0,0-1.33.3c0-.12-.17-.16-.5-.13.36-.18-.21-.38-.53-.48-.09.26.38.26.36.49-.78-.05-.17.11-.5.15-.85,0-1-.23-1.68-.22.19-.23.86-.28,1.15-.47-.94,0-1,.31-1.82.36,0-.18.31-.24-.18-.28-1,.49-3.19.48-4.5.65.23.16.5-.16.67,0,0,.1-.36.11-.49.18-.1-.16-.66-.1-.52-.38a26.52,26.52,0,0,1-3.17.45c-.16-.09-.43-.48-.85-.19.21,0,.4,0,.34.11-.7.14-1.19.2-2.34.34-.12-.47-1.5-.26-2.2-.41-.36.16.22.14-.16.24a30.16,30.16,0,0,0-5,.28c1.09-.29-1.05.08-.35-.22a10.65,10.65,0,0,1-2.36.58c.12,0,.09.28-.12.28s-.06-.25-.68,0c.09-.27-.08-.38-.52-.33-.23.09,0,.28-.32.34-.52,0-.65.07-1,.05a.94.94,0,0,0,.49-.3c-.55.15-.27-.09-.17-.18a4.54,4.54,0,0,1-1.35,0c0,.34.44.43,0,.77.53-.07.48.23.69.36a38.68,38.68,0,0,1-7.89.85c.32-.3.31-.5-.19-.59-1,1.53-4.21.73-6.34,1.77-.21.44.16.4.21.8a4,4,0,0,0-2.15,1.06c-1,.35-1.41.38-2.5.72,0-.08-.06-.15-.34-.06-.45.17.45,0,.18.31-1.14.31-1.39,1-2.48,1.15.34.3,0,.61-.14.8,0-.09-.47,0-.5.12.27,0,0,.1-.33.15.35-.2-.86-.33-1,0,.6,0,1.65-.13,1.19.35.59-.17.87-.14,1,0a6.85,6.85,0,0,1-.66.43,3.91,3.91,0,0,0,.68.2c-.74.39-2.63,1-3.51.75-.66.25-1.38,1-2,.68a2.76,2.76,0,0,0,1-.58c-.66.15-1.5.78-2,.53A17.72,17.72,0,0,1,286,41.93c-1.24-.1-3.52.75-5.17,1.43a9.84,9.84,0,0,0-3.17.87c-.39,0-.46-.13-.85-.09-1.26.31-4.1,1.6-4,.76-.6,0-.1.26-.5.32s-.58,0-.51-.24c1.6-1,3.89-1.83,5.61-2.8-.46-.08-1.15,0-1.19-.36-3.72.82-5,2.79-8.79,3.51.57.54-1,1.15-.1,1.57a2.34,2.34,0,0,0-.67.2c.21.52.5.86-.28,1.39,0,.12.47-.05.51,0-.56.11-.44.37-.65.56.11.07.64-.12.67,0a5.56,5.56,0,0,0,.65.94l-2.37.55-2.29.49-1.08.22-.46.08c-.17,0-1.81.1-2.92.15l-3.53.12c-2.32,0-6.74-.1-6.74-.1a4.3,4.3,0,0,0,.74,1.53c-3.78-.62-9.84-1.18-16.62-1.74-1.84-.16-3.76-.16-5.7-.15s-3.91.08-5.88.18c-3.95.2-7.9.55-11.64,1,0,.36-1.17.76.55.88-3.43,0-5.14.1-8.58.22l1.11.31c-4.2.57-8.48,1.05-12.7,1.48q-3.17.32-6.26.59l-3.06.28-1.51.13-.82.07-1.23.13c-1.64.32-2.18.41-3,.56l-2.39.42-4.55.83c-2.91.55-5.56,1.1-7.85,1.7,6.24-.92,6.32-.63,7-.19-2.73.53-5.43,1-8.14,1.5-1.35.23-2.71.45-4.07.65s-2.75.31-4.14.43a155.42,155.42,0,0,1-17.85.47c.7.1,1.15.21,1.18.34a52.11,52.11,0,0,1-5.45,0L124.47,63l-1.39-.06-.68,0h-.34a1.62,1.62,0,0,1,0,.19c-.06.22-.13.44-.21.67l-.19,0-.31,0-.65,0-1.32-.09q-1.34-.09-2.76-.15l-5.88-.22c-4-.14-8.26-.3-12.28-.74-1.36.37-5,.21-9.37-.09L82,61.84l-3.66-.23-.49,0-.75,0-1.5-.06-3-.11c-1.48.43-2.92.86-4.28,1.29l-.82.26-.59.19c-.38.12-.75.25-1.1.38-3.41.81,7.77-1.28-1.38,1.48-1.3-.65-4.27.26-7.16,1.11l-3,.87c-1.14.33-2.23.61-3.23.84a11.63,11.63,0,0,1-4.72.41L43.5,69.27c.36,3.11.56,4.68,1,7.82l-.4.53-.2.27c-.06.08-.13.2-.2.23l-.79.62c1.56,2.4,1.25,4.23.71,6.36-.22.84-.48,1.74-.67,2.73q-1.74.57-3.48,1.2a4,4,0,0,1,1,2.21,9.85,9.85,0,0,0-.84,4.61c-1,.79-1.49,3.2-2.65,2.1.27,1.28.61,1.47.94,1.25a2.52,2.52,0,0,1-.42,1.45c.89.41,0,2.38.39,3.29a7.69,7.69,0,0,0-.86.83c-.29.1-.33-.09-.61,0-.33.59.92.61-.08,1.92.6-.39.31.1.26.34,1.27-.65,1.4.58,1.22,1.21-.34.23-.14-.69-.44-.2,0,.23.09.46-.47.86-.12-.06.15-.62-.25-.34-.23.45.19.71-1,1.42-.08.42.68-.61.76-.29-.13.11-.19.21-.15.28a2.56,2.56,0,0,1-1.31.68c-.43.7.32.18.61,0-.45.59-.72.29-1.09.78a1.92,1.92,0,0,0-.24,1.11,1.4,1.4,0,0,1,.34-.41c-.08.21.59-.06.06.39,0-.08,0-.25-.21-.11-.44.79.11,1.18-.72,2,.27,0,.54-.52.75-.43.32.26-.59.84-.64,1.2.28-.14.94-.75.93-.56s.41.53-.45,1.07c-.15,0-.25-.47-.42-.13.41.19,0,.77.86.41-.18.46-1,.63-1.08,1,.13,0,.71-.47.76-.35-.32.33-1,1.68-.3.79a2.23,2.23,0,0,0-.06,1c.28-.18.68-.5.75-.44-.49,1.75.53,2.28.21,3.8.31-.19.44-.45.54-.39-.21.64-.4,1.18.37,1a2.16,2.16,0,0,1-.55.31c.39.08.06.78-.16,1.27-.75.3-.22-.54-1.39.21.21.47,1.73-.37,1.52.49.43-.19.63-.69.71-.52-.17.4-.07.41.27.34a2.35,2.35,0,0,0-.81,1c.79.14-.28,1.63.91,1.41a5.16,5.16,0,0,0,0,1.47c-1.19,1.4-2.82,3-3.79,3.18.22,0,.26.89.29,1.76a2.93,2.93,0,0,0-2.46,2.05,11.5,11.5,0,0,1,.1-1.28c-2,1-3.75,2-5.07,1.69a21.46,21.46,0,0,1-.4,2.59c-.55-1.42-.63-.7-.87.91-.43-1-.42-3.48-.87-2.18.72,1.51-.6,2.24-.95,2.78-.07-1.2-.53-.61-.5-2.3-.14-1.39.48-.85.44-2-1.19.57-1.07,2.38-1,5.27.49.84,1.22.59,1.74,1.29.14-3.57,2.21-2.11,2.72-.9-.24.09-.1,1.12-.29,1.33-.07-.7-.07-1.73-.29-1.76-.84,4.1-2.09,2.36-3.55,2.41.56,2.26-.24,2-.12,4.37a27.08,27.08,0,0,1,4.17-1.38c-.64-1,.43-2,.58-2.66.4.77,1.53,2.18,1.74,1.28-.22,0-.25-.89-.29-1.76.92,2.45,2,1,3,1.47-1.15,0-.54,1.35-1.34,2.3.84.55,1.33,1.19,1.78-1.2,0,.6.07,1.2.11,1.81,1.43-2.33,3.93,0,5.92-1.55a1.67,1.67,0,0,0,.65,0c0,.07,0,.13,0,.2a1.5,1.5,0,0,0-.2.14c0,.11.12.1.22.08a4,4,0,0,0,.05.4,3.47,3.47,0,0,1-.43.43c.12.16.2.37.48.3a.49.49,0,0,1,0-.48s0,.05.07.05a3.13,3.13,0,0,1,.57-.69c0,.57.67.35,0,1.43.08-.45-.57.16-.48-.29-.38.4-1,.88-.92,1.12.25-.18.61-.52.69-.45a2.36,2.36,0,0,0-.63,2.24c.65-.41.43-.58,1-1a.59.59,0,0,0,0,.61,1.72,1.72,0,0,0-.79.53l.11.15c.13-.08.24-.14.24,0l-.16.14,0,.06.24.34a.76.76,0,0,1,0-.15c.29-.32.62-.21.66-.53.23-.11-.21.46-.53.84l.29.4c-1-.26-1.92-.05-2.62,2.21.52-.07,1.22-.94,1.34.79-.57,0-3,3-2.68-1.59-.41.51-.77,1.14-1.41,1.08-.13,2.65.94-.21,1,1.52-.8.55-2.56,2.32-3.37-.74-3.3,1.21-5.75,2.88-8.11.2.07,3.18-.45-1.29-.8-1-.42.93.34,2.91,0,3.09-.18.06-.19.56-.33.73-.67.76-.73-1.27-1.19-1.46-.13,1.76-1,1.49-1.75,1.81-.4-4.52-1.54-1.19-2.28-1.11-3,.35-7-.45-9.38.63,1.94,1.12,2.47-.57,4.16,1.71,2-3.15,4.95-.46,7.29-1.78a18.16,18.16,0,0,0,.54,2.91c-.16,1-.63,1.17-.8,2.12.73,1,2.29-2.81,3.63-.53-.42,0-.82-.17-.84.78.52.75,1.72-.41,2,1.14,0,.69.42,2.18,0,2.31-2.14,1.14-3.69-1.73-4.6.17,1.14-.28,2.3,2.4,4.05,1.86-.25.11,0,3.16.18,1.9-.44-2.57.8-.61,1.09-2.15.63,0,.9,1,1.12,2.08-.39,1.75-1.93,1.7-2.47,3.21.18,1.58.84,2.06,1.41,1.25a3.61,3.61,0,0,0,3.14.6,5,5,0,0,1-3.94,1.35c.28,1.92,2.27-1,2.21,1.87,1.82-.11,2.47,1.06,4.13.69-.21.1-.52,0-.51.48.15.07.36-.06.4.31-.86-.05-1.38.42-1.53,1.48,1.28-.58,2.94-1.27,4.24-.1-.18,1.74-2.71.34-2.83,1.35,1.19.46,2.28,1.18,3.63,1.18-.48,1.32.55,0,.5,1.44-.72,1.14-1.24.32-1.78.75.21-.16.73,1,.29,1.1-.62-.4-.61,0-1.27.26-.07-.5.63-1.29,0-1.55-.61,1.11-1.78,3.05-2.47,1.28,0,.73.29.79.33,1.48-.45,0-.88.12-1.05.6,0-.38-.07-.76-.11-1.14a6.61,6.61,0,0,0-1.93,3.1c-.64-.24-2.88-.54-3,1,1,.38,2.13-1.78,3,.54,2.44-.65,5.4-.46,6.89-1.41,1-.61,2.46.15,3.3-.29s2.09-1.69,2.79.19c-.63-.68-1.17.89-1.85,0-.35.63.32.88-.07,1.18-9.16-.59-18.27,9.12-28.29,9.67.39,3.42-2.53,2.62-3.51,1.88-.27,2.2-1.65.14-1.68,1.89.53.76,1.72-.41,2,1.15,0,.68.43,2.17,0,2.3-2.14,1.15-3.69-1.73-4.6.18,1.14-.29,2.31,2.4,4.05,1.86-.25.1,0,3.15.18,1.9-.43-2.57.8-.62,1.09-2.16.63,0,.9,1,1.12,2.09-.39,1.75-1.93,1.7-2.47,3.21.18,1.58.85,2.06,1.41,1.25,3,2.41,7.42-2.09,10.55-1.78.36-.07.33,1,.79.61,1.57-.72,4-3.3,5.84-.82,1.07-.86,2.05-.58,3.26-.67,0-1,.31-1.45,1-1.36-.23.82.07.48.15,1.51-.46.25-1,.41-1.2,1,.28.48,1-.17.86,1.37-1.22.23-1.47,2-2.54,2.45.36.09.43,1,1,.57.57-2.32,2.5-2.51,2.62-5.55a3.11,3.11,0,0,1,.61,2.57c1.57,1.71,3.51-.6,5,.51.13,1.4-.55,1.51-.7,2.46,1.33-.06-.1,1,0,1.93.85-1.46,2.57-1.54,3.84-2.34,6.15,1.74,12.53-.47,18.68-2.11l.38.78c6,0,8.9.06,14.65.13h.91l.52,0,1,.05,2.06.09.81,0a9.14,9.14,0,0,0-1.55,1c0-.54-.17-1.45-.25-.73,0,.26.05.51.07.76,1.78,1.31,2.21-2,3.55.43-.83-.07-1.45,1.35-2.17.45a2.43,2.43,0,0,1-2.9,2.52c2.75,2.2,4.28-2.78,6.49-3.65.28,1.33-1.15,1.61-.3,2.77,2.29-2.72,6,.08,8.26-.54-2,1.78-3.86,2.75-5.69,2.32-.57,0,.56,1-.07,1.18-1.6-1.08-4.46.77-6.64,2.13,0-.56.16-.68-.1-1.13-.85,3-3.11,1.26-4.21,2.41.15.05.36-.07.4.3a11.63,11.63,0,0,0-4.48.38c6.54-.26,13.08-.35,19.61-.44.82-.15,1.63.16,2.12-1.17.27.32.7.22.83,1,.48-.35,1.46-2.11,1.77-.75.34-.11,0-1.28.44-1.25,1.43,2.21,3.56-1.76,5-.25a2.87,2.87,0,0,1,3.73-1.54c.7-3.08,4.15-2.58,5.62-1.15,1.38-.45,1.15-1.4,2.43-1.66-.4,0-1.25-1.17-1.34-.49-.1-1.41.78-1.37,2.07-1.59,0,0-.15.48-.33.46a3.59,3.59,0,0,0,2-.8l1.85.24,2.92.4a1.85,1.85,0,0,0-.83.85c.29-.55,1.73.19,2.34-.64l1,.13.22,0h.12c0,.8,0,1.51-.59,1.4,0,.91.81-.39.65,1-1.17.3-2-.51-3.15-.12.48.71,1.27.87,2.46.65-2.45,2.56-4.12,3.21-7.11,3a1.49,1.49,0,0,0,.71,1.32c18.42-1.52,36.7-5.4,55.1-7.44,21.1-2.34,42.27-1.8,63.36-4.36,15.87-1.93,31.67-4.9,47.48-7.7a6.44,6.44,0,0,0-.37-1.36.79.79,0,0,0-.69.53c.53-1.51-.93.23-.72-1.78,1.29.76,2.25-.11,3.41-1.09.63,2.19,2.32,1.34,3.19,2.85q4.41-.76,8.83-1.49c0-.11-.06-.22-.1-.34.28.44.72.36.69-.53-.2-.57-.88.27-.84-1,0-.57.41-.44.69-.53a4.9,4.9,0,0,0-1.9-3.74c1-.29,2.07-.53,3.25-.86l-1.86,0,1.5-.51a1.85,1.85,0,0,0,2.25.22c.05.5.09,1,.14,1.51,1.44.56,1.74-1.63,2.22-3.29l1.4-.49c-.12.11-.43.28-.33.46.9-.42,2-.91,1.74.07,1.22-.43,1.37,1,3.74.55-.51-.26-.11-.12.37-.43.25.12.35.34.6.46a2.3,2.3,0,0,1,1.49-.26c.17-.37-.23-.24.22-.54.38.38.74.23,1.38.53,0-.33.41-.73,1.14-.35.31-.41,1.32-.26,1.5-.76.56-.08,0,.5.67.34.3-.53.42-.49.12-.79a3.15,3.15,0,0,0,1.29-.22c-.07.42-.76.35-.74.83,1.16-.09,3.95-.43,4.06-1,.26,0,0,.33,0,.52.74,0,.83-.51,1.16-.84-.89.17-.46-.37-1.35-.19,1.54-.74,2-.16,3.44-.41a1.87,1.87,0,0,1-1.73.72,3.17,3.17,0,0,0,1.35.21c.07-.24.37-.29.43-.54.93-.18.69.25,1.35.22.12-.24-.14-.27,0-.52,1.74,1.58,7,.87,7,.87a1.54,1.54,0,0,0-.87-.92c.12-.17.47-.13.42,0,.33-1.16,2.54-.55,3.77-.3-.09-.43-1-.49-1.63-.7.5-.27,1.83-.35,1.38.3a3.9,3.9,0,0,1,1.7.07c.69-.17-1.13-.11-.89-.43.77-.5,2.89-.11,3.1-.1.55.05.86.06.86.06s1.85-.22,2.53-.19c.25,0,.33.47.91.47,1.58,0,5-.18,7.07.46.23-.11.29-.37.62-.42-.14-.42-.67.31-1.17.19.5-.7,2.06-.71,2.9-.71-.2.15-.57.18-.62.44,1.12-.23,3.29-1.31,3.63-.51.45,0,.51-.26.62-.48a8.24,8.24,0,0,1,1.52-.1c0,.23-.29.29-.57.35.65.49,1.74-.49,2.81-.22.1-.53,1.08-.54,1.43-.93a40.64,40.64,0,0,0,11.77-2.82c1.34.37,3.52-1.23,5.14-1.3.55-.35,1.27-.64,1.46-1.16.39.1.55.11,1.34-.34.58-.17-.43.38-.25.61a3.18,3.18,0,0,1,2-.39l.63-.3a.68.68,0,0,1-.56-.06,10.46,10.46,0,0,1,3.15-1.43.28.28,0,0,1,0-.37c.65.28,1.8-.34,3.21-1.08.32-.07-.17.23-.19.46,3.63-1.76,6.74-2.39,10.87-4.47.3-.07,0,.32,0,.53a26.82,26.82,0,0,0,2.63-1.14c-1.39,1.06,1.33-.53,1.76-.93.42-.14-.07.47.22.44.9-.42,0-.65,1.07-1.18.3.44,1.35-.24,2.55-.42.67-.4-.84.14-1,.12.14-.66,1.44-.87,2.28-1.23.51-.21-.11.51-.07.68.92-.39,1.09-1.1,2.34-1.35.59-.08-.5.52,0,.53,1.05-1,3-1.34,4.47-2.17,0-.17-.37,0-.63.08.37-.51.71-.16,1.16-.38a1.77,1.77,0,0,1-.59.45,17.31,17.31,0,0,0,2.66-1.11c.74-.51-.51-.27.37-.89,0,.21-.22.8,1,.1-.14-.24-.84-.06-.27-.84a.78.78,0,0,0,.52-.28c1-.27-.56.78.45.39,0-.83,1.38-1,2.2-1.41.1-.32-.95.21-1.32.24.17-.45.87-.64,1.56-.83.82-.47-1.32.35-1.26.09,1.39-.58,4.86-1.51,5.2-.7.53-.18,1.37-.61,1.31-.16a5.35,5.35,0,0,1,1.73-.73c1-.46,1.92-.92,2.86-1.35a.37.37,0,0,0,.07-.14l.2,0-.14-.2a1.28,1.28,0,0,0-.34.41c-.86.12-2,.47-2.15.13-.58.19-.71.64-1.53.71-.18,0-.17-.09-.4,0-.43.09.57-.61.07-.67s-1.2,1.21-1,.5c-3.05,1.42-6.14,2.06-10.34,3.37-1.11,1.05-3.32,1.53-4.35,1.83.13-.42,1.45-.34,1.34-.85a7.8,7.8,0,0,1-1.79.48c.3.84-2.76,1.45-3.5,1.76.21-.45,1.08-.63,1.75-.89-1.93-.3-5.66,2.44-8.39,3.1-.06.33-.74.43-.88.73-1.88,0-4.5,1.87-6.42,2.22a35.2,35.2,0,0,1-8.63,3.32,1.55,1.55,0,0,0,.48-.7c.24.46.9-.44,1.52-.84a1.21,1.21,0,0,0,.63-.11c-.48.46-1.39.77-1.7,1.3.73-.31,1-.79,2-1,.5-.71,0-.7,1.24-1.13-.47.08-.43-.27-1.22.08.39-1,5.47-2.45,2.92-1.39.45.18,2.93-1.36,2.15-.44,1.55-.39,2.22-1.34,3.45-1.74a3.58,3.58,0,0,1,2,0l.13-.3s1.58.16,2.16-1c-.7.55-1.78.77-1.46.16,1,.15,5-2.24,7.17-2.57.28-.12.31-.35.41-.54,2.6-.52,6.38-2.68,8.35-2.88l.18-.45c.52.31,1.16-.06,2.25-.57-1,.16-.19-.41-1.67.12,1.4-.62,2.7-.77,3.92-1.7a.65.65,0,0,1-.4.51,7,7,0,0,0,2.24-1c.19.09,1.52-.13.69.35,1.66-.49,3.45-.88,5.25-1.26.2-.56-.81-.23-.05-.91-1.85.49-3.47,1.35-4.45.79-.28.09-.3.32-.4.5-.24,0-.05-.25-.35-.17.68-.48,3.33-1.58,3.43-.86.67-.34,1.59-.53,2.22-.88.17-.65.35-1.09-1.13-.8-.09.26.71-.07.51.28,0,.35-.57.39-.69.67-.42,0-2.07.33-1.13-.26-.54-.12-.58.41-1.15.8-.28-.26-.36-.39-1.08.14-.26-.07-.31-.28-.46-.41-1.69.6-3.87,1.12-6.44,1.85,0,.1.17.07.11.23a8.77,8.77,0,0,0-3.12.73.7.7,0,0,1,.41-.52,50.76,50.76,0,0,1-5.56,1.39c0,.72-1.64.51-2.62,1.6-.22-.2-1.24.26-1.1-.24-1.05.44.31.15-.53.85-.89.28-1.61-.14-2.56.44-.06,0-.3.51-.41.55a4.78,4.78,0,0,1-1.45.16l.11.22a7.75,7.75,0,0,0-1.28.23c-.65.25-1.58,1.16-2.33,1.43s-.92-.23-1.57,0c-1.15.32-2.57,1.65-3.32,1.42-.7.27-.95.71-1.58,1-2.11.46-4.23,1.31-6.68,1.88-.09-.26-.78-.83.11-1.22-1.11.41-2.76.83-2.59.4l1.41-.88c.15,0,.11.09.11.09s4-1.88,5.45-1.79c5.46-2.49,10.2-3.81,15.36-6.47.39-1.49,4.19-2.52,5.35-2.5,4.17-1.82,8-2.68,12.41-3.88.35-.27.18-.25.17-.44.51-.17.68-.08.52.25,1-.72,3.72-.87,3.76-1.75.43.05.32.48,1.43.06-.08-.39.11-.32.33-.86-1.05.38-1.09.6-1.25,0,1.07-.35,2.27-1,3.44-1.25l-.62-.11a11.94,11.94,0,0,1-2.72.55c0,.36-.46.45-.5.78-2.42.36-4.48,1.67-6.24,2.31-4.39.52-9,3.68-13.46,4.66.34-.57.66-1,.88-1.43,1.13-.47,2.57-1,4.43-1.76-1.71.56-2.56.85-4.27,1.43,0-.05,0-.1.05-.15,4.63-1.93,6.94-2.86,11.53-4.47l1.75-.54-.93.26a89.26,89.26,0,0,1,14-3.89c.2-.68.29-1,.49-1.7,1.82-3.52,3.28-10.82,4.17-15.11l.7-2.57.09-.22a3.43,3.43,0,0,1-.09-.4.81.81,0,0,0-.16-.14c-1.49-3.78-2.24-5.65-3.68-9.36l.88.15a18.23,18.23,0,0,1-2.69-5.15c0-.09,0-.17.05-.25a6.89,6.89,0,0,0,.67-1.9c.34,1.29.73,1.33,1.09,1.18,0,.19-.08.39-.12.61.15.44.31.9.46,1.36s.33,1,.5,1.56c.32,1,.64,2,.94,2.65-.39-1.16-.72-2.22-1-3.18-.13-.48-.25-1-.37-1.39s-.15-.73-.22-1.07c.11-.28.2-.54.3-.81.26-.08.44.12.47,1.39,1.12-1.59,3.12-3.9,4.26-4.19-.22,0-.28-.88-.35-1.74a3.07,3.07,0,0,0,2.4-2.21,10,10,0,0,1-.07,1.29c2-1.17,3.69-2.26,5-2a22.91,22.91,0,0,1,.32-2.62c.59,1.39.65.66.84-1,.46,1,.53,3.45.94,2.12-.77-1.46.52-2.28.85-2.83.11,1.19.56.57.58,2.26.18,1.38-.46.88-.38,2,1.17-.64,1-2.44.82-5.32-.52-.81-1.23-.51-1.78-1.18,0,3.57-2.13,2.25-2.68,1.07.23-.1.06-1.12.25-1.34.09.7.12,1.72.34,1.73.71-4.14,2-2.49,3.47-2.63a4.15,4.15,0,0,1-.1-2.5,3.45,3.45,0,0,1,1.92-.33,22.91,22.91,0,0,1,.32-2.62c.59,1.39.65.66.84-1,.46,1,.53,3.45.94,2.12-.77-1.46.52-2.28.85-2.83.12,1.19.56.57.58,2.26.18,1.38-.46.88-.37,2,1.16-.64,1-2.44.81-5.32-.51-.81-1.23-.51-1.77-1.18,0,3.57-2.14,2.25-2.69,1.07,0,0,.06-.06.08-.13a2.15,2.15,0,0,1,.34.17c0,.21.09.35.17.35a1.55,1.55,0,0,0,0-.21,3.15,3.15,0,0,1,.3.24c-.32-1.53.49-1.6.61-2.57.7-.65,1.58,0,2.52-.09-.6-2.11.1-2,0-4,.44-.07.89-.11,1.36-.15.06-.22.13-.45.2-.67-1.36,0-2.8-.34-4,.45a18.27,18.27,0,0,0-.63-2.87c.13-1,.59-1.21.73-2.17-.81-1-2.39,3.46-3.87.28.07,2-.6,1.14-1,1-.13,2.88-1.37,4.21-2.51,4.66v-.12c0,.07-.08.11-.12.17a2,2,0,0,1-1.38,0c-.06-1.16,1.62-.73,1-1.64-.54.2-1.09.49-1.24-1.39.28-.46,1.12.32,1-1-.63-.64-1.65.8-1.75-2.68a.94.94,0,0,1,.59-.21c0-2.65-.94.28-1.06-1.45.79-.59,2.49-2.48,3.39.52,3.26-1.41,5.66-3.24,8.1-.71-.17-3.17.48,1.26.83.92.38-1-.44-2.89-.1-3.09.18-.07.17-.57.31-.75.64-.8.77,1.22,1.23,1.39.07-1.77,1-1.56,1.69-1.93.54,4.5,1.58,1.09,2.31,1l.5-.07.42-.84a4.85,4.85,0,0,0-3,.49,18.27,18.27,0,0,0-.63-2.87c.13-1,.59-1.21.73-2.17-.81-1-2.38,3.46-3.87.28.08,2-.6,1.14-1,1-.21,4.35-2.93,5.19-4,4.74-.06-1.16,1.62-.73,1-1.64-.54.2-1.09.49-1.24-1.39.28-.47,1.12.32,1-1-.65-.66-1.72.92-1.76-3-.8-.15.45,2.21-.32,2.63-.08-.45-.21-.64-.41-.46a7.88,7.88,0,0,1-.12-2.87c2.43-.67,5-1.52,6.56-.75,1.34-.54,2.73-3.47,4.14-1.11.45-1.73,2.44-.76,2.83-2.2-.29,0-.13-.6,0-.81,3.08.57,3.87-3.44,7.32-3.43-.42-1.87-2.17,1.36-2.33-1.52-1.8.37-2.54-.69-4.16-.08.2-.13.52-.11.48-.56-.16,0-.36.12-.42-.24.85-.07,1.33-.62,1.4-1.69-1.22.76-2.83,1.7-4.21.73.06-1.76,2.68-.75,2.72-1.77a9.76,9.76,0,0,0-3.69-.64c.37-1.38-.56.06-.61-1.36.63-1.23,1.21-.5,1.71-1-.19.19-.8-.85-.37-1.06.65.31.61-.13,1.24-.44.12.48-.52,1.38.08,1.55.53-1.2,1.55-3.3,2.36-1.64-.08-.72-.34-.75-.43-1.42.44-.12.86-.26,1-.76.06.37.13.74.19,1.11A7.25,7.25,0,0,0,461.43,49c.65.14,2.9.1,2.95-1.47-1-.22-2,2.09-3-.08-2.37,1-5.33,1.26-6.75,2.43-.9.75-2.45.22-3.25.78s-2,2-2.79.23c.67.58,1.1-1.06,1.84-.27.3-.68-.38-.83,0-1.18,9.15-.78,17.49-11.8,27.41-13.84-.64-3.34,2.32-3,3.36-2.4.1-2.22,1.63-.38,1.52-2.12-.57-.68-1.68.66-2-.85,0-.69-.59-2.1-.2-2.29,2-1.46,3.8,1.17,4.56-.86C483.89,27.5,482.53,25,480.83,25.8ZM26,141.14c-.35-2.92.84-1.17.8-2.12C27.37,139.9,26.5,141.36,26,141.14Zm6.88,3.92c-.13-3.48.57-.35,1.23-1C34.09,145.41,33.21,144.57,32.86,145.06Zm.23-11.83c-.09-1.66.77-1.71,1-1C34.2,133.61,33.39,132.78,33.09,133.23Zm384.12,31.93c-.07.22,1.48-.65,1,.13C417.52,165.55,416.43,165.6,417.21,165.16Zm-8,1.64c-.37,0-1.43.64-1.33.32C408.3,166.81,409.41,166.39,409.25,166.8Zm.05,2.48c-.45.07-1.6.7-1.56.4C408.58,169.49,409.54,168.46,409.3,169.28Zm-19.16,7.22a1.79,1.79,0,0,1,.88-.21c.1.35-1.25,1.05-1.29.77A.74.74,0,0,0,390.14,176.5Zm-7.81,3.28a4.69,4.69,0,0,0,2.22-1.63c-.63.31-.89.51-1.1.29a6.14,6.14,0,0,0,1.11-.82,7,7,0,0,0,3.32-.89c-1.1,1.36-2.82,1.63-4.86,2.79-.11.3.57-.05.23.43C382.43,180.32,381.94,180.41,382.33,179.78Zm-15.46,4.76c.83-.29-.35-.38.47-.67-.08.27.72-.14.51.23C367.67,184.23,366.91,184.92,366.87,184.54Zm.05.37c-.34.62-1.82.68-2.31,1.21,0-.3-.6-.17-.62-.47C365.3,185,365.74,185.66,366.92,184.91Zm-3.51-1.32c-.06.15.12.13.11.23a1.31,1.31,0,0,1-.68,0c.38-.15.79-.3,1.21-.48,1.05-.43,2.11-1,3.2-1.53,1.42-.34,2.53-.46,1.73.51C366.57,182.86,366.33,182.76,363.41,183.59Zm-9,1.87h0Zm-9.61,3.79c-.43,0-1,0-1.53,0a2.37,2.37,0,0,1,1.63-.38C344.83,189,344.79,189.16,344.83,189.25ZM39.91,126.66a5.14,5.14,0,0,1,0,.92c-.13-.56.23-1.47-.08-2l.55-.42a4.79,4.79,0,0,1-.62-4.23c-.06,0-.37.21-.39.11a2.52,2.52,0,0,1,.29-.73c.56-.38.36.17.46.36.26-.18.51-.36.53-.47.49.49.25,2.19,1.47,2.59a3.48,3.48,0,0,1-.76,1.28c.19.12.56-.47.88-.66.18.09-.62.88-.09.6-.11.34-.24.28-.69.61.35.19.62.32.54.67.61-.37.23-.45.28-.66a.51.51,0,0,1,.26,0c-.2.5-.41,1-.65,1.44-.37.19-.63.28-.62.62-.68.12.33-1.69-.47-1.27-.3.91.53,1.5-.46,2.62a.93.93,0,0,1-.2-.09C40.2,127.18,40.41,126.66,39.91,126.66Zm-1.64-14a.51.51,0,0,0-.08-.25c.12-.15.25-.3.38-.44C38.61,112.14,38.71,112.32,38.27,112.64Zm2.18,6.58c.64-.4.25.12.06.38C40.08,119.89,40.35,119.34,40.45,119.22Zm3.34.58c-.56.33-.29.41-.31.58-.55-.17-.24-1.66-.77-2.27C44.21,117.62,43.32,119.23,43.79,119.8Zm8.38-2.28,0,0c0,.06,0,.12,0,.18s-.3.14-.46.32l0-.22A1.7,1.7,0,0,0,52.17,117.52Zm-.33-.12c0-.17.09-.33.14-.49C52.09,117,52.13,117.13,51.84,117.4Zm.26-.79a2.15,2.15,0,0,1,.14-.26c0,.14,0,.25,0,.38S52.1,116.7,52.1,116.61Zm-8.65,4.87a1.66,1.66,0,0,1,.23-.94C43.61,120.85,43.53,121.17,43.45,121.48Zm-1.05,5.35,0,0,0-.09.06-.15.05-.05C42.44,126.67,42.43,126.72,42.4,126.83Zm-.72-11.71.31.13c-.23.16-.43.31-.44.4C41.16,115.86,41.27,115.43,41.68,115.12Zm1.28.41h.13c-.09.54.33.47.75.58-.17.23-.48.5-.51.7-.45.19-.31,0-.24-.25-.69.56-1,1-1,1.39-.67.54-.83.46-.79.14.49-.41.39-.11.75-.37C42.46,116.79,41.91,116.54,43,115.53Zm-.84,2.74c-.15.59,0,.6,0,1.13.8-1.07.75.54.18,1.08-.89-.18-.1-1.86-1.09-1.71C41.76,118.29,41.77,118.49,42.12,118.27Zm-1.33,34.25h-.16l.16,0Zm-1,19.61a5.63,5.63,0,0,1-1.27-.19A2,2,0,0,1,39.81,172.13Zm5.19-1.2c-.13.47-.09.56,0,.74l-.92.11C44.15,171.14,44.46,170.86,45,170.93ZM372.17,27.11c-.37.31-.32,0-1,.44.05-.14-.13-.07-.33,0,.32-.31.61-.06,1.15-.51C372,27.14,372,27.15,372.17,27.11Zm-3.12,1.6c1.1-.92,2.67-1,4.45-1.93-.08.38.55-.17.84,0-.6.31-1.1.61-1.64.9.22-.32,0-.25-.35-.26A2.13,2.13,0,0,1,371,28c-.18.38.7-.18.84-.09-.63.39-1.4.78-2,1.16-.23-.17-.85,0-1.47.32l0-.18.4-.44A.81.81,0,0,1,369.05,28.71ZM438,81.52c0,.37,0,.74,0,1a2.33,2.33,0,0,1-.27-1A.59.59,0,0,1,438,81.52Zm2.43,11.88a2.89,2.89,0,0,0-.5-.08c-.22-.25-.48-.5-.72-.23,0-1.38.86-.6,1.2-1.11A8.58,8.58,0,0,1,440.42,93.4ZM440.16,104c0,.06,0,.13,0,.19l-.09-.19Zm-6.34-12.43a6.68,6.68,0,0,1,.77-.57A2.52,2.52,0,0,1,433.82,91.56Zm-68.51,86.8.77-.18c0,.11-.5.47-1.81,1.14s-2.18.77-3.63,1.24c-.67.15-.95.16-1.08.1C361.86,179.81,363,179.34,365.31,178.36Zm69.93-87.63a1,1,0,0,1,1.1.47,3,3,0,0,0-.94.9C435.35,91.66,435.31,91.09,435.24,90.73Zm-85.61,96.66c-.49,0-1.69.36-1.72.07C348.84,187.32,349.52,186.77,349.63,187.39Zm10.08-.74c1.29-.1,2.8-1,3.31-.6a30.5,30.5,0,0,1-3.5,1.57C359.85,187.11,359.64,187,359.71,186.65Zm13.17-4.6c.68.39-3.3,1.95-4.86,2.13C370.15,183,371.47,183.09,372.88,182.05ZM447,93.11s0-.06-.05-.09l.06,0S447,93.09,447,93.11Zm-5.31,10.23c0,.1-.06.19-.08.27l-.11-.17ZM391,19.23h0l-1.35.71A3.92,3.92,0,0,1,391,19.23Zm-2.79,1.45c-.59.19-.79.41-1.31.59C386.9,21,388.25,20.38,388.17,20.68Zm-5.5,1.12a3.52,3.52,0,0,1-1.15.63C381.67,22.08,382.08,22.14,382.67,21.8Zm-1.49.59a2.79,2.79,0,0,1-1,.62A1.49,1.49,0,0,1,381.18,22.39Zm-.44,1.27c0,.14-.61.25-.82.34A.77.77,0,0,1,380.74,23.66Zm-1.3.92c0,.19-.54.41-1,.62C378.41,25,379.17,24.6,379.44,24.58Zm-1.65.59c.19-.07.09,0,0,.07,0,.21.64-.25.51,0-.39.16-.35.3-.82.46a.43.43,0,0,0-.33,0C377.16,25.58,377.78,25.36,377.79,25.17Zm-1.39-.88c.05.21-.89.74-.82.39A1.67,1.67,0,0,1,376.4,24.29Zm-.09,1.52c.09.18-.43.4-.48.58-.22.06-.31,0-.34-.12A3.26,3.26,0,0,1,376.31,25.81ZM348,32c-.48,0-1,0-1.53.09,1.05-.39,2.82-.58,4.52-1Zm1.76-1.06a2.16,2.16,0,0,1,1-.37A1.57,1.57,0,0,1,349.73,30.89Zm-.19-.59.67-.15C350.35,30.39,349.42,30.6,349.54,30.3Zm-2.8.85a9.48,9.48,0,0,0,2.16-.29c.14.07.14.25.67.07-.92.52-2.43.46-3.32.72A.79.79,0,0,0,346.74,31.15Zm-33.6,2c.43-.09.14.25.67.1-.4.35-.86.08-1.51.19C312.22,33.28,313.22,33.36,313.14,33.17Zm-8.5,2.25a12.12,12.12,0,0,1,2.33-.68c.22,0,.23.21,0,.34a7,7,0,0,1,1.52,0,13.46,13.46,0,0,0-2.83.7c-.6.13-.35-.26-1-.07C304.49,35.6,305.14,35.36,304.64,35.42Zm-12.89,6.37c.68,0,1.68-.16,1.7.3-.53.23-1.29.39-1,.58C291.21,43.05,290.72,42.3,291.75,41.79Zm-7.68,1.8c-.8,0-1.81.69-2,.4C282.49,43.78,283.94,43.25,284.07,43.59Zm-9.8,3.73c.44-.17,1.31-.26,1.16-.54.22,0,.61-.07.84-.05.15.3-.63.43-1,.64,0,.36.21.49.22.67l-1.54.4C273.81,47.94,273.9,47.9,274.27,47.32Zm-1.66.64c.22.08.57.06.52.31-.3.08-.36,0-.67.08C272.31,48.18,272.68,48.12,272.61,48Zm-11.88,3.7.17,0h.47a4.17,4.17,0,0,1,.53-.05,5.17,5.17,0,0,1,.64-.06c.27,0,.26.08.12.19l3.2-.41-2.51.74-1.44.39c-.42.11-.54.12-.5.06a2.21,2.21,0,0,1,.42-.31l.14-.1.27-.13a4.44,4.44,0,0,0,.42-.24l-.49.06-.23,0h-.58l-.42-.07h-.77Zm-7.56,1.82c1.62-.1,3.28-.19,4.72-.26l2-.09h.84l-.4.11-1.06.12-2.48.25c-1.75.16-3.63.31-5.31.41l-1.16.07A7.08,7.08,0,0,1,249,54c0,.06-.08.12-.17.19l-1.06,0a1,1,0,0,0,.23-.13,1.05,1.05,0,0,1-.26-.16C249,53.74,251.05,53.61,253.17,53.48Zm-14.83,2.28c5.44.6,2.45.75,3.19,1h-.31C239.11,56.5,237.63,56.1,238.34,55.76ZM212.55,56c.09.06.1.12,0,.19A.25.25,0,0,0,212.55,56ZM189,58.75c6.31-.28,5.16-.92,8.58-1.5l-2.27,1.23c-9.18.62-9.76.18-16.72,0C187.84,56.69,190.19,57.94,189,58.75Zm-15.95.09,1.56-.41.81-.21,1.16-.29c1.46-.23,2.1-.35,3-.52l2.64-.47a32.08,32.08,0,0,1,3.79-.68l-3.79.68c-1.15.29-2.08.6-2.92.9l-1.22.43-.3.1-.39.11-.82.2-.8.25-.7.2c-.43.11-.89.21-1.4.29a22.5,22.5,0,0,1-3.79.23ZM40.63,111.57c0,.05-.07.08-.07.11.8.32-.26,2.39.54,2.26-.68.52-1,.33-.63-.14-1.26,1-.08.82-.08.82s-.36.27-.37.26c.24.17,1.08-.28,1.21,0s-.78,1.14-.4,1.47c.85-.78.13.52.66.37,0-.89,1,.3-.24,1.18,0-.3-.45,0-.62-.07.14.36-.15.35-.86,1,.25.19-.25.6-.27.87.57-.45.46-.72.84-1.11,0,.11.11.1.22.1-.2.34-1.09,1.11-.3.72a3.92,3.92,0,0,0-.71.6,2.36,2.36,0,0,1-.44-2.84c-.65-.29.44-1.85-.66-1.88.34-.25.09-.34.52-.62-.65-.55,1-2.8-.29-2.77C39.34,111.2,40.08,111,40.63,111.57Zm-2.24-2c-.26-1.4-.69-2.29.15-4-.94.64.39-.47.3-.59-.26,0-.86.73-.91.59s-.16,0-.2,0c-.21-.18.39-.61.45-.87-.51.27-.41-.24-.49-.52,1.33-1.07.38-1,.37-1.35,0-1.15.14-2.76.07-3.86.23-.28.46-.69.66-1A8.24,8.24,0,0,0,39,99.12c-.68,3.56-.14,6.07.46,11a6.21,6.21,0,0,1-.82.81.35.35,0,0,1-.12-.36c-.79.43,0,.42-.49.78C37.93,111,37.46,110.51,38.39,109.54ZM38,149a3.65,3.65,0,0,1,1.19-.86C38.92,148.53,38.14,149.31,38,149Zm.29.35c0-.14.24-.44.31-.35.16-.19.13-.32.46-.56-.08.15-.16.3,0,.16,0,.12-.31.32-.29.43A1.91,1.91,0,0,0,38.33,149.34Zm1.74,2.84c.35-.12.26.31.56.33a4.8,4.8,0,0,1-.63-.15ZM21.91,162.37c.06-.77.27-.84.51-.73C22.31,162.12,22.12,162.3,21.91,162.37Zm1.08-.79c.46-4,3.08-4.63,4.13-4.12,0,1.15-1.64.62-1,1.57.38-.11.75-.25,1,.28-.36,0-.72.08-1.08.1C26.34,162.35,24.21,162.16,23,161.58Zm7.33,13a3.37,3.37,0,0,0-.57-.14l.82-.36A1,1,0,0,1,30.32,174.58Zm1.27-.26a.88.88,0,0,1,.22-.74l.67-.21a.74.74,0,0,1,.53.27C32.86,175.08,31.88,174.34,31.59,174.32Zm40,43.31-.56-.08-.28,0-.43,0c-.65,0-1.24,0-2-.08.63,0,1.31.05,2,.08h.62l.45,0H72a1,1,0,0,0,0,.16Zm.58.09a1.19,1.19,0,0,0,.85-.19l.7,0,.54,0a4,4,0,0,0-.16.52q-.69-.07-1.35-.18Zm2.34.31c.08-.2.13-.42.21-.61l.58,0c-.06.26-.16.44-.2.72Zm.77.07h-.07a3.52,3.52,0,0,1,1.14-.83l.85-.06a1.18,1.18,0,0,1,.63.85l-.13.08A19.25,19.25,0,0,1,75.26,218.1Zm14.79,4.39c0-1.31.82-.76,1.23-.64C91.25,223.32,90.58,222.28,90.05,222.49Zm16.42-2.22.24-.33.39.05A3.55,3.55,0,0,1,106.47,220.27Zm11.19,3.1c-.12-1.47.57-1.68,1.3-1.82l.54.07C119.47,223.37,118.33,223.31,117.66,223.37Zm167.5-16.32c0-.66-.21-.68-.44-.68,0-.86.94-.49,1.09-.23A1,1,0,0,1,285.16,207.05Zm16.53-9.43c-.33,0-1.27.29-1.18,0,.61-.12,1.87-.84,1.9-.32C301.85,197.33,301.36,197.37,301.69,197.62Zm-1.56-1.31.84-.3c.34.44,1.5.06,1.81.33C301.26,197,300.62,196.74,300.13,196.31Zm3.07-.53-1,.1.13-.33.15-.06C302.81,195.53,303.41,195.41,303.2,195.78Zm5.07,1.26c-.25,0-.57,0-.67.19.3,0,.78-.11.77.07-.83.29-.47-.06-1.18,0,.29-.26,1.18-.95,1.3-.76C307.84,196.64,308.57,196.78,308.27,197Zm3.32-.75a.35.35,0,0,0,0-.39c.28,0,.29-.25.53-.29,0,.15.19.06.41,0,0,.26-.38.28-.57.43C312.21,196,311.85,196.22,311.59,196.29Zm1.19.05c-.86,0-.25-.63.17-.92C313.17,195.79,313.12,195.82,312.78,196.34Zm7.15-3.42c.05-.13.11-.26.17-.39.55,0,1.26-.1,1.14.23A3,3,0,0,1,319.93,192.92Zm1.47,0h.84c-.09.35-.59.34-1,.41C321.29,193.15,321.34,193,321.4,192.89Zm.36,2.08c0,.07-.23.15-.21,0,.26,0,.32-.21.38-.39.31,0,.8-.06.79.12C322.07,194.62,322.23,195.56,321.76,195Zm-3.58-3.3c2.11,0,6.38-.26,6.65.56C323.45,192,319.5,192.25,318.18,191.67Zm8.55.58c.57.26,1.51-.17,1.53.42C327.8,192.51,326.58,192.7,326.73,192.25Zm28.57-2.92c-.34-.05-1.11.17-1.24,0,.84,0,.86-.55,1.7-.59C355.7,189,355.38,189.08,355.3,189.33Zm2.46-1.43c-.15.41-1.57.87-1.42.44.22-.23.88-.21,1-.49-2.87.79-5.25,1.13-8.06,1.8-1.15-.52-5.3.68-6.26-.09l.22,0c1-.09,1.87-.17,2.31-.19l-.24,0c-.08-.14-.07-.32.1-.6a4.69,4.69,0,0,0,2.61-.08c.1.53-1.16.13-1.29.51,1.62.06,1.62-.29,3.25-.61.57.15-.8.5-.24.55.66-.61,1.28-.2,1.81-.78,2.34-.29,2.47-.26,4.62-.57.12-.22.13-.51.46-.62,0,.3,1.25-.3,1,.18a4.66,4.66,0,0,0-1.25.53c2.71-.73,3.72-.42,1.44,1C358.27,188.15,358.28,188,357.76,187.9Zm20.57-4.53c-.31.11-.11-.19-.34-.13a53.71,53.71,0,0,1-12.32,4.25c-.07.16-.13.31-.19.47-2.54.56-4.93,1.95-7.09,1.88,1.26-1.09,4.13-1.36,6-2.22-.23-.5-3.26,1.22-4.06,1,1.33-.38.25-.47.65-1.07.77-.48,2.47-1.12,3-.81-.46.19-1.3.18-1.27.61a10,10,0,0,1,2.64-.49c.12-.36-.26-.33.47-.66.14.34.9-.5,1.44-.56,0,.22-.93.82-.3.74a9.54,9.54,0,0,1,2.14-1.33c3.06-.25,7.28-2.09,9.43-2.62a.71.71,0,0,0-.41.54c.68-.21,1.87-.84,1.74-.38A16.68,16.68,0,0,1,378.33,183.37Zm2.05-1.68c.42-.31,1.2-.9,1.17-.43C381.37,181.4,380.3,182,380.38,181.69Zm1.18-1c-1.24-.19-4.56,1.72-6.5,1.86.53-.61,4.85-2.39,3.25-1.17,1.42-.6,1.7-.6,3.08-1.28C381.38,180.39,382,180.16,381.56,180.73Zm-.68-.79c-2.59.69-6.17,2.34-7.55,2.48.43-.18,1.1-.26,1.05-.63C376.73,181.2,379.73,179.35,380.88,179.94Zm53.26-64.6c-.1-1.34.73-.56,1-1C435.3,116,434.44,116.07,434.14,115.34Zm7.14-7.22c-.63-.83.2-2.36.73-2.16C442.45,108.85,441.21,107.17,441.28,108.12Zm5.39-10.5c-.62-.83.2-2.36.73-2.16C447.84,98.35,446.6,96.67,446.67,97.62Zm-1-8.15c.18-.07.17-.57.31-.75.64-.8.77,1.22,1.23,1.39.07-1.77,1-1.56,1.68-1.93a9.44,9.44,0,0,0,.32,1.63,10.38,10.38,0,0,1-1.75.6c.57.81-.11,1.71-.4,2.39a2.52,2.52,0,0,1-1-1.25c.65-1,1.33,1,1.48-.14-.73-.64-1.28-.68-1.76-.46C445.69,90.23,445.52,89.58,445.71,89.47Zm-.44,1.85a2.44,2.44,0,0,0-.29.27C444.88,89.87,445.05,90.49,445.27,91.32Zm-.32.29c-.22.23-.45.47-.7.7-.49,0-1,.24-1.53.16a.49.49,0,0,0,0-.12c.64-.22.46-1,.72-1.76A4.09,4.09,0,0,1,445,91.61Zm-2.74-1.23c-.07.25-.13.56-.2,1,0-.31-.05-.62-.08-.94Zm-3.12-7.13c.1.69.41,1.73-.07,2-.08-.45-.22-.64-.42-.46a8.44,8.44,0,0,1-.15-2.56,6.73,6.73,0,0,1,.11,1.73C438.74,83.72,438.9,83.46,439.09,83.25ZM443.42,72a1.85,1.85,0,0,1-.17-.42l.15,0C443.4,71.73,443.41,71.88,443.42,72Zm12.8-5a.85.85,0,0,1-1.36.89C454.9,66.44,455.93,67,456.22,67Z"/></g></g></svg>