<svg xmlns="http://www.w3.org/2000/svg" viewBox="0 0 520 328.15"><defs><style>.cls-1{fill:#ffe6a8;}</style></defs><title>松_黃</title><g id="圖層_2" data-name="圖層 2"><g id="圖層_1-2" data-name="圖層 1"><path class="cls-1" d="M481.37,146a34.56,34.56,0,0,0-15.25,3.56c-10.68-15.82-27.49-26-46.4-26-22.48,0-42,14.43-51.76,35.57h-2.88a25.3,25.3,0,0,0-17.71,0H269.45a19,19,0,0,1-19-19V107.8H386.32c-.8-28.73-21.55-51.74-47-51.74a42.21,42.21,0,0,0-18.58,4.33C304.84,24.58,272.2,0,234.49,0c-31.21,0-59,16.84-76.57,43a57.07,57.07,0,0,0-25.18-5.88C98,37.08,69.8,68.59,69,107.8H169.42v6.07a21.12,21.12,0,0,0,21.1,21.1H247v5.18a22.45,22.45,0,0,0,22.41,22.42h71.49c-7.71,5.57-12.91,15.23-13.22,26.3h94.42v36.18a14.37,14.37,0,0,1-14.28,14.35c-19.16.09-49.42.2-74.82.18-1.24-2.31-3.12-3.79-5.23-3.79a4.85,4.85,0,0,0-2.68.84c-2.28-6.92-7-11.67-12.4-11.67-4.49,0-8.48,3.26-11,8.3a6.55,6.55,0,0,0-3.62-1.13,6.19,6.19,0,0,0-1.61.22c-4.47-7.82-11-12.77-18.37-12.77-7.88,0-14.89,5.71-19.34,14.57a11.51,11.51,0,0,0-6.36-2c-8.77,0-15.9,10.68-16.11,24H286a17.72,17.72,0,0,0-.16,2.32v31.75h-133a17.07,17.07,0,0,1-17-17V265.4h49.62c-.26-15.29-9.39-27.57-20.62-27.57a15.86,15.86,0,0,0-8.14,2.29c-5.71-10.19-14.68-16.75-24.78-16.75-10.94,0-20.57,7.72-26.14,19.4H73.22A13.33,13.33,0,0,1,59.9,229.45V213h94.43c-.39-23-14.12-41.45-31-41.45A24,24,0,0,0,111.08,175C102.51,159.7,89,149.83,73.84,149.83c-18.34,0-34.21,14.41-41.92,35.4a17.75,17.75,0,0,0-9-2.54C10.48,182.69.39,196.18,0,213H56.45v16.43a16.79,16.79,0,0,0,16.77,16.77h20.1c-6,2.63-10.35,10.18-10.56,19.18h49.58v7.76a20.52,20.52,0,0,0,20.49,20.5h133v34.49h3.45V258.46a16.14,16.14,0,0,1,.19-2.32h27a24.54,24.54,0,0,0-2.42-10.35h20.53a15.34,15.34,0,0,0-.31-2.76c25.14,0,54.75-.1,73.6-.18a17.84,17.84,0,0,0,17.72-17.8V188.87H520C519.51,165.11,502.41,146,481.37,146Zm-290.85-14.5a17.67,17.67,0,0,1-17.65-17.65V107.8H247v23.72Zm-87.88,114.7h1.61c-.09.23-.18.46-.26.69A14.3,14.3,0,0,0,102.64,246.22Z"/></g></g></svg>