<svg xmlns="http://www.w3.org/2000/svg" viewBox="0 0 750 473.3"><defs><style>.cls-1{fill:#004ec2;}</style></defs><title>松_藍</title><g id="圖層_2" data-name="圖層 2"><g id="圖層_1-2" data-name="圖層 1"><path class="cls-1" d="M694.29,210.61a49.89,49.89,0,0,0-22,5.13c-15.41-22.82-39.65-37.54-66.92-37.54-32.43,0-60.56,20.81-74.66,51.3h-4.16a36.42,36.42,0,0,0-25.53,0H388.64a27.38,27.38,0,0,1-27.35-27.35V155.49H557.2c-1.16-41.44-31.08-74.64-67.85-74.64a60.75,60.75,0,0,0-26.8,6.26C439.67,35.45,392.59,0,338.21,0c-45,0-85,24.29-110.45,62a82.25,82.25,0,0,0-36.31-8.47c-50.07,0-90.77,45.44-91.94,102H244.36v8.75a30.46,30.46,0,0,0,30.43,30.43h81.52v7.48a32.36,32.36,0,0,0,32.33,32.32h103.1c-11.12,8-18.62,22-19.06,37.94H608.85v52.18a20.73,20.73,0,0,1-20.6,20.7c-27.62.12-71.27.28-107.9.26-1.79-3.33-4.5-5.46-7.55-5.46a7,7,0,0,0-3.86,1.21c-3.29-10-10.06-16.83-17.89-16.83-6.48,0-12.23,4.69-15.89,12a9.5,9.5,0,0,0-5.23-1.64,8.54,8.54,0,0,0-2.31.33c-6.44-11.28-15.92-18.43-26.5-18.43-11.37,0-21.47,8.24-27.9,21a16.63,16.63,0,0,0-9.17-2.87c-12.65,0-22.93,15.41-23.23,34.59h71.69a28.53,28.53,0,0,0-.22,3.34v45.8H220.43A24.61,24.61,0,0,1,195.85,394v-11.2h71.57c-.38-22-13.54-39.76-29.74-39.76a23.06,23.06,0,0,0-11.75,3.3c-8.22-14.68-21.16-24.15-35.73-24.15-15.79,0-29.67,11.14-37.7,28H105.6a19.23,19.23,0,0,1-19.21-19.21v-23.7h136.2c-.57-33.15-20.36-59.79-44.71-59.79a34.58,34.58,0,0,0-17.66,5c-12.37-22.08-31.83-36.32-53.72-36.32-26.44,0-49.34,20.78-60.47,51.06a25.47,25.47,0,0,0-13-3.67C15.12,263.49.56,283,0,307.24H81.41v23.7a24.22,24.22,0,0,0,24.19,24.19h29c-8.62,3.79-14.93,14.68-15.23,27.65h71.51V394a29.59,29.59,0,0,0,29.56,29.56H412.29V473.3h5V372.77a23.15,23.15,0,0,1,.27-3.34h38.91A35.26,35.26,0,0,0,453,354.51h29.6a20.57,20.57,0,0,0-.45-4c36.28,0,79-.13,106.16-.25a25.74,25.74,0,0,0,25.56-25.68V272.41H750C749.29,238.14,724.63,210.61,694.29,210.61Zm-419.5-20.92a25.48,25.48,0,0,1-25.45-25.45v-8.75h107v34.2ZM148,355.13h2.32c-.12.33-.25.66-.38,1A17,17,0,0,0,148,355.13Z"/></g></g></svg>