<svg xmlns="http://www.w3.org/2000/svg" viewBox="0 0 550 350"><defs><style>.cls-1{fill:#0046ae;}</style></defs><title>小輪播</title><g id="圖層_2" data-name="圖層 2"><g id="圖層_1-2" data-name="圖層 1"><path class="cls-1" d="M547.62,89C546.7,73.92,550.24,85.76,550,76c0,3.7-.28,3-.75,3.78,2-17.5-1.8-9.74-1.28-19.55-2,4.67-.59,18.92-3.28,14.52.58-5,.87-10.75,1.11-16.51.26-6.4.52-12.78.74-18.23-1.51-2-2.92-3.88-4.2-5.67l-.24-.34-.18-.26-.32-.49-.6-.95c-.38-.62-.73-1.21-1-1.77-1.22-2.24-1.77-4-1.38-5l-.76-.8-1-1.06c-.76-.83-1.51-1.67-2.27-2.51L530.78,17a2.75,2.75,0,0,0,.19-.28h-.44l-.49-.55L517.1,16.1c-3.05,0-6.14-.07-9.24-.13l-2-.06c.21-.13.75-.06.59-.42a4.88,4.88,0,0,1-1.13.41l-6.85-.19-9.83-.36-1.05.06c1.85-.67,3.87,0,6.33-.78-.13-.21.25-.76-.25-.72-.7,1.36-3.54.58-5.42,1.09-.11-.23-.72-.12-.47-.58-1.75.87-5.24.7-7.95.25-.66.65-2.23-.07-3.4.34.49-.23.34-.85,1.11-.89.27.38-.68.64.24.58.27-1.08,3.24-.39,3.85-.78-.59,0,.3-.26,0-.59-1,.42-1.85,0-2.71.48-.52-.44-2.42-.85-1.37,0-.79-.83-2.6-.14-3.43-.83,2.47.09,3.36-.59,5.21-.65-1.08-.49-1.69-.2-2.73-.25a.53.53,0,0,1,.21-.45c-3.29,0-5.48.14-8-.77,0,.17,0,.42-.21.44-1.48-.58-4.18-.29-5.69-.21.28,0,.54,0,.46.28-1,0-2.18.17-2.28-.41-.53.06-.2.65-.9.6-.71-.32-1-.89-1.85-1.14.73.56-3.05.9-2.05-.12-1.42-.08-2.18.36-3.19-.4a4.3,4.3,0,0,1-1.34.75c.19,1.4-.29,1.57-.16,2.63,1.21-.33,2.09-.51,2.51.4.25-.39,2.07-.39,2.5,0,1.53-.94,3.69.28,6.14.07-.11.7.77.16,1.16.71-.82.07-1.52.21-2.26.32.31-.45-.06-.56-.48-.87-.31.44-1.47.34-1.82,0-.25.61,1,.25,1.15.57-.87.22-1.93.33-2.71.62-.46-.81-2.14-.74-3.19-.4-.46-.33-.46-.38,0-.73a10.34,10.34,0,0,1-6.14-.06c-.58,1.07-2.44-.31-3.18,0a1,1,0,0,1,.69.43c-.7-.1-.66.26-1.36.16,0-.57-.86-.52-1.38-.71-.21.27.69.48,0,.58a9.42,9.42,0,0,0-4.08.2c-.21-.47,0-.89-1.39-.86a.63.63,0,0,1-.21.59h0a2.64,2.64,0,0,0-2.06.17h0l-.22.15c-.33-.12-.88-.1-.69-.57.43.05.19.56.91.42h0c-.3-.67.86-.69,1.57-.75-1.48,0-2.4-1.61-3-.54-2.26-.33-3.8-.91-6.18-1.38.05-.21.37-.25.44-.45-1.2-.28-1.9.77-2-.12,1.11,0,2.44.08,2.95-.33a1.22,1.22,0,0,1-.92-.28c1,.33.2-.56,2-.31-.2-.56.65-.46.66-.89-.55-.23-1.52-.18-1.84-.56a4.74,4.74,0,0,1,3.88.24c-.33.09-1.18-.15-1.14.16,1.26-.09-.78.53.47.43a5.64,5.64,0,0,1,2.25-.9c-.45.59,1-.41,1.37.42.39-.15.45-.49.9-.6,1.78.91,5.23.75,7.07.93-.34-.17-1-.11-.93-.57.23,0,.27-.12.45-.15.72.64,2.22-.11,2.52.69,1.17,0,1.13-.16,1.83.13.19-.33-.14-.68,1.12-.6-.06.3-.61.29-.67.59,1.79,0,5-.55,6.14.21,2.9-2.28,7.63.8,10-.86,0,.19.4.13.46.29-.59-.08-.81.07-.67.44A9.41,9.41,0,0,1,467,10c-.36-.8-2.12-.67-2.76-1.28a8.81,8.81,0,0,1,2.49-.18c-.3-.42-2.34-.4-3-.4,0,0-.11.48-.45.45s-.59-.4-.92-.43c-1.52-.12-3.72.64-4.55-.23.81.07,1.17-.14,1.35-.46-3.79.38-6.14,0-10.45.14,0-.15.18-.18.22-.29-1.47.34-3.11-.18-4.76.5,0-.21.37-.25.44-.45a14.49,14.49,0,0,0-2.48.62c.47-.36-.77-.47-.93-.86,0,.31-.18.46-.68.44-.5-.2.28-.36-.23-.43a19.29,19.29,0,0,0-3.4.63c0-.27,1.15-.51.44-.74-1.41.77-5.26-.23-6.61-.35.68.17-.69.47-.9.16-.29.37.91.44.24.58-.32-.57-1.81-.14-2.05-.41-.37-.52.76-.1.66-.45a15.34,15.34,0,0,0-3.2-.69c2.12-.66,6.34.43,9.3-.7-.2-.35-1,.13-1.36.16-.17-1-.78-.07-1.37-.42.54-1.19,2.44.05,3.4-.34-.28,0-.54,0-.46-.28.23,0,.26-.13.45-.16,1.42.08,3.95.58,4.08-.2,1.12.06,2,1,3,.7a4.37,4.37,0,0,1-2.77-1.28c0-.21,1.64-.11.91-.31a11.78,11.78,0,0,1-3.85.49c.17.23,1.11,0,.92.43-.69,0-1.77.18-1.83-.27.65-.24-.36-.76-.46-.43.61.12-.18.54-.44.59,0-.22-.56-.13-.92-.14a.63.63,0,0,0-.24-.58,5.43,5.43,0,0,0-1.58.32c-2.92-.77-6.93.83-9.72.42-.57.4-1.7.06-1.63.45-.26-.13-1.5-.36-1.59-.12.14.25,1.08,0,1.14.28s-.24.23-.44.29c-.61-.38-.7-.18-1.37,0-.22-.14-.45-.29-.69-.42-1.41.23-2,.19-3.4.33a.55.55,0,0,1,.21-.44,1.88,1.88,0,0,1-1.59-.13,4.33,4.33,0,0,0,1.57-.75c-1,.25-2.6.12-2.93.77.4.08.93-.44,1.13,0a6.91,6.91,0,0,0-1.8.6c0-.26-.23-.33-.69-.28.5-.37-.28-.8-.71-1-.13.54.51.55.49,1-1.06-.11-.24.23-.68.3-1.16.08-1.31-.52-2.29-.56.26-.46,1.17-.52,1.57-.89-1.28-.08-1.39.57-2.48.61,0-.36.41-.46-.25-.58-1.41.92-4.33.66-6.11.81.31.36.68-.27.91.14-.05.2-.49.17-.68.3-.13-.36-.88-.3-.7-.87-1.26.54-2.66.11-4.31.35-.22-.21-.58-1.08-1.15-.57.28,0,.54,0,.46.29a20.29,20.29,0,0,1-3.18.18c-.17-1-2-.91-3-1.42-.5.22.29.35-.22.44-2.34-.68-3.76-.59-6.84-.93,1.48-.25-1.43-.18-.47-.58a8.47,8.47,0,0,1-3.21.39c.16.15.11.61-.18.53-.47-.25-.08-.53-.91-.28.12-.52-.11-.82-.71-.86-.31.09,0,.56-.44.59-.71-.23-.88-.12-1.37-.28a1,1,0,0,0,.67-.44c-.75.11-.37-.3-.24-.44a4.94,4.94,0,0,1-1.83-.56c0,.72.6,1.07,0,1.61.72.06.65.66.94,1a31.54,31.54,0,0,1-10.73-1.47c.43-.47.41-.91-.26-1.31-1.29,2.78-5.73-.35-8.62.84-.29.82.22.89.28,1.75-1.79-.1-2.17.67-2.92,1.21-1.34.28-1.92.14-3.4.34,0-.18-.08-.35-.46-.29-.62.14.61.26.24.73-1.54.11-1.89,1.51-3.37,1.21a1.31,1.31,0,0,1-.19,1.61c0-.19-.63-.18-.68,0,.37,0,0,.21-.45.15.48-.24-1.16-1.09-1.37-.42.81.27,2.25.5,1.62,1.29.8-.09,1.18.11,1.38.42a5,5,0,0,1-.9.6c.22.3.65.46.93.72-1,.46-3.58.91-4.77-.09-.91.21-1.88,1.49-2.72.48a2.38,2.38,0,0,0,1.35-.75c-.91,0-2.05.94-2.73.18a13.93,13.93,0,0,1,7.47-1.27c-1.68-.79-4.78-.1-7,.54A8,8,0,0,0,332,9.6c-.53-.09-.62-.47-1.15-.56-1.72.06-5.58,1.49-5.47-.23-.81-.21-.12.5-.67.45s-.79-.26-.7-.72c2.18-1.33,5.3-2.08,7.64-3.31-.63-.37-1.57-.54-1.63-1.3C324.94,4,323.2,7.49,318,7.45c.79,1.36-1.33,2-.14,3.22a1.85,1.85,0,0,0-.9.15c.28,1.17.68,2-.38,2.78,0,.25.63.08.69.29-.76,0-.6.58-.89.88.15.21.88,0,.92.28a18.67,18.67,0,0,0,.88,2.22l-3.22.19-3.11.16-1.47.07h-.63c-.24-.11-2.46-.43-4-.69L301,16.15c-3.16-.58-6.22-1.2-9.16-1.87,10,2.35.42,2.42,1,3.34-5.15-2.1-13.32-3.79-22.6-5.18-2.51-.44-5.11-.56-7.75-.77s-5.32-.35-8-.5c-5.37-.29-10.74-.51-15.83-.69,0,.76-1.58,1.27.76,2l-11.67-2.08,1.5,1c-5.71-.12-11.53-.58-17.27-1.18-2.87-.3-5.71-.63-8.51-1l-4.16-.51-2.05-.25-1.12-.13-1.67-.16c-2.23.11-3,.11-4.13.14l-3.26.08c-2.14.07-4.2.16-6.18.29A75.69,75.69,0,0,0,170.25,10c8.49-.3,8.59.44,9.53,1.57l-11.07.87-5.53.41c-1.86.11-3.75.06-5.64.09-7.59,0-15.5-.06-24.25-.39.94.2,1.56.43,1.6.7a47.6,47.6,0,0,1-7.35,0l-3.8-.31-1.85-.16-.9-.07-.21,0-.08,0-.17,0-.06.4c-.08.46-.18.93-.28,1.39a1.53,1.53,0,0,0-.25-.06l-.42-.07-.86-.12-1.76-.24c-1.19-.15-2.42-.28-3.68-.4l-7.8-.68a133.66,133.66,0,0,1-16.18-2.13c-1.8.69-6.51.16-12.29-.71L67.7,8.52l-4.79-.7-.65-.09-1-.11-2-.2L55.46,7c-1.94.8-3.83,1.61-5.63,2.4l-1.09.49-.77.37c-.51.24-1,.48-1.46.72C42,12.49,56.77,8.8,44.65,14c-1.69-1.41-5.62.28-9.47,1.89l-4,1.65c-1.52.61-3,1.15-4.31,1.57-2.68.85-4.95,1.23-6.3.67l-3.88,2.07.79,15.69-.57,1-.29.53a1.93,1.93,0,0,1-.28.47l-1.12,1.21c1.9,4.82,1.34,8.44.42,12.64-.46,2.1-1,4.34-1.39,7A36.62,36.62,0,0,0,14,69.49c.46-.75.62-2.27.93-1.53-.46,4.58-.74,15.17-1.85,7,0,2.87-.13,8.37-.18,13.45a6.92,6.92,0,0,1-.31,1.16,2.09,2.09,0,0,1,.3-.21c0,.65,0,1.28,0,1.89-1.46.55-.72-1.28-.66-2.68-1,1.41-.79.51-1.79,1.53.12,1.24.32,2.41.32,3.64.44-1,.79-.32,1.06-.42-.34.69-1,2.35-.63,2.22,0-.23.38-.59.74-.95-1.06,1.83-.52,2.32-.79,3.59.06-1.14-.52,0-.86-.48-.28,1-.57,1.78.39,1.32l-.76.79c1,.62-.49,4.66.5,5.7-.3.34-.72.73-.75,1,1.09.68-.41,4.89.68,4.65-.93,1-1.36.64-.85-.32-1.74,1.94-.31,1.45-.13,1.69,0,0-.49.55-.5.53.32.34,1.47-.55,1.65,0,.22.7-1.07,2.32-.57,3,1.16-1.58.18,1.09.9.79,0-1.84,1.35.67-.34,2.43,0-.61-.61,0-.84-.16.18.76-.22.73-1.2,2,.33.42-.36,1.24-.4,1.8.8-.92.66-1.46,1.18-2.27,0,.23.15.22.29.21-.27.69-1.52,2.26-.42,1.48a6.68,6.68,0,0,0-1,1.21c-.81-1.93-1.29-2.45-.51-5.86-.89-.62.6-3.83-.89-3.9.47-.52.13-.71.71-1.27-.9-1.2,1.53-6.06-.49-5.7,0,.49.31.86-.41,1.63,0-.56-1-1.87.82-3.27a1,1,0,0,1-.37-1c-1.08.87,0,.86-.68,1.58a3.43,3.43,0,0,1,.5-3.64c-.3-2.84-.84-4.66.41-8-1.32,1.27.56-.93.44-1.16-.35-.07-1.22,1.43-1.27,1.16s-.22,0-.28-.06c-.27-.38.57-1.2.67-1.74-.71.54-.55-.48-.64-1,1.89-2.11.58-2,.59-2.7,0-2.87.61-7.2.31-9.13-.58,2.37.09,2.26-1,4.81,1.18.82-.1,4.76.3,6.59a16.25,16.25,0,0,0-1.23,1.64c-.39.21-.44-.19-.83,0-.48,1.18,1.22,1.24-.21,3.86.84-.79.41.22.33.68,1.76-1.28,1.88,1.2,1.6,2.48-.48.46-.16-1.41-.59-.42a1.85,1.85,0,0,1-.68,1.74c-.17-.13.23-1.25-.33-.68-.33.89.23,1.43-1.4,2.85-.14.86.94-1.23,1-.58-.19.23-.27.43-.22.58-1.14,1.41-1.24,1-1.8,1.37-.62,1.41.43.37.82,0-.63,1.2-1,.59-1.51,1.58A5.45,5.45,0,0,0,1,108.05a2.34,2.34,0,0,1,.47-.84c-.12.44.8-.12.07.79-.05-.15,0-.5-.29-.21-.62,1.6.12,2.4-1,4.17.36,0,.73-1.08,1-.9.43.54-.81,1.74-.89,2.48.38-.3,1.29-1.55,1.28-1.16-.07.69.54,1.1-.63,2.22-.2,0-.34-1-.58-.27.57.39.06,1.59,1.18.85-.25,1-1.37,1.31-1.48,2.06.18.06,1-1,1-.74-.44.69-1.36,3.48-.41,1.63a7,7,0,0,0-.1,2c.38-.37.93-1,1-.9-.69,3.62.66,4.71.13,7.82.44-.4.63-.92.76-.79-.32,1.3-.62,2.4.44,2a3.1,3.1,0,0,1-.77.63c.52.17,0,1.59-.32,2.59-1,.61-.25-1.11-1.89.42.24.95,2.37-.76,2,1,.6-.38.91-1.4,1-1.05-.27.81-.14.82.34.68a5.22,5.22,0,0,0-1.2,2.11c1,.28-.56,3.29,1.08,2.86-.48,3.24.06,6.7,1.22,7.7-.61.79-.2,1.17-1.19,2.11,1-.06-.51,2.07.68,1.54,0-.23,0-.46.48-.85.24.16.19.25.35.84-.4.43-.88.9-.73,1.11,1.67-1.19.16,1.77,0,2.8a3.6,3.6,0,0,0,.73-1.11c.19.48.45,1.45-.84,3-.31-.12,1-1.69.18-1.06,0,.3-.54.76-.72,1.11,1.48.2,1.35,2.7,1.23,4.13l-.34,1.91,1.13-1.57c0,.58-1.08,2.09-.6,2.5-.09-.08,0,.24.06.63A2.72,2.72,0,0,1,4.53,165c-.63.73-.46-.87-.83,0,.14.47.46.36.11,1.26,1.3-1.48,1.13-.27.6.58-.42-.11-.52-.77-1.38-.1.49.56,1.74,1.25-.52,3.48.25-.26.34-.05,0,.32-.68,0-1.2.84-1.84.9,2.35-.23-1.07,5.15,2.25,3.69-.48.54-.58.4-1,.9,0,.52.84-.38.6.58-.48.46-.54.76-1,1.22.13.31.2.73.6.58-.17-.59.33-1.45,1.16-2.43-.29,1.45.9.77-.28,3.06.19-.89-.8.31-.6-.58-.58.78-1.59,1.72-1.46,2.21.38-.36.93-1,1-.89C.81,180.83.64,183.26.7,184.17c1-.82.68-1.14,1.48-1.9A1.66,1.66,0,0,0,2,183.48c-.55.27-.56.33-1.17,1l.13.31c.18-.16.34-.27.33-.07a3,3,0,0,0-.25.28.61.61,0,0,1,.05.12l.27.67a2.61,2.61,0,0,1,0-.28c.46-.64.88-.41,1-1,.33-.21-.38.9-.89,1.66.94,2.34,2,4.6,2.92,6.89.28.66.55,1.33.83,2,.1,1.47.22,2.95.39,4.45,1.12.74,1.85,2.81,2.39,5.68.27,1.43.5,3.06.71,4.83.1.88.2,1.79.31,2.73,0,.47.09.94.14,1.42a1.09,1.09,0,0,1,0,.26c0,.07-.06.12-.08.2,0,.47-.08.94-.11,1.42l-.21,2.88c-.13,1.92-.22,3.85-.25,5.72a39.32,39.32,0,0,0,.93,10.17l1.35-10.48c-.67,11.23-.44,17.76-.28,24.1,0,.79,0,1.58,0,2.38s0,1.59-.07,2.41c-.07,1.63-.15,3.32-.28,5.14-.26,3.64-.68,7.79-1.41,13,0-8.94.24-13.41.29-18.92,0-1.38-.05-2.81-.14-4.4s-.21-3.33-.34-5.3c-.28-4-.7-8.83-1.31-15.32.22,6.51.12,12.56-.13,18.35-.08,1.45-.15,2.88-.22,4.29s-.29,2.83-.43,4.22c-.33,2.79-.65,5.54-1,8.27C4.22,273.47,3,284.11,3.24,296.08c1-1.53,2.1-7.47,2.61-1.58-.88,1.68-1.33,5.2-1.66,8.78-.15,1.79-.3,3.59-.43,5.18-.11,1.2-.21,2.33-.3,3.33-.13,1.24-.25,2.34-.38,3.24.64,2.43.65,3.45-.5,1.89,5.34,13.55,7.8,14,10.5,21.13l.72,2.73,21.14-.27,1.35,0,.77,0,1.53.05,3,.1,6.11.2-.83-.39c3.48-.68,6.93-1.26,10.35-1.77,1.71-.25,3.41-.48,5.11-.7l2.55-.31.63-.07.32,0a.29.29,0,0,0,.12,0l.27-.07h.36l.17,0,.34,0,.68.06,2.72.24c1.81.17,3.61.35,5.4.55,3.59.39,7.15.84,10.68,1.33s7.06,1,10.57,1.58l5.26.85,2.63.43.33.06.45.07,1.22.17,2.44.34,2.44-.28,1.23-.14.46-.05.33,0,2.67-.23L122,342l10.71-.94q5.37-.5,10.78-1.09l5.44-.62,2.72-.35.69-.08.16,0h0s0,0,0,0h0l.49,0,2.4.19,4.85.33q4.86.3,9.83.44l-.75-1.26,9.15,2.21c-2.16-.6-1.21-.84.56-1l3.56-.28c.57-.06,1.09-.12,1.48-.2l.28-.07.41-.05a1.36,1.36,0,0,0,.48-.16l.44.06.81,0,.68,0,.87.07,1.76.15,3.51.3,7,.6,14,1.19c.63-1.06-1.06-3.44-8-2.92,1.48-.18,3-.29,4.46-.34.75,0,1.5-.05,2.24-.05l2.94,0,1.3-.12.49,0,.36,0,1.46-.08,2.91-.11c1.94,0,3.86-.07,5.74-.08,3.77,0,7.41-.09,10.79-.42l-3.3-.68,9.49-.19-.29-1.47c2.74-.19,5.59-.45,8.46-.76l4.3-.48,2.13-.25.24,0,.1,0,.21,0,.37,0,1.89.22,3.69.43c2.4.29,4.65.6,6.69.92,4.08.65,7.3,1.41,9,2.4L280.65,335l16.2,3.88-9.21-2.75c5.14.48,11,1.24,16.83,2.08,2.93.42,5.85.86,8.68,1.31l4.16.66,1,.17,1.49.22,3.52.51,2.78-.45,2.32-.37,2.86-.4,4.94-.69c2.91-.41,5-.71,5.85-.88l-1.82-.56c2.89-1,5.37-.88,8.54-1.18l-2.67-.86c2.59-.46,5-.9,7.24-1.35a1.47,1.47,0,0,1,.91.31.66.66,0,0,0-.19-.45l2.88-.59c-.18.17-.62.41-.48.81,1.3-.49,2.88-1.06,2.49.88,1.75-.4,1.95,2.71,5.34,2.63-.72-.73-.15-.28.53-.74.37.36.5.85.86,1.21,1.05-.28,1-.42,2.14,0,.24-.7-.33-.59.31-1,.55.94,1.06.75,2,1.62,0-.69.6-1.36,1.63-.31.44-.73,1.89-.06,2.15-1.06.8,0-.07,1,.94.94.43-1,.6-.88.18-1.6a2.92,2.92,0,0,0,1.84,0c-.1.84-1.08.46-1.06,1.48,1.66.2,5.61.37,5.77-.83.38.13.05.68,0,1.08,1.06.23,1.18-.83,1.65-1.4-1.25.1-.65-.9-1.9-.8,2.18-1.07,2.78.25,4.86.12a2,2,0,0,1-2.45,1c.33.45,1.16.6,1.9.81.11-.48.53-.5.61-1,1.31-.13,1,.7,1.9.8.18-.46-.19-.6,0-1.08,2.46,3.72,6.63.48,9.75,3.24-.86-.76-.21-1.25-1.22-2.06.18-.32.67-.19.59.08.47-2.36,3.54-.76,5.24-.09-.13-.92-1.44-1.15-2.26-1.67.69-.49,2.54-.51,1.91.8,1-.26,1.32.09,2.35.33.95-.3-1.56-.35-1.23-1,1.06-1,4,0,4.27.05.76.12,1.45.28,1.18.16,1.46.65,2.53-.41,3.47-.34.34,0,.45,1,1.24,1,2.13.06,6.71.18,9.47,2.11.32-.17.39-.68.82-.69-.18-.92-.88.44-1.55,0,.67-1.31,2.75-.84,3.85-.55-.27.24-.76.17-.82.7,1.48-.08,4.34-1.42,4.78.39.59.2.67-.3.83-.7a6.47,6.47,0,0,1,2,.54c0,.46-.38.46-.75.44.86,1.34,2.27-.14,3.67,1,.14-1,1.41-.5,1.86-1.1,3.46,1.53,10.25,2.7,15.15,2.63,1.69,1.88,4.47.42,6.53,1.71.71-.25,1.61-.21,1.86-1.1.48.55.7.71,1.69.51.74.17-.54.39-.31,1a3.07,3.07,0,0,1,2.55,1.05,7,7,0,0,1,.8,0,1.28,1.28,0,0,1-.71-.65c1.2-.26,2.92-.63,4,0a1,1,0,0,1-.06-.82c.8,1.19,2.26,1,4,.83.4.17-.22.31-.24.78,4.58-.15,8.48,1.62,13.7,1.34.37.14,0,.69,0,1.08a16.27,16.27,0,0,0,3.31.19c-1.75.85,1.68.18,2.22-.24.53.12-.09.91.27,1.12,1.15,0,.08-1.28,1.35-1.43.39,1.21,1.72.79,3.22,1.52.86-.18-1.06-.49-1.31-.72.17-1.23,1.8-.43,2.88-.41.65,0-.14.93-.1,1.33,1.17,0,1.39-1.27,3-.67.74.37-.64.64,0,1.08,1.34-1.09,3.83-.08,5.68-.57.05-.31-.47-.29-.8-.38.48-.73.9.29,1.47.2a1,1,0,0,1-.74.44,10.29,10.29,0,0,0,3.39-.07c.94-.47-.66-1,.47-1.56-.05.41-.29,1.49,1.24,1-.18-.61-1.08-.8-.34-1.94a.55.55,0,0,0,.67-.18c1.26.23-.73,1.19.57,1.16,0-1.72,1.77-1,2.82-1.23.14-.58-1.21-.29-1.69-.5.22-.81,1.12-.66,2-.54,1.06-.37-1.69-.27-1.61-.77,1.79-.13,6.25.38,6.67,2.28.69,0,1.78-.38,1.69.5a3.86,3.86,0,0,1,2.25-.42c1.26-.39,2.5-.8,3.74-1.19a.88.88,0,0,0,.09-.26l.26.05-.18-.5a1.86,1.86,0,0,0-.45.67c-1.12-.19-2.64-.15-2.79-.92-.76,0-.93.92-2,.53-.22-.08-.21-.3-.51-.34-.56-.1.75-.9.1-1.34-.57-.17-1.56,1.73-1.34.36-3.94,1-7.9,0-13.25-.74-1.42,1.26-4.24.34-5.53,0,.17-.74,1.82.58,1.7-.57a5.72,5.72,0,0,1-2.27-.59c.37,2-3.5.53-4.44.47.27-.73,1.37-.3,2.22-.23-2.43-2.36-7.16-.2-10.6-1.46-.08.61-.93.17-1.11.66-2.37-1.79-5.67-.5-8.08-1.66-4.72.41-6.33-.24-10.89-1.5a1.63,1.63,0,0,0,.61-1c.3,1.19,1.14-.05,1.92-.28a1.37,1.37,0,0,0,.8.39c-.61.49-1.76.24-2.15,1.05.91,0,1.29-.66,2.51-.19.63-1,0-1.47,1.57-1.14-.6-.29-.53-1-1.54-1,.52-1.75,6.91.27,3.69,0,.56.81,3.7,0,2.71,1.18,1.95.71,2.81-.59,4.36-.21,1.21.29,1.39,1.52,2.47,2-.05,0,.2-.5.15-.52.71.26,2,1.88,2.73.11-.89.46-2.23-.11-1.82-1.07,1.21,1.27,6.25.13,9,1.52.36,0,.39-.44.53-.74,3.27,1.33,8.08.22,10.59,1.46.08-.26.16-.52.23-.78.65,1.07,1.47.84,2.87.67-1.27-.48-.23-1-2.12-1.11,1.79-.12,3.44.6,5-.39-.08.38-.17.75-.53.74.31.41,2.21-.11,2.89-.41.23.31,1.94.82.86,1.2,2.13.19,4.45.61,6.77.93.27-1-1-1,0-1.9-2.39-.14-4.5.51-5.73-1.33-.36,0-.39.44-.53.74-.3-.11,0-.54-.43-.6.87-.49,4.31-.95,4.41.61.87-.26,2-.1,2.88-.42.24-1.25.49-2-1.43-2.36-.11.5.92.31.65.9,0,.74-.74.44-.9,1-.55-.26-2.68-.69-1.45-1.28-.69-.6-.76.47-1.5.87-.34-.71-.45-1-1.39-.46a3.8,3.8,0,0,1-.57-1.16,46.46,46.46,0,0,1-8.24-1.14c0,.22.22.3.14.57-1-.69-1.75-.81-4-1.09.08-.38.17-.74.53-.74a33.51,33.51,0,0,1-7.05-2.05c-.05,1.47-2.06-.44-3.33.89-.27-.63-1.56-.65-1.37-1.54-1.33-.07.39.62-.69,1.25-1.13-.26-2-1.81-3.22-1.52-.08,0-.39.76-.53.74-.73-.16-.94-.94-1.82-1.07.09,0,.09.55.14.56-.4-.11-1.12-.69-1.61-.76-.82-.12-2,.85-3,.68s-1.14-1.37-2-1.63c-1.44-.45-3.26.89-4.19-.3-.88-.12-1.21.53-2,.53-2.66-1.1-5.34-1.4-8.44-2.51-.11-.63-1-2.45.16-2.42-1.4-.19-3.5-.87-3.27-1.6.61-.17,1.23-.33,1.8-.5.19.13.28.28.13.29,2.19-.22,5.06-.09,6.9,1.5,6.93.15,12.88,2.15,19.45,1.59.53-2.69,5.33-1.25,6.78-.15,5.3.07,10.19,1.63,15.81,2.45.46-.29.24-.39.24-.77.65,0,.87.34.64.89,1.31-.74,4.79.84,4.89-.95.54.4.37,1.21,1.82,1.07-.08-.87.15-.6.47-1.56-1.37.1-1.43.52-1.6-.77,1.38,0,3-.51,4.48-.43l-.8-.61a8.26,8.26,0,0,1-3.51-.55c0,.76-.62.61-.69,1.25-3.1-.84-5.79.29-8,.25-5.58-2.33-11.49.08-17.14-2.09.46-.83.88-1.5,1.16-2.1,1.45.08,3.27.21,5.64.41l-5.42-.93c0-.09.05-.18.07-.26l14.71.79c.75.1,1.51.19,2.25.24l-1.2-.18,18.15,1,.74-3.26c2.62-6.4,5.16-20.85,6.73-29.42l1.16-5.06c0-.15.09-.3.14-.43-.05-.37-.07-.63-.09-.85a2.39,2.39,0,0,0-.19-.35l-4.12-20.49,1.15.65a61.11,61.11,0,0,1-3.26-11.7c.62-3.72,1.43-7,2.22-8,.47.38.63,1.44.59,2.91,0,.73-.08,1.57-.19,2.48s-.21,1.64-.35,2.52c.17,1,.36,2,.54,3s.38,2.29.57,3.4c.37,2.21.72,4.26,1.07,5.78-.44-2.52-.8-4.8-1.09-6.9-.15-1-.28-2-.41-3s-.16-1.56-.23-2.29l1.21-4.43c.41-1.49.82-2.86,1.21-4.16.78-2.6,1.5-4.92,2.16-7.35a80.66,80.66,0,0,0,1.78-8.05c.27-1.54.51-3.2.73-5,.1-.92.21-1.89.32-2.91s.2-2.15.3-3.31c-.13.44-.24.7-.35,1l-.33.9-.67,1.81c0-1,.06-2,.13-3,0-.44.09-1.12.15-1.71l.19-1.81-.54-2.72-.41-2.26c-.24-1.48-.45-3-.64-4.44-.37-3-.65-5.92-.9-8.83-.51-5.81-.92-11.45-1.84-16.6,1.08,3.3,2.1,3.84,2.24,2.19l-1-4.09-.23-1-.06-.24,0-.15-.08-.3-.32-1.19c.1-1.16.74-4.68,1.23-7.41s1.07-5.73,1.64-8.61l1.75-8.66c.63-3,1.28-6.11,1.92-9.2.17-3.39.33-6.81.5-10.26s.3-6.64.45-10,.25-6.81.35-10.29c0-1.74.09-3.49.13-5.25,0-.88,0-1.77.05-2.66s-.07-1.78-.11-2.67l2.4-9.23Zm-88-75.81c.07-.24-.19-.27-.47-.28.45-.37.86.42,1.59,0,0,.17.06.26.24.29C460.46,13.48,460.53,12.86,459.6,13.18ZM439.67,7.9a1.78,1.78,0,0,1-1.58.16C438.17,7.74,439.2,8,439.67,7.9Zm-11.52,2.63a.63.63,0,0,0-.21.59c-.7.12-.45-.4-1.14-.28C426.81,10.47,427.55,10.54,428.15,10.53ZM7.4,169.55l-.75.79a2,2,0,0,1,.7-1.42Zm.27-.11c.54-.55.56-.17.57.21v0l0,.21-.72.75A1.58,1.58,0,0,1,7.67,169.44Zm.79-3.59a1.26,1.26,0,0,1,.32-.17c0,.18-.08.37-.11.55A1,1,0,0,0,8.46,165.85Zm-.13-1.42-.18.17a1.19,1.19,0,0,1,.08-.2A.15.15,0,0,0,8.33,164.43Zm5.5-41.18c-.77.64-.42.82-.45,1.16-.74-.36-.25-3.42-1-4.69C14.48,118.76,13.22,122.06,13.83,123.25ZM12.84,92v.54a.59.59,0,0,1-.07-.47A.23.23,0,0,1,12.84,92Zm4.6,6.22c-.09.36-.2.77-.3,1.18C17.1,99,16.9,98.76,17.44,98.2Zm-.47,2,.49.67c-.41.2-.46-.23-.9,0A4.38,4.38,0,0,0,17,100.17Zm8.25,17a4.29,4.29,0,0,1,.19-.54c0,.27,0,.54,0,.79C25.25,117.46,25.21,117.33,25.22,117.15Zm-.37,1.6c.06-.35.12-.68.2-1C25.19,118,25.25,118.22,24.85,118.75Zm.47.59c-.15-.06-.42.25-.64.62l.06-.45a2.7,2.7,0,0,0,.55-.48l.05-.08c0,.14,0,.27,0,.4Zm-7.57-14.92,0,.12v0l0,0c-.12,0-.24-.08-.28-.16a3.35,3.35,0,0,0,.35-.27Zm-1.82-7.56c-.55.56-.16-.56-.33-.69C16.29,95.45,16.26,96.3,15.93,96.86Zm-2.26,27.83q-.18,1-.39,2A4.76,4.76,0,0,1,13.67,124.69Zm-2.44,12.95c.06-.19.13-.39.2-.59a.41.41,0,0,1,.07-.11l-.12.53A1.14,1.14,0,0,1,11.23,137.64Zm17-53.12c-.58-.43-1.18-.32-2.1-1.47a38.08,38.08,0,0,0,2.1-9.44Zm-10.4,19.17,0,.21c-.23-.09-.66.14-.72-.13,0-.06.71-.88.74-1,.38-1-1-.33-1.17-.84a2,2,0,0,1,.94-.94l.49.7Zm-.06-6.52a3.91,3.91,0,0,0-.22.65,5.06,5.06,0,0,1-1.22-2.76c0,.23-.38.59-.74,1-.08-1.22-.14-1.58-.7-1.69.25-.27.31-.19.52-.38A13,13,0,0,1,15,89.52a5.16,5.16,0,0,1-1,.58c.5-.87.41-.91,0-.71,0-.12,0-.24,0-.36.46-.63,1-1.18.59-1.14-.23.44-.41.61-.55.63,0-.53.09-1.06.13-1.59.08-.09.18-.19.31-.31.58-.66.32.16.8-.32-.11-.64-.47-.5-1,0,.13-1.48.27-2.87.38-3.93C16.48,83,15.74,94.34,17.77,97.17Zm-4.93-5.76v.32l-.09.17c0-.21-.45.32-.53.21C12.43,91.87,12.69,91.62,12.84,91.41Zm-1.75,9.83c-.57.52-.17-.67-.35-.84C12.18,99,10.85,100.83,11.09,101.24Zm-.21,13.36c-.59.48-.33-.73.43-1.32.21-.07.3.07.31.37C11.26,114,10.9,114.37,10.88,114.6Zm-.39,5.06c.68-.83.54-.21,1-.74.62-2-.26-2.52,1.5-4.85-.3,1.52.34,1.31,1,1.58a6.45,6.45,0,0,0-.7,1.43c-.61.37-.42,0-.32-.53a4.88,4.88,0,0,0-1.4,2.85C10.65,120.49,10.43,120.32,10.49,119.66Zm1.13.37a10.9,10.9,0,0,0-.07,2.33c1.14-2.17,1,1.12.2,2.21-1.2-.39-.05-3.81-1.42-3.53C11.13,120.06,11.14,120.47,11.62,120Zm-2.31,1.9c.9-.8.34.25.07.79C8.79,123.3,9.18,122.18,9.31,121.93ZM8.14,124.2c.78-.78.49.35.61.75.36-.37.71-.73.74-1,.65,1,.22,4.49,1.84,5.34a8.6,8.6,0,0,1-1.15,2.58c.26.24.81-.94,1.26-1.32.23.2-.92,1.76-.17,1.22-.18.69-.36.57-1,1.21.45.4.8.67.67,1.37.86-.72.35-.9.43-1.32a.55.55,0,0,1,.36,0q-.47,1.48-1,2.88c-.52.38-.89.55-.91,1.24-.94.22.63-3.4-.5-2.59-.51,1.84.56,3-.92,5.28-1.25-.54.1-3.48-.42-4.91l.79-.83c-.84-1.82-1.3-4.72-.51-8.62-.08-.11-.51.42-.54.21A7.33,7.33,0,0,1,8.14,124.2ZM3.3,173c-.29.27-.15,0,0-.16-1.21.66.66-.82.45-1.16.34-.31.24.18.3.37C3.68,172.39,3.33,172.75,3.3,173Zm-.36,8.5a3.35,3.35,0,0,0-.77.63c.07-.27.41-.87.49-.68a3.82,3.82,0,0,1,.73-1.12c-.14.31-.28.61,0,.33C3.37,180.87,2.93,181.27,2.94,181.48Zm-1.11,0a6,6,0,0,1,1.79-1.69C3.12,180.52,1.92,182.05,1.83,181.43ZM4,187.76c.57-.26.23.89.93.62,0,.28,0,.55,0,.83C3.89,189.74,3.16,189.87,4,187.76Zm1,1.84.06,1.82C4.53,191.4,4.55,190.59,5,189.6Zm13.6,60c0,.64-.08,1.27-.15,1.88s-.19,1.21-.29,1.8c-.22,1.18-.47,2.31-.73,3.39-1.06,4.32-2.37,7.9-2.9,10.91.53-5.28,5.05-19.58,1.05-17.24L17,248l.11,2.19,1.15-9A43.33,43.33,0,0,1,18.59,249.55Zm1.23,31.71-.41.45c.2-1.15.42-2.3.64-3.46Zm22.76,56.61a35.37,35.37,0,0,1-3.71-.56l-1.7-.34-.83-.15-.41-.07-.63,0c-.95,0-1.82,0-2.87-.09.93,0,1.92,0,2.87.09h.92l.65,0c.43,0,.84,0,1.24,0,.79,0,1.53-.08,2.22-.16,1.39-.17,2.61-.41,3.79-.61a14,14,0,0,1,7.65.52A19.86,19.86,0,0,1,42.58,337.87Zm24.53-3.52h-.78c-.21,0-2.32.15-3.78.19s-3,.05-4.18,0c-2.33-.06-3.44-.26-1.5-.54,11.6-1.64-5.79-2,1.8-3.3l-6.1.62c4.89-1.2,6.7-.89,8.15-.4a13.74,13.74,0,0,0,2.24.7,7.88,7.88,0,0,0,1.57.14c.29,0,.66,0,1,0a5,5,0,0,0,.71-.1l-.69.13-1.12.16-2.32.33c-1.22.61-.77.86.4,1,.58.06,1.34.08,2.15.1h.94l.17,0,.6.07a4.77,4.77,0,0,1,.5.19l.25.1.43.13a2,2,0,0,1,1,.57C68.11,334.39,67.62,334.38,67.11,334.35Zm103.57-8c1-.28-1.08-1.18-4.4-1.83l13,1C178.74,326.31,174.83,325.76,170.68,326.37Zm25.54-313.7-.54.09-1.11.14c-.35.09-.72.17-1.08.24l-1,.18a11.2,11.2,0,0,1-1.9.13,21.47,21.47,0,0,1-5.16-.75l4.27-.66,2.13-.33,1.1-.17,1.57-.21c2,0,2.86,0,4.13,0l3.58-.05a25.08,25.08,0,0,1,5.16-.08l-5.16.08a24.67,24.67,0,0,0-4,.84l-1.65.46ZM220,19c-12.49-1.82-13.28-3.06-22.75-5.94,12.53-.42,15.73,3,14.16,4.31,8.59,1.63,7-.11,11.67-.17Zm23.38.41a.81.81,0,0,0,0-.38A.23.23,0,0,1,243.4,19.43ZM515.65,337.09c-.1.4,1.9-.26,1.23,1C516,338.12,514.65,337.42,515.65,337.09Zm-10.13-3c-.47-.22-1.82.07-1.68-.51C504.32,333.26,505.73,333.36,505.52,334.07Zm0,5.14c-.57-.24-2,.05-2-.55C504.59,339,505.83,337.71,505.51,339.21Zm-24.21-3.07a1.66,1.66,0,0,1,1.1.42c.12.82-1.58.95-1.63.32C481.13,336.89,481.22,336.52,481.3,336.14Zm-9.87-.82a2.69,2.69,0,0,0,2.83-1.23c-.8,0-1.14.2-1.4-.46.63,0,.95-.42,1.42-.62,1.39.78,2,1.51,4.18,1.39-1.4,1.73-3.57.61-6.14,1-.15.52.7.44.27,1.13C471.56,336.54,470.94,336.26,471.43,335.32Zm-19.61-4.05c1.05.07-.45-1.07.6-1-.11.49.93.31.65.9C452.84,331.29,451.87,332.1,451.82,331.27Zm.06.81c-.44,1-2.34,0-3,.68,0-.63-.76-.83-.78-1.46C449.81,330.94,450.36,332.67,451.88,332.08Zm-4.48-5.48c-.08.26.14.34.14.56a1.86,1.86,0,0,1-.87-.54l1.56-.07a35.84,35.84,0,0,0,4.1-.64c1.82.45,3.23,1.16,2.19,2.48C451.45,327.5,451.15,327.09,447.4,326.6Zm-11.61-2.14h0Zm-6.3,1.57c-.65-.26-2.23,0-2.27-.59C428.45,325.52,429.34,324.68,429.49,326Zm-6.35,2.06a12.43,12.43,0,0,0-2-.41,2.06,2.06,0,0,1,2.18-.35A1.21,1.21,0,0,0,423.14,328.09Zm27.75-10.62c0,.25-.64.56-2.34.93l-4.69-.12c-.86-.15-1.23-.34-1.39-.54l7.51-.5A9.32,9.32,0,0,1,450.89,317.47Zm-8.27,12.8c1.67.67,3.61-.15,4.25,1.13-1.95.28-2.82.76-4.51.73C442.79,331.31,442.53,330.89,442.62,330.27Zm16.87,1c.86,1.42-4.21,1.16-6.2.23C456,330.72,457.69,332.14,459.49,331.24ZM486.94,15.46h0l-1.87.11A2.64,2.64,0,0,1,486.94,15.46Zm-3.86.19c-.83-.22-1.1,0-1.82-.12C481.33,15.05,483.19,15.11,483.08,15.65Zm-7.59-3.26a2.35,2.35,0,0,1-1.59.17C474.11,12,474.68,12.53,475.49,12.39Zm-2.06-.26c-.2.25-.7.33-1.35.31A1,1,0,0,1,473.43,12.13Zm-.62,2.2c0,.27-.85-.11-1.14-.14C471.91,13.61,472.57,14.09,472.81,14.33Zm-1.8.6c0,.38-.75.3-1.36.31C469.58,14.78,470.63,14.7,471,14.93Zm-2.28-.41c.25,0,.13.15,0,.15-.06.39.88.11.7.58-.55-.06-.49.27-1.14.16a.61.61,0,0,0-.46-.29C467.85,14.75,468.71,14.9,468.73,14.52Zm-1.91-3.18c.07.48-1.23.67-1.14,0A1.21,1.21,0,0,1,466.82,11.34Zm-.14,3.07c.12.45-.6.39-.66.74a.66.66,0,0,1-.48-.58A2.13,2.13,0,0,1,466.68,14.41Zm-28-.07a2.7,2.7,0,0,1-.89,0C438.25,14.37,438.54,14,438.71,14.34Zm-9.78-.46a4.82,4.82,0,0,0,2.05.41C430.57,14.56,428.5,14.66,428.93,13.88ZM430,4.81c.2-.26.7-.33,1.36-.31A1.31,1.31,0,0,1,430,4.81Zm-.26-1.31h.91C430.88,4.05,429.61,4.06,429.78,3.5Zm-3.85.63c1.15,0,2,.55,3,.26.21.21.2.56.92.42-1.25.69-3.32,0-4.54.21A1.1,1.1,0,0,0,425.93,4.13Zm1.58,7.72c0,.15,0,.3,0,.44-1.1.36-1.69-.08-3-.25C425.47,11.67,426.41,12.16,427.51,11.85Zm-8.43-.47c1.07.46,3.26.72,3.64.1.4,0,.53.24.47.58.66-.14.25-.22.21-.59.66.06.56.62,1.16.71-1.9.47-3.43-.37-5.68.08C419.1,11.9,419,12,419.08,11.38Zm-2.27.18c.52.33.89-.07,1.59,0,0,.57-1,.54-1.8.6C416.57,11.88,416.87,11.83,416.81,11.56ZM380.18,2.11c.6,0,.2.56.92.42-.54.61-1.16-.11-2.05-.12C378.94,2,380.3,2.51,380.18,2.11ZM368.63,3.57a10.84,10.84,0,0,1,3.17-.48.42.42,0,0,1,0,.73,7.32,7.32,0,0,1,2.06.56c-1.3.23-2.58-.32-3.86.34-.8,0-.47-.68-1.37-.56C368.42,3.89,369.31,3.66,368.63,3.57Zm-17.52,7.54c.91.38,2.28.45,2.31,1.43-.73.21-1.77.2-1.35.74C350.37,13.48,349.71,11.69,351.11,11.11Zm-10.46.13c-1.07-.26-2.45.59-2.73-.11C338.5,10.9,340.48,10.48,340.65,11.24Zm-13.32,3.24c.6-.15,1.78.06,1.57-.6.3.15.85.13,1.15.28.2.7-.86.61-1.34.89,0,.73.29,1.12.3,1.49l-2.1.14C326.71,15.58,326.83,15.52,327.33,14.48Zm-2.26.62c.3.25.78.37.71.87-.41,0-.49-.18-.91-.14C324.67,15.42,325.18,15.45,325.07,15.1Zm-16.15,3,.24,0,.14,0,.49.11a5.21,5.21,0,0,1,.72.08,5.55,5.55,0,0,1,.87.11c.37.11.35.27.16.45l4.36.36-3.41.57-2,.29c-.57.08-.73.05-.68-.06a2.79,2.79,0,0,1,.58-.49l.19-.15.36-.18a3.42,3.42,0,0,0,.57-.34l-.66-.06-.32,0-.16,0-.62-.16-.57-.29-.14-.07-.29-.08-.63-.18Zm-10.28,1.44c2.2.23,4.46.53,6.42.85,1,.16,1.89.32,2.67.48.37.08.77.16,1,.23s.38.13.54.19l-2.43-.19-3.37-.28-7.22-.62L294.71,20a7,7,0,0,1-1.8-.54.57.57,0,0,1-.23.35l-1.44-.13a.89.89,0,0,0,.31-.21,2.83,2.83,0,0,1-.34-.38A53.43,53.43,0,0,1,298.64,19.49Zm-20.16,2.3c7.4,1.5,3.32,1.72,4.33,2.36l-.42,0C279.52,23.34,277.51,22.48,278.48,21.79Zm24,312.57c7-.38,7.81.16,12.38,1.16C313.32,335.94,307.12,335.36,302.5,334.36Zm25.74,4.89-1.17.16c-.49.06-.94.1-1.38.14-.87.07-1.66.1-2.41.11-.88-.25-1.71-.53-2.58-.81l-1.34-.42-.35-.11-.23-.1-.45-.18a24.93,24.93,0,0,0-5.06-1.35,44.37,44.37,0,0,1,5.23.21c.52.06,1.68.23,2.46.37s1.58.31,2.25.47c1.12-.06,2.06,0,3,0,.44,0,.92,0,1.31.08l.86.16a13.66,13.66,0,0,0,4.71,0A26.18,26.18,0,0,1,328.24,339.25ZM363,336.08c-.47-.22-1.83.08-1.69-.5.87,0,2.69-1,2.72.11C363.27,335.54,362.56,335.43,363,336.08Zm-2.21-3.34,1.22-.28c.46,1,2.13.71,2.57,1.41C362.42,334.54,361.52,333.84,360.82,332.74Zm4.4.13-1.47-.21c.06-.21.13-.42.19-.64l.22,0C364.67,332.18,365.52,332.18,365.22,332.87Zm7.22,4.51c-.36,0-.82-.16-1,.14.43.1,1.12.05,1.1.42-1.18.31-.67-.27-1.69-.5.42-.43,1.7-1.55,1.87-1.1C371.82,336.39,372.87,336.93,372.44,337.38Zm4.73-.43a1.06,1.06,0,0,0-.06-.82c.39.05.4-.42.74-.44,0,.32.28.2.59.08-.07.52-.55.46-.82.7C378.05,336.59,377.53,336.9,377.17,337Zm1.68.5c-1.21-.2-.35-1.39.26-1.86C379.42,336.42,379.34,336.47,378.85,337.45Zm10.12-5.1.24-.78c.78.11,1.77.09,1.61.76A2.94,2.94,0,0,1,389,332.35Zm2.06.29,1.18.16c-.12.69-.82.58-1.41.61C390.88,333.15,391,332.89,391,332.64Zm.51,4.39c0,.15-.32.27-.29,0,.36,0,.44-.37.53-.74.43.1,1.12.05,1.1.42C392,336.37,392.2,338.37,391.54,337Zm-5-7.72c3,.64,8.94.89,9.32,2.63C393.91,331.12,388.37,330.86,386.52,329.31Zm12,3c.78.63,2.08-.14,2.11,1.1C400,333,398.27,333.22,398.49,332.31Zm38.4.69c-.44-.31-1.44-.29-1.6-.76,1.09.41,1.11-.66,2.21-.24C437.42,332.5,437,332.53,436.89,333Zm3.2-1.45c-.2.76-2,.83-1.84,0,.28-.34,1.14.12,1.33-.36-3.73-.2-6.83-.81-10.54-.63-1.5-1.58-7-.47-8.29-2.3h.3a28.14,28.14,0,0,1,3.07.26,3,3,0,0,0-.32-.19,1.63,1.63,0,0,1,.14-1.2,4.67,4.67,0,0,0,3.45.75c.13,1.16-1.53-.17-1.7.58,2.13.71,2.14,0,4.28,0,.75.58-1.05.69-.32,1,.88-1,1.68.18,2.37-.76,3.07.56,3.25.71,6,1.37.16-.38.18-1,.61-1-.06.6,1.62.18,1.23,1-.57.07-1.26,0-1.63.31,3.52.14,4.83,1.5,1.87,3C440.75,332.41,440.76,332.19,440.09,331.55ZM466.36,339c-.39-.06-.13-.5-.43-.61a47.73,47.73,0,0,1-15.67-1.92l-.24.81c-3.25-.83-6.33.32-9.13-1.25,1.64-1.42,5.33,0,7.75-.29-.29-1.22-4.19.1-5.21-1,1.7.12.32-.82.84-1.78,1-.44,3.17-.51,3.82.53-.59,0-1.67-.6-1.63.32a7.91,7.91,0,0,1,3.38,1c.16-.65-.32-.89.61-1,.18.81,1.15-.33,1.84,0,0,.48-1.19,1-.39,1.3a5.19,5.19,0,0,1,2.74-1c3.9,2.07,9.25,2.08,12,3-.36,0-.44.36-.53.74.87.2,2.38,0,2.2.84A8.79,8.79,0,0,1,466.36,339Zm2.6-1.54c.54-.24,1.52-.74,1.47.2C470.21,337.75,468.86,338,469,337.42Zm1.3-2.26c0,.51.7.59.2,1.38-1.56-1.57-5.76-.74-8.22-2.22.67-.78,6.15-.45,4.11.57A27.54,27.54,0,0,0,470.26,335.16Zm-.65-.9c-3.27-1-7.81-.92-9.55-1.86.54,0,1.39.47,1.33-.36C464.36,333,468.17,332,469.61,334.26ZM526.56,23.5a1.74,1.74,0,0,0,.11-.18c.49.23,1,.47,1.49.73l3.73,4.59Zm7.07,226.23,1.06-6.9a6.07,6.07,0,0,0,1-2.24C534.91,243.47,534.27,246.66,533.63,249.73Zm5.92-45.3a23,23,0,0,0,.44,3.74c.13.75.29,1.56.47,2.41s.4,1.93.61,2.95c-.2,1.81-.42,3.73-.63,5.64s-.45,3.62-.73,5.31c-.56,3.38-1.29,6.32-2.36,8l1.88-13.5c-1.37,6.11-2.43,12-3.51,17.21l3.49-22.62-1.07-6.19C538.34,206.21,538.59,204.65,539.55,204.43ZM536.28,165c1.54-3.56,3.07-10.93,4.62-10.76a37.4,37.4,0,0,1-2,11.26c-.52,1.56-1.1,3-1.65,4.47l-.41,1.09-.2.54-.17.42c-.22.57-.43,1.15-.62,1.76,0,.29,0,.58.08.88l-.4-.89-.11-2.12c-.25.76-.5,1.48-.73,2.11,0,1,0,1.87.05,2.68s0,1.79,0,2.57c0,1.57-.08,2.84-.18,3.93-.07.81-.15,1.51-.24,2.16l-1.18-6.78a4.31,4.31,0,0,1,.34.43c-.28-1.56-.55-3.2-.83-5,2.36-10.21,6-22.87,8.9-27.76C541.53,153.54,535.81,162.75,536.28,165Zm3.53-25.76c-.31,1.14-.61,2.28-.92,3.41l.73-3.43,1.69-34c.33-1.54.7-3.09,1-4.71a36.93,36.93,0,0,0,.2-10.52c-.33,1-.69,1.87-1,2.86l-.07-9.61a51.64,51.64,0,0,0,1.14-6.07c.24,5,.38,10,.45,15.17q0,3.84,0,7.72c0,1.29-.11,2.58-.17,3.88l-.27,3.89C541.85,118.29,540.88,128.78,539.81,139.26Zm2.8-14.66.59-9,1.65,4.43Z"/></g></g></svg>