<svg xmlns="http://www.w3.org/2000/svg" viewBox="0 0 900 600"><defs><style>.cls-1{fill:#0046ae;}</style></defs><title>大輪播</title><g id="圖層_2" data-name="圖層 2"><g id="圖層_1-2" data-name="圖層 1"><path class="cls-1" d="M391.49,578.24c-.64.25-.78-.51-1.18-.75.38-1.22,1.6-.37,1.3-3.32C392.27,574.5,391.74,577.78,391.49,578.24Zm-6.65-8.53c-.34,2.47,1,.9,1.45,1.44.17.19-.07,2.1.56,1.4,0-.9.55-.59.64-1.33C386.85,570.21,386.1,569.43,384.84,569.71Zm3.05,8.32c.42,1.11,1.68,1.09,1.54-1.27C388.69,576.62,388,576.56,387.89,578Zm-4.83-1H383a1.91,1.91,0,0,0,.49-1.26c-.45.09-1.1-.3-1.22.61.86.43-.49,1-.36,2l.44,0a.93.93,0,0,0,.7.28,1,1,0,0,0,.48-.1c.36.9,1.37.16,1.42-1.39l-1.4-.09A1.08,1.08,0,0,0,383.06,577Zm.8-4.61c.43-2.89-2.36-3-2.1-.13C382.63,571.59,383,571.62,383.86,572.38Zm4.23-1.12c.26-2,.62.68,1.2.06.2-2.12-.75-1.83-.8-3.44a.85.85,0,0,1-1.11.14.88.88,0,0,0-.78-.41,1,1,0,0,0-.67.23c.2-.88.32-2,.82-2.1.73-.51,2.16,1.66,1.5.1-.69-2.41-2.07-1.13-2.72.52-.69-2.08-1.5-2.28-2.39-.14,1.46-.57,1.41,2,2.52,2.17a.85.85,0,0,0,.91.92,1,1,0,0,0,.54-.16c.65,0,1.49-.31,1.62.78C388.14,569.12,387.27,570.92,388.09,571.26Zm5.87,4.41c.57.32.49,2,1.46,1.44l.6,0c.1-1.91-.8-1.75-1.12-2.78C394.41,575.43,391.33,575,394,575.67ZM899.12,47.28c-10.9,1.42-4.22,3.75-5.38,5.6-7.9,2.54-10.08,7.77-14.91,11.68q-.36,6.33-.67,12.59a9.86,9.86,0,0,0,1.57.93c4.09,0-.62-1.78,5.15-1.51-1.34,2.81-6.29,4.32-.43,6.27-3.55.15-4.42.81-6.34,1.27.5.49,6.87,0,4.77.91-3.85.22-2.42-.44-5.08-.42v0c.85.79.88,1.39-.11,2.38l0,.56c2.52-.49,3.66-.08,7.75-.41,2-1-4.3-.56-1.51-1.67,4.64.43,2.26,2,7.83,2.32.45.31-6.87.19-5.12-.42-4.86,0-8.08.67-9,1.38l0,.8a4.34,4.34,0,0,0,1.64.55c1.62-.06,1.47-.45,1.88-.74,1.47.46,5.54.49,6,1.13a57.19,57.19,0,0,0-9.57.79c0,1.09-.1,2.18-.14,3.28,1.1-.66-.25-1.79,5.23-1.61-5.72,1.16-1.83,1.61,1,2.4-7-.25-9.06,3.85-.23,4.09.26.86-8.45,1.42-2.59,1.71a19.85,19.85,0,0,0-3.62.6l0,1.74c.15.07.14.15,0,.25,0,.94,0,1.89-.05,2.83s0,2.16,0,3.23l.19.06H877q0,3.4,0,6.77a.83.83,0,0,0-.16.09c5.91-.82,9.22-2.13,11.57-3.63,3.35.92-1.87,2.58-5,3.19,5.6,1-2.9,4.33,10.73,4-6.55,1.5,1.66,2.2,4.38,3.32-6.7,1.11-3.83-1.2-7.15-1.36-6.81.38,4,1.37-1.58,2.18,1.63.79,4.89-.81,6.86-.08-2.29,2.19-10.74,5.29-6.6,7.3,1.91-.1,1.56-.62,2.06-1,1.86.66,1.29.55,4.94.67-1.64.11-2.42,1.19-.34.48,2,.55-7.46,1.9-4.66,2.7a27.15,27.15,0,0,0-3.91-.19c-.24.32-.47.64-.7,1a10.62,10.62,0,0,0,3.06-.52c-5.73,3.82-5.4,8.56-14.17,12.2-.39.57,3.8-.13,3.07-.51,3,.23-.18,1.58-2.57,1.71,4.73,1.86-2.4,2.85.44,5.05a13.79,13.79,0,0,0-4.8.71l.42,2.54c.55,0,.84,0,.57.16-.08.19-.23.49-.4.85.17,1.08.35,2.16.53,3.24l3.75,0c-.41.85-1.71.15-3.69.4,0,.08,0,.16,0,.25v0c.61.17.48.37.09.6.09.52.17,1,.25,1.55.35,0,.74.07,1.19.09a4.42,4.42,0,0,1-1.12.33c.06.34.11.68.17,1a8.51,8.51,0,0,0,2.83-.17H878a9.28,9.28,0,0,1,.19-1c.05.38.11.74.17,1.08.19.07.13.18.05.29s0,.25.07.38a9.71,9.71,0,0,0,2.31,0,5.34,5.34,0,0,1-2.28.16c1.09,5.72,2.52,6.35,3.95,8.19H883l0,.77h0c1.39,2.21,2.73,6.35,3.68,18.37.56-1.28,1.32-.36.08-5.95,1.51,6.26.57,6.77-.5,7.06-.53.15-1.1.25-1.41,1a4,4,0,0,0-.23,1.68,5.81,5.81,0,0,0,0,.67c0,.31.09.64.14,1,.09.71.23,1.52.41,2.45,0,.61,0,1.28-.07,2s0,1.4,0,2.19c0,1.27,0,2.74.11,4.43l3.27.94-2.6,8c.18,1.66.34,3.31.45,5l-2.17.26-.25.76a9.81,9.81,0,0,0,2,0,3.83,3.83,0,0,0,.41-.39c0,.44.05.88.07,1.33,0,.07,0,.15,0,.23-.4,0-.83,0-1.35,0-.35.27.44.34,1.38.38,0,.2,0,.41.07.62-1.24,0-2,.08-2.68.09v.59a26.79,26.79,0,0,1,2.74,0,10.56,10.56,0,0,1-2.7,2.18c0,1.84,0,3.68.08,5.51l0,5.08c0,1.93,0,3.84,0,5.75-.57,3-1.14,6-1.7,9-.53,2.73-1.06,5.45-1.59,8.14q-1.64,8.1-3.22,16t-3.2,15.63c-.52,2.59-1,5.16-1.55,7.72-.25,1.28-.51,2.55-.76,3.83l-.45,2.37q.85,4.9,1.69,9.76,1,5.61,2.05,11.17c1.43,7.42,3,14.81,4.74,22.19-.35,2.55-2.11,1.68-3.8-3.47.57,3.58,1,7.31,1.26,11.15.15,1.91.27,3.86.39,5.82.05,1,.11,2,.16,3l.09,1.54.15,1.92-.12,1.54,3.75,6.42-.24,2.42c-.14,1.62-.29,3.24-.44,4.88-.27,3.26-.49,6.56-.61,9.86a105.33,105.33,0,0,0,1,19.9l1.36-5.82c.56,6.93.74,12.49.65,17.28,0,2.4-.16,4.6-.33,6.68-.08,1-.17,2.06-.28,3.05l-.08.74c0,.22-.06.54-.08.67l-.18,1,0,.76,0,.38v2.67c0,1.43,0,2.88,0,4.36,0,3-.08,6.08-.05,9.59.08,7-1.46,15.65,0,27.79-1.67-9.13-.46-30.34-4.58-31.9-1.91,3.77-.43,24.43,2.53,31.14v-1.1L883,514.52l-.49,1.21a2.38,2.38,0,0,1,0,.56c-.29.49-.6,1.1-.92,1.74l-1.12,9.39c.36.58-5.45,38.72-5.87,38.91L863,574.55l-34.84-.4,2.05.22c-1.24,0-2.51-.13-3.78-.24l-18.72-.26-8.25-1.32,8.14,2.24,4.8.58-4.84-.18-2.82-.49-2.31-.38c-1.43-.23-2.62-.4-3.61-.53a18.82,18.82,0,0,0-3.76-.24c-1.25.15-.31.84.73,1.63,2.09,1.58,4.55,3.57-9.18,2.47a141.87,141.87,0,0,0-22.19-3.36c-3.36-.24-6.57-.35-9.64-.37-1.53,0-3.07.1-4.55.19s-2.94.21-4.36.33c-11.39,1-20.8,2.5-29.38,1.74-34.05-4.19,13.61-2.22-7.31-6.29-18.53-2.37-9.53,1.21-21.4.71l-7.62-5.12c-21-2.87-1.56,4-13.32,1-8.67.24-7.39.82-3.48,1.83l3.31.84c1.18.29,2.42.58,3.6.92,2.34.66,4.43,1.45,5.35,2.38a51,51,0,0,0-5.21-1.32c-1.18-.26-2.5-.51-3.9-.78s-2.89-.59-4.41-.87c-4-.72-8.22.14-11.8.91l-.49-.06a1.09,1.09,0,0,0,0,.17l.54-.11c1,.12,2,.26,3,.43,10.5,1,1.69,1.42-4,1.12-.29.67-.66,1-1.25.65-.36,2,.64,1.23,1.16,1.42.94.62-.56.86-.92.63-2-.85-5.64,1.49-6.23-2.39-.61,1.13-1,2.72-2.45,1.89.09-1,.9-.18.93-1.31,0-.55-.28-.69-.26-1.36-.72.37-1.42.83-1.57,2.62-2.11.52-3.68-2-5.39-.3,1.59-2-1.22-1.67-1.5-.1-1.88-.07-4.06-.63-5.69-.31-4.4.82-10-2.43-13.22.59-.52-.52,0-1.23.06-2-.35.09-.53-.18-.58-.71-.86,0-.75,1.23-1.54,1.27-.53,0-1.22-1.49-1.76-1.46s-.83,1.58-1.53,1.27c-.66.09-.94-.61-.84-2.08-.67.76-.81,2.85-2.16,1.91.1-.73.61-.43.64-1.32-.32-1.2-1.26,0-2.08-.8-.1-.1-.51-1.37-.56-1.39-2.16-.75-4.64.94-6,.34a6.61,6.61,0,0,0-.65,2c-1.1-2.52-3.26-.79-4.8-.28l.06-2H591c-.67.42-1.55.31-1.77,1.88-.57-.46-.25-1,0-1.66h0l-1.22.15a4.29,4.29,0,0,1-.57.73,3.18,3.18,0,0,0-4.24,1.11,9.63,9.63,0,0,1-.9-1.14l-.88.1a15.69,15.69,0,0,1-13.53,1.53,15.32,15.32,0,0,0-2.16,1.91c-1.18-.53-2.1-1.6-3.55-1.56l.06-2-.59-.07c-1.1,1.21-2.56,2.81-3.33.49.41-1.8,1.57.09,2.1.12a1.73,1.73,0,0,0,.47-.72c-4-.51-8.16-1.08-12.35-1.37a.33.33,0,0,1-.26,0,63.16,63.16,0,0,0-8.13-.1l4.35,1.84c-5.44-.09-9.6-.74-14.7.35l2,.81c1.94.29,4-.95,6-.83s4.16.78,6.6.38c-.61,2.31-2.32,1.15-3.34,1.16a67.36,67.36,0,0,1-7.49-.43c-1-.1-2.42,1.67-3,.24l-.89,0v.19a8.41,8.41,0,0,1-5,0l-1.43,0-1.21,0h-.32l-.4,0-1.18.06-4.93.22-3.11-.53-1.61-.25-1.56-.28-3.74-.7-4.32-.8c-.49.87-1.32.92-2.07,1.13-.07-1.06.16-1.38.51-1.42l-1.64-.3c.67.67.1,1.53-1.27,1.59a49.82,49.82,0,0,0-8.69-.5c-.49,0-.49-.73-.87-.73-.55,0-1.36.73-2.12.56s-1.15-.78-1.48-.77c-.7,0-1.26,1.91-2.73,1.2a3.5,3.5,0,0,1-.86-1.4c-.46.05-1,1.73-1.56,2-.16.07-.52-.76-.88-.73-.77.06-1.59,1.22-2.44,1.22s-4-.75-5.09-.29c-.33.13-.34,1.75-.93,1.3-.06-1.1.31-1.15.35-2-.53-.11-.65.8-1.21.61-.08.79,0,1.21.26,1.38-.19,1.86-.95,0-.56-1.39-.74.89-1.1.77-1.82.57-.23-.06-1.68,1.26-2.14,1.24s-1.11-.83-1.78-.78c-1.8.11-4.12.68-5.71.35-.76-.17-1.68,1.21-2.43,1.22-.49,0-.5-.55-.88-.73-.88-.44-1.75.71-2.42.54s-1.06-1.24-1.45-1.44a5.27,5.27,0,0,0-1.78-.78c-.27,0-.82,1.29-.94,1.3-.5.07-.49-.64-.88-.73s-.65.66-1.22.61-1.18-.85-1.77-.78c-.87.11-3.26,2.68-4.82.41-.28,1.28-2.51,1.82-4.25,1.79-.43,0-1-.8-1.48-.76-3.22.24-6.59,2-9.32.82-.58-.24-1.06-2.1-1.78-.78,0,.8.53.6.88.73-.68,1.16-3.48,1.28-3.26-1.54-.25,1.72-.75.72-1.83,1.25-.52.26-1.31,2.23-2.74,1.2-.1-1.45.47-1.27.94-1.3-.17-.65-.62-2.54.36-2-.14-2-.66.61-1.2-.07a7.57,7.57,0,0,0,.38-2.69c-.83-.61-.8.91-1.52.59.42-2.72-.82-3.4-1.44-2.12.32,2.32,1.59,2.66,1.64,5.52-.48,1-1.29,1.15-1.57,2.63-.41-.85-.38-2.61-.8-3.44-.88.07-.82,3.18.22,2.73-.4.8-.74.85-1,.51a.93.93,0,0,1-.71.25,1.06,1.06,0,0,1-.37-.07c-.37.59-.95.49-1.21-.2.07-1.22.57-1.38,1.16-1.33a1.25,1.25,0,0,1,.46-.09l.08,0a15.26,15.26,0,0,1-.38-2.6c-.6,1.43-1.81,1.33-1.64,4.66-.42-.08-.84-.16-.92.63-.57-1.36-1.95-1.06-2-3.51l.31-.05a.84.84,0,0,1-.11-.6c-.42.09-.82.15-.76-.74-1.29,0,.42,2.91-1,2.66.17.7.67.74.54,2.06-.58.56-.95-.49-1.48-.76s-1.77.75-1.46-1.44a1.24,1.24,0,0,1,1.48.76c.65.1.11-2.29.06-2,.25-1.32,1.35,0,1-2.66,1.34,1.72,1.71-1.36,2.69.16a6.65,6.65,0,0,0-.31,1.34.86.86,0,0,1,.17,0,1,1,0,0,1,.4.08v0c1-.7.8-.28,1.48.76,0-2.29-1.27-2-1.38-4.15-.92-.16-1.41,2.31-2.11.56a8.81,8.81,0,0,1,1.06-3.68,10,10,0,0,1-1.34-.07c-.64,2.1-.77,5.47-2.18,5.65.77-.76.67-3.68,1.34-4.69,0-.79-.53-.59-.88-.72-.26,1.61-.42,2-.74,4.71-.65.28-.54-1-.54-2.07-.73,1-.6,1.4-1.52.59-.55.07-.25,2.29-.67,2.68l-3-.17c-.94-.62.56-.86.92-.63-.05-1.6-1-1.32-.8-3.44-.56.07-.25,2.29-.68,2.68-1.76.45-1.91-2.42-2.58-4.22-.91.86-1.88.74-2.37-.82,1.39-1.38,3.39,1.45,4.73,2.31-.17-.7-.67-.74-.54-2.07,1.09.3,2.36.21,2.32,2.85,1.64,1.65,2.84-2.07,4.25-1.8-.08,0,.15,2.19.56,1.4.11-1.92-1-1.39-.48-4.11.93,1.49,1.34-.57,2.12-.55.31,0,.56.47.89.74a7.35,7.35,0,0,0,.82.07l.06,0v0c.26,0,.52,0,.79,0a1.37,1.37,0,0,1,.28.05,2.61,2.61,0,0,0,.17-1.36c.74-1.27,1.6.67,2.72-.52-.54,1.32,0,.86-.08,2.71,1.4.34.7-4.56,2.21-3.95.77,0,.35.53.26,1.37.66.41.47-1.27.94-1.3,1.39-.75,1.12,1.93,2.36,1.49,1-1-.58-1.69-.2-3.4.15,1.18,1.42,0,1.46,1.44.71-.16-.28-1.86-.54-2.07a.63.63,0,0,1,.1-.12h-.07l-1.41.14-5.81.58-12.31,1.32c-5.93.63-12,1.24-17.9,1.72,1.08.78,2,2.18,2.65,4.56-.18,2.71-.14,5,.74,5.47-.1,1.19-.56,1.52-1.24,1.29.48,1.09-.3,3.62.1,4.83a1,1,0,0,1,.44-.08.93.93,0,0,1,.7.28,4.73,4.73,0,0,1-.14-1.57l.9.05c0,.9-.05,1.81-.08,2.71l-.71,0a.92.92,0,0,1-.71.26,1.09,1.09,0,0,1-.43-.09c-.42,1.09-.55,2.89-1,3.79-.26.54-1.2-.54-.94,1.3-3-1.91-6.47-1.44-9.53-2.59-.49-.18-.9-1.3-1.45-1.43-.77-.19-1.57.82-2.42.53-.52-.17-.62-.73-1.18-.74-1.05,0-1.71,2.12-2.39-.13-.33.14-.25,1.33-.64,1.31-.81-.32-1.63.28-2.4-.13-.34-.19-.85-1.41-.86-1.41-.32,0-.58,1.1-.94,1.31-.72.41-1.46-.91-2.07-.8s-.73,1-1.24,1.29c-1,.48-1.93,0-3-.85-.5-.28-.58.49-.63,1.32-1.76-1.26-4.23-.48-6.89-.4-.55-1,.6-2.82-.5-3.42-.94.78.36,2.61-.4,3.37-2.34-.35-3.11-.62-5.4-.31.16-.82.43-1.37.94-1.3-.94-2.63-1.56,1.69-1.55,2-1.42.52.46-1.74-.54-2.07-.63-.36-.6.94-.66,2l-2.1-.12c-.46-1.38,0-.86.08-2.72l-.9,0c-.64.39,1,2.9-.68,2.68-1.23.14.08-.93-.22-2.72-.82,0-.57-1.17-1.19-.07-.67,0-.22,2.86-.42,4-.7,0-1.4-3.47-2.1-3.51a7.63,7.63,0,0,0,.38-2.7c-.41.93-1.58-.05-1.28,2.64-1.68.52-2.5-2.45-2.91-4.57-.56-.27-1.48,3.31-1.5-.09-.84.56.62,2.79-1,2,.11.61.23,1.23.56,1.38-.17.16-2.79,2-2.06-1.47-.91-.09-.79,2.4-1.85,1.93,0-.68,0-1.36.05-2-.22,1.15-.93,1.07-1.25,2-.88-.1-1.07-1.61-1.42-2.8-.14,3.06-2.28,1.55-2.76,1.89-.06,0,.6,1.17.88.72-1.69,2-3.68-.85-5.69-.32a17.58,17.58,0,0,0-1.92-6.22c-.9-.56-.63,1.82-1.53,1.27.81,2.54-1,2.94.18,4.08-.42,1.4-2.13-.42-1.6,3.3-3.54,1.63-8.17-.72-11.4,0,.25-2.5,1.83-1.09,3-1.18s2.28.31,3-.51c-.55-1-1.49-1.17-1.72-2.81-1.19-.54-.82,2.81-1.88,2.61,0-.45,0-.91,0-1.36-1.43.21-2.21-.94-2.93-2.2-.33.14-.25,1.33-.64,1.32l-2.1-.12c-.7-1-.14-1.37-.54-2.07-1.18-.18.07,1-.66,2-.79,0-1.85-.74-1.55,1.95-1.78-1.52-4.53-.33-6-1,1.05-1.51,3.29,0,4.81-.41a8.07,8.07,0,0,0,1-3.33c-.77-.24-1.29.17-1.25,2-1.1-1.44-2,.44-3.6-.21.39-.86.15-1.06.06-2a34,34,0,0,1-6.49.81,11.7,11.7,0,0,0-.94.8c.44,1.34,1.24,0,1.4,1.19-1.17.74-1.47.48-2.39,1.34-.3-.73.46-.55.38-1.08a1.31,1.31,0,0,0-1.27-.53c-.62.27.44.48-.1,1.05-.66-.59-1.2-.09-1.37.51-1.09.2-.16-.26-.48-1-.82.06-.67.93-.54,1.79-.59.24-.64-.41-.77-.93-3.28,2-8.05,2.14-11.8,2.87-.72.14-1.48-.05-1.22-.19-1.73.94-5,1.44-5.71-.65-.14,2.12-2-.28-3.32,1.11,0-2.32-3.3-1.52-4.14-.16.9,1.07,2.61.84,3.86.2-1.33,2.49-5.8.22-6.45,3.22-2.78.73-4.86-1.08-7.24.58,0-.89.13-1.6-.67-2-1.38.26-.09,1-.48,2.12-3-.38-5.9,3-9.93,2-.91.42.11.75-.32,1.41-3.08.91-4.32.09-5.68,1.06-.38-.83-1.06-1.16-2.2-.74,0-.4.47-.36.8-.45,0-.93-.72-.58-1-.9-.27.34.35.92-1,.82,0-.54.85-.4.32-1.42,1.16-.74,2.34.27,2-1.63,1.88,2.5,2.56-2,5.1-1-.77-2.47-2.52,1.34-3.34-.61-1,.35-1.09,1.43-2.18,1-.07-.62.94-.32,1-.81-.62-.77-2,.11-2.59.32.07.33.4.22.64.27-.35.32-2.39.89-1.79-.12-.48.34-1.08.58-1.24,1.19-.79.16-1.09-.39-.77-.93-.65.18-.5,1,.19,1-.67.89-1.32-.37-2.71-.34,2.14,1.58-1.73-.56-2.3.29a1.81,1.81,0,0,1,.48,1c-.58-.07-.47-1.28-1.34-.87-.78,1.66-4.49.41-6.57,2.56-.06-.34-.13-.67-.19-1-.93-.13-1,.48-1.66.55a1.71,1.71,0,0,0,1.05.9c-.09.43-1.12-.08-1.66.55,0-.65.71-.71.26-1.75-1.07.45-1.72.64-2.65,0-.73.17.5.52.25,1.34-1.23-.7-2.73-1.5-2.45,1-1.67-.6-2,3.35-5.3,3.08.73-.9.16-.36-.48-1-.37.43-.52,1.05-.89,1.48-1-.41-.91-.58-2.08-.08-.2-.91.35-.73-.25-1.34-.57,1.18-1.06.91-2,2,0-.89-.52-1.77-1.57-.49-.39-1-1.83-.18-2-1.45-.77,0,0,1.33-1,1.15-.37-1.29-.54-1.16-.1-2a2.27,2.27,0,0,1-1.79-.12c.07,1.08,1,.65,1,1.94-1.61.18-5.45.19-5.55-1.35-.37.15-.08.87,0,1.37-1,.25-1.1-1.1-1.53-1.86,1.21.18.67-1.11,1.88-.93-2.07-1.47-2.71.18-4.72-.09.4,1.1,1.08,1.73,2.33,1.43-.34.55-1.16.7-1.88.92-.08-.6-.49-.66-.55-1.3-1.26-.24-1,.85-1.88.92-.15-.59.22-.75,0-1.37-2.55,4.62-6.45.26-9.6,3.62.86-.92.26-1.58,1.27-2.57-.15-.41-.63-.26-.57.08-.34-3-3.4-1.15-5.08-.39.18-1.16,1.45-1.39,2.27-2-.64-.66-2.43-.78-1.88.93-1-.4-1.29,0-2.3.29-.91-.43,1.53-.36,1.25-1.19-1-1.29-3.87-.2-4.15-.15-.74.12-1.42.28-1.15.14-1.45.76-2.44-.65-3.35-.61-.34,0-.48,1.21-1.25,1.2-2.07,0-6.52-.11-9.28,2.2-.3-.23-.35-.89-.77-.93.22-1.16.84.61,1.5.16-.58-1.71-2.62-1.22-3.7-.91.25.32.73.26.77.94-1.44-.18-4.15-2-4.66.24-.59.24-.64-.41-.77-.93a5.16,5.16,0,0,0-1.94.59c0,.58.34.61.7.6-.89,1.66-2.2-.29-3.61,1.14-.08-1.33-1.34-.7-1.75-1.49-3.43,1.77-10.06,2.91-14.81,2.57-1.73,2.3-4.36.3-6.41,1.84-.67-.35-1.56-.35-1.75-1.49-.5.67-.71.86-1.67.55-.72.18.51.53.26,1.34-2.42-.32-2.77,2.56-4.72,3-.1-2.2,1.59-1.25,2.13-2.68-1.14-.4-2.79-1-3.86-.19a1.67,1.67,0,0,0,.1-1.05c-.84,1.48-2.24,1.18-4,.85-.39.2.2.41.19,1-4.43-.43-8.29,1.63-13.33,1-.37.16-.08.88,0,1.38a12.26,12.26,0,0,1-3.22.07c1.66,1.18-1.64.14-2.14-.42-.52.12,0,1.16-.32,1.42-1.1-.07,0-1.65-1.24-1.91-.43,1.53-1.7.93-3.19,1.78-.82-.27,1-.57,1.31-.85-.11-1.58-1.73-.65-2.78-.68-.63,0,.1,1.21,0,1.71-1.13,0-1.28-1.69-2.84-1-.74.44.59.85,0,1.38-1.25-1.45-3.71-.3-5.49-1,0-.4.47-.35.8-.44-.43-.95-.88.31-1.43.18.18.28.36.57.7.6a7.59,7.59,0,0,1-3.29-.27c-.89-.64.68-1.23-.38-2,0,.52.21,1.92-1.25,1.18.21-.76,1.08-1,.42-2.45a.48.48,0,0,1-.64-.26c-1.24.22.65,1.54-.6,1.44.08-2.2-1.68-1.34-2.69-1.71-.1-.75,1.2-.3,1.67-.56-.18-1-1.06-.89-1.92-.79-1-.52,1.65-.25,1.6-.89-1.73-.27-6.08.15-6.58,2.56-.66-.07-1.7-.58-1.66.55-2.24-1.78-4.91.67-6.15.09.25-.53,1-.64,1.24-1.19-.25-.62-.78-.76-.89-1.6-3.7.78-8.39-.66-11.55,1.13-2.71-1.24-3.54-.29-6.64-.88,3.7-.64,10.13-.27,14.9-.52,1.16-.06,2.94-1.93,3.64.57,1.09-.19,2.57-.06,2.74-1,.74.09.86,1.22,1.91.78.23-.09.23-.37.52-.41.54-.1-.69-1.19,0-1.71.55-.18,1.43,2.28,1.27.53,3.78,1.44,7.67.46,12.89-.27,1.32,1.68,4.09.67,5.36.35-.13-1-1.8.65-1.62-.82a4.56,4.56,0,0,0,2.23-.63c-.46,2.53,3.36.85,4.27.83-.22-1-1.31-.46-2.13-.41,2.46-2.89,7,.11,10.34-1.32,0,.79.9.27,1,.9,2.37-2.16,5.52-.35,7.91-1.69,4.56.76,6.15,0,10.63-1.35a2.24,2.24,0,0,1-.54-1.31c-.35,1.5-1.11-.12-1.86-.45a1.17,1.17,0,0,1-.79.45c.57.66,1.7.4,2,1.45-.89,0-1.22-.91-2.43-.38-.56-1.29.09-1.86-1.47-1.53.59-.34.57-1.21,1.54-1.22-.41-2.26-6.7,0-3.58-.24-.58,1-3.58-.13-2.68,1.38-1.92.8-2.69-.9-4.21-.5-1.19.31-1.42,1.87-2.49,2.38,0,0-.17-.66-.12-.67-.7.29-2,2.29-2.65,0a1.15,1.15,0,0,0,1.82-1.26c-1.24,1.54-6.07-.16-8.84,1.46-.35,0-.36-.58-.48-1-3.24,1.53-7.85-.14-10.34,1.32-.06-.34-.13-.67-.19-1-.68,1.34-1.46,1-2.81.7,1.26-.54.27-1.25,2.11-1.3-1.73-.25-3.36.58-4.85-.76.06.49.13,1,.48,1-.32.51-2.13-.25-2.78-.67-.24.38-1.92,1-.89,1.49-2.08.13-4.34.54-6.61.84-.22-1.33,1.06-1.19.13-2.42,2.32-.06,4.33.88,5.61-1.41.35,0,.36.58.48,1,.3-.12.07-.69.45-.74-.82-.66-4.13-1.43-4.3.55-.84-.38-2-.23-2.78-.68-.17-1.61-.37-2.6,1.5-2.94.09.64-.91.35-.67,1.12,0,.94.7.6.83,1.26.54-.3,2.62-.73,1.46-1.55.7-.73.71.64,1.41,1.19.37-.9.49-1.3,1.37-.52a5.23,5.23,0,0,0,.61-1.45c2.11.16,4.84-.41,8-1,0,.28-.23.37-.16.71,1-.82,1.73-.94,3.89-1.19-.06-.48-.13-1-.48-1a26.19,26.19,0,0,0,6.93-2.25c0,1.88,2-.44,3.19,1.31.29-.78,1.54-.74,1.4-1.89,1.29,0-.4.77.61,1.64,1.1-.29,2-2.22,3.19-1.78.08,0,.35,1,.48,1,.72-.16,1-1.15,1.82-1.26-.09,0-.12.69-.16.7.39-.12,1.11-.82,1.59-.89.81-.11,1.92,1.19,2.84,1s1.17-1.69,2-2c1.42-.5,3.12,1.29,4.09-.18.85-.1,1.14.75,1.91.79,2.62-1.26,5.24-1.51,8.3-2.77.13-.79,1.05-3.07,0-3.09,1.76-.22,4.69-1.4,2.47-2.72-.63-.37-1.4.43-1.09.49-2.11-.4-4.91-.39-6.76,1.54-6.72-.16-12.59,2.08-18.93,1-.39-3.46-5.11-1.87-6.57-.54-5.14-.19-10,1.55-15.44,2.31-.43-.4-.22-.51-.19-1-.64,0-.87.39-.67,1.12-1.23-1-4.68.81-4.7-1.47-.54.48-.41,1.52-1.81,1.27.12-1.11-.12-.77-.39-2,1.33.21,1.37.74,1.6-.89-1.35-.11-2.85-.81-4.33-.79l.8-.73a6.28,6.28,0,0,0,3.43-.53c-.05,1,.57.82.61,1.64,3.05-.91,5.6.67,7.78.73,5.53-2.68,11.14.71,16.72-1.78-1-2.71-1.89-4.09-.85-6.07-.08-.2-.24-.27-.34-.43l-.59.08c-.61.35-1.31.68-1.94.26l-8.24,1.13-1,.14a5.1,5.1,0,0,1-.92.13L33.77,563a6.55,6.55,0,0,0-.88,0c-3.58.37-7.12,1-10.65,1.72l-2.68.41c-.86,0-1.71.11-2.56.19l-6.93-.06c-1.67-4-2-9-2.43-13.29l-.35-20.69-.11-8.56,0-4.21v-1l0-.6,0-1.18.43-9.39c-.57-3.45-1.83-5.62-3.25-8.3a44.76,44.76,0,0,1-2.18-4.64c-.36-.91-.71-1.91-1.05-3l-.25-.86-.12-.44c-.06-.29-.11-.59-.17-.88-.19-1.21-.4-2.48-.61-3.81,0-.23,0-.53.06-.85.19,1,.63,1.4.83.87.17.51.28.39.35,0,.6-.78,1.41-5.05,1.76-6.7.43-2.35.84-5.38,1.3-8.53.92-6.3,2-13.1,4-16-.44-9.07-2.76,0-4.72,2.25a234,234,0,0,1,2.16-25c.55-4,1.18-8,1.86-11.94.38-4,.81-6.24,1.25-10.22.89-8,1.84-16,2.6-24.36.38-4.18.72-8.45,1-12.84q.19-3.29.31-6.67c0-1.12.07-2.26.11-3.4l0-.86v-.41l0,0-.07-.09-.09-.09-.05,0-.13-.63c-.19-1-.4-1.95-.6-2.93.35,1.2.68,2.37,1,3.37a1.24,1.24,0,0,0,.05.15h0l.06,0,.13,0,.23.07.19.12.06,0,0,0s0,.11,0,.16c0,.26,0,.51,0,.77.06,1,.13,2,.19,3,.11,1.91.22,3.7.32,5.4.19,3.39.34,6.38.45,9.08.23,5.41.31,9.65.34,13.63.06,8-.1,13.13.16,26.06a211.89,211.89,0,0,0,2.36-30.28c0-4.35.05-8.59.08-13.35,0-2.38.1-4.88.21-7.59.06-1.35.13-2.76.2-4.22,0-.73.09-1.48.13-2.24v-.38l0-.3c-.13-1.09-.27-2.24-.41-3.45-.2-1.8-.4-3.7-.62-5.7l.13,5.45.07,2.73v.5l0,0-.05.16c0,.1-.08.2-.11.3l-.18.29-.09.13s0,0,0,.05l0,.17-.06.34-.49,2.71c-.23-.85-.42-1.73-.58-2.65,0-.22-.08-.5-.12-.67l-.15-.1a2.5,2.5,0,0,1-.24-.22l-.31-.24s0,0-.06-.1l-.12-.46c-.08-.3-.15-.61-.23-.92-.29-1.24-.56-2.51-.79-3.82-.48-2.6-.86-5.32-1.17-8.07-.63-5.5-1-11.14-1.4-16.33-.81-10.39-1.76-19-5.19-21.09-.16-1.81-.27-3.6-.35-5.37l-.12-2.77c-.14-1.67-.24-3.34-.36-5l.53-2.94L5.93,291l.15-.73.1-.4L7,286.81q.87-3.06,1.72-6.13c1.17-4.1,2.37-8.23,3.49-12.52A147.07,147.07,0,0,0,17,239.91L9.85,250.24l1.92-17.88,0-.21c1.36-.16,2.72-.33,4.07-.52v-.12l0-.17c0-.23-.07-.45-.11-.67-.07-.44-.15-.86-.22-1.27-.15-.81-.3-1.57-.46-2.27a34.57,34.57,0,0,0-1-3.57c-.65-1.94-1.31-3.06-1.89-3.44.75-6.88,0-14.69-1.1-23.07-.59-4.18-1.2-8.52-1.83-13-.31-2.22-.61-4.46-.88-6.72L7.92,174c-.23-1.8-.47-3.62-.7-5.43l.66-4.31c.14-.84.21-1.12.31-1.58l.28-1.28c.38-1.72.79-3.44,1.25-5.15l-1.79-2.64a45.21,45.21,0,0,1,1.9-4.41c-3.15-4.59-.18-18.53-3.37-19.7C5,136.43,1.58,149.13,3.89,148c-5.74,17.41-.17-18.54.9-30.14.37,6.26,1,5.51,1.83,2.32.38-1.6.79-3.81,1.2-6.07.2-1.13.4-2.26.6-3.34.1-.54.19-1.07.28-1.57,0-.14.06-.28.08-.41s.07-.44.1-.66c.07-.43.13-.85.19-1.26l.17-.66c-.07-1.06-.39-.51-.86.58-.16.53-.36,1.18-.57,1.82a1.28,1.28,0,0,1-.14.35l-.15.25a3.72,3.72,0,0,1-.33.45v-1.15c0-.63.07-1.25.1-1.84.16-1,.31-1.9.46-2.83.1-.6.21-1.19.31-1.78.22-1.16.46-2.27.73-3.33.54-2.14,1.16-4.1,1.81-5.92,1.32-3.66,2.79-6.79,4.06-9.76a37.68,37.68,0,0,0,2.82-8.78,21.29,21.29,0,0,0,.25-2.3c0-.39,0-.78,0-1.18v-.91a3,3,0,0,1,0-.4,88.66,88.66,0,0,0,0-9.49q2.51-2.84,4.92-5.17l1.62-15,16.9-4.14c1.8,1.4,5.61,1.66,10.33,1.34,1.18-.08,2.43-.19,3.72-.34l2-.23,1.91-.25c1.66-.2,3.41-.47,5.17-.74,7-1.08,14.24-2.26,16.49.53C103,32.4,77,32.71,85,32.07c2.52-.6,5.3-1.12,8.26-1.59,1.48-.23,3-.45,4.55-.66l6.54-.9,3.07.11,1.53.06,1,.06,3.76.26,7.51.57c5,.39,9.77.78,14.14,1.07,8.73.58,15.67.73,18.39-.45a244.55,244.55,0,0,0,27.84,1.55c2.3,0,4.57.13,6.81.22l6.59.3c4.31.23,8.43.53,12.26,1l1.18-2.84c8,1,17.47,2.69,25.37,2.46,0-.44-1.06-.87-2.66-1.28,3.75.34,7.41.66,11,.94l5.32.42,2.63.19,4,.23,16.06,3.47c4.8,1,9.51-1.41,14.19-.48,9.36,1.88,18.56,3.65,28,5.46-1-2.14-.77-3.33-14.91-6.67a119,119,0,0,1,12.73,1.7q3.42.62,7,1.4l1.82.39.46.1.2.05.06,0,.28.09,1.13.37,1.24,0,.33,0,1-.07,2.08-.13,8.48-.53c5.76-.35,11.69-.69,17.7-1.09,12-.81,24.33-1.88,36.16-3.72l-2.85-1.09L405.4,33c-4.16-.44-1.67-1.72-2-2.89,4.91-.7,10-1.41,15.13-2.09l7.75-1,10.57-1.31,7.57,1,4.75.68c3.15.46,6.27.94,9.32,1.43,6.11,1,12,2,17.41,3.15,9.69,2,18,4.21,23.88,6.66-.38-.62,2.23-.92,4.19-1.37a1,1,0,0,0,.61-.3,2,2,0,0,0,.32-.34.87.87,0,0,0,.14-.78,1.52,1.52,0,0,0-.24-.45l-.09-.11c-.06,0,0-.07-.17-.12l-.8-.32a54.67,54.67,0,0,0-5.37-1.56c2.84.73,7.24,1.58,7.45,1.91l1.12.16H510l6.49-.08q6.57-.12,13.33-.37t13.66-.61l6.92-.37c2.31-.1,4.63-.32,7-.32,18.59-.41,37.39-1,55-1.26l-.59.25,6.44.31,3.22.16.81,0c.27,0,.5,0,1,0l2.36.05,2.38.33.93.14.8.14,1.28-.39L628.66,33c-.29-.06-1-.15-1.49-.22l-1.67-.23L623,32.48h-.53l-.43,0-.86,0-3.43-.17h3.46l4.35,0,1.82.19,1.54.17,2.38.3,4.67.6c3.09.42,6.11.85,9,1.31,5.86.91,11.39,1.91,16.47,3,1.9-.56,4.64-2,9.66-2.82.1-.25.21-.49.31-.74C679,30,688.71,28.48,691.93,17.29c6.28,9.41,6,1.74,5-2,4.25,5,.93-2.85,4.25,1.55,1.21,2.91-1.48,2.28,1.35,6.68,1.31,1.66,3.93,6.35,4.34,5.91,3-1.25-1.74-11.54,2.23-8.49-1,1.5,3.57,10.56,1.84,12.59.14-.11,1.49,1.7,2.6,3.32,1.54.06,3.07.12,4.59.2,3.23.17,6.4.39,9.4.69,1.5.14,3,.31,4.37.5l5.25.73,2.06.58,1,.3c.3.09.43.15.65.23.77.29,1.49.58,2.17.88l.26-.43a17.3,17.3,0,0,0-2.21-.85L740,39.22c-.38-.14-.63-.26-.64-.34s1.27-.12,2.73-.13l2.05.45c.75-.88,2.07-1.73,5.31-2.47a33.83,33.83,0,0,0,9.91-.59c-10.31-.41-7.72-3-14.8-3.93-.61-.76,2.69-.77,3.61-1.24-.17,1.45,5.46,1.93,4.22,3.56,5.16.25,4-.71,6.16-1,1.76.34,1.45,1,1.52,1.66,3.72,0,3-.43,5.47-.06,1.44-.88.49-1.36-3.06-1.41,1.73-1.61,4.32-2.88,3.14-4.37,11.64-2.21,6.79-5.64,6.94-7.78-.51-.65,3.06-.52,3.43-1,6.3-4.11-1.93-10.28,11.48-14.1-1.86-.81.93-1.65,6.68-1.76,4.31.85,1.56,2.87,7,3.53,4.25-.2,8.17-.47,9.08-1.3-4.84-.51,4-2-5.62-1.63-4.1-.29,6.92-.42,6.85-.07C812.45,2.85,823.67,1.53,824.6,0c5,1.36-7.48,3.18-7.1,6.1-.21.53,5.72,0,8,.15,5.77-.19,3.75-1.87,7.22-2.49,6,.17-3.41,1.83,3.73,2.36-4.21,1.25-11.82,5,.62,4.81-14.83,13.28,3.5,26.13-13.86,38.19.37.54,2.34-.32,3.93.2-4.22.82.29,1.67-3.1,2.44,7.64-.77,5.47-2.51,5.32-3.67s5-3.08,4.51-4.39c-.79-2.05,4.8-6,6.64-9.22,9.46-1,3.92-2.65,6.88-3.93,5.08.34.3,3.28-1.58,4.11,3.92.68,5.74,1.36,7.46,2.8l-4.11,0c1.39.27.94.84.34,1.44,2.43,0,3.08-.33,5.64-.31-7.25.76-2.5,2.46.29,3.37-1.87.76-3.45-.24-5.29-.18-.33.88,1.21.91-1.22,1.7-.27.59,4.48,0,4.28-.29.59.74-3.11,1.37-.39,2.41,4.79.18,2.07-1.29,5.82-.55,2.27-1.78,6.58-3.16,10.15-4.69,3.29.23-5.77,3.47-.06,3.85,6.22-1.62,6.62-3.88,6.75-5.61,3.4.28,4.16,1,2.55,2.14a2.4,2.4,0,0,0,1.72-.51c1.56,0,.81.43.82.72,1.51-2.22,6.6-3,9.3-5.4,9.89.31,3-2.56,10.12-2.77-7.56,4.49,4,6.25-4.58,10.16a3.4,3.4,0,0,0,2.57.22C901.9,44,894.35,46.39,899.12,47.28ZM36.38,582.79c.08.53-1.83-.42-1.24,1.19C36,584.1,37.34,583.27,36.38,582.79Zm10-3.32c.47-.26,1.76.19,1.66-.56C47.54,578.5,46.17,578.55,46.34,579.47Zm1.72,6c-1.05.39-2.19-1.33-2,.6C46.67,585.75,48.08,586.2,48.06,585.43Zm22.15-1.09c-.35,0-.42-.49-.48-1a1.41,1.41,0,0,0-1.09.49C68.49,584.89,70.13,585.14,70.21,584.34Zm9.12-1.51a2.46,2.46,0,0,1-2.68-1.72c.77.09,1.09.32,1.37-.52-.6,0-.89-.57-1.33-.86-1.4.93-2,1.83-4.12,1.56,1.27,2.28,3.42,1,5.9,1.65.12.67-.7.53-.32,1.42C79.16,584.37,79.77,584.05,79.33,582.83Zm136.18,4.68c.08-1.16-1-.41-1.56-.48.37-.75-.34-.63,0-1.38-.72,0-1.41.11-1.31.85a1,1,0,0,1,.76.93C214.2,587.34,215.05,587.1,215.51,587.51Zm191.11-24c.08,1.35-.71,1.82-1.58,2.62.6,0,.33,1.87,1.16,1.43C406.4,566.66,407.85,563.32,406.62,563.49ZM406,573a.92.92,0,0,1-.6.2,3.49,3.49,0,0,1,0,1.74l1.49.09C407.1,573.29,406.36,573.52,406,573Zm7.28-10.51c-.23-.16-.33-.59-.26-1.38-1-.52-1,1.34-1.56,2C412,562.72,413.17,564,413.25,562.51ZM876.3,449.28a8.18,8.18,0,0,1-.53,3.74l1.6,10.74C876.94,458.92,876.46,453.86,876.3,449.28Zm-2.37-8.68.3,2q-.09-1-.18-2c.42-7.52.71-16.1,1.42-25l.32,21c4.37-8.51-.07-34.92,1.56-43.11-1.74.09-2.64,2.41-3.35,4.11ZM312,560a1.52,1.52,0,0,0-.42-.9c-2.69,0-5.37.18-8.05.44A32.78,32.78,0,0,1,312,560Zm-68,9c.39-.08,1.24,0,1.54-.84-.15-.12-.3-.24-.44-.37a.49.49,0,0,1-.33-.31l-.29-.29c-.53.42-1.19,1.1-.45,1.54A.24.24,0,0,1,244,569.05Zm-1.37-1.47c.23.78,1.06-.16,1.08-.48-.81.34-.95-.41-1.72-.14,0,.07,0,.15-.05.22,0,.69-.29.94.53,1.11C242.46,568,242.33,567.63,242.61,567.58Zm-53.23,10.89a1.49,1.49,0,0,0-1.47,1.56c.48.41,2.13.38,2-.59C189.51,579.42,189.45,579,189.38,578.47Zm-86.5-4.81c1.63-.65,1.15-2-.22-2.73-1.59.6-8.42.61-6.61,3.94,3-1,3.33-1.49,7-1.92C103.11,573.29,102.89,573.38,102.88,573.66ZM98,577.37c.08.64-.91.35-.67,1.12.21.16,1.12,1.25,1.21.18C97.51,578.71,99,577.33,98,577.37Zm.44,2.34c.38,1.31,2.27.06,2.85,1,0-.81.78-1,.82-1.82C100.5,578.36,99.89,580.54,98.44,579.71ZM57,554.06a2.11,2.11,0,0,0,1.15-.82c-3.24,0-5.46.39-8.75,0l-1.77.29a.51.51,0,0,0,.63.33c-.33.65-1.78.45-2.44,0l-.49.07a2.33,2.33,0,0,1-1,.84c1.76,0,4.54-.11,7.91-.3C53.71,554.28,55.31,554.18,57,554.06Zm666.61-505a12.16,12.16,0,0,0-1.64-.66c.12.21.23.41.33.61l1,.2ZM106.92,562.62a17,17,0,0,0,2.36-.47,8.5,8.5,0,0,1-.56-1.62c-.74.05-1.45.07-2.14.07a18.32,18.32,0,0,1-2.48.89,3.5,3.5,0,0,0,0-.89,19.2,19.2,0,0,0-2.33.14c-.39,1-.54,2.63-1.64,1.88a3.21,3.21,0,0,1,.94-1.31,1.37,1.37,0,0,0-.06-.44,7.5,7.5,0,0,0-1.41.46c.17.52.27,1.15.43,1.7,1.7-.14,3.92-.12,6.07-.32.22-.62.41-1.27,1-1.05A1.84,1.84,0,0,0,106.92,562.62ZM73.78,552a21.86,21.86,0,0,1-5,.19,2.67,2.67,0,0,1,0,.8c2-.23,3.75-.51,5.22-.82A1,1,0,0,0,73.78,552Zm27.32,12.24a.76.76,0,0,1-.49,0,2.19,2.19,0,0,0,.33.37A.5.5,0,0,0,101.1,564.27Zm-1.74,0c0-.1,0-.21,0-.31A1,1,0,0,0,99.36,564.28ZM69.94,551.56a2,2,0,0,1,.31.48,1.63,1.63,0,0,0,1.28-.42Q70.8,551.58,69.94,551.56Zm40,8.85c-.16.47-.24,1.12-.38,1.65a7.6,7.6,0,0,0,1.8-.82h0c-.33,0-.4-.49-.46-1C110.6,560.33,110.29,560.37,110,560.41Zm149.12,5.18c.7.35,1.64-.44,1.94-1.37-.63.07-1.26,0-2,.17A8.76,8.76,0,0,0,259.09,565.59ZM73.14,551.82l-.36-.07A1.44,1.44,0,0,0,73.14,551.82ZM97.33,563c.6.12,1.67-.55,2,0,0-.48-.1-1-.17-1.47A6.89,6.89,0,0,0,97.33,563Zm7.09,9.41c.6.54,1.1-.25,1-1.15C104.85,571.49,104.16,571.56,104.42,572.43ZM264.65,568c.52,0,1-.18,1-1.32-.59.34-1.87-1-1.85.83A3.93,3.93,0,0,0,264.65,568Zm-223-18.64c.08-.13.16-.26.23-.39-1.31.25-2.76.55-4.39.91Zm54.07,13a8.07,8.07,0,0,0,1.1.77,1,1,0,0,0,.08-.65h-.06a1.36,1.36,0,0,1,0-.2,1,1,0,0,0,0-.17A7.85,7.85,0,0,1,95.75,562.32Zm1.74,1.09a7.71,7.71,0,0,0,.75.29A.67.67,0,0,0,97.49,563.41Zm-6.38,14.83c-.9,1.77,4,1.7,6,.62C94.5,577.76,92.81,579.48,91.11,578.24Zm12.22.86c1.87.46,2.7,1.11,4.34,1.17a6.15,6.15,0,0,1-.16-2.39C105.86,578.64,104,577.51,103.33,579.1Zm11.07-8.28c.76-.59,2,.95,1.66-.56C115.28,570.1,114.65,569.94,114.4,570.82Zm6,2.33c.65-.3,2.16.15,2.23-.63C121.46,572.56,120.64,571.44,120.43,573.15Zm63.94,5.27c.06.64.46.69.54,1.3,1.08-.55,2.27.62,2.24-.62A7.73,7.73,0,0,0,184.37,578.42ZM232.55,572c.72-.86,1.85.26,1.89-.93C233.83,571.35,232.08,570.71,232.55,572Zm16.52-2a1.56,1.56,0,0,0,.33-.14c0-.86-.59-.28-.91-.76-.67-1-1.69-3.5-2.07-.79C247.2,570,248.18,568.62,249.07,570Zm105.65-5.34,0,0h-.18ZM875,228.42a3.26,3.26,0,0,0,1.44,0v-.34c-.51,0-1,0-1.36-.07ZM876.81,214l-.49-.07c0,.47,0,.95.06,1.41a3.14,3.14,0,0,1,.4.13Zm-2.56-4.81,0,.82,2.63,0,0-3v-1.13C874.73,207,875.16,208.18,874.25,209.23Zm-.06,2.87-.07,3h.16c.6-1.36,1.22-2.64,1.8-4,.11.94.18,1.84.23,2.73l.5-.1c0-.45,0-.91,0-1.36,0-.67,0-1.34,0-2A4.78,4.78,0,0,0,874.19,212.1Zm.55,17.54,1.66-.07c0-.21,0-.43,0-.64-.45,0-1,0-1.53,0Zm3.92-53.2a8.58,8.58,0,0,0-1.67-.12c.76,1-2.08,1.35,0,1.93a5.69,5.69,0,0,0,1.84-.67C878.76,177.21,878.71,176.83,878.66,176.44ZM875.55,173l.24,1.69,1.06,0C874.34,174,879.71,173.16,875.55,173Zm-4.77-29.83c.71-1.08,2.18-2.22.92-2.88.06.46-.51.65-1.26.69.06.38.11.75.17,1.14S870.72,142.8,870.78,143.15Zm-.57-3.74c0,.29.09.58.13.88C871.86,140,871.51,139.66,870.21,139.41ZM710.14,36.68l3.1.11c-2.85-4.08-.59,1.49-3.3-1.51A2.47,2.47,0,0,0,710.14,36.68ZM656.42,47.43l6.51.51H663l.08-.07c.21-.23.41-.46.62-.68A48.86,48.86,0,0,0,656.42,47.43ZM522.16,36l8.94.73c-1.83,1.4-11.55,3.55,7.45.63l-7.45-.63C531.94,36,530.88,35.49,522.16,36Zm-25.93,5.74,4.58.52,2.73.3,2,.2,20.23-2a83,83,0,0,0-9.17-.09c-2,.07-4,.16-6.12.29l-3.05.2-1.84.17-1.42-.13-.77,0-1.11-.09c-1.45-.12-2.8-.19-4-.22-2.36,0-4.07.09-4.7.49C492.58,41.3,493.76,41.46,496.23,41.75Zm-14.9,6.7.71.09c-1.66-1.07,5.31-1.24-7.16-3.95C473.16,45.63,476.51,47.1,481.33,48.45Zm-66.79-6.38a1.11,1.11,0,0,1,.13.59C414.86,42.44,414.81,42.24,414.54,42.07ZM335.45,46.3C352.26,48,354,49.73,375.53,48.91L380,45.18c-7.73,1.47-4.47,3.73-19.4,3.7C362.75,46.43,356.16,42,335.45,46.3Zm-15.73,0c.36.29.73.57,1.09.82a13.64,13.64,0,0,0,2.68.67c.24,0,.37,0,.68.06h.92c.6,0,1.16-.05,1.7-.09a20.34,20.34,0,0,0,5.53-1.29c3.25-1.23,6.05-3.07,10.78-4.48l8.55-1.64A45.1,45.1,0,0,0,343.1,42l-12.23,2.33-6.11,1.17-.77.14-.35.07-.22.05-.85.21-1.73.42ZM33.29,247.2c1.11,2.2,2.09,2.19,2.94.7l1.3-11.67C36.63,241.59,35.35,246,33.29,247.2Zm-.12,187.12.76-.68.64-4.62Q33.85,431.68,33.17,434.32ZM26.58,131.88c1.45,1.87,2.53,1.76,3.48,2.5l1.61-16.77A55.23,55.23,0,0,1,26.58,131.88Zm1,70.68a34.37,34.37,0,0,0,1,6.69c-.32-2.69-.66-4.82-1-6.69-.37-8.2,3.89-7.9-.9-21.55-.43,3.66,2,9.15,1.52,12.77C25.52,193.4,26.37,195.37,27.61,202.56ZM25.09,412.19c1.65-9.24,8.73-20.26,6.53-38.8l-2.47,13.85-.07-3.38-2.67,3.42C33.21,383.79,25.85,404.06,25.09,412.19ZM15.14,223.26l-1-6.29a21.27,21.27,0,0,0,1,6.29l.75,5,.37,2.48.1.62c0,.14,0,.13,0,.16v.08l0,.32C19.09,232.33,16.57,228.12,15.14,223.26Zm4.74,28.36c-2.76,0-5,16.1-7.48,20.75-.2,7,3.27-2.27,5.17-4.58-.1,3.46-.62,5.75-1.68,10.43C21.91,276,15.36,265.41,19.88,251.62ZM29.08,559a40.44,40.44,0,0,0-12.52-.59c-.26-3.76-.95-7-1.55-10.9a80.79,80.79,0,0,1-.94-14.68c.11-1.52.18-3.06.16-4.49-.12,1.67-.13,3-.16,4.49-.3,3.9-.9,8.3-1.26,13.28a87,87,0,0,0,.2,16.08A130.64,130.64,0,0,0,29.08,559Zm66.53,5.8c0-.26-.06-.5-.09-.73a1.09,1.09,0,0,1-1-.32,1,1,0,0,1,.9-.34,6.45,6.45,0,0,1,0-1,2.67,2.67,0,0,0-.44-.23c-.76,1-1.39.68-3.47,1-.14,1,1.62,1.07.9,1.61-.63-.57-.81.57-1.28-.53a2.21,2.21,0,0,0-.39-2c-.57.72-2.16.91-3.4,1.5a2.68,2.68,0,0,1-.07.27.67.67,0,0,1-.22-.13,2.58,2.58,0,0,0-1.09,1c.82.11,2.2-.72,2.65,0,.1.55-.76.29-.74.78.24,0,.57-.06.64.26-1,.34-1.65-1.17-2.14-.41C89.63,566.91,92.73,565.57,95.61,564.77Zm-14.46,16.8c3.22-1.15,7.61-.77,9.35-1.87-.53,0-1.37.52-1.28-.53C86.3,580.17,82.65,578.71,81.15,581.57Zm-.93,2.87c1.59-1.93,5.62-.65,8.08-2.4-.62-1-6-.9-4,.51a21.21,21.21,0,0,1-3.8.14C80.48,583.34,79.77,583.4,80.22,584.44Zm1.41,1.19c-.51-.33-1.43-1-1.44.19C80.4,586,81.7,586.43,81.63,585.63Zm27.28-.37c-1.52-1.9-5.17-.23-7.5-.76.34-1.54,4.06.33,5.11-1-1.66.07-.28-1.06-.74-2.31-.94-.61-3-.81-3.73.47.57.08,1.64-.67,1.56.49-1-.12-2,.42-3.32,1.11-.12-.84.35-1.12-.54-1.3-.22,1-1.1-.47-1.78-.12-.06.62,1.1,1.29.31,1.67a4.53,4.53,0,0,0-2.61-1.38c-3.88,2.43-9.06,2.17-11.74,3.21.34,0,.41.49.47,1-.85.22-2.3-.09-2.17,1a6.44,6.44,0,0,0,1.85.46c.38-.06.15-.63.45-.75a35.68,35.68,0,0,0,15.28-1.65c.06.36.13.71.2,1.06C103.19,585.49,106.12,587.12,108.91,585.26Zm5.61-4.5c-1.08.48-1-.89-2.13-.41,0,.64.46.7.54,1.3C113.38,581.29,114.34,581.36,114.52,580.76ZM129,576.18c-.67-.65-1.16-1.59-2.55-1,.24.87.16,1.46-.61,1.45a2.49,2.49,0,0,0,0-1.71,3.72,3.72,0,0,1-3.38.78c-.18,1.46,1.49-.14,1.62.82-2.1.8-2.07-.14-4.14-.16-.77.7,1,.94.25,1.34-.81-1.27-1.64.14-2.26-1.09-3,.56-3.18.75-5.91,1.44-.14-.49-.13-1.25-.54-1.3,0,.77-1.58.15-1.24,1.19.54.12,1.22,0,1.56.48-3.41,0-4.75,1.67-2,3.69-.56-1.35-.55-1.64.13-2.42.15,1,1.94,1.16,1.79.11-.27-.44-1.12.09-1.28-.52,3.62-.06,6.66-.69,10.24-.27C122.24,577,127.89,578.87,129,576.18Zm21.25,6.58c-.79.77-2-.29-2.11,1.3C148.73,583.57,150.36,583.93,150.2,582.76Zm6.79,6.35c-.35,0-.41-.49-.48-1-.42.11-1.08,0-1.08.48.88-.34.57,2.19,1.28.53C156.74,589.33,157,589.5,157,589.11Zm.61-4.54c-.06-.34-.13-.67-.19-1l-1.15.15C156.34,584.6,157,584.49,157.6,584.57Zm1.82-1.26c-.07-.34-.13-.67-.19-1-.76.1-1.73,0-1.6.89A2.26,2.26,0,0,0,159.42,583.31Zm2.52-3.76c-2.9.67-8.71.67-9.16,2.88C154.69,581.48,160.07,581.44,161.94,579.55Zm6.89,8.4c-.34,1-.27,1.11.16,2.39C170.17,590.14,169.39,588.58,168.83,588Zm1.92.79c-.38,0-.38-.56-.71-.6,0,.41-.28.25-.57.07,0,.67.51.62.76.94-.42.13.07.55.42.63A1.64,1.64,0,0,1,170.75,588.74Zm6,2c-.39-.56-1.57-2.05-1.76-1.49.91.11-.13.75.26,1.34.35,0,.8-.16.93.23-.42.11-1.09,0-1.09.48C176.18,591.74,175.71,591,176.71,590.72Zm7.15-5.71c-.06-.34-.13-.67-.19-1-.44.38-1.54.19-1.25,1.19Zm2.2,3.84c-.85,0-2.56-1.4-2.65,0,.78-.15,1.47-.25,1,.56C184.87,589.15,186.16,589.6,186.06,588.85Zm5.2-5.12c-1.25-.53-3.08.25-5.58,0,.09,2.67-2.16,1.69-2.72,2.75,2.41,1.12,3.26-.18,4.06-1.89C188.31,585.68,190.64,585.53,191.26,583.73Zm5.62-1.41c-2-.47-3.87.6-5.52.36.1.56.21,1.12.32,1.68.95-1.11,1.64-.45,3.16-.4C195,582.39,196.42,583.57,196.88,582.32Zm22,4.08c-1-.17-1.42-.82-2,.26C217.77,586.83,218.24,587.48,218.83,586.4Zm2.59-6.51c-1,.06-2.69-.89-2.88.37,0-1.44-1.42-.57-2-1.13.4,1-.31,1,.09,2C218.18,581.53,219.46,579.92,221.42,579.89Zm1.66-.55c-.51-1.84-2.25.62-1.76-1.49-1.14-.16-1.13,1.28-.54,1.78C222.08,579.41,221.85,579.21,223.08,579.34Zm3.57-2.86c-.72,0-1.16.32-1.31.85A.8.8,0,0,0,226.65,576.48Zm4-3.94c-1.13.51-1.64-.08-2.24.63C228.88,573.57,230.78,573.56,230.61,572.54Zm2.1,8c-.77-.68-.93.4-2,.25C230.64,582.26,233.32,581.91,232.71,580.52Zm.58-6.26c-1.7,0-.29-.79,0-1.38-1.53.83-2.09.83-2.84,2.08C231.49,574.65,233.16,575.75,233.29,574.26Zm2.45,8.28c-.46-1.45-1.75-1.51-2.52-2.43C233.37,582.06,234.56,582.3,235.74,582.54Zm3.83-11.35a2,2,0,0,1-1.16-1.36,6.46,6.46,0,0,0-2,.6c.23-.52.16-.86-.48-1,.15.8-1.42,1.57-.47,2.12-.32.52-1.28.91-1.66.56-.22.32,0,.85.09,2.05,1.41-.42,3.52-1,2.78-2.42.55,0,.41,1.09,1.05.9C238.32,572.25,238.83,571.7,239.57,571.19Zm5.14-1.81c-.34-.09-.58.26-.73.1s-.2-.26-.18-.32c-.34.08-.91,0-.46.73-.56-.18-.16-.6-.19-1a6.88,6.88,0,0,1-2.25.63c-.3.51-.62,1-.94,1.42a8,8,0,0,1,2.51-.94c0,.77-1.58.15-1.24,1.19C241.84,571.23,244.44,570.56,244.71,569.38Zm.82,1.06-.07-.2c-.29-.59-.54-.81-.75-.86C244.93,569.69,245,570.1,245.53,570.44Zm45.75,2.42c.05-1.35.85-.81.68-2.68-1.78-.4-.74,1.7-1,4.7,1-.72.7,1.1,1.16,1.42C292.22,574.33,291.59,573.93,291.28,572.86Zm19-3-1.19-.07c-.1,1.68-.16,3.29.5,3.43C309.91,572.35,309.94,570.74,310.27,569.87Zm.14-4.74a5,5,0,0,0,.49-1.28l-6-.56-.83-.08a9.93,9.93,0,0,1,0,1.56C306.73,564.12,307.9,565,310.41,565.13Zm22,.23a2.21,2.21,0,0,0-.4-.47l-.43-.24c-.94-.23-1.83,1.27-2.77.5a2.49,2.49,0,0,1,1.07-1.72c-2.06-1.68-4.14-3.81-6.22-3.95-3.85-.26-7.73-.41-11.62-.36a2.34,2.34,0,0,1,.5,1c4.15,1,5.21,3,4.58,4.16a2.45,2.45,0,0,1,.71,1.9c.94-.77-.36-2.61.4-3.37.94-.27,1.43.93.84,2.09.79-2.06,2.16,1.83,2.15-1.92-.16-2.4-1.46,2-1.49-.09-.25-2.31,1.32-1,1.83-1.25.27-.13.81-1.25.94-1.3,1.6-.52,4,4.62,4.76,6.71.82-1,2.11.59,3.29.19C331.32,567.05,332,566,332.46,565.36Zm2.93.23-.34,0c-.26.48-.73.42-.84,1.27A4.79,4.79,0,0,0,335.39,565.59Zm5.36,13.82c-.28-.61-2.54-2-2.42.55C339.19,578.4,340,581.26,340.75,579.41Zm3.87.91c.09-2-1.67-2.9-1.78-.79C343.77,579.1,343.92,580.29,344.62,580.32Zm27.7-3.18c-.35.61-.13,1.26-.4,3.38.36-.09.85.16.92-.63C371.76,579.4,373.75,576.51,372.32,577.14Zm63.49-16.74a3.19,3.19,0,0,0,.06-.87l-1.52-.39C434.28,561.63,435.09,560.79,435.81,560.4Zm1.16,1.42c-.45-1.18-1.52-.7-1.81.58C435.61,563.59,436.68,563.11,437,561.82Zm2.46,8.3c-.17-1.18-1-4.28-1.42-2.8.18,0,.35.12.28.69-.56.06-1,.39-1.24,1.29C437.91,569.43,439,569,439.43,570.12Zm20.39.48c.69.25,1.2,1.4,1.8.1C462,568.26,459.68,569,459.82,570.6Zm5.53-4.44c-1.1-1.43-1.28,3-.7,3.36C464.49,567.42,465.71,568.75,465.35,566.16Zm.57-2.6-1.53-.24c.24.69.34,1.68,1,1.49A2,2,0,0,0,465.92,563.56Zm34.8,6.07-.66-.12A2.05,2.05,0,0,0,500.72,569.63Zm14.22,0c-1.27-.21-2.43-.42-3.5-.62l-1.53-.33-.37-.08-.21-.07-.4-.12a21.17,21.17,0,0,1-2.69-1l-.73-.37-.58.07c-.86.11-1.52,1-2.44,1.22h0c.39.11.8.2,1.24.29a32.42,32.42,0,0,0,3.8.52l1.14.08.61,0h.16l.26,0,.55,0C511.69,569.42,513.26,569.52,514.94,569.62ZM619.85,571c-.47-.17-.53-1.17-.8-1.74l-.66-.08C618.33,570.9,619.56,572.35,619.85,571Zm26.08.6a1.16,1.16,0,0,1-.53-.22c-.17.41-.39.72-.67.36,0-.83,0-1.61-.56-1.39.39,2.44-1,.35-1,2C644,571.84,645.74,573.65,645.93,571.63Zm0-.38s0,0,0-.09c-.12-1.17-.27-.47-.51.15Zm78-9-13.69-1.44c.19.35.74.75,2.11,1.23l7.78,1.52C724.3,563.39,725.07,562.87,723.91,562.22ZM869.19,335.76l2.23,5.49c-.53-5.24,0-10.05-.08-15.37a55.65,55.65,0,0,0-.65-8.45c-.24-1.51-.56-3.07-1-4.72-.11-.41-.22-.82-.34-1.24l-.09-.32-.08-.22-.17-.46c-.23-.61-.49-1.25-.79-1.93-.69,0-1.11.59-1.37,1.56a7.23,7.23,0,0,0-.17.79,7.85,7.85,0,0,0-.09,1c0,.8,0,1.68,0,2.6.06,3.69.39,8.05.17,11-.7-1-.73-3.46-.61-6.69.07-1.61.14-3.41.22-5.33,0-.92,0-2.05.09-2.77s.07-1.61.08-2.41q.45-1.21.81-2.43l.17-.61.19-.78c.12-.52.24-1,.34-1.56a27.61,27.61,0,0,0,.55-6.14,39.27,39.27,0,0,0-2.61,5c-.44,1-.89,2.09-1.33,3.2s-.85,2.08-1.28,3.25c0,.66,0,1.33,0,2s0,1.38,0,2.21c.05,1.6.13,3.25.22,4.94.2,3.37.48,6.88.81,10.41.67,7,1.58,14.12,2.53,20.18a6.16,6.16,0,0,0-.56-.69L868,357.92C868.86,353.73,869.66,348,869.19,335.76Zm6.55-90.71q.25-5.56.51-11.09c0-.42,0-.84,0-1.25l-2.25.1c-.08.36-.15.72-.23,1.08.39.36.28.79.33,1.2h-.48l-.22,9.76-9.72,47.25C867.93,276.47,872,260.93,875.74,245.05Zm2.62,13.05-1.89-7.16-3.05,13.71Zm-2-26.42c-.37,0-.74,0-1.12,0,.06.11.5.16,1.11.19A1.55,1.55,0,0,0,876.33,231.68ZM875,169.56c.14.92.28,1.82.41,2.73a7.43,7.43,0,0,0,2.67,0,38,38,0,0,1-.26-6.74c-.38,0-.78-.06-1.21-.07C877.94,166.72,875.82,168.19,875,169.56Zm-.39-33.41a34.54,34.54,0,0,1-4.63,1.4.13.13,0,0,0,0,.06c4.26-.3-.18.85,3.06.72C874.88,138,877.22,136.39,874.65,136.15Zm2.33-7c1-.36-.71-1.24,2.23-1.23.49.35-2.5,1.27.49,1.2,2.79-.81,1.19-1.44-1.33-1.91C876.75,128.05,873.3,128.53,877,129.14Zm2.13-6.76c-1,.83-6.2,2.82-.89,3.14C880.9,124.3,878.85,123.43,879.11,122.38Zm-.21,15.4c-.73,1,1.82,2.27-2.26,3.16C885.08,140.28,880.41,138.25,878.9,137.78Zm1.91-2.67c1.36,1-3.93,1.91,1,2.4C879.09,137.08,887.39,135.27,880.81,135.11Zm1.71-11.81c-2.61.43,0,1.08,1.7,1.42C887.52,124.17,885.67,123.4,882.52,123.3Zm2.59-1.72c-1-.74,2.57-.61,3.43-1-2.74,0-2.21-.62-4.95-.66C883.33,120.6,881.22,121.6,885.11,121.58ZM883,117c-4.84.09-2.73,1.5-7.88,1.53.66-.31.71-.51.44-.66a9.2,9.2,0,0,0-1.07,1.63c.75.1,1.59.18,2.49.21,2.5.06-1,1.24-2.42,1.48-.87.64,5.17.13,3.41.92C881.73,120.72,882.27,119,883,117Zm11.26-72.35c-.56.37-4.75,1.62,0,1.93C896.27,46.24,898.36,44.66,894.21,44.69ZM621.53,31.76h.77l.63-.13,3-.57.67-.17.11-.1c.08-.16.18-.35.33-.6s.48-.8.73-1.2.74-1.51.9-1.89.18-.48.28-.73a117.69,117.69,0,0,1-20.46,4.1c-1.92.23-3.84.43-5.76.63l1.65.13C610.13,31.71,615.78,31.83,621.53,31.76Z"/></g></g></svg>