<svg xmlns="http://www.w3.org/2000/svg" viewBox="0 0 730 1224.46"><defs><style>.cls-1{fill:#004ec2;}</style></defs><title>左虎_藍</title><g id="圖層_2" data-name="圖層 2"><g id="圖層_1-2" data-name="圖層 1"><path class="cls-1" d="M386.62,547.1a28.93,28.93,0,0,1,10,3.11,24.16,24.16,0,0,0-4.37-.42c-3.77.19-17.87,2.76-29.8,5-1.51-4.84-1.23-8.05,0-8.81a11,11,0,0,1,6.21-1.78,40.55,40.55,0,0,1,8,1.19A85.11,85.11,0,0,0,386.62,547.1ZM6.86,400.15C-5,428.74,1,444.4,6.54,453.79c1.14-3.65,2.36-7.27,3.65-10.81C7.74,432.32,4.64,414.59,6.86,400.15Zm624.6,600.2h-.05l.39.14Zm-438.15-728c5.48-12,14.74-22.42,29.94-32.9l-2-6.21c-6.54-19.84-24.92-25.75-39.46-27.18-4.43,2.32-8.41,4.54-12.13,6.77a162.71,162.71,0,0,0-15.8,10.81c20.71,5.34,32.8,33.08,33.35,34.36ZM328.3,0C306.13,0,285.53,10.88,274,20.12a10.43,10.43,0,0,0,11.39,17.39c23-12,42.11-14.72,56.76-8.08,9.27-10.55,21-13.49,33.56-8.4A85.1,85.1,0,0,0,363,10.5,61,61,0,0,0,328.3,0ZM32.09,651.59h0Zm157-367.22A70.25,70.25,0,0,1,193,273l-9.83-12.64c-13.65-17.56-30.36-23.69-49.66-18.26a207.7,207.7,0,0,0-24.74,32.29,92.32,92.32,0,0,1,29.46-4.86c1.13,0,2.25,0,3.37.06,17.62,1,29.54,5.44,36.44,9Zm-83,207h0ZM370.1,154c.29-13.11-7.23-20.81-22.34-22.9a194.72,194.72,0,0,1-20.29,17.31c18.85,14.12,10.39,34.26,8.89,37.44a150.61,150.61,0,0,0,33.58-24.55Zm-64.6,26.33a14.86,14.86,0,0,0-8.24-6.6l-10.75-2.65,10.91-1.9c5.48-.95,10,.1,13.52,3.11,5.73,4.94,7.35,14.17,7.54,22.11q6.86-2.86,13.22-6.1l.07-3.18c.27-11.76-6.22-20.82-19.3-27-13.23,7.19-28.34,12.11-42.92,16.44,9.73,17.73-.72,35.37-1.19,36.15l-3.72,6.13c12.18-5.6,26.2-11.49,42.3-17.84C308.76,191.31,308.28,185,305.5,180.35Zm-79.27,57.14c9.84-6.47,22-13,37-19.92l.87-8.26c1.2-11.27-3.1-21.15-12.79-29.38-14.54,4-29,8.82-43.12,14.26,14.85,11.53,17.48,37,17.59,38.14ZM392.12,113c-1.2-4.93-3.48-8.35-6.78-10.16-5.07-2.79-12-1.59-17.29.08a78.42,78.42,0,0,1-9.39,15.95c8.11,2.45,13.67,6.69,16.57,12.63,5.28,10.83-.45,23.1-.7,23.62l-1.46,3.06a110,110,0,0,0,22-33.22Zm8.29-46a93.92,93.92,0,0,0-2.7-9.87l-6-3.54c-9.68-5.73-19.58-3.38-26.75.1.67,1.4,1.3,2.83,1.89,4.26a29.47,29.47,0,0,1,13.2-3.47c7.67,0,14.43,3.92,19.75,11.67Zm-4.8-15.6a92.65,92.65,0,0,0-13.9-23.66l-4.31-.84c-.2,0-18.52-3.42-25.68,8.75a48.74,48.74,0,0,1,7.85,8.75,34.71,34.71,0,0,1,15.28-3.91,25.21,25.21,0,0,1,20,9.8Zm10.63,585.5a4.63,4.63,0,0,0,6.21-5.66,4.68,4.68,0,0,0-1.73-2.34L406,625.47l-2.23,5.31a4.64,4.64,0,0,0,2.46,6.06ZM396.71,112.6,395.83,123a97.82,97.82,0,0,0,6.23-25.38,95.66,95.66,0,0,0-.45-24l-5.2-4.4c-.45-.37-10.92-8.82-25.74-.54A51.39,51.39,0,0,1,372,89a32.79,32.79,0,0,1,5.26-.45c5.07,0,9.26,1.4,12.52,4.18C397.71,99.58,396.75,112.07,396.71,112.6Zm204.65,910.18c-14.9,1.05-32.1-7-48.43-22.64l-14.31-13.7,17.1,10c.37.22,35.14,20.33,54.81,9.92a92.31,92.31,0,0,1-16.37-10.18c-19.4-14.53-39.25-56.21-58.45-96.52l-1.83-3.84c-12.55-4.72-29-8.69-38.1-1.87-5.57,4.21-5.72,13.1-5.91,23.41-.34,19.68-.81,46.64-43.82,54.92l-1.24-4.48c1.32-.48,32.29-12.4,29.06-53.16-1.53-19.26,2.3-31.94,11.38-37.69,9.26-5.85,23.39-4,42.06,5.59C509.81,851,478.07,831,454.55,816.16c-6-3.77-11.16-7-15.51-10.11-1.14-.79-2.26-1.64-3.33-2.53a81.18,81.18,0,0,0,.56,12.47c.73,6.59,3.21,14.68,6.08,24,5.71,18.6,12.8,41.74,11.46,69-.57,11.73-4.56,20.85-11.84,27.13-12.41,10.7-29.78,9.11-30.51,9l-13.36-1.32c21.34,22.53,44.85,37.81,66.29,51.75,10.65,6.92,20.71,13.46,29.3,20.2,28.44,22.33,45.31,43.39,58.25,72.71,3.81,8.63,8.63,14.2,13.95,16.11a11.8,11.8,0,0,0,8.81-.17l1.53-.78,1.21,1.23a42.11,42.11,0,0,0,11.06,8.18c-6.25-16.67-5.92-32,1-45.62l5.55-10.94-1.16,12.22a78.74,78.74,0,0,0,11.93,49.54,57.48,57.48,0,0,0,8.6.51c16.2-.21,27.78-15.1,33.53-24.61-12.34-36.43-41.59-46.56-41.89-46.65l-17.15-5.72,18,1.18c22.09,1.46,39.87,13.82,51.6,35.84,11.73-13.33,13.81-22.59,14.14-26.11a68.5,68.5,0,0,0-43.44-26.57l.42-4.62c21.1.32,38.39,6,51.46,17,8.41-15.32,2.71-27.93,2.25-28.88-10.13-16.83-25.65-17.47-31.86-17-9.25.75-16.48,5-17.89,8.54h0a12.85,12.85,0,0,1-4.87,6.29C621.18,1016.9,612,1022,601.36,1022.78ZM248.83,671c17.63,12.17,34.75,13.33,45.89,12.2C277.71,684.35,262.72,678.39,248.83,671ZM411.28,940.55,397.35,943a211.81,211.81,0,0,1-22.19-28L366,901.23l8.49,26.89c-7.09-1.89-22-6.25-31.09-11.85a270.07,270.07,0,0,0-29.1-15.33l-5.16-2.45-.39-.15c-.54-.14-54.22-14.65-101.13-24.74l-2.83-.42c-3-33-27.8-50.69-28.87-51.45l-10.27-7.19,7,10.4c20.89,31,20.19,48.74,20.18,48.91v.23l0,.23s.15,1.13.36,2.68a24.4,24.4,0,0,1-7.46,19.36l-3.32,3.19,4.54.79a42.4,42.4,0,0,0,6.46.6c17,1.87,74,10.35,103.88,41.54,12.48,13.07,22.52,23.27,30.07,29.77-41.36,21.88-32.39,54.17-32.29,54.5l3.28,11.13,1.26-11.53c2.4-21.94,19.9-38.38,46.82-44a22.07,22.07,0,0,0,7.89-1.28c.95-.3,1.95-.64,3-1,12.08-4,30.32-10.07,47.77,5.77,14.94,13.6,15.23,19.4,9.94,28.93-17.27-15.32-35.26-22-53.48-19.86l.17,4.63c.25,0,24.28,1.36,46.55,27.79a41.38,41.38,0,0,1-11.4,28.86l-.35.47a37.21,37.21,0,0,1-8.63,10.35c-9-22.48-25.23-38.35-48.18-47.2l-13.13-5,10.8,9c.25.21,24.95,21.1,35,52.53-1.77,2.27-10.33,13-19.83,19.13-6.42-17.36-19.63-31.65-39.31-42.52L295,1042.81l15.61,13.87c.2.19,19.92,17.93,27.27,42.83-3.45-.42-6.27-.57-8.79-.71-7.91-.44-11.88-.66-21.11-8.8-5.35-4.72-7.75-12.25-10.3-20.23-3.39-10.63-7.24-22.67-18.85-31.52-1.27-1-2.6-2-4-3.07-2-1.53-4.14-3.17-6.39-4.87a61.72,61.72,0,0,0-8.64-23.35c-13.82-22.5-26.13-37.5-48.15-47.58l-1.28-.59c-21.2-9.7-26.24-12-41.92-32.83l-4.1-5.44-.09,6.81c0,1.23.15,30.31,47.5,53.06,17.21,8.23,30.69,21.24,40.16,38.75-19-11.4-46.66-22.22-83.56-11.6l-4.12,1.18c-49.6,14.31-51.53,14.86-77.95-7.21-23.39-19.52-21-41.19-18.48-64.12.4-3.62.81-7.36,1.12-11.09.72-8.7,1.56-17.19,2.37-25.4,3-30.16,5.81-58.64,2.28-91.07a188.73,188.73,0,0,1-1.23-20.77c-2.48-63.39,4.71-152,95.4-189.93l13.08-5.47-14.14,1c-1.09.08-27,2.13-54.29,23.86-24,19.15-53.29,57.75-59.31,133.64-11.35-27.44-21.64-65.51-28-104.2-7.19-43.36-7.56-75.33-7.86-101-.12-11-.25-21.46-.9-31.11a149,149,0,0,1,.95-32C22.78,451.06,36.06,406,67.93,377.07l7.37-6.68-9.57,2.72c-.69.19-15.86,4.71-32.48,26.41-.38-26.12,11.32-49.7,11.45-50l-3.92-2.47c-22.67,29.32-21.51,55.7-18.56,69.34-1.82,3.3-3.55,6.68-5.16,10.09-2.9-15.11-3.66-33.63-3.67-33.84l-.24-5.91c21.83-43.1,42.1-60.17,61.73-76.7l.22-.18C93.16,294.7,142.83,276.22,176.53,283l12.35,2.48-.34,1.4,1.85,1c.59.31,1.19.62,1.76,1a186,186,0,0,0,26.09,12.82c18.62,7.86,33.33,14.06,48.63,45.19,25.8,52.5,23.62,94.22,20,114.49-.29,1-2.42,8-5.63,16.31,1.15-8.45,4.44-35.86,2-56.35-2.88-24-11.12-43.08-28.53-76.82h0c-17.28-33.54-46-37.91-47.19-38.08l-14.58-2,13.24,6.44c.25.12,25.31,12.47,35.82,31.37,10.11,18.21,23.25,47.08,29.8,73.54,6.16,24.9,4.47,63.63,4.45,64l4,.39c-3.9,9.75-9.13,20.64-14.57,25.71l-2.89,2.66c-1.74,1.6-3.5,3.21-5.22,4.85,2.79-4.55,7.48-15.1,4.57-31.51h0c-.87-4.93-1.68-10.75-2.54-16.91-2.95-21.24-6.29-45.32-15.11-56.31-10.88-13.58-34.1-39.35-34.33-39.61l-10.86-12,7,14.61c7,14.49,24.35,40.77,32.22,50.74,4.36,5.52,5,10.57,6.4,20.63.89,6.61,2.11,15.66,4.94,28.1,6.74,29.63,2,42.35,2,42.47l-3.75,9.33c-3.62-11.18-8.51-32.2-13.68-71.64-4.32-33.05-16.09-56.81-35-70.62a68,68,0,0,0-48.7-12.33l-18.31,3.31,18.56,1.3c46.42,3.28,67.43,52.49,68.36,78.11,0,.45,0,.91.05,1.37-.33-.84-.68-1.69-1-2.54l-6.15-15.19c-10.64-26.38-21.14-46.91-50.84-51.33l-17.61-2.63,16.35,7.07a70.79,70.79,0,0,1,39,42.4c3.7,10.88,8.32,22.95,13,34.54l-9.31-15c-18.28-29.5-75-75.89-105.23-73.08l.22,2.32-.11.1-.22-2.31c-29.86,2.76-57.17,52-58.32,54.09l-4,7.28,7.19-4.14c5.29-3.05,10.33-8.25,16.15-14.27,11.91-12.29,25.41-26.23,46.35-27.58,30.9-2,93.71,59.84,94.35,60.47l13.35,13.21c4.25,10.54,8.51,20.63,12.13,29,2.71,13.75,8.51,38.21,17.3,50.72.74,4.81,3.63,10.14,8.58,15.89a259.83,259.83,0,0,0-75.45,76.8c-38,59.71-28.17,112.73-13.23,146.7,16.13,36.69,40.83,58.94,41.87,59.87l3.37-3.19C171.94,797.38,160.47,751.67,173,705.6c10.22-37.58,34.54-67.75,53.13-86.45,20.5-20.6,41.43-34.63,49.35-37.78l34-5.79c-25.95,20.56-53.77,51.71-54.08,52l3.29,3.29c26.05-23.1,62.59-47.83,82.33-60.68l1.67-.28a197.69,197.69,0,0,0-38.76,38.1L291.56,624.9l15.78-13.7c16.2-14.07,39.39-29.84,54.74-40.27,3.44-2.34,6.51-4.43,9.09-6.21,5.18-1.31,10-2.8,14.29-4.16l-.06.07a12.75,12.75,0,0,0-2,3.34,20.6,20.6,0,0,1-1,1.94c-8.77,1.73-15.07,4.57-19.78,8.92l0,0c-6.39,5.9-8.95,14.63-6.35,21.75L360.36,608l.37-12.11c.18-6,3.86-12.12,9.61-16.08,4.79-3.32,10.15-4.39,15.81-5.53l3.53-.72,2.63-.57-.94-2.53c-.44-1.16-.17-3.81,1.18-6.42.92-1.78,2.13-3,3.16-3.32l-.69-3.07c2.08-.58,4.1-1.09,6.05-1.46l4-.77.19.13.85-.07A25.65,25.65,0,0,1,417.24,557c15.05,5.7,19,5.48,30.75,4.84l4-.21c7.15-.38,13.17,3.63,17.66,8.6l-4.77,1.88c-.39.16-8.94,3.62-11.51,11.86l-1.76-2.53.84,7.15c-6.19-5.09-17.34-11.44-35-12.24l-12.13-.56a11.25,11.25,0,0,1,3.24-6,19.52,19.52,0,0,1,11-5.18l7.3-.92-6.51-3.44a17.64,17.64,0,0,0-16.72.1l1.1,2-1.07-1.9A17.66,17.66,0,0,0,394.89,573a34.1,34.1,0,0,0-20,47.84l6,11.82-1.58-13.15a43.92,43.92,0,0,1,5.35-26.91c3.42-5.56,10.52-11,18-9.62l3.37.59-.68-3.35a11.94,11.94,0,0,1-.22-3l11.51,3.61c.29.09,28.72,9.11,37.32,20.8,1,1.95,4.56,4.14,16.35-.25,7.18-2.67,20.46-2.5,30.91,3.09,9,4.79,14.81,12.64,17.34,23.32l4.56-1c-.15-.83-3.89-20.45-19.92-30.23-9-5.46-19.88-6.7-32.51-3.69a12.25,12.25,0,0,0-2.26-9.8,6.9,6.9,0,0,1-.68-7.75l2.53-4.47a44.79,44.79,0,0,1,7,11.32c2,4.71,6.63,6.23,12.53,8.16s13.23,4.31,21.51,10.67c14.85,11.4,23.88,28.13,24.14,44.74.14,8.61-2,14.08-7,18.16a62,62,0,0,1-9.54,0c-.53-.11-1-.18-1.38-.24h0c0-.24,0-.58-.07-1.07a20.11,20.11,0,0,0-.6-3.78l.48-.5c5.51-5.89,5.54-10.77,5.56-14.33a8.23,8.23,0,0,1,.42-3.4c1.87-3.6,2.24-6.73,1.07-9-.68-1.35-2.23-3.08-5.74-3.63-7.22-1.15-23.83,7.25-30.12,12.24-4.25,3.47-6.07,8.6-6.83,12.68-2.54,1.2-7.64,3-11.79,2.13l-12.23-2.61,10.47,6.84a15.35,15.35,0,0,0,1.72.89l-12,7.25c-52.17,31.48-78,2.37-79.07,1.12L377,670.06h0v0l-2.33,0v.81l.53.67c9.64,12.2,21.23,18.9,34.44,19.92,26.58,2.06,50-19.41,51-20.33l11-10.25a29.84,29.84,0,0,0,16.41.4c4.11.86,6.83.59,8.54-.81a4.47,4.47,0,0,0,1.62-3.76,6.89,6.89,0,0,1,2.3-5.5,3.77,3.77,0,0,1,2.17-.94,21,21,0,0,1-.94,1.9c-1,1.85-1.93,3.6-.9,5.25,2.28,3.59,5.21,5.4,8.47,5.34a8.45,8.45,0,0,1-1.46,6.08c-4.31,5.39-25.18,25.31-25.4,25.52l3.05,3.51c1-.79,24.34-19.21,28.31-23a23.47,23.47,0,0,1,3.48-2.91L525,671a18.47,18.47,0,0,1-5.21,15.95,33.62,33.62,0,0,0-.3-4.7l-.45-3.31-3,1.57A48.06,48.06,0,0,0,503.51,690l-.12.14a15.84,15.84,0,0,1-8.12,5.42l-1.94.54.26,2c1.51,11.52-3.18,18.34-7.28,22,.89-8.24-2.46-16.68-2.64-17.1l-2.59-3.7-1.83-11.69-17,18.64,1.17,1.54c.27.36.53.73.78,1.1l-.33.44-2.63-3.43-1,5c-.52,2.57-.91,4.88-1.2,7-5.28,12.7-4.83,27.66,1.2,39.14,4,7.64,11.51,13.12,21.17,15.44l1.37.33.92-1.06c4.05-4.63,10.1-13.21,10.88-23.84a48.24,48.24,0,0,1,3.75,21.87l-.2,3.16,3.07-.76a15.61,15.61,0,0,0,8.52-5.47l.15-.21a85.74,85.74,0,0,1,11.65-14.79l.24-.24.16-.31c2.59-4.93,6.09-13.66,4.82-23.1a45.7,45.7,0,0,1,7,15.39l.32,1.29,1.27.38c5.36,1.6,9.31,10.56,9,20.4-.22,7.31-3.19,15.31-5.73,20.88l-1-11.82L534,784a80.31,80.31,0,0,1-15.08,24.23l3.47-10.8-6,4.85c-.16.13-13.53,10.73-27.41,12.7l7.06-4.55-7.84,0c-.19,0-18.92-.2-28.87-10.89A131.23,131.23,0,0,1,450.14,788c-6.89-9.38-13.39-18.25-21.41-15.75-.74.2-4,1.35-6.69,6-4.22,7.43-6.84,23.92,4.69,60.25,12.4,39.14,13.46,71.61,2.9,89.09C425.28,934.8,419.11,939.16,411.28,940.55Zm68.37-304.88c-.4-.18-40.91-16.94-62.42,22.75l4,2.37c.84-1.3,21-31.66,56.83-20.76Zm-103.29,17.5.1,1.69,1.58.48a21.15,21.15,0,0,0,6.28,1,24.5,24.5,0,0,0,12.88-3.9c16.64,7.63,26.88-7,30.3-11.86.33-.46.6-.86.91-1.26a42.59,42.59,0,0,0,4.85-9.71c6.17-4.49,31.85-13.48,50.09,5.12l3.55-3c-.4-.57-10.09-13.9-26.75-16.28-11.09-1.59-22.49,2.05-33.9,10.83-1.74-.12-3.59-.42-5.53-.73a53.3,53.3,0,0,0-8.64-.91h-5.7l.26-.62-1,.62h-.84l.39.27-4.8,3c-3.77,2.36-5.59,5.52-7.69,9.18-.88,1.54-1.88,3.29-3.14,5.17a21.81,21.81,0,0,1-11,8.32C377.8,650.87,376.3,651.44,376.36,653.17ZM69.17,329l3.35,3.22c25.42-22.11,39.66-28.35,53.21-30.93,9.5-1.79,18.6,5.8,31.23,16.3,4.09,3.41,8.73,7.28,13.77,11.09,5.64,4.29,9,7.08,11.76,9.32,7.3,6,10.32,8.48,38.43,25.34,37.31,22.38,44.66,99,44.73,99.82l4.64-.33c-4.71-91.71-43.12-115.17-63.75-127.78-8.51-5.19-16.42-11.17-24.06-16.94-12.85-9.72-26.14-19.76-42.53-26.25-26.87-10.64-53.6,16-54.73,17.1l1.52,1.5-1.65-1.32Zm44.45,28.07c2.09,1.13,4.25,2.31,6.61,3.41l1-2.1h0v0l-1,2.11c15.94,7.49,32.87,2.55,33.58,2.34l11.61-3.48c11,7.81,32.6,15.62,33.54,16L209.08,379l-7.7-7.49a162.23,162.23,0,0,0-27.94-21.8c-5.11-3.19-10.05-8.25-15.28-13.6-11.78-12.07-25.15-25.76-45.88-23.5h0c-29.46,3.24-52.48,42.54-53.45,44.21l3.89,2.55c28.4-38.27,48.61-37.85,64.65-32.38,9.39,3.21,17.73,12.15,25.08,20.05a120,120,0,0,0,10.87,10.76l-10.29.53c-11,.53-19.67-4.79-28.09-10-7.39-4.53-14.37-8.82-22.39-8.9h-.22c-17.15,0-32.47,20.52-33.11,21.4l-11.08,15,14.43-11.86C94,346.46,102.23,350.93,113.62,357.11ZM67.27,382.82l3.58,3c24.66-26.73,51.79-13,52.93-12.44l2.3-4c-.75-.45-18.45-11.22-27.61-11.6-13.23-.48-21,11.08-21.74,12.31ZM35.13,459l10.43-9.41c8.53-7.69,33.06-25.93,44-18.1l1.88,1.34L92.78,431c.06-.09,6.69-9,20.45-10.06,16.56-1.36,36.7,9.22,58.27,30.52l3.53-3c-1.15-1.59-28.5-39.08-58.44-42.67a34.87,34.87,0,0,0-26.77,7.78c-5.63-1.83-26.4-5.24-47.85,33.21Zm-8.49,64.27,4.65.31c0-.37,3.71-36.43,25.69-52.54,9.93-7.27,22.23-9.41,36.55-6.35l2,.42.69-1.91A24.24,24.24,0,0,1,112,449.48c11.53-3.43,33.13-1.61,70.6,26.53l17.11,12.85-13.95-16.23c-1.33-1.55-32.95-37.92-65-37.93h0c-11.48,0-21.57,4.69-30,14-5.12-1.53-21.74-5.25-37,4.92C37.06,464.64,28,488.08,26.64,523.25Zm2.75,43.08c.37-.8,36.94-79.14,80.05-60.75l1.91.81,1-1.79c.07-.12,7.11-12.14,24.59-16.52,20.2-5.06,45.43,1.78,75,20.33l15.2,9.54-12.26-13.11c-1.41-1.5-34.92-36.87-70.8-35.78-14.72.43-27.69,7-38.59,19.47a44,44,0,0,0-34.21,1.32C50.43,499.47,34.87,524.69,25,564.8Zm126.39-67.09c-.71-.39-17.65-9.18-39.83,9.82-5.25-.25-28.56-.13-36.39,20.88l-2.71,7.29,6.27-4.6c.23-.17,22.78-16.45,40.94-8.07l2.19,1,.93-2.22c.09-.21,9.08-21.09,27.32-19.74l10.83.79Zm-5.86,47,1.36.06.72-1.16c.22-.36,23.2-36.35,66-18.57l10.91,4.54-8.38-8.34c-.77-.76-19.13-18.69-43.32-17.63-14.42.67-27.73,8-39.56,21.79-5-.23-23.72-.07-44.82,12.6-21.91,13.15-50.46,42.91-62.56,110.09-.28.86-.42,1.33-.43,1.37l.17,0s0,.1,0,.15l1.38.24.71.2h0l2.23.65s0-.14.1-.32l.16,0c.07-.41.15-.82.22-1.24C39.08,637.45,72.43,542.87,149.92,546.19Zm38.22,40.07a164.28,164.28,0,0,1,37.07-17.61L242.46,563l-18.12,1.14c-3.41.21-33.54,2.29-41.88,9-4.42,3.57-10.39,1.05-13.73-.91,35.14-25.7,71.39-16,71.76-15.87l1.36-4.45c-58.47-19.18-85.1,6.06-89.41,10.74-64.68,11.55-74.27,79.11-74.36,79.79L76.71,653l5.65-9c40.5-64.14,66.32-59.54,83.41-56.5l1.07.19C174.81,589.13,181.7,590.36,188.14,586.26ZM87.4,746.75C83.81,772,85.19,798,87,815.41c1,9.91,2.28,18.07,3.16,23.17,1.66,9.71,1.76,9.78,2.74,10.4l1.26.81,2.52-1.66-.23-1.48c-12.32-81.87,14.66-143.8,39.46-181.33,26.93-40.75,57.2-62.39,57.5-62.61l15.74-11.12-17.94,7.06C112,629.81,92.19,712.59,87.34,746.74Zm.45,180.59a90.29,90.29,0,0,1,35.59-51.74c29.61-20.88,20.09-49.51,14.39-66.62-.45-1.36-.88-2.66-1.27-3.87l-2.21.7h0v-.06l2.21-.7c-4.7-14.84-9.15-28.85,3.69-96.75l3.94-20.87L135.82,707c-1.21,2.83-29.63,69.9-19,114.84,5,21.13-2.74,31.65-12.56,45-10.12,13.72-21.58,29.27-21,60l.32,17.43ZM129.53,949c-12-16.22-13.43-31.24-13.44-31.39h-4.64c-1.89,22.62,3.83,40.67,17,53.66,20.33,20.08,52.84,22.84,69.19,22.84,5.73,0,9.47-.34,10-.39l20-1.94-20-2.69C172.4,984.31,145.36,970.44,129.53,949ZM438.26,734.54,421.08,741c-24.28,9.11-44.29,8.85-59.45-.77-25.89-16.42-29.32-55.06-29.35-55.44l-4.64.33c2.36,38.22,13.14,62.22,32.05,71.33a42.8,42.8,0,0,0,18.74,4.07c22.45,0,43.67-14.64,44.81-15.43Zm-55.92,3.13a33.87,33.87,0,0,0,7.36.78c16.36,0,30.43-10.9,31.11-11.44l14.44-11.37-16.82,7.41c-39.2,17.27-57.42-9.45-58.18-10.6l-4,2.34C362.76,727.6,371.54,735.3,382.34,737.67Zm-33.79-68.4c6.41,22,17.53,36,33.05,41.6A48.37,48.37,0,0,0,398,713.59c23.55,0,45.47-14.73,46.6-15.5L442.33,694c-22.83,10-42.76,11.61-59.23,4.65C361.25,689.46,353.05,668,353,667.81Zm-118.31-5.44c7.09,12.93,29.41,37.11,50.26,37.11.75,0,1.49,0,2.24-.1,26.35-2.25,38.11-19.11,38.59-19.83l3.54-5.2-9.39,2.54c.77-.3,1.54-.63,2.32-1l.44-.2.33-.36c5.43-5.89,8.58-12.07,9.37-18.35l.61-4.88-5.12,3.22c2.56-6.31,5.77-15.63,5.77-22.79v-6.26L323.84,634c.41-4.49,1.37-10.33,3.67-14.36,4.47-7.83,11.71-18.35,11.78-18.45l2.34-3.4-4.11-.25c-2.71-.13-11.39,3.57-24.52,14.5l-.61.51-.17.77a52.53,52.53,0,0,0,0,22.94c1.21,6.32-3.13,14.14-7,19.64,1-7.83,1.64-19-1.76-26.11a23,23,0,0,1-1.54-4.1l-.9-3.28-2.73,2c-2.55,1.88-5.26,3.76-8.06,5.56l-1,.64-.07,1.18a54,54,0,0,1-4.61,19,18.48,18.48,0,0,1-12.15,10c3.07-4.29,3.35-9.22,3.55-12.87l0-.51c.08-1.58.39-3.76.66-5.47l.67-4.38-4,1.93c-8.61,4.15-16.54,6.94-21.79,7.65-4,.55-7.25.72-9.83.85-5.84.29-9.69.49-13.21,5.09l1.85,1.41h0l0,.17-1.84-1.41C226.86,655.28,227.45,658.75,230.24,663.83ZM288,873.69c-43.51-23-69.6-53.06-77.56-89.28-5.63-25.65,0-46,1.84-51.62a2.37,2.37,0,0,0-1.24-3.15l-2-.81-1,1.93c-14.1,28-16.24,54.25-6.35,77.9,20.08,48,81.86,68.46,84.48,69.3Zm7.89-15.12c-86.06-60-52.35-139-44.71-154.22q1.23-2.46-.62-3.59l-1.85-1.06-1.26,1.72c-21.57,29.4-29,58.05-22.22,85.14,12.3,48.84,66,74.93,68.33,76Zm96.95-5.1-3.69-2.79c-15,16.25-29.62,22.53-43.45,18.68-48.81-13.62-76.14-145.15-76.41-146.47l-4.58.77C278.68,828.12,302,884.52,334,891.31a32,32,0,0,0,6.62.69C368.83,892,391.8,855.16,392.83,853.47Zm17.63-67.31-10,7.93c-12.42,9.83-24.95,13-37.24,9.43-38.21-11.1-63.58-82.68-63.83-83.4L295,721.54c19,64.38,41.33,98.63,66.35,101.82a31.38,31.38,0,0,0,3.83.24c22.59,0,38.08-25.35,38.76-26.49ZM458.13,589.3a.86.86,0,0,0,.22-1.2.87.87,0,0,0-1-.34.89.89,0,0,0-.38.31l-.4.55.32.47a.94.94,0,0,0,.56.36A.89.89,0,0,0,458.13,589.3Z"/><path class="cls-1" d="M536,915.83a25.91,25.91,0,0,0,25.9,25.89h91.74a2.4,2.4,0,1,0,0-4.79H588.56a21.11,21.11,0,0,1,0-42.22h112a25.89,25.89,0,0,0,0-51.78H623.09a2.39,2.39,0,0,0-2.39,2.39,2.42,2.42,0,0,0,.7,1.7,2.38,2.38,0,0,0,1.69.7H673.9a21.1,21.1,0,1,1,0,42.2h-112A25.91,25.91,0,0,0,536,915.83Zm37.64,21.1H561.94a21.11,21.11,0,0,1,0-42.22h11.73a25.77,25.77,0,0,0,0,42.22Zm115.12-89.21h11.73a21.1,21.1,0,1,1,0,42.2H688.79a26.06,26.06,0,0,0,7.14-7.54A25.77,25.77,0,0,0,688.79,847.72Z"/><path class="cls-1" d="M562,98.68a21.79,21.79,0,0,1-21.4,22.17H451.85a25.79,25.79,0,0,0,0,51.57H650.32a21.78,21.78,0,0,1,0,43.56H574.11a25.82,25.82,0,0,0-25.79,25.77,2,2,0,0,0,2,2h0a2,2,0,0,0,2-2A21.8,21.8,0,0,1,574.11,220H704.22a25.79,25.79,0,0,0,0-51.57H478.79a21.78,21.78,0,0,1,0-43.56H593.73a25.79,25.79,0,0,0,0-51.57H404.14v4H539.83A21.79,21.79,0,0,1,562,98.68ZM691,216a25.73,25.73,0,0,0,0-43.56h13.19a21.78,21.78,0,0,1,0,43.56Zm-26.95-43.56h13.19a21.78,21.78,0,0,1,0,43.56H664.08a25.73,25.73,0,0,0,0-43.56ZM465,124.85a25.73,25.73,0,0,0,0,43.56H451.85a21.78,21.78,0,0,1,0-43.56Zm115.07-4a25.74,25.74,0,0,0,0-43.57h13.61a21.79,21.79,0,0,1,0,43.57ZM554,77.28h12.76a21.79,21.79,0,0,1,0,43.57H554a25.75,25.75,0,0,0,0-43.57Z"/><path class="cls-1" d="M284.22,1203.27a18.19,18.19,0,0,1,17.85-18.49h74a21.51,21.51,0,0,0,0-43H210.54a18.17,18.17,0,0,1,0-36.34h63.58a21.53,21.53,0,0,0,21.51-21.5,1.66,1.66,0,0,0-1.66-1.67h0a1.67,1.67,0,0,0-1.67,1.67,18.18,18.18,0,0,1-18.17,18.16H165.59a21.51,21.51,0,0,0,0,43h188a18.17,18.17,0,0,1,0,36.34H257.76a21.51,21.51,0,0,0,0,43H415.92v-3.34H302.72A18.18,18.18,0,0,1,284.22,1203.27Zm-107.64-97.86a21.47,21.47,0,0,0,0,36.34h-11a18.17,18.17,0,0,1,0-36.34Zm22.49,36.34h-11a18.17,18.17,0,0,1,0-36.34h11a21.46,21.46,0,0,0,0,36.34Zm166,39.69a21.46,21.46,0,0,0,0-36.34h11a18.17,18.17,0,0,1,0,36.34Zm-96,3.34a21.46,21.46,0,0,0,0,36.34H257.76a18.17,18.17,0,0,1,0-36.34Zm21.77,36.34H280.24a18.17,18.17,0,0,1,0-36.34h10.63a21.48,21.48,0,0,0,0,36.34Z"/></g></g></svg>