<svg xmlns="http://www.w3.org/2000/svg" viewBox="0 0 805 1350.26"><defs><style>.cls-1{fill:#fcbd1f;}</style></defs><title>右虎_黃</title><g id="圖層_2" data-name="圖層 2"><g id="圖層_1-2" data-name="圖層 1"><path class="cls-1" d="M389.77,601.46a44.69,44.69,0,0,1,8.78-1.32,12.14,12.14,0,0,1,6.85,2c1.31.84,1.63,4.37,0,9.72-13.15-2.51-28.69-5.34-32.85-5.55a26.26,26.26,0,0,0-4.82.46,31.9,31.9,0,0,1,11-3.43A94.83,94.83,0,0,0,389.77,601.46Zm404-113c1.42,3.9,2.77,7.89,4,11.93,6.16-10.36,12.71-27.64-.36-59.15C799.88,457.19,796.46,476.74,793.76,488.49ZM108.29,1103.28l.42-.15h0ZM598.61,284.55c.6-1.41,13.93-32,36.77-37.89A179.92,179.92,0,0,0,618,234.74c-4.11-2.46-8.49-4.9-13.39-7.46-16,1.57-36.29,8.09-43.5,30l-2.26,6.85c16.77,11.55,27,23.07,33,36.28Zm-193.85-273a92.62,92.62,0,0,0-14.09,11.62c13.82-5.61,26.78-2.38,37,9.27,16.17-7.33,37.2-4.34,62.6,8.9a11.5,11.5,0,0,0,12.56-19.17C490.13,12,467.42,0,443,0A67.33,67.33,0,0,0,404.76,11.57Zm364.86,707Zm-161-411.28c7.61-3.95,20.75-8.87,40.18-9.94,1.24-.05,2.47-.07,3.71-.07A101.44,101.44,0,0,1,685,302.61,229.39,229.39,0,0,0,657.76,267c-21.29-6-39.71.77-54.77,20.13l-10.84,13.94a75.85,75.85,0,0,1,4.27,12.51ZM688,541.89Zm-290.94-364a166,166,0,0,0,37,27.07c-1.65-3.5-11-25.71,9.8-41.28a215.46,215.46,0,0,1-22.37-19.09c-16.66,2.31-24.95,10.8-24.64,25.25Zm69.47,41.63c17.76,7,33.22,13.49,46.65,19.66l-4.1-6.76c-.52-.86-12.05-20.3-1.32-39.86-16.07-4.78-32.74-10.2-47.33-18.13-14.41,6.77-21.57,16.77-21.28,29.73l.08,3.51q7,3.57,14.58,6.72c.21-8.75,2-18.93,8.32-24.38,3.85-3.32,8.86-4.47,14.9-3.43l12,2.1-11.86,2.92a16.34,16.34,0,0,0-9.07,7.28C465.05,204,464.51,211,466.52,219.52Zm89.56,36.68c.12-1.29,3-29.34,19.4-42.06-15.55-6-31.52-11.28-47.56-15.73-10.68,9.08-15.42,20-14.1,32.41l1,9.11c16.49,7.64,29.89,14.83,40.74,21.95ZM369.38,137.74a121.38,121.38,0,0,0,24.22,36.64L392,171c-.27-.57-6.6-14.11-.77-26.05,3.19-6.54,9.33-11.22,18.28-13.93a86.35,86.35,0,0,1-10.37-17.58c-5.8-1.84-13.47-3.16-19.06-.09-3.64,2-6.16,5.77-7.48,11.21Zm-5.29-64.86C370,64.34,377.41,60,385.87,60a32.44,32.44,0,0,1,14.55,3.83c.66-1.58,1.35-3.15,2.09-4.7-7.9-3.84-18.82-6.43-29.5-.11l-6.58,3.9a105.9,105.9,0,0,0-3,10.88Zm5.49-17.49a27.79,27.79,0,0,1,22.05-10.8,38.39,38.39,0,0,1,16.86,4.3,54.34,54.34,0,0,1,8.65-9.65c-7.89-13.42-28.1-9.68-28.31-9.64l-4.75.92a102,102,0,0,0-15.34,26.1Zm-9.82,644.1a5,5,0,0,0,0-3.9l-2.47-5.86-5.19,3.71a5.21,5.21,0,0,0-1.9,2.59,5.1,5.1,0,0,0,9.58,3.46Zm15.46-597.2c3.59-3.07,8.21-4.61,13.8-4.61a36.5,36.5,0,0,1,5.81.5,56.52,56.52,0,0,1,1.42-22.49c-16.35-9.13-27.89.19-28.38.6l-5.74,4.85a105.75,105.75,0,0,0-.5,26.45,107.91,107.91,0,0,0,6.88,28l-1-11.41C367.49,123.59,366.43,109.82,375.22,102.29ZM111.7,1111a14.18,14.18,0,0,1-5.38-6.94l0,0c-1.55-3.89-9.53-8.59-19.72-9.42-6.85-.55-24,.16-35.14,18.72-.5,1-6.79,15,2.48,31.85,14.41-12.1,33.48-18.41,56.74-18.76l.48,5.1a75.56,75.56,0,0,0-47.92,29.29c.37,3.88,2.66,14.09,15.61,28.79,12.93-24.27,32.54-37.91,56.89-39.51l19.89-1.31-18.91,6.31c-.32.11-32.58,11.27-46.19,51.45,6.34,10.48,19.11,26.9,37,27.13a63.92,63.92,0,0,0,9.48-.56,86.76,86.76,0,0,0,13.15-54.63l-1.28-13.48,6.13,12.07c7.62,15,8,31.93,1.08,50.3a46.21,46.21,0,0,0,12.2-9l1.34-1.35,1.68.86a13,13,0,0,0,9.72.18c5.87-2.1,11.19-8.24,15.39-17.76,14.26-32.33,32.87-55.56,64.23-80.17,9.47-7.44,20.56-14.65,32.31-22.29,23.64-15.37,49.57-32.22,73.1-57.06l-14.73,1.46c-.81.08-20,1.82-33.65-10-8-6.92-12.42-17-13.06-29.92-1.48-30,6.35-55.53,12.64-76,3.17-10.34,5.91-19.26,6.71-26.53a90.07,90.07,0,0,0,.62-13.74c-1.19,1-2.42,1.91-3.67,2.79-4.8,3.39-10.51,7-17.11,11.14-25.94,16.34-60.93,38.37-80.24,73.21,20.6-10.54,36.18-12.62,46.38-6.16,10,6.34,14.24,20.32,12.55,41.56-3.56,44.95,30.6,58.09,32.05,58.63l-1.37,4.93c-47.42-9.13-47.94-38.86-48.32-60.57-.2-11.36-.38-21.17-6.52-25.8-10-7.53-28.17-3.15-42,2.05l-2,4.24c-21.17,44.45-43.06,90.41-64.45,106.44a102.7,102.7,0,0,1-18.05,11.23c21.68,11.47,60-10.7,60.44-10.94l18.85-11-15.78,15.11c-18,17.25-37,26.13-53.4,25C130.14,1127.05,120,1121.38,111.7,1111ZM480,753.42c12.29,1.24,31.16,0,50.6-13.46C515.29,748.09,498.76,754.67,480,753.42ZM331.23,1022.9c-11.65-19.28-10.48-55.08,3.2-98.24,12.71-40.07,9.83-58.25,5.17-66.44-2.94-5.18-6.56-6.44-7.38-6.67-8.85-2.75-16,7-23.61,17.37a145.19,145.19,0,0,1-10.07,12.7c-11,11.79-31.63,12-31.84,12l-8.65,0,7.79,5c-15.31-2.17-30-13.87-30.23-14L229,879.33l3.82,11.91a88.49,88.49,0,0,1-16.62-26.72l-4.06-10.26-1.05,13c-2.8-6.15-6.08-15-6.31-23-.36-10.85,4-20.73,9.9-22.49l1.41-.42.35-1.43a50.34,50.34,0,0,1,7.76-17c-1.41,10.41,2.45,20,5.31,25.47l.17.34.27.27a94.51,94.51,0,0,1,12.84,16.31l.17.23a17.29,17.29,0,0,0,9.39,6l3.39.83-.21-3.48a52.89,52.89,0,0,1,4.13-24.12c.85,11.73,7.53,21.19,12,26.29l1,1.17,1.51-.36c10.65-2.56,18.94-8.61,23.34-17,6.66-12.65,7.15-29.15,1.32-43.15-.31-2.4-.75-4.94-1.32-7.77l-1.11-5.54-2.9,3.78-.37-.49c.28-.41.57-.81.87-1.21l1.28-1.7-18.73-20.56-2,12.9-2.87,4.08c-.19.47-3.88,9.77-2.91,18.86-4.52-4-9.69-11.55-8-24.25l.29-2.21-2.14-.6a17.31,17.31,0,0,1-9-6l-.15-.16A53.13,53.13,0,0,0,236,750.37l-3.26-1.73-.49,3.65a36,36,0,0,0-.34,5.18,20.4,20.4,0,0,1-5.75-17.59l8.45,1.19a26.29,26.29,0,0,1,3.84,3.21c4.38,4.16,30.12,24.48,31.22,25.34l3.36-3.87c-.23-.22-23.25-22.2-28-28.14a9.26,9.26,0,0,1-1.61-6.7c3.59.06,6.82-1.94,9.33-5.89,1.14-1.82.11-3.75-1-5.79-.29-.55-.75-1.41-1-2.09a4.11,4.11,0,0,1,2.4,1,7.57,7.57,0,0,1,2.53,6.07,5,5,0,0,0,1.79,4.14c1.88,1.55,4.89,1.84,9.42.89a32.74,32.74,0,0,0,18.09-.44l12.18,11.31c1.08,1,26.91,24.69,56.21,22.42,14.57-1.13,27.35-8.52,38-22l.58-.74V739l-2.57-.05v0h-.06l-1.89-1.62c-1.18,1.38-29.66,33.48-87.19-1.23l-13.26-8a14.31,14.31,0,0,0,1.89-1l11.55-7.55-13.49,2.89c-4.57,1-10.2-1-13-2.35-.85-4.5-2.85-10.16-7.54-14-6.93-5.51-25.25-14.77-33.22-13.5-3.86.6-5.57,2.51-6.33,4-1.29,2.56-.88,6,1.19,10a9.09,9.09,0,0,1,.46,3.75c0,3.93.05,9.31,6.14,15.8.16.19.34.37.52.55a22.64,22.64,0,0,0-.66,4.17c0,.54,0,.91-.08,1.18h0c-.44.07-.94.14-1.53.27a69.71,69.71,0,0,1-10.52-.06c-5.56-4.49-7.87-10.53-7.72-20,.29-18.31,10.24-36.76,26.61-49.34,9.13-7,17.22-9.65,23.72-11.76s11.65-3.8,13.82-9a49.26,49.26,0,0,1,7.72-12.49l2.79,4.92a7.61,7.61,0,0,1-.75,8.55A13.5,13.5,0,0,0,286,653.9C272,650.58,260,652,250.09,658c-17.67,10.78-21.8,32.42-22,33.34l5,1.05c2.8-11.78,9.23-20.44,19.12-25.72,11.53-6.16,26.17-6.35,34.09-3.4,13,4.83,16.89,2.42,18,.26,9.48-12.88,40.83-22.83,41.15-22.93l12.69-4a12.57,12.57,0,0,1-.23,3.28l-.76,3.69,3.72-.65c8.27-1.46,16.1,4.48,19.87,10.61a48.42,48.42,0,0,1,5.9,29.68L385,697.69l6.58-13a37.68,37.68,0,0,0-16.65-50.55,38.73,38.73,0,0,0-5.38-2.21,19.44,19.44,0,0,0-9.65-13.82l-1.18,2.09,1.22-2.23a19.44,19.44,0,0,0-18.45-.12l-7.18,3.8,8.06,1a21.47,21.47,0,0,1,12.1,5.71A12.52,12.52,0,0,1,358,635l-13.38.61c-19.46.89-31.76,7.88-38.59,13.5l.93-7.88L305.06,644c-2.84-9.07-12.27-12.9-12.7-13.07l-5.26-2.07c4.95-5.49,11.59-9.9,19.47-9.49l4.41.23c13,.71,17.32,1,33.91-5.34a28.43,28.43,0,0,1,12.3-1.67l.95.08.21-.15,4.38.85c2.14.42,4.37,1,6.67,1.61l-.77,3.38c1.14.3,2.48,1.71,3.49,3.67,1.49,2.88,1.79,5.8,1.3,7.08l-1,2.79,2.9.62c1.31.29,2.61.55,3.9.8,6.24,1.25,12.14,2.44,17.43,6.1,6.34,4.36,10.4,11.16,10.6,17.73l.4,13.36,4.58-12.56c2.86-7.85,0-17.49-7-24l0,0c-5.19-4.79-12.14-7.93-21.81-9.84a22.37,22.37,0,0,1-1.13-2.14,14,14,0,0,0-2.25-3.68l-.07-.08c4.74,1.5,10,3.15,15.76,4.59,2.84,2,6.23,4.27,10,6.84,16.92,11.51,42.5,28.9,60.37,44.41l17.4,15.11-13.65-18.57a218.25,218.25,0,0,0-42.75-42l1.84.31C450.7,643,491,670.27,519.73,695.74l3.62-3.63c-.34-.38-31-34.72-59.64-57.39l37.51,6.38C510,644.57,533,660,555.63,682.76c20.51,20.62,47.32,53.89,58.59,95.33,13.82,50.8,1.18,101.21-37.58,149.83l3.72,3.51c1.15-1,28.38-25.56,46.18-66,16.46-37.45,27.3-95.92-14.6-161.77A286.41,286.41,0,0,0,528.74,619c5.46-6.34,8.64-12.23,9.47-17.53,9.69-13.79,16.08-40.76,19.07-55.93,4-9.24,8.69-20.37,13.38-32l14.72-14.57c.7-.69,70-68.9,104-66.68,23.09,1.49,38,16.86,51.11,30.42,6.43,6.64,12,12.37,17.81,15.73l7.93,4.57-4.4-8c-1.26-2.31-31.39-56.6-64.31-59.65l-.24,2.55-.12-.12.24-2.55c-33.3-3.1-95.89,48.05-116,80.58l-10.27,16.57c5.14-12.77,10.23-26.08,14.31-38.09a78.13,78.13,0,0,1,43-46.76l18-7.78-19.43,2.89c-32.75,4.87-44.33,27.52-56.06,56.61-2.32,5.71-4.6,11.35-6.78,16.74l-1.13,2.8.06-1.5c1-28.25,24.19-82.52,75.38-86.14L659,409.65,638.81,406c-1.15-.21-28.45-4.87-53.71,13.59-20.85,15.23-33.83,41.43-38.6,77.87-5.7,43.5-11.08,66.68-15.08,79l-4.14-10.29c0-.13-5.26-14.16,2.18-46.83,3.12-13.72,4.47-23.7,5.45-31,1.49-11.09,2.25-16.66,7.05-22.75,8.68-11,27.84-40,35.53-55.95l7.75-16.11-12,13.28c-.26.28-25.86,28.7-37.86,43.67-9.72,12.12-13.41,38.67-16.66,62.09-.94,6.8-1.84,13.22-2.81,18.66h0c-3.21,18.09,2,29.72,5,34.75-1.9-1.82-3.84-3.59-5.76-5.35L512,557.72c-6-5.59-11.76-17.59-16.07-28.35l4.43-.43c0-.43-1.89-43.14,4.91-70.59,7.22-29.18,21.71-61,32.86-81.1,11.59-20.85,39.22-34.46,39.5-34.6l14.6-7.1-16.08,2.25c-1.33.19-33,5-52,42h0C505,417,495.85,438.07,492.68,464.51c-2.71,22.59.93,52.82,2.2,62.13-3.54-9.18-5.89-16.89-6.22-18-4-22.35-6.4-68.35,22-126.25,16.87-34.33,33.09-41.17,53.63-49.83,8.52-3.6,18.19-7.68,28.77-14.14.63-.38,1.29-.72,1.94-1.06l2-1.06-.38-1.55L610.33,312c37.17-7.44,91.94,12.94,111.86,29.69l.23.19c21.65,18.24,44,37.06,68.08,84.59l-.26,6.51c0,.24-.86,20.65-4,37.32-1.78-3.76-3.68-7.48-5.69-11.12,3.25-15.05,4.53-44.14-20.47-76.47l-4.33,2.73c.15.28,13,26.29,12.64,55.09-18.33-23.94-35.07-28.92-35.82-29.13l-10.55-3,8.12,7.36c35.14,31.85,49.79,81.59,55.89,117.71a164.6,164.6,0,0,1,1,35.3c-.73,10.65-.86,22.14-1,34.31-.33,28.33-.73,63.59-8.66,111.4-7,42.67-18.38,84.65-30.9,114.91-6.64-83.69-38.92-126.26-65.41-147.38-30.06-24-58.66-26.22-59.86-26.31l-15.59-1.1,14.42,6C720,702.47,728,800.23,725.23,870.12A210.11,210.11,0,0,1,723.88,893c-3.9,35.76-.79,67.17,2.5,100.43.9,9,1.82,18.42,2.62,28,.34,4.12.8,8.24,1.24,12.23,2.78,25.3,5.41,49.19-20.38,70.72-29.14,24.33-31.27,23.72-86,7.95l-4.54-1.31c-40.69-11.7-71.21.23-92.14,12.79,10.44-19.3,25.3-33.65,44.28-42.73,52.22-25.08,52.4-57.15,52.39-58.51l-.1-7.51-4.52,6c-17.29,23-22.85,25.51-46.23,36.21l-1.42.65c-24.28,11.11-37.85,27.65-53.09,52.46a67.88,67.88,0,0,0-9.52,25.75c-2.5,1.87-4.84,3.68-7.05,5.38-1.54,1.19-3,2.32-4.42,3.38-12.8,9.75-17,23-20.78,34.76-2.81,8.8-5.46,17.1-11.36,22.31-10.18,9-14.55,9.22-23.27,9.7-2.79.15-5.9.32-9.7.79,8.1-27.46,29.84-47,30.07-47.23L479.7,1150l-20.16,11.13c-21.7,12-36.27,27.75-43.35,46.89-10.47-6.8-19.91-18.59-21.86-21.09,11.07-34.66,38.31-57.69,38.58-57.93l11.91-9.94-14.47,5.58c-25.32,9.75-43.18,27.25-53.14,52.05a41.29,41.29,0,0,1-9.51-11.42l-.39-.52a45.66,45.66,0,0,1-12.57-31.82c24.56-29.15,51.06-30.63,51.33-30.64l.19-5.12c-20.09-2.36-39.93,5-59,21.91-5.84-10.52-5.51-16.91,11-31.9,19.23-17.47,39.36-10.79,52.68-6.37,1.15.38,2.26.75,3.31,1.08a24,24,0,0,0,8.7,1.41c29.68,6.21,49,24.34,51.62,48.53L476,1144.5l3.62-12.27c.11-.37,10-36-35.6-60.1,8.32-7.16,19.39-18.42,33.15-32.83,33-34.4,95.86-43.75,114.56-45.81a47.25,47.25,0,0,0,7.12-.66l5-.87-3.66-3.52a26.88,26.88,0,0,1-8.22-21.35c.22-1.71.4-2.94.4-3l0-.26v-.25c0-.18-.79-19.71,22.25-53.93l7.72-11.48L611,906.16c-1.18.83-28.49,20.37-31.85,56.73l-3.11.47c-51.73,11.12-110.93,27.12-111.52,27.28l-.43.16-5.69,2.7c-11.11,5.25-19.87,9.4-32.09,16.91-10.07,6.18-26.47,11-34.29,13.06l9.37-29.64L391.3,1009a233.18,233.18,0,0,1-24.47,30.9l-15.36-2.74C342.84,1035.65,336,1030.84,331.23,1022.9ZM277.82,705.79c39.54-12,61.74,21.46,62.67,22.89l4.41-2.61c-23.72-43.77-68.39-25.29-68.83-25.1Zm109.67,11.62a24.06,24.06,0,0,1-12.08-9.17c-1.39-2.08-2.5-4-3.47-5.71-2.32-4-4.32-7.51-8.47-10.12l-5.3-3.31.43-.31h-.93l-1.09-.68.29.68h-6.28a58.32,58.32,0,0,0-9.53,1c-2.14.34-4.18.67-6.11.8-12.58-9.68-25.15-13.69-37.37-11.94-18.38,2.63-29.06,17.32-29.51,18l3.93,3.28c20.1-20.5,48.42-10.59,55.23-5.64A46.24,46.24,0,0,0,332.58,705c.33.44.64.88,1,1.39,3.77,5.38,15.06,21.49,33.41,13.08a27,27,0,0,0,14.21,4.3,23.32,23.32,0,0,0,6.92-1.06l1.74-.54.12-1.85C390,718.37,388.38,717.74,387.49,717.41ZM711.16,341l-1.81,1.45,1.67-1.65c-1.24-1.26-30.72-30.59-60.35-18.86-18.07,7.16-32.73,18.23-46.9,28.94-8.43,6.37-17.14,13-26.53,18.69-22.75,13.9-65.11,39.77-70.3,140.9l5.12.36c.08-.85,8.18-85.39,49.33-110.07,31-18.59,34.32-21.33,42.37-27.94,3-2.47,6.75-5.55,13-10.27,5.55-4.21,10.67-8.47,15.19-12.23,13.92-11.59,24-20,34.43-18C681.3,335.13,697,342,725,366.39l3.69-3.54ZM725,401.48l15.91,13.08L728.68,398c-.71-1-17.6-23.6-36.51-23.6h-.25c-8.84.09-16.53,4.82-24.68,9.82-9.3,5.7-18.9,11.57-31,11l-11.35-.58a131.34,131.34,0,0,0,12-11.86c8.12-8.71,17.31-18.58,27.67-22.11,17.68-6,40-6.5,71.29,35.7l4.28-2.81c-1.06-1.84-26.45-45.18-58.94-48.75h0c-22.87-2.49-37.61,12.6-50.6,25.91-5.77,5.91-11.21,11.49-16.85,15a179.05,179.05,0,0,0-30.8,24l-8.5,8.26,11.15-4c1-.37,24.84-9,37-17.6l12.8,3.84c.79.23,19.45,5.68,37-2.59l-1.09-2.32v-.05h0l1.09,2.32c2.6-1.22,5-2.51,7.29-3.76C692.27,387,701.34,382.05,725,401.48ZM720.38,408c-.86-1.35-9.38-14.1-24-13.57-10.1.41-29.62,12.29-30.44,12.8l2.53,4.46c1.26-.66,31.17-15.76,58.37,13.72l4-3.26Zm38.34,84.59C735.07,450.21,712.16,454,706,456a38.49,38.49,0,0,0-29.53-8.58c-33,4-63.17,45.3-64.44,47.06l3.89,3.33c23.79-23.49,46-35.16,64.26-33.66,15.17,1.22,22.48,11,22.55,11.1l1.5,2,2.07-1.48c12-8.63,39.09,11.48,48.5,20l11.5,10.37Zm-12.93,7.58c-16.87-11.22-35.2-7.11-40.84-5.43-9.32-10.22-20.45-15.39-33.11-15.39h0c-35.34,0-70.21,40.12-71.68,41.83l-15.38,17.89,18.87-14.17c41.32-31,65.14-33,77.85-29.25,13.25,3.95,17.27,14.66,17.44,15.11l.76,2.1,2.19-.46c15.79-3.37,29.35-1,40.3,7,24.24,17.76,28.3,57.53,28.34,57.93l5.12-.34C774.17,538.23,764.13,512.38,745.79,500.18Zm31.62,122.65c-10.86-44.23-28-72-51-82.66a48.51,48.51,0,0,0-37.73-1.45c-12-13.77-26.33-21-42.56-21.47-39.56-1.2-76.51,37.8-78.06,39.46l-13.52,14.45,16.76-10.52c32.58-20.45,60.39-28,82.67-22.41,19.27,4.82,27,18.08,27.12,18.21l1.13,2,2.1-.89c47.54-20.28,87.88,66.11,88.28,67ZM622.68,556.22l11.94-.87c20.12-1.48,30,21.53,30.13,21.77l1,2.45,2.41-1.11c20-9.25,44.9,8.71,45.15,8.89l6.92,5.07-3-8c-8.63-23.16-34.34-23.3-40.12-23-24.46-21-43.14-11.26-43.93-10.83ZM766.62,717.56c.08.45.17.91.25,1.36l.17,0c.07.2.1.32.11.35l2.47-.71h0l.77-.23,1.53-.26,0-.17.19,0s-.16-.57-.47-1.52c-13.35-74.07-44.83-106.9-69-121.4-23.27-14-44-14.14-49.42-13.89-13.05-15.21-27.72-23.29-43.63-24-26.67-1.18-46.92,18.59-47.77,19.44l-9.24,9.19,12-5c47.2-19.62,72.54,20.07,72.79,20.47l.79,1.28,1.5-.06C725.12,598.65,761.9,702.94,766.62,717.56ZM621,648.08l1.18-.21c18.85-3.35,47.32-8.42,92,62.31l6.23,9.87-1.52-11.57c-.1-.76-10.67-75.26-82-88-4.74-5.15-34.12-33-98.58-11.83l1.49,4.91c.41-.12,40.38-10.84,79.13,17.49-3.68,2.16-10.26,5-15.13,1-9.21-7.45-42.43-9.74-46.19-10l-20-1.26,19,6.26a180.7,180.7,0,0,1,40.88,19.42C604.64,651,612.23,649.65,621,648.08Zm87.67,175.38c-5.35-37.66-27.22-129-114.54-163.31l-19.78-7.78,17.36,12.27c.34.23,33.71,24.1,63.41,69,27.35,41.39,57.1,109.67,43.51,200l-.25,1.64,2.77,1.82,1.4-.89c1.07-.68,1.19-.76,3-11.47,1-5.62,2.35-14.61,3.48-25.54,2-19.16,3.51-47.85-.45-75.72Zm4.14,217.79.35-19.22c.62-33.94-12-51.09-23.17-66.22-10.83-14.69-19.38-26.29-13.86-49.59,11.75-49.55-19.59-123.51-20.93-126.64L646,758.05l4.35,23c14.16,74.88,9.25,90.33,4.07,106.69l2.44.77v.07h0l-2.44-.77c-.43,1.34-.9,2.76-1.41,4.27-6.27,18.86-16.78,50.43,15.87,73.46a99.55,99.55,0,0,1,39.26,57.05Zm-136.92,49.43-22,3,22.1,2.14c.6.06,4.73.43,11,.43,18,0,53.87-3,76.3-25.18,14.52-14.33,20.82-34.24,18.74-59.18H677c0,.16-1.63,16.73-14.81,34.61C644.71,1070.14,614.88,1085.43,575.91,1090.68ZM338.28,821.62c1.25.88,24.65,17,49.41,17a47.23,47.23,0,0,0,20.67-4.49c20.85-10,32.74-36.51,35.34-78.66l-5.12-.37c0,.43-3.81,43-32.36,61.14-16.73,10.61-38.79,10.9-65.56.85l-19-7.11Zm73.89-33.4-4.44-2.57c-.83,1.27-20.92,30.73-64.15,11.69L325,789.17,341,801.71c.74.58,16.26,12.61,34.3,12.61a37.75,37.75,0,0,0,8.12-.86C395.29,810.84,405,802.35,412.17,788.22Zm3.6-51.8c-.09.24-9.14,23.88-33.23,34.05-18.16,7.68-40.14,5.95-65.31-5.13l-2.48,4.47c1.24.85,25.41,17.1,51.38,17.1a53.23,53.23,0,0,0,18.06-3c17.12-6.15,29.39-21.58,36.45-45.88Zm137.34-16.08-2,1.56,0-.19h0l2-1.56c-3.88-5.07-8.13-5.29-14.57-5.61-2.85-.15-6.39-.32-10.84-.93-5.78-.79-14.54-3.86-24-8.45l-4.4-2.12.74,4.83c.3,1.89.64,4.29.73,6l0,.57c.23,4,.53,9.46,3.92,14.19a20.4,20.4,0,0,1-13.4-11.06,59.93,59.93,0,0,1-5.09-20.9l-.07-1.3-1.1-.71c-3.08-2-6.07-4.05-8.88-6.13l-3-2.23-1,3.61a26.2,26.2,0,0,1-1.7,4.52c-3.75,7.86-3.08,20.16-1.94,28.79-4.31-6.06-9.09-14.68-7.76-21.66a58,58,0,0,0,0-25.29l-.19-.85-.67-.56c-14.48-12-24-16.14-27-16l-4.54.27,2.58,3.75c.08.11,8.06,11.72,13,20.35,2.54,4.44,3.6,10.88,4.05,15.83L442,692.25v6.91c0,7.89,3.53,18.17,6.36,25.13l-5.64-3.55.67,5.38c.87,6.93,4.34,13.74,10.33,20.24l.36.4.49.21c.86.38,1.71.74,2.56,1.08l-10.35-2.8,3.89,5.73c.54.79,13.5,19.38,42.57,21.87.81.07,1.64.1,2.46.1,23,0,47.61-26.66,55.43-40.91C554.19,726.43,554.84,722.6,553.11,720.34ZM489.42,968.17c2.89-.94,71-23.49,93.15-76.43,10.91-26.08,8.55-55-7-85.9l-1.06-2.13-2.22.9a2.6,2.6,0,0,0-1.37,3.47c2.05,6.2,8.24,28.64,2,56.92-8.78,39.94-37.55,73.06-85.53,98.45Zm-8.12-17c2.51-1.2,61.77-30,75.34-83.82,7.52-29.88-.72-61.47-24.5-93.9l-1.39-1.9-2,1.18c-1.35.82-1.57,2.15-.67,4,8.42,16.8,45.59,103.92-49.31,170.07Zm-52,32.44a35.16,35.16,0,0,0,7.3-.76C472,975.4,497.69,913.2,513.11,798l-5.06-.85c-.3,1.46-30.43,146.5-84.26,161.52-15.25,4.25-31.37-2.68-47.91-20.6l-4.07,3.08C373,943,398.28,983.64,429.34,983.64ZM359.61,879c.76,1.26,17.84,29.22,42.74,29.22a33.85,33.85,0,0,0,4.23-.27c27.59-3.51,52.2-41.29,73.16-112.27l-4.88-1.58c-.28.8-28.25,79.73-70.39,92-13.55,3.94-27.37.44-41.06-10.4l-11-8.74Zm-59.1-229a1,1,0,0,0,.62-.4l.36-.52-.44-.6a.92.92,0,0,0-.42-.34.94.94,0,0,0-1.07.37,1,1,0,0,0,.95,1.49Z"/><path class="cls-1" d="M205.54,989.73a28.38,28.38,0,0,0-20.19-8.38H61.87a23.27,23.27,0,1,1,0-46.54h56a2.63,2.63,0,0,0,1.87-.77,2.68,2.68,0,0,0,.77-1.87,2.64,2.64,0,0,0-2.64-2.64H32.51a28.56,28.56,0,1,0,0,57.11H156a23.28,23.28,0,0,1,0,46.55H84.17a2.64,2.64,0,1,0,0,5.28H185.34a28.55,28.55,0,0,0,20.2-48.74Zm-25.28,5.21a28.7,28.7,0,0,0-7.87-8.3h12.93a23.28,23.28,0,0,1,0,46.55H172.39A28.44,28.44,0,0,0,180.26,994.94ZM37.57,973a28.51,28.51,0,0,0,7.88,8.31H32.51a23.27,23.27,0,1,1,0-46.54H45.44A28.43,28.43,0,0,0,37.57,973Z"/><path class="cls-1" d="M209.71,85.22H359.34V80.81H150.27a28.44,28.44,0,0,0,0,56.87H277a24,24,0,0,1,0,48H28.43a28.43,28.43,0,0,0,0,56.86H171.91a24,24,0,0,1,24,24,2.2,2.2,0,0,0,2.2,2.21h0a2.19,2.19,0,0,0,2.19-2.21,28.46,28.46,0,0,0-28.43-28.42h-84a24,24,0,1,1,0-48H306.73a28.43,28.43,0,1,0,0-56.86H208.86a24,24,0,0,1,.85-48.05Zm-181.28,153a24,24,0,0,1,0-48H43a28.39,28.39,0,0,0,0,48Zm31-24a28.39,28.39,0,0,0,13.26,24H58.14a24,24,0,0,1,0-48H72.69A28.39,28.39,0,0,0,59.43,214.16Zm247.3-76.48a24,24,0,0,1,0,48H292.19a28.39,28.39,0,0,0,0-48Zm-156.46-4.41a24,24,0,0,1,0-48.05h15a28.38,28.38,0,0,0,0,48.05Zm30.54-23.56A28.42,28.42,0,0,0,194,133.27H180a24,24,0,0,1,0-48.05h14.07A28.39,28.39,0,0,0,180.81,109.71Z"/><path class="cls-1" d="M471.18,1346.58H346.35v3.68H520.76a23.72,23.72,0,0,0,0-47.44H415a20,20,0,0,1,0-40.08H622.4a23.72,23.72,0,0,0,0-47.44H502.71a20,20,0,0,1-20-20,1.84,1.84,0,0,0-1.84-1.84h0a1.84,1.84,0,0,0-1.83,1.84A23.74,23.74,0,0,0,502.71,1219h70.12a20,20,0,0,1,0,40.08H390.24a23.72,23.72,0,0,0,0,47.44h81.65a20,20,0,0,1-.71,40.08ZM622.4,1219a20,20,0,1,1,0,40.08H610.27a23.67,23.67,0,0,0,0-40.08Zm-25.86,20a23.69,23.69,0,0,0-11.06-20h12.14a20,20,0,0,1,0,40.08H585.48A23.69,23.69,0,0,0,596.54,1239Zm-206.3,63.8a20,20,0,0,1,0-40.08h12.13a23.69,23.69,0,0,0,0,40.08Zm130.52,3.68a20,20,0,0,1,0,40.08H508.24a23.68,23.68,0,0,0,0-40.08Zm-25.47,19.65a23.71,23.71,0,0,0-11-19.65H496a20,20,0,0,1,0,40.08H484.22A23.68,23.68,0,0,0,495.29,1326.15Z"/></g></g></svg>